<svg viewBox="0 0 330 200" xmlns="http://www.w3.org/2000/svg"><g><g><g><g><g><line x1="41.171875" y1="177" x2="36.171875" y2="177" style="visibility: inherit;" fill="rgb(0, 0, 0)" stroke="rgb(204, 204, 204)" stroke-width="1px"></line><line x1="41.171875" y1="159.29999999999998" x2="36.171875" y2="159.29999999999998" style="visibility: inherit;" fill="rgb(0, 0, 0)" stroke="rgb(204, 204, 204)" stroke-width="1px"></line><line x1="41.171875" y1="141.6" x2="36.171875" y2="141.6" style="visibility: inherit;" fill="rgb(0, 0, 0)" stroke="rgb(204, 204, 204)" stroke-width="1px"></line><line x1="41.171875" y1="123.89999999999999" x2="36.171875" y2="123.89999999999999" style="visibility: inherit;" fill="rgb(0, 0, 0)" stroke="rgb(204, 204, 204)" stroke-width="1px"></line><line x1="41.171875" y1="106.20000000000002" x2="36.171875" y2="106.20000000000002" style="visibility: inherit;" fill="rgb(0, 0, 0)" stroke="rgb(204, 204, 204)" stroke-width="1px"></line><line x1="41.171875" y1="88.5" x2="36.171875" y2="88.5" style="visibility: inherit;" fill="rgb(0, 0, 0)" stroke="rgb(204, 204, 204)" stroke-width="1px"></line><line x1="41.171875" y1="70.79999999999998" x2="36.171875" y2="70.79999999999998" style="visibility: inherit;" fill="rgb(0, 0, 0)" stroke="rgb(204, 204, 204)" stroke-width="1px"></line><line x1="41.171875" y1="53.10000000000001" x2="36.171875" y2="53.10000000000001" style="visibility: inherit;" fill="rgb(0, 0, 0)" stroke="rgb(204, 204, 204)" stroke-width="1px"></line><line x1="41.171875" y1="35.39999999999999" x2="36.171875" y2="35.39999999999999" style="visibility: inherit;" fill="rgb(0, 0, 0)" stroke="rgb(204, 204, 204)" stroke-width="1px"></line><line x1="41.171875" y1="17.700000000000017" x2="36.171875" y2="17.700000000000017" style="visibility: inherit;" fill="rgb(0, 0, 0)" stroke="rgb(204, 204, 204)" stroke-width="1px"></line><line x1="41.171875" y1="0" x2="36.171875" y2="0" style="visibility: inherit;" fill="rgb(0, 0, 0)" stroke="rgb(204, 204, 204)" stroke-width="1px"></line></g><g transform="translate(31.171875, 0)"><text x="0" y="177" dx="0em" dy="0.3em" style="text-anchor: end; visibility: hidden; font-family: Roboto, sans-serif; font-size: 12px; font-weight: 200;" fill="rgb(33, 33, 33)" stroke="none" stroke-width="1px">0.6</text><text x="0" y="159.29999999999998" dx="0em" dy="0.3em" style="text-anchor: end; visibility: inherit; font-family: Roboto, sans-serif; font-size: 12px; font-weight: 200;" fill="rgb(33, 33, 33)" stroke="none" stroke-width="1px">0.8</text><text x="0" y="141.6" dx="0em" dy="0.3em" style="text-anchor: end; visibility: hidden; font-family: Roboto, sans-serif; font-size: 12px; font-weight: 200;" fill="rgb(33, 33, 33)" stroke="none" stroke-width="1px">1</text><text x="0" y="123.89999999999999" dx="0em" dy="0.3em" style="text-anchor: end; visibility: inherit; font-family: Roboto, sans-serif; font-size: 12px; font-weight: 200;" fill="rgb(33, 33, 33)" stroke="none" stroke-width="1px">1.2</text><text x="0" y="106.20000000000002" dx="0em" dy="0.3em" style="text-anchor: end; visibility: hidden; font-family: Roboto, sans-serif; font-size: 12px; font-weight: 200;" fill="rgb(33, 33, 33)" stroke="none" stroke-width="1px">1.4</text><text x="0" y="88.5" dx="0em" dy="0.3em" style="text-anchor: end; visibility: inherit; font-family: Roboto, sans-serif; font-size: 12px; font-weight: 200;" fill="rgb(33, 33, 33)" stroke="none" stroke-width="1px">1.6</text><text x="0" y="70.79999999999998" dx="0em" dy="0.3em" style="text-anchor: end; visibility: hidden; font-family: Roboto, sans-serif; font-size: 12px; font-weight: 200;" fill="rgb(33, 33, 33)" stroke="none" stroke-width="1px">1.8</text><text x="0" y="53.10000000000001" dx="0em" dy="0.3em" style="text-anchor: end; visibility: inherit; font-family: Roboto, sans-serif; font-size: 12px; font-weight: 200;" fill="rgb(33, 33, 33)" stroke="none" stroke-width="1px">2</text><text x="0" y="35.39999999999999" dx="0em" dy="0.3em" style="text-anchor: end; visibility: hidden; font-family: Roboto, sans-serif; font-size: 12px; font-weight: 200;" fill="rgb(33, 33, 33)" stroke="none" stroke-width="1px">2.2</text><text x="0" y="17.700000000000017" dx="0em" dy="0.3em" style="text-anchor: end; visibility: inherit; font-family: Roboto, sans-serif; font-size: 12px; font-weight: 200;" fill="rgb(33, 33, 33)" stroke="none" stroke-width="1px">2.4</text><text x="0" y="0" dx="0em" dy="0.3em" style="text-anchor: end; visibility: hidden; font-family: Roboto, sans-serif; font-size: 12px; font-weight: 200;" fill="rgb(33, 33, 33)" stroke="none" stroke-width="1px">2.6</text></g><line x1="41.171875" y1="0" x2="41.171875" y2="177" fill="rgb(0, 0, 0)" stroke="rgb(204, 204, 204)" stroke-width="1px"></line></g></g><g transform="translate(41, 0)" clip-path="url(#clip_0)"><clipPath id="clip_0"><rect width="288" height="177"></rect></clipPath><g><g><g><line x1="0" y1="0" x2="0" y2="177" fill="rgb(0, 0, 0)" stroke="rgb(66, 66, 66)" stroke-width="1px" opacity="0.25"></line><line x1="20.630580357142858" y1="0" x2="20.630580357142858" y2="177" fill="rgb(0, 0, 0)" stroke="rgb(66, 66, 66)" stroke-width="1px" opacity="0.25"></line><line x1="41.261160714285715" y1="0" x2="41.261160714285715" y2="177" fill="rgb(0, 0, 0)" stroke="rgb(66, 66, 66)" stroke-width="1px" opacity="0.25"></line><line x1="61.89174107142857" y1="0" x2="61.89174107142857" y2="177" fill="rgb(0, 0, 0)" stroke="rgb(66, 66, 66)" stroke-width="1px" opacity="0.25"></line><line x1="82.52232142857143" y1="0" x2="82.52232142857143" y2="177" fill="rgb(0, 0, 0)" stroke="rgb(66, 66, 66)" stroke-width="1px" opacity="0.25"></line><line x1="103.15290178571429" y1="0" x2="103.15290178571429" y2="177" fill="rgb(0, 0, 0)" stroke="rgb(66, 66, 66)" stroke-width="1px" opacity="0.25"></line><line x1="123.78348214285714" y1="0" x2="123.78348214285714" y2="177" fill="rgb(0, 0, 0)" stroke="rgb(66, 66, 66)" stroke-width="1px" opacity="0.25"></line><line x1="144.4140625" y1="0" x2="144.4140625" y2="177" fill="rgb(0, 0, 0)" stroke="rgb(66, 66, 66)" stroke-width="1px" opacity="0.25"></line><line x1="165.04464285714286" y1="0" x2="165.04464285714286" y2="177" fill="rgb(0, 0, 0)" stroke="rgb(66, 66, 66)" stroke-width="1px" opacity="0.25"></line><line x1="185.67522321428572" y1="0" x2="185.67522321428572" y2="177" fill="rgb(0, 0, 0)" stroke="rgb(66, 66, 66)" stroke-width="1px" opacity="0.25"></line><line x1="206.30580357142858" y1="0" x2="206.30580357142858" y2="177" fill="rgb(0, 0, 0)" stroke="rgb(66, 66, 66)" stroke-width="1px" opacity="0.25"></line><line x1="226.93638392857142" y1="0" x2="226.93638392857142" y2="177" fill="rgb(0, 0, 0)" stroke="rgb(66, 66, 66)" stroke-width="1px" opacity="0.25"></line><line x1="247.56696428571428" y1="0" x2="247.56696428571428" y2="177" fill="rgb(0, 0, 0)" stroke="rgb(66, 66, 66)" stroke-width="1px" opacity="0.25"></line><line x1="268.19754464285717" y1="0" x2="268.19754464285717" y2="177" fill="rgb(0, 0, 0)" stroke="rgb(66, 66, 66)" stroke-width="1px" opacity="0.25"></line><line x1="288.828125" y1="0" x2="288.828125" y2="177" fill="rgb(0, 0, 0)" stroke="rgb(66, 66, 66)" stroke-width="1px" opacity="0.25"></line></g><g><line x1="0" y1="177" x2="288.828125" y2="177" fill="rgb(0, 0, 0)" stroke="rgb(66, 66, 66)" stroke-width="1px" opacity="0.25"></line><line x1="0" y1="159.29999999999998" x2="288.828125" y2="159.29999999999998" fill="rgb(0, 0, 0)" stroke="rgb(66, 66, 66)" stroke-width="1px" opacity="0.25"></line><line x1="0" y1="141.6" x2="288.828125" y2="141.6" fill="rgb(0, 0, 0)" stroke="rgb(66, 66, 66)" stroke-width="1px" opacity="0.25"></line><line x1="0" y1="123.89999999999999" x2="288.828125" y2="123.89999999999999" fill="rgb(0, 0, 0)" stroke="rgb(66, 66, 66)" stroke-width="1px" opacity="0.25"></line><line x1="0" y1="106.20000000000002" x2="288.828125" y2="106.20000000000002" fill="rgb(0, 0, 0)" stroke="rgb(66, 66, 66)" stroke-width="1px" opacity="0.25"></line><line x1="0" y1="88.5" x2="288.828125" y2="88.5" fill="rgb(0, 0, 0)" stroke="rgb(66, 66, 66)" stroke-width="1px" opacity="0.25"></line><line x1="0" y1="70.79999999999998" x2="288.828125" y2="70.79999999999998" fill="rgb(0, 0, 0)" stroke="rgb(66, 66, 66)" stroke-width="1px" opacity="0.25"></line><line x1="0" y1="53.10000000000001" x2="288.828125" y2="53.10000000000001" fill="rgb(0, 0, 0)" stroke="rgb(66, 66, 66)" stroke-width="1px" opacity="0.25"></line><line x1="0" y1="35.39999999999999" x2="288.828125" y2="35.39999999999999" fill="rgb(0, 0, 0)" stroke="rgb(66, 66, 66)" stroke-width="1px" opacity="0.25"></line><line x1="0" y1="17.700000000000017" x2="288.828125" y2="17.700000000000017" fill="rgb(0, 0, 0)" stroke="rgb(66, 66, 66)" stroke-width="1px" opacity="0.25"></line><line x1="0" y1="0" x2="288.828125" y2="0" fill="rgb(0, 0, 0)" stroke="rgb(66, 66, 66)" stroke-width="1px" opacity="0.25"></line></g></g></g><g><g><line x1="0" y1="230.1" x2="288.828125" y2="230.1" fill="rgb(0, 0, 0)" stroke="rgb(153, 153, 153)" stroke-width="1.5px"></line></g></g><g><g><line x1="20.630580357142858" y1="0" x2="20.630580357142858" y2="177" fill="rgb(0, 0, 0)" stroke="rgb(153, 153, 153)" stroke-width="1.5px"></line></g></g><g><g><g><g><g><path stroke="rgb(0, 119, 187)" stroke-width="2px" d="M21.34027232142857,8.065204954147347L21.63735267857143,39.88019455075265L21.69924441964286,48.22385986775766L22.289279017857144,47.473161834828986L22.54922433035714,64.18000441221297L22.734899553571427,68.94190864658542L22.85043080357143,72.22252033606556L22.924700892857143,70.62423098366605L23.089745535714286,77.92370104498643L23.345564732142858,83.82840925174794L23.782933035714287,94.30087153595696L23.94797767857143,97.15822349635015L24.203796875,97.15955804273983L24.86397544642857,99.51322747145018L24.909362723214286,103.063802687367L25.2724609375,105.58298707684263L25.30134375,106.72818205703409L25.433379464285714,111.29513709778449L25.515901785714284,111.9168406446816L25.79647767857143,112.75095043208114L25.874873883928572,115.35713033578055L26.477286830357144,110.11683406376395L26.646457589285713,110.70493528572781L26.794997767857144,110.623395937126L26.861015625,115.61556599923843L27.017808035714285,117.33651538673078L27.087952008928575,111.88727373287897L27.52119419642857,108.00797019677918L28.635245535714287,113.70468030470407L28.717767857142857,110.85636607917355L30.681799107142854,109.8657543687052L30.7024296875,106.03537888250048L30.789078125,104.63905834039892L30.958248883928572,104.85781282384616L31.263581473214284,98.58409632745538L31.535905133928573,94.59700782897235L31.705075892857145,93.69602571288755L31.742210937499998,100.78812428223002L31.80410267857143,97.93197639727192L31.841237723214284,89.48787572652009L32.05166964285714,92.38996520912895L32.8975234375,94.29386647838334L33.35139620535714,86.04646388470205L33.43804464285714,112.1797125991502L33.44217075892857,97.15670469225168L33.607215401785716,88.55749049860682L33.90429575892857,87.05808537881991L34.003322544642856,86.72465777444938L34.10234933035714,85.21442350414209L34.47782589285714,83.24703511633959L35.071986607142854,77.88551859518365L35.344310267857146,84.26722137250657L35.48459821428572,93.23818878245818L35.55061607142857,86.26300503201034L35.70740848214286,88.64422011248466L35.765174107142855,90.43072151107972L35.777552455357146,91.55511926033158L35.94672321428572,94.41133368502929L36.23555133928571,96.19219846064387L36.507875000000006,87.78638389667555L36.784324776785716,88.90434861994198L37.22994531249999,84.55165845880748L37.584791294642855,89.58266185003427L37.6343046875,99.23749788211538L37.881871651785715,96.07934716943947L37.927258928571426,99.3926144242528L38.07167299107143,104.92506993056796L38.44714955357143,111.03379606390871L38.48841071428571,113.81646753302144L39.359021205357145,108.63081795782404L39.46217410714286,95.05585296875569L39.81289397321429,99.52513874963722L39.98206473214286,90.6559636342275L40.567973214285715,99.86345529483249L40.584477678571425,101.29250766233497L40.77427901785714,104.01530115482743L41.63251116071429,100.16865009711707L41.805808035714286,100.41898918775631L41.8223125,102.55653828995176L42.03274441964285,106.44331961284128L42.08638392857143,101.42615859395295L42.18953683035714,105.42759658745544L42.342203125000005,102.9406214729048L42.478364955357144,107.19788618177752L42.754814732142854,108.92106784397711L42.923985491071434,107.42984592565507L43.134417410714285,108.09480694561368L44.013280133928575,111.2763181330512L44.69408928571429,116.10483374844492L44.83437723214286,104.74211121231613L44.88801674107143,104.6073976458925L45.20572767857143,108.62874726902355L45.30888058035715,114.67138921529596L45.37489843749999,114.54918452328768L45.6059609375,123.04710058347179L45.84527566964286,109.50208322033761L45.95668080357143,113.7290769709675L45.97318526785715,100.96186688742213L46.31565290178572,95.8332043266366L46.53846316964286,103.43374748325766L46.757147321428576,101.52460146961462L46.76539955357143,101.28500206123503L46.864426339285714,105.80201853067108L46.86855245535714,106.24931196660059L46.909813616071425,113.12097641641054L47.735036830357146,112.18178751000256L47.8010546875,116.25587399201684L47.82168526785714,115.5398430931395L47.858820312499994,114.35213794397269L48.39934151785714,121.23025999359461L48.48186383928571,117.59284444029434L48.696421875,104.3835373030621L48.89447544642857,107.85531072297799L49.17917745535714,99.06711713599628L49.4762578125,103.19561688022294L49.49688839285714,101.91822971294212L49.736203124999996,98.79072356098824L50.557300223214284,110.57066646977623L51.31237946428571,115.18518658974386L51.427910714285716,112.24964517890582L51.44441517857143,111.58508797251685L51.75387388392857,117.12033175327483L52.00556696428571,112.2782253819591L52.17061160714285,121.51313787924566L52.513079241071424,114.79224198238441L52.525457589285715,115.11609132037395L52.63273660714286,105.91386335698267L52.78952901785715,110.25685212616621L52.90093415178571,114.29968922140898L53.041222098214284,115.26894404412926L53.58174330357143,115.32030346585287L54.14289508928571,115.44330521221741L54.84020870535714,114.2282142770039L55.90062053571429,109.16793675254266L55.92537723214286,120.95723946947149L56.18944866071429,111.28806680714064L56.35861941964286,118.9596884052454L56.503033482142854,116.7293529534637L56.62681696428571,114.51103507663602L56.74234821428571,114.68827973357315L56.841375,113.17150140375777L56.84962723214286,117.61838960034181L57.03530245535715,116.57461117376407L57.076563616071425,118.12876783054782L57.22922991071429,113.71653199578351L57.25811272321428,109.08191236725465L58.00493973214286,106.36764792961489L58.26488504464285,108.68940579153664L58.39279464285715,115.85699823890666L58.805406250000004,117.3014263975295L58.96632477678572,117.54093933747245L59.11486495535714,114.38426679996275L59.24690066964286,117.77449505941641L59.985475446428566,119.26462223420486L60.022610491071426,112.2568374674913L60.534248883928576,120.19490447291115L60.70341964285714,121.23512294917333L60.872590401785715,122.60325847523823L60.87671651785715,129.6904224923695L61.21918415178571,123.91887058087855L61.34296763392857,121.21338460247915L61.454372767857144,123.91787245155098L61.549273437500005,119.24800024438333L61.677183035714286,125.7405493522193L61.68130915178572,131.46808593896068L61.7803359375,125.99693303005121L61.80509263392857,123.39659983573092L61.86285825892857,125.1548502985104L62.15168638392857,123.97336890598918L62.26309151785715,116.62201734006872L62.39100111607143,109.75466750872417L62.461145089285715,114.40292115934062L62.67982924107143,118.68271385626417L62.74997321428572,115.66904118893396L62.77885602678572,120.49235783599526L63.302872767857146,118.25955191244311L63.31525111607143,123.77162242764011L63.521556919642855,122.16479525109395L63.72786272321429,120.48404438221615L63.781502232142856,115.41939309432603L63.95892522321429,117.27593496796189L64.02906919642858,116.92874110792098L64.2064921875,110.41125836046945L64.54483370535715,121.07214699073083L64.5530859375,128.6461385982242L64.80890513392858,133.33149451834004L64.87904910714286,134.89833718074587L66.11275781249999,125.81214907129541L66.16639732142858,120.7436552093025L66.2406674107143,117.97049147400831L66.40571205357142,123.35859516211492L66.50473883928571,121.7846984943637L66.52949553571429,116.348667473846L66.89259375,124.63828074649176L66.91735044642857,128.97162438699723L67.3836015625,121.43846936028672L67.643546875,120.49800473094865L67.70543861607143,125.71515495801499L67.8457265625,131.8071190454038L69.260984375,126.55617560013962L69.39714620535715,124.35574452558059L69.51267745535714,127.04765507506666L69.59519977678572,132.0025248487433L70.2553783482143,131.69619177577735L70.45755803571429,129.39913388012553L70.86604352678572,118.9467196125907L70.88254799107143,114.73709141606821L71.11361049107143,124.4177576172038L71.39006026785714,131.32247976706526L71.44782589285714,122.399555865801L71.60461830357143,124.30347824566164L71.78616741071428,121.40065357013106L71.79441964285715,126.80318476750588L71.94708593749999,125.48920393225036L72.10800446428571,122.21187953136257L72.42984151785714,123.54014708031352L72.62376897321428,123.42902078526696L73.06526339285715,132.89323077617576L73.86160379464286,135.23216414701037L73.87810825892858,135.5456435838407L74.03902678571428,130.9414258956352L74.15455803571429,133.88699741360182L74.17106249999999,120.60189791677378L75.52442857142857,121.28605105017411L75.71010379464286,135.1540372129368L75.87102232142857,132.38673877692742L75.99480580357142,136.9967843555005L76.14747209821428,130.1711894573326L76.423921875,122.43922723183363L76.53945312500001,126.66531788855394L76.84065959821429,121.15131806105137L76.91905580357144,125.22511468630886L76.93968638392857,131.36853847921998L77.579234375,134.18587439311213L77.77316183035714,131.854729887561L78.27654799107142,136.18549011988404L78.31368303571428,132.68298662449692L78.42096205357143,140.531391853963L78.58600669642857,131.5416743629424L79.1265279017857,120.94279211242485L79.17191517857142,125.92652161049539L79.24618526785713,130.29176901297384L79.46074330357142,134.4209547812737L79.48962611607142,131.62135361522417L79.85685044642857,129.57535522752988L79.88573325892857,119.63962867244474L80.06728236607142,133.07588541975255L80.12504799107143,131.89944085401675L80.60367745535714,130.004312320485L80.96677566964286,115.75064589258092L81.05755022321428,110.48031737849745L81.47016183035714,114.1324386408665L81.77549441964287,124.56697962586512L81.90753013392857,126.38485779943723L81.96116964285714,127.72112169851457L82.21286272321429,123.30521467560288L82.60071763392857,125.65209342022989L82.79051897321429,125.44632892239247L82.81114955357143,130.55972818629832L82.97619419642858,125.29912029800944L83.03395982142857,135.40579816995938L83.09172544642857,131.06061923324395L83.1536171875,134.8675961626728L83.28565290178572,131.67562875587697L83.34341852678571,124.15252919101093L83.90044419642857,124.56240275802239L84.05311049107144,129.84904306949392L84.54411830357142,128.37062392366656L85.03925223214286,130.67926275809245L85.15478348214286,129.60501224088455L85.65816964285715,121.0030486624705L85.79433147321429,124.57872363813323L85.90573660714286,124.77418913416624L86.78047321428572,126.0368758939061L86.96202232142858,127.1944772685977L87.13119308035715,131.1207082107909L87.4117689732143,135.37441685648247L87.41589508928571,137.83256538660217L87.64283147321429,134.23317660302456L87.93991183035713,130.62861230260452L88.265875,133.69107602051687L88.4102890625,128.18254430539486L89.66462834821428,126.7694662442629L90.08961830357143,132.218476073195L90.22165401785715,135.5629770280418L90.27941964285714,136.08293894299848L90.29179799107143,131.08469749551404L90.39082477678572,129.25034002936715L90.55586941964286,133.61700865552922L91.2696875,135.63000797823724L91.29444419642857,133.2475759625176L91.2985703125,122.82918140171405L91.85972209821428,118.2769809679892L92.40024330357143,132.27280518750584L92.55290959821428,132.15121593320512L93.09755691964286,126.66400368597591L93.38225892857143,129.09666272393753L93.61332142857142,130.37122341866427L93.65045647321429,125.9979471401878L93.79074441964285,127.87243062713789L94.40966183035715,124.51263969456582L94.92130022321427,126.34636270830292L95.39992968749999,123.79568117993628L95.43293861607143,122.41726854167914L95.44944308035714,130.4374821729811L95.46594754464286,127.65043785496664L96.57174665178572,131.15217421486443L96.83169196428571,125.38345234653036L96.8853314732143,131.72180139697002L96.92246651785715,135.37050198362118L97.05450223214287,127.51450188902525L98.03239174107144,121.18068429438776L98.0571484375,129.63472762708966L98.11904017857142,129.38111632707776L98.18093191964286,122.16698417689243L98.63067857142858,117.74523425117637L98.98965066964286,123.787482991311L99.47653236607144,122.08679704576315L99.49303683035716,126.70211867755403L99.88914397321427,131.1607204596147L100.17384598214285,128.4554040050474L100.34301674107144,133.68422140216632L100.58233147321428,135.191714882468L100.7019888392857,140.22379318691182L100.75975446428572,139.47718445191916L101.08159151785713,136.1812618382581L101.09396986607143,132.8010828285103L101.27964508928571,129.60810949973373L101.57259933035715,129.31918955428665L101.725265625,135.06174561371367L102.49684933035714,136.7851527177689L102.5793716517857,134.05115951796756L102.71965959821429,132.9397417074465L102.78567745535715,139.25752472913405L102.83106473214285,140.01920300982079L103.09513616071428,143.37958872712662L103.14877566964284,135.45884715793733L104.43612388392857,130.1574972252739L104.64655580357143,132.50001208905533L104.77859151785715,140.0140977580795L104.8157265625,134.83655696627196L104.89412276785716,132.06422765205323L104.96839285714286,132.4023127409817L105.18707700892857,128.28108952599771L105.537796875,132.57277658318287L105.55017522321428,139.1667880960393L105.70284151785714,135.3072891824298L105.81837276785714,137.1248310823949L105.89264285714286,133.1936174309082L105.90089508928571,129.59150583242337L106.28875,133.4710887020526L106.6229654017857,129.7806880227147L107.07683816964285,133.77338011213652L107.14698214285714,133.80879927604505L107.19236941964286,130.86220295029347L107.27901785714286,133.5570564341394L107.42755803571428,141.41088840436026L107.49357589285715,144.73597361726215L107.81128683035715,138.1784256487051L108.24040290178571,136.22378153973577L108.38069084821429,135.32269612415882L108.56223995535714,131.61106270470768L108.888203125,129.3430050868902L109.68041741071428,129.53026810283143L109.7258046875,136.22875996467278L109.74643526785714,137.10542549155238L110.06827232142858,143.53679758228114L110.07652455357143,138.0545320768192L110.62942410714287,128.56441414946525L111.66507924107142,133.35251199599628L111.76410602678571,129.13148518679455L112.00754687499999,133.79621657537172L112.07356473214286,141.83478719715325L112.6718515625,146.29761888458756L112.96480580357142,138.05383582278748L112.97305803571427,131.5338656053821L113.12572433035714,124.71767760431048L114.30166741071427,127.70838005253839L114.52447767857143,131.91475179975728L114.62763058035715,135.70152221671043L115.20528683035715,136.06849523157658L115.82420424107143,141.75373820168244L115.9191049107143,140.10408057035485L115.96861830357143,142.57322468555856L116.89286830357142,140.09157846329742L117.206453125,136.7691150448211L117.21057924107143,131.88533605226803L117.59430803571429,122.75167252712804L117.96153236607144,131.2537373452983L117.96978459821429,129.63771595892916L118.19259486607142,131.98010533295636L118.20497321428572,131.93229450966456L119.94619419642856,131.38212042203867L121.21703794642856,138.0127939674337L121.59251450892857,133.39911237556214L121.60901897321429,134.26153739451453L121.68741517857143,135.6765081081336L122.15779241071428,142.09065463742883L122.56215178571428,139.6735878050403L122.6199174107143,138.18105899692037L122.78496205357143,135.3516762363938L123.07379017857143,132.77368943381472L123.13568191964286,136.48629016213513L123.26771763392857,137.2563945825869L123.29660044642858,138.73808733320084L123.52766294642856,144.10293088016417L123.6184375,139.91507792507116L123.74634709821429,146.64833591243328L124.00216629464286,141.9365557209295L124.24560714285715,140.19364163968814L124.81088504464286,134.35577352102908L125.42567633928572,139.88421762976833L125.61547767857142,138.51266436215514L126.46133147321429,141.55915135643644L126.68414174107143,144.36778415979006L126.72540290178571,139.29879958713684L126.73365513392856,138.44956840088747L126.90695200892857,140.59082824832666L127.142140625,140.16023073939365L127.56713058035713,140.21597171275545L127.61664397321428,137.35627528934913L128.3098314732143,141.78084250276825L128.34696651785714,139.1165887259575L128.54089397321428,135.93718316454485L128.99476674107143,132.294668869369L129.106171875,133.52437125455904L129.15981138392857,136.46943455464583L129.46514397321428,138.77734262899722L129.64669308035715,130.78841391537287L130.5750691964286,132.98063567718086L130.76899665178573,133.6374490132345L131.0165636160714,133.2513164586075L131.2723828125,128.55038169302034L131.27650892857142,136.5978691558688L131.91193080357144,139.32852560404834L132.09347991071428,136.8142915041679L132.1553716517857,136.25029452511274L132.46483035714286,137.99944187562826L132.5432265625,132.49812614775396L132.6133705357143,134.45953582678257L133.3065580357143,135.42690039488087L133.54999888392857,140.46621213681942L133.8594575892857,144.11391106085446L133.8718359375,143.02853782913965L133.90897098214288,142.6610693951957L134.18542075892856,132.27850107315263L134.25143861607143,139.7540148518269L134.61866294642857,142.49560280214456L134.72181584821428,144.6677908180398L135.3035982142857,134.66003877629294L135.4727689732143,132.04647272294434L135.72446205357144,132.39160914341016L136.18658705357143,136.05331262063623L136.34750558035714,134.22473744458938L136.58269419642858,125.86621889058938L137.65961049107142,130.1792389809143L138.02683482142857,136.25405489796705L138.05984375,138.35858846780246L138.28678013392857,148.1144266812598L138.69939174107142,143.34079104236335L139.43796651785715,140.23412373049L139.68553348214286,146.53503022660578L139.80106473214286,143.31322059911346L140.1724151785714,139.1340308921448L140.22192857142858,144.6648658857889L140.80783705357143,141.9336086145727L141.35661049107142,140.2038413209729L141.5670424107143,133.2754351713069L141.95489732142858,136.50568577395723L142.06630245535715,140.9118365713766L142.30974330357142,140.18656738452975L142.61920200892857,137.13037103565253L142.84613839285714,138.5761402639849L142.91215625,142.29453849989793L143.0565703125,138.23717345356116L143.08132700892855,136.63990290140612L143.52282142857143,143.97437069163027L143.55170424107143,145.5312781318742L143.6218482142857,142.49536909012306L143.71674888392857,141.71412336676306L143.78689285714287,144.6903168573915L143.89417187499998,145.33142096131678L144.30678348214286,140.59084258514423L144.40993638392857,142.43999784253705L144.64099888392857,142.31341875471273L144.6905122767857,139.66363937424182L144.74415178571428,141.6529448221121L145.4703482142857,139.8660898703333L145.4868526785714,137.00100063908076L145.65189732142858,139.61853369491087L145.78805915178572,138.51589314232342L145.85407700892856,135.09822947078987L147.26108258928573,140.7594463508966L147.31472209821428,139.18323153982416L147.51277566964285,139.3853155203453L148.0945580357143,134.75015595363325L148.20596316964284,132.66461895231453L148.3710078125,130.91125073864487L148.40401674107142,135.0666194512512L148.56493526785715,137.8456618782321L149.54695089285713,139.72826980569596L149.83577901785713,142.19418265473027L150.0915982142857,139.92786271841035L150.23188616071428,138.3038306824607L150.47532700892856,142.89239592744366L151.0447310267857,145.3617099392024L151.13550558035715,143.4133215729956L151.26341517857142,137.1863716259339L151.41195535714283,141.90728296367755L151.42845982142856,144.1789927001502L151.46146875,146.8184192988697L151.7214140625,143.41756538471122L152.26193526785715,135.85187984896032L152.327953125,128.5462358462353L152.38571875,130.76377040788765L152.4723671875,139.63895378735802L152.56726785714284,137.28907885925256L152.6415379464286,138.69078121886423L152.72406026785714,138.68082096997364L153.3801127232143,138.8404379679171L153.714328125,140.9006855865364L154.75823549107142,145.4730571043518L154.81600111607142,141.73977712226073L155.0140546875,140.98807965417004L155.20798214285716,142.21394499003466L155.74437723214285,137.23324276363599L156.01257477678573,139.78427301499693L156.06621428571427,139.75321570070653L156.07034040178573,142.76526084799806L156.3880513392857,139.98387397324586L156.65212276785715,140.60387336847512L156.84192410714286,145.99768353722888L157.5557421875,139.92753348125456L157.9435970982143,135.02756008966827L158.47586607142858,135.72155649580995L158.5501361607143,135.90650795411133L158.61202790178572,133.41570833272374L159.68481808035713,134.960128672997L159.71782700892857,136.60960087304105L160.10568191964285,134.51814179137224L160.33674441964286,140.391407781332L160.35737500000002,141.6944505676563L160.36562723214286,138.90990878015373L160.44814955357143,141.63591386836538L161.00517522321428,138.2738617203341L161.28575111607145,139.28930603156724L161.36002120535716,143.5792601173534L161.7313716517857,143.64677730234945L162.05733482142858,141.06353720088293L162.07796540178572,140.5153388408392L162.4204330357143,138.03638017580326L162.83304464285715,136.17891864064583L162.87843191964285,142.41054239561112L162.97745870535712,143.6354569261667L163.4890970982143,137.7047919455407L163.97597879464286,149.1162455715679L164.53713058035714,149.05474381911415L164.66916629464285,143.13373672764095L164.75994084821428,136.30085629344342L164.78882366071429,137.85299432587837L164.82595870535715,132.61276318259365L164.8342109375,137.3815588714321L164.84246316964288,140.73456437597514L164.9084810267857,145.53392195469044L165.23444419642857,133.87179323533718L165.5150200892857,128.63237757026874L165.62229910714285,134.33703805768326L165.7584609375,136.07759745218658L165.94001004464283,135.32558926164094L166.60018861607142,141.0235829032599L166.9591607142857,147.26689642173878L167.0128002232143,148.26685092391273L167.21497991071428,145.3267890211445L167.3181328125,143.23503865221156L167.4336640625,127.28257536780247L167.6647265625,124.02967866832856L167.94942857142857,134.17695711240077L168.19699553571428,138.3682339703137L168.65086830357143,142.04869312972392L168.81178683035714,147.82697795230484L168.95620089285714,142.44591958998643L169.20376785714288,136.45285383509997L169.75666741071427,144.1987565877879L169.93821651785714,147.2466954447534L170.25180133928572,140.48328863964713L171.23794308035716,133.62890211216353L171.62992410714287,139.5975274078354L171.69594196428574,133.44069667293456L171.77433816964285,133.51753062029974L172.00127455357142,135.78201790106473L172.03428348214285,133.69293349893198L172.1828236607143,145.06849023289266L172.7357232142857,143.65360500208604L172.82649776785715,144.98285464162868L172.83475,148.8414068348124L172.84712834821428,150.54790737431733L172.89664174107145,147.7910363590806L172.95440736607145,147.06549082732732L173.0369296875,146.95773536525093L173.28037053571427,144.0272677478905L173.56507254464287,145.75117179022524L173.62283816964288,145.9058090607303L173.77550446428572,140.35259516239034L174.047828125,139.56934116840284L174.13860267857143,135.74216495132399L174.8111595982143,138.35329063281984L175.35168080357144,141.4319234725569L175.4630859375,143.7693627045592L175.665265625,135.54031858480218L175.81793191964286,133.72661862394955L175.9664720982143,131.99480087770073L176.07787723214284,139.12848320968774L176.3873359375,146.57008058886427L176.61014620535713,147.01668328917444L176.6307767857143,142.92567327783357L177.16304575892858,133.55461624601992L177.34459486607145,142.63794693791573L178.1491875,138.3403262605888L179.015671875,140.90991145078075L179.01979799107144,135.16375370087465L179.07756361607144,136.4269140104189L179.10644642857145,134.21368342517223L179.43240959821426,133.9207106845284L179.56031919642857,134.56140591244124L179.74599441964287,137.11728768313066L180.74451450892857,131.43787633874499L180.88480245535715,141.0668370121627L181.05397321428572,142.74650886260918L181.12824330357142,145.51033361556202L181.17363058035716,142.24544798256198L181.65226004464284,137.1240250904634L182.5269966517857,140.26544244761914L182.53112276785714,138.1039373759964L183.40998549107144,141.18469849375123L183.51726450892858,138.81981814829848L183.82259709821426,136.8638769348165L183.97526339285713,138.9280760168851L184.02890290178573,134.16272557495952L184.41675781249998,134.3333761639531L184.48690178571428,132.89216746015165L184.52816294642858,140.49826178266292L184.89538727678573,141.26455396243148L185.46479129464285,141.1373661293281L185.68760156250002,144.29876237950876L185.79900669642856,145.12993817473745L185.88152901785713,142.3294955929833L186.12909598214287,141.3898162770699L186.39316741071428,139.68592687657065L186.39729352678572,143.83060794240586L186.47568973214285,138.47325358132332L186.64898660714283,138.87611439072973L186.70262611607143,141.37626356270243L186.85116629464284,144.18189720384078L187.02033705357144,145.70808416886211L187.04509374999998,147.72832036425518L187.19363392857144,146.21941936498789L187.39168750000002,140.25001961520857L187.82905580357144,145.92324319441047L187.90332589285714,143.874600966924L188.12201004464288,135.84312850484463L188.22103683035715,141.48673572927245L188.94723325892858,139.22852428668457L188.9802421875,139.99025680013725L189.17829575892858,144.27872674338954L189.31858370535716,148.47915806217753L189.4753761160714,147.9539419665561L189.56202455357143,143.0716359910146L189.97876227678572,141.20315419058653L190.0901674107143,147.62344458592327L190.10254575892856,143.43036185081237L190.1190502232143,141.1427007482972L190.34598660714286,140.92852183619297L190.3501127232143,138.3696776320884L190.8865078125,138.40906319203077L191.0020390625,144.23129263867196L191.34450669642857,140.24735487550058L191.7529921875,140.00360943942997L191.96342410714286,137.82699353974897L192.0129375,137.22600601841114L192.03356808035713,128.52908142286006L192.13672098214283,136.92937630580343L192.16560379464283,139.4685860906033L192.22749553571427,140.1204775735133L192.23574776785716,144.9311559918161L192.3182700892857,142.6790777064941L192.49981919642855,141.78480283365138L192.55758482142858,140.62827218976906L192.98670089285713,142.04364293698845L193.56435714285712,147.1500398533605L193.7624107142857,149.36187720638887L193.79541964285713,147.18743782485947L193.97696875,143.7768273094024L194.13788727678573,143.9074960457519L194.41433705357142,147.438159927561L194.45559821428571,146.31156979133732L194.4679765625,155.47469716388014L195.43348772321428,148.11313473891036L195.70168526785716,147.85288701123486L195.82959486607143,148.6376484278827L196.13492745535714,149.19356588625843L196.81161049107143,149.5762710243698L196.90238504464287,153.26639631451582L197.0963125,149.8803636041964L197.41814955357142,144.0091752557567L197.45528459821426,137.48378246954746L197.5130502232143,142.07800474364558L197.58732031250003,140.56516359447838L197.64095982142857,137.6046735799277L197.8513917410714,129.4929013845899L197.94216629464285,136.0861182116019L198.62297544642857,149.65127854004785L199.00670424107142,147.0511358550506L199.0190825892857,145.00852177210552L199.2749017857143,147.65733711759987L199.60499107142857,143.70375864053213L200.13313392857143,135.96820396628647L200.33943973214286,138.59411464242143L200.4879799107143,134.30685761277675L200.57462834821428,138.84634926977634L201.25956361607143,143.75523869671156L201.68455357142858,142.96967729853228L201.8165892857143,144.17335903243205L202.92238839285716,144.7973832368611L203.23184709821427,144.63481429337017L203.3473783482143,129.20892845105263L203.61970200892858,134.2557201201387L203.6774676339286,133.99296048013375L203.8837734375,141.11613449530606L204.09007924107144,140.38955418751718L204.12721428571427,131.6596217089062L204.16434933035714,126.26706219751627L204.17672767857144,140.90489711427088L204.3335200892857,145.93288950004217L204.75438392857143,143.19176770614408L205.1133560267857,139.65715944628013L205.16699553571428,132.90777062332685L205.19175223214285,138.69090143058332L205.19587834821428,138.65740452774543L205.31966183035715,134.2282833395492L205.5424720982143,144.79921961892194L206.20677678571428,143.77045560758438L206.36356919642856,147.49355648327546L206.49147879464286,150.0025974557917L206.57400111607143,144.63705004966977L207.89435825892855,137.75615918705896L208.06765513392858,136.98234602493068L208.49264508928573,143.3764481608988L208.6618158482143,134.763746184404L208.707203125,138.0723482646318L208.80622991071428,143.74397842393944L208.85574330357142,143.5757339400448L209.4292734375,145.66049441351876L209.6190747767857,147.44909798535338L210.27925334821427,149.53819349904435L210.32876674107143,149.2200857514118L210.43604575892857,144.86932627880424L211.56247544642858,149.65371870353133L212.25153683035717,154.45861631485408L212.46196875,152.3660547271525L212.51148214285712,147.521442447612L212.9488504464286,140.51441320092042L213.41097544642855,138.12608234113787L214.0381450892857,148.20311998383005L214.10416294642857,142.14839123163102L214.1825591517857,147.20306675954745L214.18668526785714,138.20320892169528L214.60754910714286,142.84582862993747L214.6281796875,142.41179956281584L214.69007142857143,140.5822836618686L214.7024497767857,146.70063944465304L214.74783705357143,146.55657290343277L214.81798102678573,149.08989126279255L214.83448549107143,148.76291311499057L214.90050334821427,151.59357821414815L214.9623950892857,147.70441547554697L215.0201607142857,149.15823440505247L215.18520535714285,145.61117002459275L215.21408816964288,142.5781783788914L215.292484375,145.90758333024468L215.812375,148.58985943685227L215.89489732142857,152.9460984914914L215.99392410714285,155.5335955792317L216.45192299107143,149.29699139676387L216.81089508928574,149.69263151456053L217.07909263392858,141.1198376987525L217.13685825892858,141.78285138691353L217.47519977678573,140.96768557599123L217.7640279017857,145.7126103161033L218.68002566964287,144.02526060093976L219.18341183035713,141.3366505965563L219.4639877232143,148.02267215877606L219.50112276785714,147.03373074906966L219.70330245535715,148.09518962370097L220.12004017857143,141.80754737655366L220.2479497767857,141.18375961184526L220.2727064732143,139.93010884881036L220.433625,147.32650650000582L220.78847098214285,147.10288111481674L221.30423549107144,140.72064096041686L221.32073995535714,142.84464481299023L221.54767633928572,140.57447601094782L221.55592857142855,141.1285098381933L221.64257700892858,143.93466767240145L221.73747767857142,144.18974378686295L222.16246763392857,144.30724221099106L223.1939966517857,145.74256386773996L223.24351004464285,142.5989895630909L223.32190625,139.54765833670098L223.49107700892858,142.6089892605197L223.6396171875,142.38620827551196L223.9160669642857,144.23925655100055L224.1058683035714,148.53585445531195L224.29979575892858,140.23035551338188L224.80318191964287,146.7502010323333L224.98473102678574,147.90406880961223L225.6614140625,145.44308914295652L225.7068013392857,142.28400702447783L225.91310714285711,141.06756561738902L226.32984486607143,142.31434869851265L226.37523214285713,146.6867499380445L226.7754654017857,142.49181477243516L226.8332310267857,145.39359190711266L226.8909966517857,147.77158201366L226.9776450892857,136.1460195245107L227.17982477678572,133.64906514297485L227.64194977678574,144.4790617883835L227.95553459821429,142.7284236967941L228.0133002232143,140.16518454911588L228.26499330357143,143.5969809029238L228.6776049107143,138.7560572846971L228.751875,133.85308416272653L229.02007254464286,143.37509853831205L229.40380133928574,142.09393578524157L229.42443191964284,144.52629208657004L229.48632366071428,134.34295043046984L229.5729720982143,146.51493951735324L229.81228683035715,143.81385504876033L229.88243080357142,164.10620167299783L230.03922321428573,151.84239688423082L230.07635825892856,150.59942589585071L230.08461049107143,147.27282726039937L230.31567299107144,146.3473007540134L230.64576227678572,149.33305757643146L230.95109486607143,144.25672156692363L231.05837388392857,148.81981113839637L231.18628348214284,140.73435498290354L231.45035491071428,145.29776700385267L232.9935223214286,142.3318076041213L233.53404352678572,140.53154548089927L233.53816964285716,142.5440596728398L234.35101450892856,140.53343163900814L234.89978794642857,145.1599573813274L234.92454464285714,142.04129061474768L234.98231026785714,146.03880200251558L235.06895870535715,148.82034426846874L235.24225558035715,145.37510631274446L236.13349665178572,144.24382646197833L236.2737845982143,148.2460696084187L236.41407254464283,146.69282410281215L236.6410089285714,149.0729802855093L236.69052232142857,153.4416394620084L236.78129687499998,156.14497744017504L236.83493638392858,154.99734199865853L237.41259263392857,150.66536756291504L237.4456015625,149.73296401700088L237.83345647321428,144.21563394189303L237.936609375,146.58759808373705L238.47713058035714,143.60736402411612L239.17857031249997,151.2157885845861L239.53341629464285,144.20974152424102L239.5829296875,144.36435274802542L239.62831696428572,142.05413672282037L239.65307366071428,143.4190540871247L240.362765625,143.73785538680698L240.52781026785715,140.50352288250534L241.83991517857143,141.49906838753466L241.88530245535713,136.8447360469022L242.13286941964284,128.92902479845995L242.6568861607143,141.2942216317577L242.7724174107143,144.88066228394047L243.36657812500002,145.0312592182418L243.6100189732143,145.629729654423L244.0473872767857,140.56471427084898L244.5342689732143,141.94452061773478L245.33060937500002,141.79013195586884L245.8670044642857,134.49620979638507L245.88350892857142,139.6414223790861L245.9371484375,133.49871748213153L246.601453125,138.28530247166262L247.50507254464287,144.76794156762665L247.83516183035715,146.58966582854214L247.89292745535715,141.10397455835118L248.06209821428573,147.32521512594087L248.08685491071427,149.80984964898983L248.1776294642857,152.12103384334895L248.21476450892857,151.6133211970273L248.64388058035715,145.7501844620671L248.71815066964288,147.85499368285932L249.08124888392857,138.58742738113284L249.62589620535715,139.1910165473549L249.96011160714286,139.76617499379688L249.97248995535713,138.23549300782904L249.98486830357143,137.46973841639175L250.07151674107143,145.61156044990904L250.08802120535717,148.45641232127596L250.16229129464287,142.34720029231698L250.2860747767857,146.15140102026933L250.529515625,145.91180573772235L251.15668526785714,147.93997740310934L251.61881026785716,151.46820034958427L251.73846763392856,153.6244202898592L251.90763839285714,154.09173948089182L252.23772767857142,156.38956952643335L252.38626785714285,151.26767519087758L252.55956473214286,148.225042923517L252.82363616071427,154.42046392454324L252.88965401785714,146.2785083943225L252.89378013392857,144.93735336861712L253.00931138392858,152.2561056494814L253.66123772321427,157.6102533173622L253.6777421875,153.2055837435759L253.70249888392857,149.48511622925025L254.0697232142857,144.27235952007425L254.83305468749998,145.3298127614716L254.88256808035715,145.88212535400743L254.95683816964285,147.38276764166088L254.96509040178572,153.0023298311933L255.5386205357143,149.56946323446655L255.65002566964284,150.16541805584563L256.0915200892857,148.6264345712622L257.0611573660714,150.14587045354605L257.51915625,148.03491055394983L257.6800747767857,144.68756219044792L257.81623660714286,147.06457581934612L258.23297433035714,150.27748299370575L258.2742354910714,150.11874520260315L258.4145234375,148.59701926635634L259.0416930803571,144.0075014443811L259.08708035714284,134.24971124241446L259.52444866071426,141.65773157542762L259.71425,146.1531838814367L259.8050245535714,143.56584368228607L259.8545379464286,146.40248508739288L260.6467522321429,148.43920103244673L261.45959709821426,146.25922826488429L261.58338058035713,140.39075278019675L261.6163895089286,137.28704746470314L261.78968638392854,144.93207377377428L262.1115234375,143.95998961081074L262.48287388392856,140.05921080559472L262.6479185267857,139.3424932077526L262.95737723214285,139.23666482895604L263.1059174107143,142.44564751464125L263.51440290178573,136.89643296049832L263.6093035714286,137.45203005580188L264.3066171875,143.22988337104366L265.19373214285713,142.46474094524888L265.4743080357143,142.39821126303022L266.0725948660714,144.79437374258603L266.35317075892857,143.7948008989368L266.36142299107144,144.4942797574445L266.9308270089286,141.47572541195422L267.7766808035714,134.42805978273313L268.0820133928571,136.7320889652667L268.20167075892857,145.91937064295396L268.25531026785717,147.7749500606381L268.7133091517857,152.48983050429362L268.93611941964286,148.08433007862294L268.97738058035713,151.87384040395094L269.1465513392857,157.42020144247815L269.2001908482143,155.4946619783867L269.35285714285715,154.61037891835142L269.97590066964284,152.80218663293223L270.5370524553571,150.47132630871593L272.1503638392857,147.589909554284L273.058109375,141.09830476329398L273.22728013392856,144.7707229488234L273.9163415178571,146.33135679204108L273.9534765625,148.44093331836964L273.96585491071426,147.1125427338082L274.4321060267857,146.27229971245518L274.86534821428575,147.32161933753247L275.04689732142856,150.4444324313006L275.31509486607143,153.50740951170928L275.3811127232143,148.72005827588086L275.3852388392857,148.5220211730137L275.6575625,156.01565599594917L276.05366964285713,144.84247349831108L276.061921875,137.81628192384628L276.2063359375,138.32389206480732L276.3218671875,151.58475042099806L276.408515625,143.9900601811114L276.4126417410714,144.95386583488602L276.6643348214286,138.41209543515097L276.7839921875,139.0352321336797L277.6752332589286,145.2988961047012L277.84440401785713,145.47832442200652L277.8691607142857,137.22553197906296L278.04245758928573,142.08687730292013L278.3890513392857,145.6826818112107" style="fill: none;" fill="none"></path></g></g></g></g><g opacity="0.2"><g><g><g><path stroke="rgb(0, 119, 187)" stroke-width="2px" d="M21.34027232142857,8.065204954147347L21.63735267857143,58.96918830871583L21.69924441964286,56.23377857208253L22.289279017857144,46.59034094810487L22.54922433035714,85.99245808124543L22.734899553571427,75.52933648824693L22.85043080357143,76.91384754180909L22.924700892857143,68.29390976428986L23.089745535714286,88.68900153636933L23.345564732142858,92.59621278047562L23.782933035714287,109.9145805001259L23.94797767857143,101.42870185375214L24.203796875,97.1615555047989L24.86397544642857,103.03912053108216L24.909362723214286,108.38549194335938L25.2724609375,109.35998693704606L25.30134375,108.44548991918565L25.433379464285714,118.14441010951997L25.515901785714284,112.8493012547493L25.79647767857143,114.00203887224198L25.874873883928572,119.26625726222993L26.477286830357144,102.25656208992005L26.646457589285713,111.58707550764085L26.794997767857144,110.50108788013459L26.861015625,123.10378561019898L27.017808035714285,119.91793212890626L27.087952008928575,103.71342519521714L27.52119419642857,102.18902084827424L28.635245535714287,122.24974021911622L28.717767857142857,106.58389631509782L30.681799107142854,108.37983713150025L30.7024296875,100.28981641530991L30.789078125,102.54457769393922L30.958248883928572,105.18594453334809L31.263581473214284,89.1735218524933L31.535905133928573,88.61637518405915L31.705075892857145,92.34455255270005L31.742210937499998,111.42627207040788L31.80410267857143,93.64775458574296L31.841237723214284,76.82172474861146L32.05166964285714,96.74309942722321L32.8975234375,97.14971837997437L33.35139620535714,73.67536000013352L33.43804464285714,151.37958565950393L33.44217075892857,74.62219283580781L33.607215401785716,75.6586692094803L33.90429575892857,84.8089776992798L34.003322544642856,86.2245163679123L34.10234933035714,82.949072098732L34.47782589285714,80.2959525346756L35.071986607142854,69.84324381351472L35.344310267857146,93.83977553844453L35.48459821428572,106.6946398973465L35.55061607142857,75.80022940635682L35.70740848214286,92.21604273319245L35.765174107142855,93.11047360897065L35.777552455357146,93.24171588420869L35.94672321428572,98.6956553220749L36.23555133928571,98.86349562406541L36.507875000000006,75.17766205072404L36.784324776785716,90.58129570484162L37.22994531249999,78.02262321710587L37.584791294642855,97.1291669368744L37.6343046875,113.71975193023682L37.881871651785715,91.34212110042573L37.927258928571426,104.36251530647279L38.07167299107143,113.2237531900406L38.44714955357143,120.19688526391984L38.48841071428571,117.99047473669053L39.359021205357145,100.85234359502793L39.46217410714286,74.6934054851532L39.81289397321429,106.22906742095948L39.98206473214286,77.35220096111298L40.567973214285715,113.67469278573991L40.584477678571425,103.43608621358872L40.77427901785714,108.09949139356614L41.63251116071429,94.39867351055146L41.805808035714286,100.79449782371522L41.8223125,105.76286194324494L42.03274441964285,112.2734915971756L42.08638392857143,93.90041706562043L42.18953683035714,111.4297535777092L42.342203125000005,99.2101588010788L42.478364955357144,113.58378324508668L42.754814732142854,111.50584033727647L42.923985491071434,105.193013048172L43.134417410714285,109.09224847555161L44.013280133928575,116.04858491420747L44.69408928571429,123.3476071715355L44.83437723214286,87.69802740812302L44.88801674107143,104.40532729625703L45.20572767857143,114.6607717037201L45.30888058035715,123.7353521347046L45.37489843749999,114.36587748527528L45.6059609375,135.793974673748L45.84527566964286,89.1845571756363L45.95668080357143,120.06956759691239L45.97318526785715,81.81105176210404L46.31565290178572,88.14021048545838L46.53846316964286,114.83456221818925L46.757147321428576,98.6608824491501L46.76539955357143,100.92560294866563L46.864426339285714,112.57754323482514L46.86855245535714,106.92025212049485L46.909813616071425,123.4284730911255L47.735036830357146,110.77300415039063L47.8010546875,122.36700371503831L47.82168526785714,114.46579674482346L47.858820312499994,112.57058022022248L48.39934151785714,131.5474430680275L48.48186383928571,112.13672111034394L48.696421875,84.56957659721375L48.89447544642857,113.06297085285188L49.17917745535714,85.88482675552369L49.4762578125,109.38836649656297L49.49688839285714,100.00214896202088L49.736203124999996,94.09946433305741L50.557300223214284,128.24058083295822L51.31237946428571,122.10696676969529L51.427910714285716,107.84633306264878L51.44441517857143,110.58825216293336L51.75387388392857,125.42319742441178L52.00556696428571,105.01506582498551L52.17061160714285,135.36550662517547L52.513079241071424,104.7108981370926L52.525457589285715,115.60186532735825L52.63273660714286,92.11052141189576L52.78952901785715,116.77133527994157L52.90093415178571,120.36394486427308L53.041222098214284,116.7228262782097L53.58174330357143,115.39734259843827L54.14289508928571,115.62780783176423L54.84020870535714,112.40557787418366L55.90062053571429,101.57752046585084L55.92537723214286,138.64119354486465L56.18944866071429,96.78430781364442L56.35861941964286,130.4671208024025L56.503033482142854,113.38384977579118L56.62681696428571,111.18355826139451L56.74234821428571,114.95414671897889L56.841375,110.89633390903474L56.84962723214286,124.2887218952179L57.03530245535715,115.00894353389741L57.076563616071425,120.46000281572343L57.22922991071429,107.0981782436371L57.25811272321428,102.12998292446137L58.00493973214286,102.29625127315522L58.26488504464285,112.17204258441926L58.39279464285715,126.60838690996171L58.805406250000004,119.46806863546372L58.96632477678572,117.90020874738694L59.11486495535714,109.64925799369813L59.24690066964286,122.85983744859696L59.985475446428566,121.49981299638749L60.022610491071426,101.74516031742097L60.534248883928576,132.10200498104095L60.70341964285714,122.7954506635666L60.872590401785715,124.65546176433564L60.87671651785715,140.3211685180664L61.21918415178571,115.26154271364213L61.34296763392857,117.15515563488007L61.454372767857144,127.9746042251587L61.549273437500005,112.2431919336319L61.677183035714286,135.47937301397323L61.68130915178572,140.05939081907272L61.7803359375,117.79020366668702L61.80509263392857,119.4961000442505L61.86285825892857,127.7922259926796L62.15168638392857,122.20114681720734L62.26309151785715,105.59498999118806L62.39100111607143,99.45364276170731L62.461145089285715,121.37530163526536L62.67982924107143,125.10240290164948L62.74997321428572,111.1485321879387L62.77885602678572,127.72733280658723L63.302872767857146,114.91034302711488L63.31525111607143,132.03972820043563L63.521556919642855,119.75455448627473L63.72786272321429,117.96291807889939L63.781502232142856,107.82241616249085L63.95892522321429,120.06074777841569L64.02906919642858,116.40795031785966L64.2064921875,100.63503423929215L64.54483370535715,137.0634799361229L64.5530859375,140.00712600946426L64.80890513392858,140.3595283985138L64.87904910714286,137.24860117435455L66.11275781249999,112.18286690711976L66.16639732142858,113.14091441631318L66.2406674107143,113.81074587106706L66.40571205357142,131.4407506942749L66.50473883928571,119.42385349273682L66.52949553571429,108.19462094306947L66.89259375,137.07270065546035L66.91735044642857,135.47163984775543L67.3836015625,110.13873682022096L67.643546875,119.08730778694154L67.70543861607143,133.5408802986145L67.8457265625,140.94506517648696L69.260984375,118.67976043224336L69.39714620535715,121.05509791374207L69.51267745535714,131.0855208992958L69.59519977678572,139.43482950925826L70.2553783482143,131.23669216632842L70.45755803571429,125.9535470366478L70.86604352678572,103.26809821128846L70.88254799107143,108.4226491212845L71.11361049107143,138.93875691890716L71.39006026785714,141.67956299185752L71.44782589285714,109.01517001390458L71.60461830357143,127.15936181545258L71.78616741071428,117.04641655683518L71.79441964285715,134.9069815635681L71.94708593749999,123.51823267936707L72.10800446428571,117.29589293003083L72.42984151785714,125.53254840373994L72.62376897321428,123.26233134269715L73.06526339285715,147.0895457625389L73.86160379464286,138.74056420326232L73.87810825892858,136.01586273908615L74.03902678571428,124.03509936332703L74.15455803571429,138.30535469055175L74.17106249999999,100.67424867153169L75.52442857142857,122.31228075027467L75.71010379464286,155.95601645708084L75.87102232142857,128.23579112291335L75.99480580357142,143.91185272336006L76.14747209821428,119.93279711008073L76.423921875,110.84128389358521L76.53945312500001,133.00445387363433L76.84065959821429,112.88031831979752L76.91905580357144,131.3358096241951L76.93968638392857,140.58367416858673L77.579234375,138.41187826395034L77.77316183035714,128.3580131292343L78.27654799107142,142.68163046836852L78.31368303571428,127.42923138141633L78.42096205357143,152.30399969816207L78.58600669642857,118.05709812641145L79.1265279017857,105.04446873664857L79.17191517857142,133.40211585760116L79.24618526785713,136.83964011669158L79.46074330357142,140.61473343372344L79.48962611607142,127.42195186614991L79.85685044642857,126.50635764598847L79.88573325892857,104.73603883981706L80.06728236607142,153.23027054071426L80.12504799107143,130.13477400541305L80.60367745535714,127.16161952018739L80.96677566964286,94.3701462507248L81.05755022321428,102.57482460737229L81.47016183035714,119.61062053442002L81.77549441964287,140.21879110336303L81.90753013392857,129.11167505979537L81.96116964285714,129.72551754713058L82.21286272321429,116.68135414123536L82.60071763392857,129.1724115371704L82.79051897321429,125.1376821756363L82.81114955357143,138.22982708215713L82.97619419642858,117.40820846557618L83.03395982142857,150.5658149778843L83.09172544642857,124.54285082817078L83.1536171875,140.5780615568161L83.28565290178572,126.8876776456833L83.34341852678571,112.86787984371186L83.90044419642857,125.17721310853959L84.05311049107144,137.7790035367012L84.54411830357142,126.15299520492555L85.03925223214286,134.1422210097313L85.15478348214286,127.99363646507264L85.65816964285715,108.1001032948494L85.79433147321429,129.94223610162734L85.90573660714286,125.0673873782158L86.78047321428572,127.93090603351594L86.96202232142858,128.93087933063507L87.13119308035715,137.01005462408065L87.4117689732143,141.75497982501983L87.41589508928571,141.51978818178176L87.64283147321429,128.83409342765808L87.93991183035713,125.2217658519745L88.265875,138.2847715973854L88.4102890625,119.9197467327118L89.66462834821428,124.64984915256501L90.08961830357143,140.39199081659316L90.22165401785715,140.57972846031188L90.27941964285714,136.8628818154335L90.29179799107143,123.58733532428742L90.39082477678572,126.4988038301468L90.55586941964286,140.16701159477233L91.2696875,138.64950696229934L91.29444419642857,129.67392793893814L91.2985703125,107.20158956050874L91.85972209821428,111.4486803174019L92.40024330357143,153.26654151678085L92.55290959821428,131.968832051754L93.09755691964286,118.43318531513215L93.38225892857143,132.74565128087997L93.61332142857142,132.2830644607544L93.65045647321429,119.43803272247315L93.79074441964285,130.684155857563L94.40966183035715,119.47295329570771L94.92130022321427,129.09694722890853L95.39992968749999,119.96965888738633L95.43293861607143,120.34964958429337L95.44944308035714,142.46780261993408L95.46594754464286,123.46987137794495L96.57174665178572,136.40477875471115L96.83169196428571,116.73036954402924L96.8853314732143,141.22932497262954L96.92246651785715,140.84355286359786L97.05450223214287,115.73050174713136L98.03239174107144,111.6799579024315L98.0571484375,142.3157926261425L98.11904017857142,129.00069937705993L98.18093191964286,111.34578595161439L98.63067857142858,111.11260936260224L98.98965066964286,132.8508561015129L99.47653236607144,119.53576812744141L99.49303683035716,133.62510112524032L99.88914397321427,137.84862313270568L100.17384598214285,124.39742932319642L100.34301674107144,141.5274474978447L100.58233147321428,137.45295510292053L100.7019888392857,147.77191064357757L100.75975446428572,138.35727134943008L101.08159151785713,131.23737791776657L101.09396986607143,127.73081431388856L101.27964508928571,124.81864950656892L101.57259933035715,128.88580963611602L101.725265625,143.67557970285415L102.49684933035714,139.37026337385177L102.5793716517857,129.95016971826553L102.71965959821429,131.27261499166488L102.78567745535715,148.73419926166534L102.83106473214285,141.16172043085098L103.09513616071428,148.42016730308532L103.14877566964284,123.57773480415345L104.43612388392857,122.2054723262787L104.64655580357143,136.01378438472747L104.77859151785715,151.28522626161575L104.8157265625,127.07024577856065L104.89412276785716,127.9057336807251L104.96839285714286,132.90944037437438L105.18707700892857,122.09925470352174L105.537796875,139.01030716896057L105.55017522321428,149.05780536532401L105.70284151785714,129.51804081201553L105.81837276785714,139.85114393234252L105.89264285714286,127.29679695367814L105.90089508928571,124.1883384346962L106.28875,139.29046300649642L106.6229654017857,124.2450870037079L107.07683816964285,139.76241824626922L107.14698214285714,133.8619280219078L107.19236941964286,126.44230846166612L107.27901785714286,137.5993366599083L107.42755803571428,153.1916363596916L107.49357589285715,149.72360143661498L107.81128683035715,128.34210369586944L108.24040290178571,133.29181537628173L108.38069084821429,133.97106800079345L108.56223995535714,126.04361257553101L108.888203125,125.94091866016389L109.68041741071428,129.8111626267433L109.7258046875,146.27649775743484L109.74643526785714,138.4204237818718L110.06827232142858,153.18385571837425L110.07652455357143,129.8311338186264L110.62942410714287,114.3292372584343L111.66507924107142,140.53465876579284L111.76410602678571,122.79994497299195L112.00754687499999,140.79331365823745L112.07356473214286,153.8926431298256L112.6718515625,152.99186641573905L112.96480580357142,125.68816123008729L112.97305803571427,121.753910279274L113.12572433035714,114.4933956027031L114.30166741071427,132.1944337248802L114.52447767857143,138.22430942058563L114.62763058035715,141.3816778421402L115.20528683035715,136.61895475387573L115.82420424107143,150.28160265684127L115.9191049107143,137.6295941233635L115.96861830357143,146.2769408583641L116.89286830357142,136.3691091299057L117.206453125,131.78541991710662L117.21057924107143,124.55966756343842L117.59430803571429,109.05117723941804L117.96153236607144,144.00683457255363L117.96978459821429,127.21368387937547L118.19259486607142,135.4936893939972L118.20497321428572,131.86057827472686L119.94619419642856,130.55685929059982L121.21703794642856,147.95880428552627L121.59251450892857,126.47858998775483L121.60901897321429,135.5551749229431L121.68741517857143,137.79896417856216L122.15779241071428,151.71187443137168L122.56215178571428,136.0479875564575L122.6199174107143,135.94226578474044L122.78496205357143,131.10760209560394L123.07379017857143,128.90670922994613L123.13568191964286,142.05519125461578L123.26771763392857,138.41155121326446L123.29660044642858,140.9606264591217L123.52766294642856,152.1501962006092L123.6184375,133.63329849243163L123.74634709821429,156.74822289347648L124.00216629464286,134.86888543367385L124.24560714285715,137.57927051782607L124.81088504464286,125.59897134304047L125.42567633928572,148.1768837928772L125.61547767857142,136.45533446073532L126.46133147321429,146.12888184785842L126.68414174107143,148.58073336482047L126.72540290178571,131.69532272815704L126.73365513392856,137.17572162151336L126.90695200892857,143.80271801948547L127.142140625,139.5143344759941L127.56713058035713,140.29958317279815L127.61664397321428,133.06673065423965L128.3098314732143,148.41769332289695L128.34696651785714,135.12020806074142L128.54089397321428,131.16807482242584L128.99476674107143,126.83089742660523L129.106171875,135.36892483234405L129.15981138392857,140.887029504776L129.46514397321428,142.2392047405243L129.64669308035715,118.80502084493638L130.5750691964286,136.26896831989288L130.76899665178573,134.6226690173149L131.0165636160714,132.67211762666702L131.2723828125,121.4989795446396L131.27650892857142,148.66910035014152L131.91193080357144,143.4245102763176L132.09347991071428,133.04294035434722L132.1553716517857,135.40429905653L132.46483035714286,140.6231629014015L132.5432265625,124.24615255594254L132.6133705357143,137.40165034532546L133.3065580357143,136.87794724702835L133.54999888392857,148.02517974972724L133.8594575892857,149.58545944690704L133.8718359375,141.40047798156738L133.90897098214288,142.10986674427986L134.18542075892856,116.7046485900879L134.25143861607143,150.96728551983833L134.61866294642857,146.60798472762107L134.72181584821428,147.9260728418827L135.3035982142857,119.64841071367265L135.4727689732143,128.12612364292144L135.72446205357144,132.90931377410888L136.18658705357143,141.54586783647537L136.34750558035714,131.4818746805191L136.58269419642858,113.3284410595894L137.65961049107142,136.64876911640167L138.02683482142857,145.3662787735462L138.05984375,141.51538882255554L138.28678013392857,162.74818400144576L138.69939174107142,136.1803375840187L139.43796651785715,135.57412276268005L139.68553348214286,155.9863899707794L139.80106473214286,138.48050615787506L140.1724151785714,132.86524633169174L140.22192857142858,152.96111837625503L140.80783705357143,137.8367227077484L141.35661049107142,137.60919038057327L141.5670424107143,122.88282594680787L141.95489732142858,141.35106167793273L142.06630245535715,147.52106276750564L142.30974330357142,139.09866360425949L142.61920200892857,132.54607651233673L142.84613839285714,140.74479410648345L142.91215625,147.8721358537674L143.0565703125,132.15112588405609L143.08132700892855,134.24399707317352L143.52282142857143,154.97607237696647L143.55170424107143,147.86663929224014L143.6218482142857,137.94150552749633L143.71674888392857,140.54225478172302L143.78689285714287,149.1546070933342L143.89417187499998,146.29307711720466L144.30678348214286,133.47997502088546L144.40993638392857,145.21373072862625L144.64099888392857,142.1235501229763L144.6905122767857,135.68897030353546L144.74415178571428,144.63690299391746L145.4703482142857,137.1858074426651L145.4868526785714,132.703366792202L145.65189732142858,143.544833278656L145.78805915178572,136.86193231344222L145.85407700892856,129.97173396348953L147.26108258928573,149.25127167105674L147.31472209821428,136.81890932321548L147.51277566964285,139.688441491127L148.0945580357143,127.79741660356522L148.20596316964284,129.53631345033645L148.3710078125,128.2811984181404L148.40401674107142,141.29967252016067L148.56493526785715,142.01422551870346L149.54695089285713,142.55218169689178L149.83577901785713,145.89305192828178L150.0915982142857,136.5283828139305L150.23188616071428,135.86778262853622L150.47532700892856,149.77524379491805L151.0447310267857,149.0656809568405L151.13550558035715,140.49073902368545L151.26341517857142,127.84594670534135L151.41195535714283,148.98864997029304L151.42845982142856,147.58655730485916L151.46146875,150.777559196949L151.7214140625,138.3162845134735L152.26193526785715,124.50335154533387L152.327953125,117.58776984214784L152.38571875,134.0900722503662L152.4723671875,152.95172885656356L152.56726785714284,133.76426646709442L152.6415379464286,140.7933347582817L152.72406026785714,138.66588059663772L153.3801127232143,139.0798634648323L153.714328125,143.99105701446533L154.75823549107142,152.3316143810749L154.81600111607142,136.13985714912414L155.0140546875,139.860533452034L155.20798214285716,144.05274299383163L155.74437723214285,129.76218942403793L156.01257477678573,143.61081839203834L156.06621428571427,139.70662972927093L156.07034040178573,147.2833285689354L156.3880513392857,135.81179366111755L156.65212276785715,141.53387246131896L156.84192410714286,154.0883987903595L157.5557421875,130.82230839729309L157.9435970982143,127.67760000228883L158.47586607142858,136.76255110502242L158.5501361607143,136.1839351415634L158.61202790178572,129.6795089006424L159.68481808035713,137.27675918340682L159.71782700892857,139.08380917310714L160.10568191964285,131.380953168869L160.33674441964286,149.20130676627159L160.35737500000002,143.6490147471428L160.36562723214286,134.73309609889984L160.44814955357143,145.72492150068283L161.00517522321428,133.2307834982872L161.28575111607145,140.8124724984169L161.36002120535716,150.0141912460327L161.7313716517857,143.74805307984352L162.05733482142858,137.18867704868316L162.07796540178572,139.69304130077361L162.4204330357143,134.31794217824935L162.83304464285715,133.3927263379097L162.87843191964285,151.757978028059L162.97745870535712,145.47282872200012L163.4890970982143,128.80879447460174L163.97597879464286,166.23342601060867L164.53713058035714,148.9624911904335L164.66916629464285,134.2522260904312L164.75994084821428,126.05153564214707L164.78882366071429,140.1812013745308L164.82595870535715,124.75241646766663L164.8342109375,144.53475240468978L164.84246316964288,145.7640726327896L164.9084810267857,152.73295832276344L165.23444419642857,116.37860015630723L165.5150200892857,120.77325407266618L165.62229910714285,142.894028788805L165.7584609375,138.6884365439415L165.94001004464283,134.19757697582244L166.60018861607142,149.57057336568832L166.9591607142857,156.63186669945716L167.0128002232143,149.7667826771736L167.21497991071428,140.91669616699218L167.3181328125,140.0974130988121L167.4336640625,103.35388044118882L167.6647265625,119.15033361911775L167.94942857142857,149.39787477850913L168.19699553571428,144.65514925718307L168.65086830357143,147.56938186883926L168.81178683035714,156.4944051861763L168.95620089285714,134.37433204650878L169.20376785714288,127.46325520277024L169.75666741071427,155.81761071681976L169.93821651785714,151.81860373020172L170.25180133928572,130.33817843198776L171.23794308035716,123.34732232093812L171.62992410714287,148.55046535134315L171.69594196428574,124.20545057058335L171.77433816964285,133.6327815413475L172.00127455357142,139.1787488222122L172.03428348214285,130.55930689573287L172.1828236607143,162.1318253338337L172.7357232142857,141.53127715587615L172.82649776785715,146.9767291009426L172.83475,154.629235124588L172.84712834821428,153.10765818357467L172.89664174107145,143.6557298362255L172.95440736607145,145.9771725296974L173.0369296875,146.7961021721363L173.28037053571427,139.63156632184982L173.56507254464287,148.33702785372734L173.62283816964288,146.13776496648788L173.77550446428572,132.02277431488037L174.047828125,138.39446017742156L174.13860267857143,130.0014006257057L174.8111595982143,142.26997915506362L175.35168080357144,146.04987273216247L175.4630859375,147.2755215525627L175.665265625,123.19675240516663L175.81793191964286,131.0060686826706L175.9664720982143,129.39707425832748L176.07787723214284,149.8290067076683L176.3873359375,157.732476657629L176.61014620535713,147.68658733963966L176.6307767857143,136.7891582608223L177.16304575892858,119.49803069829942L177.34459486607145,156.2629429757595L178.1491875,131.89389524459838L179.015671875,144.76428923606872L179.01979799107144,126.54451707601548L179.07756361607144,138.32165447473525L179.10644642857145,130.89383754730224L179.43240959821426,133.48125157356262L179.56031919642857,135.5224487543106L179.74599441964287,140.95111033916473L180.74451450892857,122.91875932216645L180.88480245535715,155.51027802228927L181.05397321428572,145.26601663827896L181.12824330357142,149.6560707449913L181.17363058035716,137.34811953306198L181.65226004464284,129.44189075231552L182.5269966517857,144.97756848335266L182.53112276785714,134.8616797685623L183.40998549107144,145.80584017038345L183.51726450892858,135.27249763011932L183.82259709821426,133.9299651145935L183.97526339285713,142.02437463998794L184.02890290178573,127.01469991207124L184.41675781249998,134.58935204744338L184.48690178571428,130.73035440444946L184.52816294642858,151.9074032664299L184.89538727678573,142.41399223208427L185.46479129464285,140.946584379673L185.68760156250002,149.0408567547798L185.79900669642856,146.3767018675804L185.88152901785713,138.12883172035217L186.12909598214287,139.98029730319976L186.39316741071428,137.13009277582168L186.39729352678572,150.04762954115867L186.47568973214285,130.43722203969955L186.64898660714283,139.48040560483932L186.70262611607143,145.12648732066154L186.85116629464284,148.39034766554832L187.02033705357144,147.99736461639404L187.04509374999998,150.7586746573448L187.19363392857144,143.95606786608695L187.39168750000002,131.29591999053955L187.82905580357144,154.43307856321334L187.90332589285714,140.80163762569427L188.12201004464288,123.79591981172562L188.22103683035715,149.95214656591415L188.94723325892858,135.84120712280273L188.9802421875,141.1328555703163L189.17829575892858,150.71143165826797L189.31858370535716,154.7798050403595L189.4753761160714,147.16611782312393L189.56202455357143,135.74817702770233L189.97876227678572,138.40043148994445L190.0901674107143,157.25388017892837L190.10254575892856,137.14073774814605L190.1190502232143,137.71120909452438L190.34598660714286,140.60725346803665L190.3501127232143,134.53141132593154L190.8865078125,138.46814153194427L191.0020390625,152.9646368086338L191.34450669642857,134.2714482307434L191.7529921875,139.6379912853241L191.96342410714286,134.5620696902275L192.0129375,136.3245247364044L192.03356808035713,115.4836945295334L192.13672098214283,149.5298186302185L192.16560379464283,143.2774007678032L192.22749553571427,141.09831479787826L192.23574776785716,152.14717361927032L192.3182700892857,139.30096027851104L192.49981919642855,140.44339052438735L192.55758482142858,138.8934762239456L192.98670089285713,144.16669905781745L193.56435714285712,154.80963522791862L193.7624107142857,152.6796332359314L193.79541964285713,143.92577875256538L193.97696875,138.66091153621673L194.13788727678573,144.10349915027618L194.41433705357142,152.73415575027465L194.45559821428571,144.6216845870018L194.4679765625,169.2193882226944L195.43348772321428,137.07079110145568L195.70168526785716,147.4625154197216L195.82959486607143,149.81479055285453L196.13492745535714,150.02744207382202L196.81161049107143,150.15032873153686L196.90238504464287,158.80158424973487L197.0963125,144.80131453871726L197.41814955357142,135.20239273309707L197.45528459821426,127.69569329023362L197.5130502232143,148.96933815479278L197.58732031250003,138.29590187072753L197.64095982142857,133.16393855810165L197.8513917410714,117.32524309158326L197.94216629464285,145.97594345211982L198.62297544642857,169.99901903271675L199.00670424107142,143.1509218275547L199.0190825892857,141.9446006476879L199.2749017857143,151.63056013584136L199.60499107142857,137.77339092493057L200.13313392857143,124.36487195491792L200.33943973214286,142.53298065662383L200.4879799107143,127.87597206830979L200.57462834821428,145.65558675527572L201.25956361607143,151.11857283711433L201.68455357142858,141.79133520126342L201.8165892857143,145.9788816332817L202.92238839285716,145.7334195435047L203.23184709821427,144.39096087813377L203.3473783482143,106.0700996875763L203.61970200892858,141.82590762376785L203.6774676339286,133.59882102012634L203.8837734375,151.8008955180645L204.09007924107144,139.2996837258339L204.12721428571427,118.5647229909897L204.16434933035714,118.17822293043137L204.17672767857144,162.86164948940277L204.3335200892857,153.4748780786991L204.75438392857143,139.08008501529693L205.1133560267857,134.35524705648422L205.16699553571428,122.78368738889695L205.19175223214285,147.36559764146804L205.19587834821428,138.6071591734886L205.31966183035715,127.5846015572548L205.5424720982143,160.65562403798103L206.20677678571428,142.22730959057807L206.36356919642856,153.07820779681205L206.49147879464286,153.76615891456603L206.57400111607143,136.5887289404869L207.89435825892855,127.43482289314271L208.06765513392858,135.82162628173828L208.49264508928573,152.967601364851L208.6618158482143,121.84469321966172L208.707203125,143.03525138497352L208.80622991071428,152.25142366290092L208.85574330357142,143.32336721420288L209.4292734375,148.7876351237297L209.6190747767857,150.1320033431053L210.27925334821427,152.67183676958084L210.32876674107143,148.74292412996292L210.43604575892857,138.34318706989288L211.56247544642858,156.83030734062194L212.25153683035717,161.66596273183822L212.46196875,149.22721234560012L212.51148214285712,140.25452402830123L212.9488504464286,130.00386933088302L213.41097544642855,134.54358605146408L214.0381450892857,163.31867644786834L214.10416294642857,133.0662981033325L214.1825591517857,154.7850800514221L214.18668526785714,124.703422164917L214.60754910714286,149.8097581923008L214.6281796875,141.7607559621334L214.69007142857143,137.8380098104477L214.7024497767857,155.87817311882972L214.74783705357143,146.34047309160232L214.81798102678573,152.8898688018322L214.83448549107143,148.27244589328765L214.90050334821427,155.83957586288452L214.9623950892857,141.87067136764526L215.0201607142857,151.33896279931068L215.18520535714285,140.2905734539032L215.21408816964288,138.02869091033935L215.292484375,150.90169075727462L215.812375,152.6132735967636L215.89489732142857,159.48045707345008L215.99392410714285,159.41484121084213L216.45192299107143,139.94208512306213L216.81089508928574,150.28609169125556L217.07909263392858,128.26064697504043L217.13685825892858,142.77737191915512L217.47519977678573,139.7449368596077L217.7640279017857,152.82999742627143L218.68002566964287,141.49423602819442L219.18341183035713,137.30373558998107L219.4639877232143,158.0517045021057L219.50112276785714,145.55031863451003L219.70330245535715,149.68737793564796L220.12004017857143,132.37608400583267L220.2479497767857,140.2480779647827L220.2727064732143,138.04963270425796L220.433625,158.421102976799L220.78847098214285,146.76744303703308L221.30423549107144,131.14728072881698L221.32073995535714,146.03065059185028L221.54767633928572,137.1692228078842L221.55592857142855,141.9595605790615L221.64257700892858,148.14390442371368L221.73747767857142,144.57235795855522L222.16246763392857,144.48348984718322L223.1939966517857,147.8955463528633L223.24351004464285,137.88362810611724L223.32190625,134.97066149711608L223.49107700892858,147.20098564624786L223.6396171875,142.05203679800033L223.9160669642857,147.0188289642334L224.1058683035714,154.98075131177902L224.29979575892858,127.77210710048676L224.80318191964287,156.5299693107605L224.98473102678574,149.63487047553062L225.6614140625,141.75161964297294L225.7068013392857,137.5453838467598L225.91310714285711,139.24290350675582L226.32984486607143,144.18452332019805L226.37523214285713,153.2453517973423L226.7754654017857,136.19941202402114L226.8332310267857,149.74625760912895L226.8909966517857,151.33856717348098L226.9776450892857,118.70767579078675L227.17982477678572,129.90363357067108L227.64194977678574,160.72405675649642L227.95553459821429,140.1024665594101L228.0133002232143,136.32032582759857L228.26499330357143,148.7446754336357L228.6776049107143,131.49467185735702L228.751875,126.49862447977067L229.02007254464286,157.6581201016903L229.40380133928574,140.17219165563583L229.42443191964284,148.17482653856277L229.48632366071428,119.06793794631959L229.5729720982143,164.77292314767837L229.81228683035715,139.76222834587097L229.88243080357142,194.544721609354L230.03922321428573,133.44668970108032L230.07635825892856,148.73496941328048L230.08461049107143,142.28292930722236L230.31567299107144,144.95901099443435L230.64576227678572,153.8116928100586L230.95109486607143,136.6422175526619L231.05837388392857,155.66444549560546L231.18628348214284,128.6061707496643L231.45035491071428,152.1428850352764L232.9935223214286,137.88286850452423L233.53404352678572,137.83115229606628L233.53816964285716,145.56283096075057L234.35101450892856,137.51748958826064L234.89978794642857,152.09974599480628L234.92454464285714,137.36329046487808L234.98231026785714,152.03506908416747L235.06895870535715,152.99265766739845L235.24225558035715,140.20724937915801L236.13349665178572,142.54690668582916L236.2737845982143,154.24943432807922L236.41407254464283,144.3629558444023L236.6410089285714,152.64321455955505L236.69052232142857,159.99462822675704L236.78129687499998,160.19998440742492L236.83493638392858,153.2758888363838L237.41259263392857,144.16740590929984L237.4456015625,148.33435869812965L237.83345647321428,135.93963882923126L237.936609375,150.14554429650306L238.47713058035714,139.13701293468475L239.17857031249997,162.62842542529106L239.53341629464285,133.70067093372344L239.5829296875,144.59626958370208L239.62831696428572,138.5888126850128L239.65307366071428,145.46643013358116L240.362765625,144.2160573363304L240.52781026785715,135.65202412605285L241.83991517857143,142.99238664507865L241.88530245535713,129.86323753595352L242.13286941964284,117.05545792579652L242.6568861607143,159.84201688170432L242.7724174107143,150.26032326221465L243.36657812500002,145.25715461969375L243.6100189732143,146.52743530869483L244.0473872767857,132.96719119548797L244.5342689732143,144.01423013806343L245.33060937500002,141.5585489630699L245.8670044642857,123.55532655715943L245.88350892857142,147.35924125313758L245.9371484375,124.28466013669969L246.601453125,145.46517995595931L247.50507254464287,154.49190021157264L247.83516183035715,149.32225221991538L247.89292745535715,132.87543765306472L248.06209821428573,156.65707597732543L248.08685491071427,153.53680143356323L248.1776294642857,155.5878101348877L248.21476450892857,150.85175222754478L248.64388058035715,136.95547935962676L248.71815066964288,151.01220751404762L249.08124888392857,124.6860779285431L249.62589620535715,140.09640029668807L249.96011160714286,140.62891266345977L249.97248995535713,135.93947002887725L249.98486830357143,136.32110652923583L250.07151674107143,157.824293500185L250.08802120535717,152.7236901283264L250.16229129464287,133.18338224887847L250.2860747767857,151.85770211219787L250.529515625,145.5524128139019L251.15668526785714,150.9822349011898L251.61881026785716,156.76053476929664L251.73846763392856,156.8587502002716L251.90763839285714,154.7927182674408L252.23772767857142,159.83631459474563L252.38626785714285,143.58483368754386L252.55956473214286,143.6610945224762L252.82363616071427,163.7135954260826L252.88965401785714,134.0655750989914L252.89378013392857,142.92562083005905L253.00931138392858,163.2342340707779L253.66123772321427,165.64147481918334L253.6777421875,146.59857938289642L253.70249888392857,143.90441495776176L254.0697232142857,136.45322445631027L254.83305468749998,146.91599262356758L254.88256808035715,146.7105942428112L254.95683816964285,149.6337310731411L254.96509040178572,161.43167311549186L255.5386205357143,144.42016333937644L255.65002566964284,151.05935028791427L256.0915200892857,146.31795934438705L257.0611573660714,152.4250242769718L257.51915625,144.8684707045555L257.6800747767857,139.666539645195L257.81623660714286,150.6300962626934L258.23297433035714,155.0968437552452L258.2742354910714,149.88063851594924L258.4145234375,146.31443036198615L259.0416930803571,137.12322471141815L259.08708035714284,119.61302593946458L259.52444866071426,152.76976207494735L259.71425,152.89636234045028L259.8050245535714,139.68483338356017L259.8545379464286,150.6574471950531L260.6467522321429,151.49427495002746L261.45959709821426,142.98926911354064L261.58338058035713,131.58803955316543L261.6163895089286,132.6314894914627L261.78968638392854,156.39961323738098L262.1115234375,142.50186336636543L262.48287388392856,134.20804259777069L262.6479185267857,138.26741681098937L262.95737723214285,139.07792226076126L263.1059174107143,147.25912154316902L263.51440290178573,128.5726111292839L263.6093035714286,138.28542569875717L264.3066171875,151.8966633439064L265.19373214285713,141.3170273065567L265.4743080357143,142.29841673970222L266.0725948660714,148.38861746191978L266.35317075892857,142.2954416334629L266.36142299107144,145.54349804520606L266.9308270089286,136.9478938937187L267.7766808035714,123.85656133890153L268.0820133928571,140.18813273906707L268.20167075892857,159.70029315948486L268.25531026785717,150.5583191871643L268.7133091517857,159.5621511697769L268.93611941964286,141.47607944011688L268.97738058035713,157.55810589194297L269.1465513392857,165.73974300026893L269.2001908482143,152.60635278224944L269.35285714285715,153.28395432829856L269.97590066964284,150.08989820480346L270.5370524553571,146.9750358223915L272.1503638392857,143.26778442263603L273.058109375,131.36089757680892L273.22728013392856,150.27935022711753L273.9163415178571,148.6723075568676L273.9534765625,151.60529810786247L273.96585491071426,145.119956856966L274.4321060267857,145.01193518042564L274.86534821428575,148.8955987751484L275.04689732142856,155.1286520719528L275.31509486607143,158.1018751323223L275.3811127232143,141.5390314221382L275.3852388392857,148.224965518713L275.6575625,167.2561082303524L276.05366964285713,128.08269975185394L276.061921875,127.27699456214906L276.2063359375,139.08530727624893L276.3218671875,171.4760379552841L276.408515625,132.59802482128143L276.4126417410714,146.39957431554794L276.6643348214286,128.5994398355484L276.7839921875,139.96993718147277L277.6752332589286,154.69439206123351L277.84440401785713,145.74746689796447L277.8691607142857,124.84634331464768L278.04245758928573,149.37889528870582L278.3890513392857,151.07638857364654" style="fill: none;" fill="none"></path></g></g></g></g></g></g><g transform="translate(41, 177)" clip-path="url(#clip_1)"><clipPath id="clip_1"><rect width="288" height="23"></rect></clipPath><g><g><line x1="0" y1="0" x2="0" y2="5" style="visibility: inherit;" fill="rgb(0, 0, 0)" stroke="rgb(204, 204, 204)" stroke-width="1px"></line><line x1="20.630580357142858" y1="0" x2="20.630580357142858" y2="5" style="visibility: inherit;" fill="rgb(0, 0, 0)" stroke="rgb(204, 204, 204)" stroke-width="1px"></line><line x1="41.261160714285715" y1="0" x2="41.261160714285715" y2="5" style="visibility: inherit;" fill="rgb(0, 0, 0)" stroke="rgb(204, 204, 204)" stroke-width="1px"></line><line x1="61.89174107142857" y1="0" x2="61.89174107142857" y2="5" style="visibility: inherit;" fill="rgb(0, 0, 0)" stroke="rgb(204, 204, 204)" stroke-width="1px"></line><line x1="82.52232142857143" y1="0" x2="82.52232142857143" y2="5" style="visibility: inherit;" fill="rgb(0, 0, 0)" stroke="rgb(204, 204, 204)" stroke-width="1px"></line><line x1="103.15290178571429" y1="0" x2="103.15290178571429" y2="5" style="visibility: inherit;" fill="rgb(0, 0, 0)" stroke="rgb(204, 204, 204)" stroke-width="1px"></line><line x1="123.78348214285714" y1="0" x2="123.78348214285714" y2="5" style="visibility: inherit;" fill="rgb(0, 0, 0)" stroke="rgb(204, 204, 204)" stroke-width="1px"></line><line x1="144.4140625" y1="0" x2="144.4140625" y2="5" style="visibility: inherit;" fill="rgb(0, 0, 0)" stroke="rgb(204, 204, 204)" stroke-width="1px"></line><line x1="165.04464285714286" y1="0" x2="165.04464285714286" y2="5" style="visibility: inherit;" fill="rgb(0, 0, 0)" stroke="rgb(204, 204, 204)" stroke-width="1px"></line><line x1="185.67522321428572" y1="0" x2="185.67522321428572" y2="5" style="visibility: inherit;" fill="rgb(0, 0, 0)" stroke="rgb(204, 204, 204)" stroke-width="1px"></line><line x1="206.30580357142858" y1="0" x2="206.30580357142858" y2="5" style="visibility: inherit;" fill="rgb(0, 0, 0)" stroke="rgb(204, 204, 204)" stroke-width="1px"></line><line x1="226.93638392857142" y1="0" x2="226.93638392857142" y2="5" style="visibility: inherit;" fill="rgb(0, 0, 0)" stroke="rgb(204, 204, 204)" stroke-width="1px"></line><line x1="247.56696428571428" y1="0" x2="247.56696428571428" y2="5" style="visibility: inherit;" fill="rgb(0, 0, 0)" stroke="rgb(204, 204, 204)" stroke-width="1px"></line><line x1="268.19754464285717" y1="0" x2="268.19754464285717" y2="5" style="visibility: inherit;" fill="rgb(0, 0, 0)" stroke="rgb(204, 204, 204)" stroke-width="1px"></line><line x1="288.828125" y1="0" x2="288.828125" y2="5" style="visibility: inherit;" fill="rgb(0, 0, 0)" stroke="rgb(204, 204, 204)" stroke-width="1px"></line></g><g transform="translate(0, 8)"><text x="0" y="0" dx="0em" dy="0.95em" style="text-anchor: middle; visibility: hidden; font-family: Roboto, sans-serif; font-size: 12px; font-weight: 200;" fill="rgb(33, 33, 33)" stroke="none" stroke-width="1px">-5k</text><text x="20.630580357142858" y="0" dx="0em" dy="0.95em" style="text-anchor: middle; visibility: inherit; font-family: Roboto, sans-serif; font-size: 12px; font-weight: 200;" fill="rgb(33, 33, 33)" stroke="none" stroke-width="1px">0</text><text x="41.261160714285715" y="0" dx="0em" dy="0.95em" style="text-anchor: middle; visibility: hidden; font-family: Roboto, sans-serif; font-size: 12px; font-weight: 200;" fill="rgb(33, 33, 33)" stroke="none" stroke-width="1px">5k</text><text x="61.89174107142857" y="0" dx="0em" dy="0.95em" style="text-anchor: middle; visibility: inherit; font-family: Roboto, sans-serif; font-size: 12px; font-weight: 200;" fill="rgb(33, 33, 33)" stroke="none" stroke-width="1px">10k</text><text x="82.52232142857143" y="0" dx="0em" dy="0.95em" style="text-anchor: middle; visibility: hidden; font-family: Roboto, sans-serif; font-size: 12px; font-weight: 200;" fill="rgb(33, 33, 33)" stroke="none" stroke-width="1px">15k</text><text x="103.15290178571429" y="0" dx="0em" dy="0.95em" style="text-anchor: middle; visibility: inherit; font-family: Roboto, sans-serif; font-size: 12px; font-weight: 200;" fill="rgb(33, 33, 33)" stroke="none" stroke-width="1px">20k</text><text x="123.78348214285714" y="0" dx="0em" dy="0.95em" style="text-anchor: middle; visibility: hidden; font-family: Roboto, sans-serif; font-size: 12px; font-weight: 200;" fill="rgb(33, 33, 33)" stroke="none" stroke-width="1px">25k</text><text x="144.4140625" y="0" dx="0em" dy="0.95em" style="text-anchor: middle; visibility: inherit; font-family: Roboto, sans-serif; font-size: 12px; font-weight: 200;" fill="rgb(33, 33, 33)" stroke="none" stroke-width="1px">30k</text><text x="165.04464285714286" y="0" dx="0em" dy="0.95em" style="text-anchor: middle; visibility: hidden; font-family: Roboto, sans-serif; font-size: 12px; font-weight: 200;" fill="rgb(33, 33, 33)" stroke="none" stroke-width="1px">35k</text><text x="185.67522321428572" y="0" dx="0em" dy="0.95em" style="text-anchor: middle; visibility: inherit; font-family: Roboto, sans-serif; font-size: 12px; font-weight: 200;" fill="rgb(33, 33, 33)" stroke="none" stroke-width="1px">40k</text><text x="206.30580357142858" y="0" dx="0em" dy="0.95em" style="text-anchor: middle; visibility: hidden; font-family: Roboto, sans-serif; font-size: 12px; font-weight: 200;" fill="rgb(33, 33, 33)" stroke="none" stroke-width="1px">45k</text><text x="226.93638392857142" y="0" dx="0em" dy="0.95em" style="text-anchor: middle; visibility: inherit; font-family: Roboto, sans-serif; font-size: 12px; font-weight: 200;" fill="rgb(33, 33, 33)" stroke="none" stroke-width="1px">50k</text><text x="247.56696428571428" y="0" dx="0em" dy="0.95em" style="text-anchor: middle; visibility: hidden; font-family: Roboto, sans-serif; font-size: 12px; font-weight: 200;" fill="rgb(33, 33, 33)" stroke="none" stroke-width="1px">55k</text><text x="268.19754464285717" y="0" dx="0em" dy="0.95em" style="text-anchor: middle; visibility: inherit; font-family: Roboto, sans-serif; font-size: 12px; font-weight: 200;" fill="rgb(33, 33, 33)" stroke="none" stroke-width="1px">60k</text><text x="288.828125" y="0" dx="0em" dy="0.95em" style="text-anchor: middle; visibility: hidden; font-family: Roboto, sans-serif; font-size: 12px; font-weight: 200;" fill="rgb(33, 33, 33)" stroke="none" stroke-width="1px">65k</text></g><line x1="0" y1="0" x2="288.828125" y2="0" fill="rgb(0, 0, 0)" stroke="rgb(204, 204, 204)" stroke-width="1px"></line></g></g></g></g></svg>