<svg viewBox="0 0 330 200" xmlns="http://www.w3.org/2000/svg"><g><g><g><g><g><line x1="40.84375" y1="174" x2="35.84375" y2="174" style="visibility: inherit;" fill="rgb(0, 0, 0)" stroke="rgb(204, 204, 204)" stroke-width="1px"></line><line x1="40.84375" y1="152.25" x2="35.84375" y2="152.25" style="visibility: inherit;" fill="rgb(0, 0, 0)" stroke="rgb(204, 204, 204)" stroke-width="1px"></line><line x1="40.84375" y1="130.5" x2="35.84375" y2="130.5" style="visibility: inherit;" fill="rgb(0, 0, 0)" stroke="rgb(204, 204, 204)" stroke-width="1px"></line><line x1="40.84375" y1="108.75" x2="35.84375" y2="108.75" style="visibility: inherit;" fill="rgb(0, 0, 0)" stroke="rgb(204, 204, 204)" stroke-width="1px"></line><line x1="40.84375" y1="87" x2="35.84375" y2="87" style="visibility: inherit;" fill="rgb(0, 0, 0)" stroke="rgb(204, 204, 204)" stroke-width="1px"></line><line x1="40.84375" y1="65.25" x2="35.84375" y2="65.25" style="visibility: inherit;" fill="rgb(0, 0, 0)" stroke="rgb(204, 204, 204)" stroke-width="1px"></line><line x1="40.84375" y1="43.49999999999998" x2="35.84375" y2="43.49999999999998" style="visibility: inherit;" fill="rgb(0, 0, 0)" stroke="rgb(204, 204, 204)" stroke-width="1px"></line><line x1="40.84375" y1="21.750000000000018" x2="35.84375" y2="21.750000000000018" style="visibility: inherit;" fill="rgb(0, 0, 0)" stroke="rgb(204, 204, 204)" stroke-width="1px"></line><line x1="40.84375" y1="0" x2="35.84375" y2="0" style="visibility: inherit;" fill="rgb(0, 0, 0)" stroke="rgb(204, 204, 204)" stroke-width="1px"></line></g><g transform="translate(30.84375, 0)"><text x="0" y="174" dx="0em" dy="0.3em" style="text-anchor: end; visibility: hidden; font-family: Roboto, sans-serif; font-size: 12px; font-weight: 200;" fill="rgb(33, 33, 33)" stroke="none" stroke-width="1px">0.6</text><text x="0" y="152.25" dx="0em" dy="0.3em" style="text-anchor: end; visibility: inherit; font-family: Roboto, sans-serif; font-size: 12px; font-weight: 200;" fill="rgb(33, 33, 33)" stroke="none" stroke-width="1px">0.8</text><text x="0" y="130.5" dx="0em" dy="0.3em" style="text-anchor: end; visibility: hidden; font-family: Roboto, sans-serif; font-size: 12px; font-weight: 200;" fill="rgb(33, 33, 33)" stroke="none" stroke-width="1px">1</text><text x="0" y="108.75" dx="0em" dy="0.3em" style="text-anchor: end; visibility: inherit; font-family: Roboto, sans-serif; font-size: 12px; font-weight: 200;" fill="rgb(33, 33, 33)" stroke="none" stroke-width="1px">1.2</text><text x="0" y="87" dx="0em" dy="0.3em" style="text-anchor: end; visibility: hidden; font-family: Roboto, sans-serif; font-size: 12px; font-weight: 200;" fill="rgb(33, 33, 33)" stroke="none" stroke-width="1px">1.4</text><text x="0" y="65.25" dx="0em" dy="0.3em" style="text-anchor: end; visibility: inherit; font-family: Roboto, sans-serif; font-size: 12px; font-weight: 200;" fill="rgb(33, 33, 33)" stroke="none" stroke-width="1px">1.6</text><text x="0" y="43.49999999999998" dx="0em" dy="0.3em" style="text-anchor: end; visibility: hidden; font-family: Roboto, sans-serif; font-size: 12px; font-weight: 200;" fill="rgb(33, 33, 33)" stroke="none" stroke-width="1px">1.8</text><text x="0" y="21.750000000000018" dx="0em" dy="0.3em" style="text-anchor: end; visibility: inherit; font-family: Roboto, sans-serif; font-size: 12px; font-weight: 200;" fill="rgb(33, 33, 33)" stroke="none" stroke-width="1px">2</text><text x="0" y="0" dx="0em" dy="0.3em" style="text-anchor: end; visibility: hidden; font-family: Roboto, sans-serif; font-size: 12px; font-weight: 200;" fill="rgb(33, 33, 33)" stroke="none" stroke-width="1px">2.2</text></g><line x1="40.84375" y1="0" x2="40.84375" y2="174" fill="rgb(0, 0, 0)" stroke="rgb(204, 204, 204)" stroke-width="1px"></line></g></g><g transform="translate(40, 0)" clip-path="url(#clip_0)"><clipPath id="clip_0"><rect width="289" height="174"></rect></clipPath><g><g><g><line x1="0" y1="0" x2="0" y2="174" fill="rgb(0, 0, 0)" stroke="rgb(66, 66, 66)" stroke-width="1px" opacity="0.25"></line><line x1="26.28693181818182" y1="0" x2="26.28693181818182" y2="174" fill="rgb(0, 0, 0)" stroke="rgb(66, 66, 66)" stroke-width="1px" opacity="0.25"></line><line x1="52.57386363636364" y1="0" x2="52.57386363636364" y2="174" fill="rgb(0, 0, 0)" stroke="rgb(66, 66, 66)" stroke-width="1px" opacity="0.25"></line><line x1="78.86079545454545" y1="0" x2="78.86079545454545" y2="174" fill="rgb(0, 0, 0)" stroke="rgb(66, 66, 66)" stroke-width="1px" opacity="0.25"></line><line x1="105.14772727272728" y1="0" x2="105.14772727272728" y2="174" fill="rgb(0, 0, 0)" stroke="rgb(66, 66, 66)" stroke-width="1px" opacity="0.25"></line><line x1="131.4346590909091" y1="0" x2="131.4346590909091" y2="174" fill="rgb(0, 0, 0)" stroke="rgb(66, 66, 66)" stroke-width="1px" opacity="0.25"></line><line x1="157.7215909090909" y1="0" x2="157.7215909090909" y2="174" fill="rgb(0, 0, 0)" stroke="rgb(66, 66, 66)" stroke-width="1px" opacity="0.25"></line><line x1="184.00852272727272" y1="0" x2="184.00852272727272" y2="174" fill="rgb(0, 0, 0)" stroke="rgb(66, 66, 66)" stroke-width="1px" opacity="0.25"></line><line x1="210.29545454545456" y1="0" x2="210.29545454545456" y2="174" fill="rgb(0, 0, 0)" stroke="rgb(66, 66, 66)" stroke-width="1px" opacity="0.25"></line><line x1="236.58238636363637" y1="0" x2="236.58238636363637" y2="174" fill="rgb(0, 0, 0)" stroke="rgb(66, 66, 66)" stroke-width="1px" opacity="0.25"></line><line x1="262.8693181818182" y1="0" x2="262.8693181818182" y2="174" fill="rgb(0, 0, 0)" stroke="rgb(66, 66, 66)" stroke-width="1px" opacity="0.25"></line><line x1="289.15625" y1="0" x2="289.15625" y2="174" fill="rgb(0, 0, 0)" stroke="rgb(66, 66, 66)" stroke-width="1px" opacity="0.25"></line></g><g><line x1="0" y1="174" x2="289.15625" y2="174" fill="rgb(0, 0, 0)" stroke="rgb(66, 66, 66)" stroke-width="1px" opacity="0.25"></line><line x1="0" y1="152.25" x2="289.15625" y2="152.25" fill="rgb(0, 0, 0)" stroke="rgb(66, 66, 66)" stroke-width="1px" opacity="0.25"></line><line x1="0" y1="130.5" x2="289.15625" y2="130.5" fill="rgb(0, 0, 0)" stroke="rgb(66, 66, 66)" stroke-width="1px" opacity="0.25"></line><line x1="0" y1="108.75" x2="289.15625" y2="108.75" fill="rgb(0, 0, 0)" stroke="rgb(66, 66, 66)" stroke-width="1px" opacity="0.25"></line><line x1="0" y1="87" x2="289.15625" y2="87" fill="rgb(0, 0, 0)" stroke="rgb(66, 66, 66)" stroke-width="1px" opacity="0.25"></line><line x1="0" y1="65.25" x2="289.15625" y2="65.25" fill="rgb(0, 0, 0)" stroke="rgb(66, 66, 66)" stroke-width="1px" opacity="0.25"></line><line x1="0" y1="43.49999999999998" x2="289.15625" y2="43.49999999999998" fill="rgb(0, 0, 0)" stroke="rgb(66, 66, 66)" stroke-width="1px" opacity="0.25"></line><line x1="0" y1="21.750000000000018" x2="289.15625" y2="21.750000000000018" fill="rgb(0, 0, 0)" stroke="rgb(66, 66, 66)" stroke-width="1px" opacity="0.25"></line><line x1="0" y1="0" x2="289.15625" y2="0" fill="rgb(0, 0, 0)" stroke="rgb(66, 66, 66)" stroke-width="1px" opacity="0.25"></line></g></g></g><g><g><line x1="0" y1="239.25" x2="289.15625" y2="239.25" fill="rgb(0, 0, 0)" stroke="rgb(153, 153, 153)" stroke-width="1.5px"></line></g></g><g><g><line x1="26.28693181818182" y1="0" x2="26.28693181818182" y2="174" fill="rgb(0, 0, 0)" stroke="rgb(153, 153, 153)" stroke-width="1.5px"></line></g></g><g><g><g><g><g><path stroke="rgb(51, 187, 238)" stroke-width="2px" d="M26.607632386363637,29.13605037331583L26.898102982954544,51.726000264287016L27.017708522727272,45.67859043819563L27.151771874999998,58.296196399585305L27.343666477272727,68.81606529937446L27.635451420454544,78.78555081643877L27.774772159090908,84.38647899218059L28.203249147727274,89.31901452171175L28.250565625,93.54800356217338L28.271595170454546,102.93844249259902L28.343884232954547,97.31677307530227L28.836764204545457,98.1987425336507L28.863051136363637,93.21624340353416L29.576741335227272,92.44463877898283L29.8264671875,92.19159267989329L29.85801150568182,91.80852391637035L30.339062357954546,78.62692896398723L30.546729119318183,68.68119365663709L30.5782734375,61.031827190306075L30.97389176136364,66.41480247458867L31.70335411931818,81.97889902908396L31.782214914772727,81.80879852232377L32.28560965909091,70.15644648255636L32.97695596590909,76.34643847602729L33.10444758522727,84.19631928862796L33.20302357954545,81.26761302053436L33.24639701704545,87.6117715005588L33.334458238636365,81.58010755905727L33.455378124999996,86.88006868693581L33.73533394886364,87.57597844925331L33.95220113636364,95.39270291972413L33.996888920454545,82.0541739114919L34.14803877840909,94.43805323660865L34.16906832386364,97.33706982466992L34.24267173295455,109.34179805610489L34.5397140625,100.76729941401464L34.612003125,92.27829010021436L34.920874573863635,90.66086758210744L35.132484375,101.46463415070022L35.29020596590909,91.21010792698782L35.47552883522727,85.77534427472955L35.81988764204545,94.78104295108376L36.060413068181816,97.7649941081894L36.09721477272727,94.6590137020388L36.33379715909091,105.60825459687317L36.44683096590909,100.65344223068092L36.78330369318182,98.18648308915166L36.96205482954546,99.3795850420401L37.18417940340909,99.121169730684L37.52196647727273,95.4987404373954L37.529852556818184,104.00983636548298L37.61397073863637,96.82886795381707L37.66785894886363,106.59608547796526L37.71386107954545,105.76552955454336L37.753291477272725,103.55786013689941L37.79009318181818,102.31964027933614L37.8216375,99.28790717156065L37.82426619318181,104.99553311366715L38.31583181818182,106.09181911050614L38.44726647727273,109.57394553601365L38.49852599431818,108.36163023340474L38.54584247159091,105.15996117131569L38.5879015625,105.55327409944925L39.05186590909091,106.81774345899818L39.10575411931818,107.64743673721071L39.216159232954546,107.07593965482187L39.29107698863636,113.21424275607747L39.32130696022727,109.38335688096812L39.36336605113637,115.80084057559091L39.40279644886363,110.08945020383308L39.5132015625,107.3535199424369L39.548688920454545,100.48785457973138L39.589433664772734,92.77285082319055L39.68143792613636,95.14640537010834L40.01528196022728,96.30961405698781L40.11122926136364,97.57725047745899L40.27552258522727,108.358892975322L40.27815127840909,116.30140417699312L40.35964076704545,119.49830195834815L40.77497428977273,109.16057648378955L40.89983721590909,106.77073957990615L41.821194176136366,104.79351576847438L41.884282812500004,108.8591405670798L42.094578267045456,112.59031683927513L42.158981250000004,112.67462189630113L42.52436960227273,116.05485020658638L42.58220085227273,113.43016243327419L42.68471988636364,110.20470457284905L43.248574573863635,119.21622973089968L43.77299886363636,117.09749539736245L43.88340397727272,114.43508685853084L44.059526420454546,120.90706398025753L44.096328125,120.64705629310372L44.21724801136364,117.6073165009103L44.223819744318185,120.77081551967153L44.427543465909096,124.66486431847864L44.48931775568182,117.09357470089704L44.64966803977273,117.21942622551032L44.74824403409091,110.46158141546671L44.934881250000004,118.43760048540368L45.0360859375,112.81525854582746L45.162263210227266,98.18629745432828L45.535537642045455,97.44107929342448L45.66697230113636,101.02674603148375L45.806293039772726,105.856515775228L45.82337954545454,109.0480228245881L46.08756321022727,111.33746768120687L46.09413494318182,118.6732621615157L46.245284801136364,115.71201073080455L46.48975326704546,116.36057727903219L46.80388210227273,120.19578448158558L47.63323480113636,117.1384529663447L47.83170113636364,121.66314998825331L48.412642329545456,123.02432329392397L48.45470142045454,122.82243980727175L48.477045312499996,116.1597894177531L48.50858963068182,113.00880090866654L48.56116349431818,116.1672282724033L50.104206392045455,110.13728670528232L50.114721164772725,108.6349652662915L50.1252359375,108.14107272953046L50.47748082386364,115.10771504599006L50.57737116477272,121.11285676692815L50.94275951704546,102.79530949672991L50.95064559659091,114.18428754377923L50.99007599431818,109.23625151853895L51.40278082386364,110.40563012684069L51.53421548295455,115.48938314631388L51.678793607954546,120.07325144120936L51.75502571022727,126.13879134362271L51.918004687499995,122.24791289630731L51.977150284090904,115.68212993897913L52.070468892045454,118.20012181972218L52.36488252840909,121.32496733650417L52.57254928977273,118.86712611427814L53.38612982954545,117.3193665904457L53.42293153409091,121.03817890659894L53.67922911931818,115.6651305113788L53.84615113636364,120.29459811178181L53.93552670454546,131.38488241390783L53.95655625,133.0037510416293L54.0577609375,126.33648033269549L54.239140767045456,127.94782827692211L54.296972017045455,124.2297082090198L54.77670852272727,132.28803662322872L55.28536065340909,131.73801976360627L55.41548096590909,138.32294011067003L56.125228125,133.0418005940357L56.61022201704545,133.91690540653698L56.65622414772727,132.98754376377008L57.050528125,127.40289327028599L57.174076704545456,113.86488001658442L58.328073011363635,126.69897280999378L58.44767855113636,125.85109755318373L58.77495085227273,128.371156703955L58.82752471590909,127.7644295522726L58.919528977272726,125.9743054645751L59.06410710227273,128.8238094530996L59.133767471590915,130.87065648928262L59.29280340909091,132.02877720531808L59.72916647727273,130.67133791647547L59.99860752840909,131.71844917179462L60.085354403409085,132.33441826487373L60.36662457386364,129.74294977655882L60.85819019886364,128.7125510529928L60.95545184659091,131.1956764314325L61.309011079545456,126.3055577429385L61.370785369318185,124.1326917262227L61.53245,128.3188389391512L61.792690625,125.90693359677854L61.81240582386364,122.07566223803079L61.91098181818182,122.80529221453021L62.179108522727276,125.73008073900789L62.81525227272728,114.66112605055959L62.86914048295454,116.8025901515531L62.949315625000004,116.80808674092576L63.09652244318182,123.13073556301286L63.22269971590909,113.30618436740215L64.13222755681818,120.71835677389129L64.36618125,121.16340060570136L64.38195340909091,130.43224669419703L64.81043039772727,117.7564485008894L65.04701278409091,122.99740143629187L65.14558877840909,125.48486900336903L65.2178778409091,128.97325744633295L65.23890738636364,136.12185002806433L65.2927955965909,130.47759201194435L65.49520497159091,131.08276225963587L65.551721875,129.37742286824795L65.78961860795454,128.37973759116895L65.82247727272727,127.71624933208328L66.11163352272727,129.45068939045254L66.64131519886364,127.67292055794704L66.9252140625,131.49551126545137L66.97778792613637,126.00711777916827L66.98830269886363,124.99490223593278L67.03956221590909,131.10399066964845L67.52587045454545,130.64154470896756L67.57055823863637,129.39033995232603L67.89914488636363,127.38329042292608L68.23824630681818,115.32905531702622L68.2842484375,127.81427082287185L68.31447840909091,127.22548221866435L68.36442357954546,124.48784236502735L69.4119578125,126.69979057545713L69.42904431818182,128.7147624721244L70.02707201704546,123.85425529659481L70.19662272727273,123.11122211087161L70.58172627840909,123.70755824010621L70.71578963068183,122.65386441088349L70.79596477272727,123.73309451780695L71.58457272727273,124.94449961448896L72.22465951704545,129.74468135991802L72.24568906249999,134.63919795250362L72.47307102272728,136.83791866120976L72.57427571022727,129.31377483735847L72.78457116477273,133.91457712847213L72.91600582386363,137.42597027539148L73.01326747159092,138.52986884664853L73.2143625,140.554256168314L73.4890609375,146.29500827032814L73.53506306818183,138.3022155930906L74.26189673295454,127.30425153793749L74.515565625,118.52234415186561L74.7744919034091,120.53216996176907L74.7902640625,124.6079758070938L74.91249829545455,128.8624080397506L75.00318821022728,130.97006476389285L75.0215890625,131.6396107284243L75.07021988636363,122.99687470245452L75.15696676136363,130.8351992800718L75.80362528409091,132.34884526937518L75.90220127840908,138.13955654865094L76.1492984375,128.61595810750475L76.73944005681817,129.74048038303468L76.74075440340908,128.6849339722372L76.76835568181819,126.88026113026002L76.8721890625,129.13578858800327L77.2901512784091,122.04307832019089L77.33483906250001,130.28259044704768L77.38872727272727,136.73280127536017L77.41238551136362,134.72589856201864L77.57930752840909,126.24690924772295L78.31928465909091,128.13611851149008L78.48226363636364,121.13198964603666L79.00537357954545,129.70022398714977L79.17098125,127.94589275410624L79.18806775568181,128.69300977165017L79.29715852272727,133.0345511601836L79.40756363636363,131.58108480968897L79.57054261363636,130.17613232254283L79.67174730113635,133.74791450571593L80.09890994318182,129.94847338957533L80.2710893465909,130.08598472811548L80.66670767045454,125.15532951437096L80.79682798295454,127.84696059157052L80.87963181818182,126.15542953449246L80.88620355113636,120.6713135673866L80.9190622159091,126.01645900811344L81.44742954545455,131.6531210601663L81.50526079545455,130.44475154044244L81.66166803977274,140.81980060316332L82.09540241477274,140.99696628914597L82.1926640625,141.9801565388818L82.6132549715909,132.29363200545188L82.7394322443182,122.69527733015939L82.98521505681818,139.79146454744296L83.10744928977273,139.57335690267536L83.19288181818182,142.2723049915293L83.6069009943182,143.3836428044116L83.8250825284091,143.92358228074764L84.45334019886364,143.6353957742885L84.49014190340908,134.40331389250966L84.5768887784091,129.07271272982726L84.72672428977273,137.63715856698494L84.80427073863636,144.88487348215187L85.05268224431818,137.72433416400196L85.06976875000001,127.20264618607666L85.07765482954545,134.98585028655714L85.11839957386363,131.16008606676687L85.40098409090909,135.35576968863268L87.39353352272727,136.80245114251767L87.91664346590909,132.25574555924413L88.14402542613637,139.9364741738491L88.1492828125,140.03706570242957L88.17031235795454,143.7830861376233L88.20842840909091,144.82918096581142L88.2951752840909,145.56406578421021L88.46078295454545,146.01102494001046L88.88268821022727,141.001974492071L89.37425383522728,138.1500588469493L89.6239796875,143.7174129970543L89.70021178977272,143.37969724462465L89.88159161931819,137.77239785269518L90.04588494318182,138.10075689956918L90.21017826704545,130.40073252681123L90.3179546875,133.91437681891458L90.48356235795455,133.37527879701815L90.90678196022728,130.80735570565915L91.10261960227272,139.51755069718394L91.32474417613636,139.51359704152128L91.67830340909092,134.00683574089635L91.82551022727273,138.38040029531257L92.01740482954546,125.61716376260244L92.34730582386364,126.44350278684689L92.84412883522727,138.836033554728L92.9203609375,137.0722514580817L94.36614218749999,133.6902611488778L94.54095028409091,139.8950336119341L94.54883636363637,133.58778237943693L94.59483849431818,137.57081837442425L94.65004105113636,133.05368496767824L94.93393991477272,134.55702975864497L94.97862769886363,137.6228518037515L95.09560454545455,140.59845903208952L95.11137670454546,144.57974261457386L95.15737883522726,144.9507708753029L95.508309375,139.5477048519182L95.90392769886363,142.17220951097775L96.05507755681818,145.4984356521223L96.28114517045454,142.21393774501408L96.7661390625,135.34015698761894L97.3155359375,137.2433028550813L97.8636184659091,136.07525006722625L98.03974090909091,140.5025219189597L98.2684372159091,140.6296351532622L98.67982769886363,133.8211450684359L98.77051761363637,141.5822576229745L99.05835951704546,129.68565237194147L99.23185326704545,126.78826882642416L99.34620142045453,127.05148187996096L99.40271832386364,131.4820363504955L99.51969517045455,131.3516781975787L99.86668267045455,141.51601406633623L100.27281576704544,137.96238621890407L100.52254161931819,139.78168390881933L101.11531193181818,139.51382270271728L101.15079928977273,141.00754444488973L101.291434375,143.039440343911L101.74619829545455,141.04471677549753L101.7974578125,140.04792249803586L102.38497073863635,142.93228762510324L102.44543068181818,145.151665444153L102.74247301136363,146.71431079803554L103.0408296875,137.04178385316519L103.05134446022727,128.36559858548156L103.32735724431818,128.381920389101L103.37993110795455,126.00823870406454L103.52582357954546,131.5202392822856L103.65594389204544,128.62580715932575L103.9082984375,133.09261865209416L104.47083877840909,133.28983830684945L104.56021434659091,133.29432794019297L105.14904161931818,140.55518213251062L105.51574431818182,145.30853077971236L105.7142106534091,145.21788854720174L106.40687130681818,143.34016183806645L106.98518380681818,138.6290599512648L107.43731903409092,137.8664118532891L107.65024318181818,130.83224801329104L107.76327698863636,132.99344450299338L107.84476647727273,128.09365589657068L108.2285556818182,126.17160791896963L108.28375823863637,132.59982566084375L108.8541846590909,134.8740528943891L109.04870795454545,132.12787789838043L109.8373159090909,134.48200210771873L109.90829062499999,141.60332892442892L109.99372315340909,136.802251256139L110.28025071022728,129.31809499062948L110.52471917613636,132.13120827792795L111.06097258522726,134.0720455748958L111.58013948863636,139.31625974792973L111.62482727272727,137.26154696714124L112.14662286931818,141.99069907528903L112.26754275568182,138.70837114609924L112.30434446022727,133.1331827304223L112.452865625,136.35674957999342L112.61847329545454,141.69669074755166L112.6684184659091,143.89430859649926L112.82482571022726,136.47450376131982L112.84716960227273,134.9700663720301L112.94574559659091,139.41362434236595L112.97597556818181,138.013996604731L113.0167203125,136.97637360909602L113.30981960227273,127.73281856548203L113.3361065340909,132.48479486209996L113.35450738636364,134.0504616064003L113.41759602272728,135.7250714160306L113.70280923295455,138.04953983767643L113.89076079545454,141.87627180423627L113.90653295454545,140.83577404025965L113.92756250000001,140.8899676001297L114.00905198863636,134.2976593015329L114.71748480113637,138.10281346665238L115.01978451704545,135.84949542538175L115.03555667613637,137.3517751780501L115.44431846590909,144.8136167101473L115.52843664772728,141.8051984055287L115.65461392045454,140.32247938772716L115.90959715909091,136.93769344723628L116.23818380681817,141.32175639889482L116.26184204545454,134.20917783750204L116.43402144886363,137.9643565808124L116.47608053977272,140.71287829246438L116.74815028409091,136.83101821283293L117.0635934659091,141.505366446613L117.28440369318182,144.47267371537612L117.58144602272728,143.71461671663715L117.67213593749999,139.2509683017337L117.81802840909091,132.349794402385L117.86403053977273,137.4939816085483L118.05723948863637,141.18349153327856L118.54749076704546,140.26132786588616L118.76435795454545,135.45001087377514L119.06402897727273,142.4936732637289L119.07060071022727,142.22380675002353L119.44124644886364,137.78481095507394L119.54113678977274,138.69291014358194L119.5503372159091,135.89077075651164L119.71200184659091,134.09111793238446L119.81452088068181,139.1881196641834L119.87629517045454,138.18108970784613L119.9420125,133.5344703606574L120.51769630681818,135.87100346754838L120.70039048295455,132.10334016007693L121.2997325284091,142.82457014991348L121.64277698863636,141.67624016447965L121.68877911931818,137.53048736956183L122.39721193181819,142.22996923986952L122.50235965909091,135.98509017028735L122.55230482954545,132.22460755943254L122.82963196022727,136.9028267040193L122.97683877840909,142.36976048197388L123.13587471590908,133.85782332924626L123.33565539772728,143.24857296769395L123.43686008522727,136.70951637163503L123.44606051136364,136.7441866072103L123.47366178977273,131.8221175952008L123.59589602272726,140.2847139527351L123.8009340909091,145.63409594833553L124.54222556818182,140.08458384954753L124.86949786931818,139.5520147745837L125.00750426136364,145.2710937419551L125.05482073863637,146.17011247032985L125.10476590909091,144.43869581791225L125.13236718750001,143.48968382461348L125.34792002840909,141.82127340306926L125.44386732954545,132.7681014875775L125.51615639204545,136.0590507769707L125.60553196022727,131.8546489706113L126.46511463068182,134.2756179887339L126.87519076704545,135.9084847043922L127.21954957386363,135.17595456069535L127.50739147727273,141.11920728102817L128.2250247159091,142.23202851900754L128.29205639204545,137.45981514149486L128.55098267045454,140.01732058342444L128.74024857954547,142.66622053990451L128.92294275568182,138.8587986195665L128.99523181818182,142.64829540041575L129.05043437499998,140.13042268626384L129.1069512784091,148.1126214830428L129.26861590909093,153.52775242736038L129.36193451704546,140.18465840107262L129.37770667613637,139.66057601741588L129.58143039772727,126.56117525799056L130.19917329545456,129.68342306675302L130.35426619318181,135.49044397152537L130.42261221590908,135.91728656695528L130.84846051136364,139.91676823023704L131.25722230113635,142.5267749591097L132.0563450284091,150.57861368438154L132.08263196022727,153.03806532967417L133.55732883522728,153.0646011027594L133.69664957386365,151.31095331864952L134.69686732954546,144.2384857175195L134.79544332386362,142.2467396520045L135.04648352272727,147.9566713012735L135.57485085227273,138.4046292923379L135.60902386363637,147.69171213045647L135.8035471590909,141.25321082434016L136.42260440340908,141.7931572148857L136.5658681818182,149.4644622951542L136.67758764204547,142.7779492825147L136.7433049715909,141.9753340655492L137.06137684659092,146.12360450470007L137.77243835227273,143.85222369339203L137.81975482954545,133.31567523423513L138.1733140625,140.00234481420327L138.55841761363638,144.33583586648825L138.80157173295456,146.1553674413903L139.03683977272726,145.67436526263614L139.61252357954544,144.78819568183937L139.8491059659091,136.6119074894602L139.87407855113636,142.25335253915875L140.1855786931818,149.04386246586853L140.26181079545455,151.65261039963372L140.46027713068182,149.17022032637004L140.49576448863635,149.64066979347828L140.55491008522728,170.30012598072983L141.05699048295455,154.06654359361826L141.5393556818182,151.95963450349151L141.67867642045454,149.74688389943108L141.8298262784091,156.52435088781158L142.0769234375,157.32273892538333L142.24384545454544,151.93257798538556L142.68152286931817,143.9936554240343L143.04296818181817,147.2965479497407L143.84997698863637,143.49404545451964L144.25348139204544,143.16358342066863L144.63595625,166.02850598869L144.76344786931818,168.83691999183463L144.80419261363636,158.6259722105644L144.82653650568182,154.10682672810447L145.33650298295456,141.1345612797254L145.3457034090909,146.75316762883148L145.63748835227273,145.4909812149923L145.65851789772728,140.81904905662066L145.7610369318182,144.3395706094809L145.8832711647727,150.76030381187843L146.44449715909093,145.51460134783414L146.8611450284091,144.86729442953484L147.00966619318183,139.8253958337272L147.19761775568185,140.36938870625286L147.45260099431817,139.7268465261256L147.5393478693182,143.56084986332627L147.5406622159091,147.72864753486857L147.54723394886364,149.84553180028286L147.55643437499998,146.4362795286732L148.1938924715909,142.61488692959293L148.28852542613637,139.70193608999338L148.9877578125,141.67393941521698L149.46092258522728,143.97099620604547L149.51875383522727,144.58474518957158L149.52926860795452,140.81110739172948L149.8420830965909,143.49415177381906L149.8525978693182,145.15677822397274L150.05237855113637,140.5480652735598L150.45456860795457,141.99838101184173L150.9829359375,143.6573319513548L151.2602630681818,141.2052714275687L151.4613580965909,146.0682453302961L152.0541284090909,143.89309750726352L152.17241960227273,138.64355831581668L152.65872784090908,140.63046345852803L153.62477258522728,143.9812931522309L153.79695198863638,153.56372450617428L154.96277741477272,152.08471826808142L155.80133053977272,155.89635857401183L155.9406512784091,144.35168242727454L156.47427599431816,138.58864038154326L156.49661988636365,145.16551912405993L156.54130767045453,149.24579276191537L156.57022329545455,145.32636440126504L156.85543650568184,143.3175795276666L156.95926988636364,152.54506213663245L158.0370340909091,148.37915420650378L158.19344133522728,149.09921879839263L158.28807428977274,154.0336686806164L158.5864309659091,151.10472912408602L158.76781079545455,156.01814983378463L158.949190625,152.60445389205583L159.1673721590909,148.64990973505002L159.26594815340908,151.1089165272273L159.44995667613637,152.9818101204608L159.69442514204545,147.711641977857L159.87974801136366,149.97544348873524L160.41863011363637,153.79472135089532L160.56189389204545,157.82714721907791L160.56846562500002,148.8078031203128L160.67492769886363,139.20025732880694L161.01928650568183,144.38212525108972L161.4096474431818,146.75964801466176L161.59759900568181,146.30741990182227L161.60285639204545,149.7537826214637L161.97481647727275,144.6103306659702L162.19694105113635,142.68207783988973L162.33231875,143.8154285698644L162.61096022727273,141.15291269120644L162.86988650568182,144.78198390303297L163.42585511363637,134.38462968527222L163.43505553977275,139.79186015045013L163.52180241477274,148.9610778016768L163.58620539772727,154.6713730348898L164.13034488636364,156.6686569663139L164.24995042613634,149.264060867563L164.39452855113637,157.61305027171082L164.48258977272727,154.7670341429955L164.68499914772727,148.0799844323305L164.98204147727273,148.78601131789134L165.0766744318182,149.7052493390575L165.09901832386362,151.84999900443165L165.24228210227272,151.99222263325936L165.28828423295454,157.54195194619706L165.34217244318182,155.48215265976077L165.88368323863637,159.46709262077025L166.01774659090907,156.2149162813664L166.05586264204544,156.056203807869L166.08477826704544,149.86407749979404L166.23987116477272,147.92772319989626L166.79189673295457,150.7410936002566L166.87864360795456,149.9968263891121L167.00876392045453,150.93536165873886L167.02322173295454,152.25239965033936L167.07448125,145.1011005324865L167.30580625,134.31422665612365L167.74348366477273,148.00965560612957L167.94983607954546,146.31375438057114L168.02606818181818,147.25405662109094L168.06286988636364,147.44762024789833L168.173275,156.58649953311553L168.32573920454544,149.1270208007447L169.73471874999998,145.88661705531788L169.81883693181817,154.84489221619435L170.20656917613636,156.90744120625774L170.75202301136363,156.94736052005362L170.89922982954545,152.61812711029572L170.92814545454544,149.58727798622445L171.3960528409091,154.2267150209045L171.52223011363634,154.6487001613197L172.14128735795455,156.97590471717223L172.19648991477274,152.3609948063642L172.46330227272728,156.80356735615433L172.5277052556818,146.14424482958617L172.59079389204547,150.37243213043868L172.6302242897727,149.50877572766697L172.97852613636366,148.55694092912526L173.44511917613636,157.39428120614917L173.86176704545454,157.95680728412765L173.89199701704544,160.78563492808996L173.92485568181817,147.53031470366872L174.04971860795453,149.35439240925643L174.08257727272726,151.57667421694478L174.19298238636364,144.81156870958733L174.2126975852273,146.67698548577744L174.35201832386363,154.71334137524673L174.35333267045456,151.49166327718203L174.74106491477272,142.61314126255098L175.40612428977275,148.32947721720925L176.32353821022727,148.47176654721017L176.39056988636364,155.22475877752728L176.59955099431818,157.62750089973704L176.61269446022726,150.2662202287346L176.88213551136363,149.45508791617334L177.13317571022728,145.3005814886795L177.20415042613638,142.16871044258517L177.2251799715909,149.62495603096627L177.90732585227272,143.37766915519322L177.91258323863636,151.8543016431289L177.99801576704544,153.98680995211348L178.27008551136365,151.0899745959362L178.3068872159091,150.9727843247843L178.48958139204547,151.43795119780256L178.958803125,155.34906398688526L178.9601174715909,143.96150364538892L179.0849803977273,142.50454614198722L179.28476107954546,147.71296078942132L179.53185823863637,150.664190721404L179.537115625,157.5077303301641L180.27183536931818,155.58984930821353L180.40064133522728,154.12448675935323L181.06964374999998,153.1902525633863L181.90425383522725,150.85683697523424L182.13557883522728,144.2683366302356L182.23678352272725,142.5453236141029L182.72703480113637,138.6112203978433L182.80720994318182,140.52246206897104L182.96098849431817,145.90029702125554L183.0345919034091,148.05711711966134L183.36186420454547,147.22037445022545L183.84291505681819,149.01765681811503L184.37391107954545,148.9033658177157L184.46197230113637,147.86737788143753L184.6814681818182,152.32396424068807L185.22823636363634,143.1801317468512L185.28212457386365,145.8501004001634L185.3149832386364,144.78115323311906L185.4924200284091,152.87082284764543L186.07336122159091,158.331291032291L186.19428110795454,159.71348596957716L186.60961463068182,158.63423356620905L187.24575838068182,153.40408081536552L187.41399474431816,155.82343737319147L187.4862838068182,144.5020942809286L187.82669957386364,142.24001813662662L188.32220823863636,148.23125571449168L188.54827585227275,154.67089845204094L189.23173607954547,160.30267432608449L189.45911803977273,152.32958648966698L189.50249147727274,148.792744525474L190.05451704545453,144.8583562780629L190.41859105113636,143.3084484523064L190.69066079545456,141.64308397683658L190.7248338068182,146.15473121829723L191.1901125,152.3137243534797L191.44509573863638,154.25284168992482L191.6225325284091,151.4159581892135L191.9300896306818,151.06638661220327L192.07729644886365,154.3953413855711L192.83567443181818,156.47318186114308L193.0236259943182,153.32457848638342L193.20369147727274,159.65840000063207L193.78331832386365,160.99385342091338L194.01201463068182,162.78289489799747L195.11475142045455,162.0958383074642L195.15286747159092,161.19176795430425L195.3960215909091,158.972526951715L195.4591102272727,161.02239551191607L195.56557230113637,164.04579930928398L195.73512301136364,154.11501613513857L196.21223082386362,156.5525759712233L196.2385177556818,156.42589274974904L196.24377514204545,158.4268728252187L196.27137642045454,159.16233551835623L196.5224166193182,159.967696990583L196.6972247159091,159.08364119888165L197.0047818181818,152.085320411687L197.5489213068182,151.17095957908924L197.95242571022726,152.74500011035138L197.9997421875,152.76559609549244L198.0326008522727,147.67847210393546L198.46896392045454,143.54337356821418L198.70028892045454,146.2534593602164L198.74103366477274,146.2198763942804L199.1971119318182,148.05217218733347L199.4034643465909,148.98930507502862L199.68079147727272,150.58978682519142L199.78593920454546,152.15590740895954L199.9213169034091,153.82969017420223L199.9922916193182,150.54786358829745L200.63895014204545,150.15347225401644L201.05691235795453,149.7575227316251L201.33029644886363,156.26691917157356L201.91912372159092,150.08403945908654L202.23062386363637,149.4372586962325L203.45559488636363,150.9205062244381L203.65800426136363,149.29188980186257L203.73029332386363,148.99083456709548L203.77366676136364,142.9843256075058L203.85778494318183,146.1278660535141L203.9287596590909,158.33060447212006L203.94584616477272,147.8586975087878L204.22711633522727,150.92664170564154L204.4899856534091,154.38100227892957L205.75044403409092,156.14289463270046L206.04222897727274,149.39796199028694L206.3261278409091,153.5512029923499L206.43784730113637,153.92698034629228L206.93992769886364,152.60290528526903L207.07661974431818,155.16031287426352L207.54715582386362,148.99505838343262L207.63127400568183,154.3987203037069L207.76533735795454,156.6107920167044L207.83631207386364,146.80469861967535L207.86259900568183,153.3467845221947L207.94145980113635,157.0772388458604L208.23587343749998,160.5281986642095L208.80235681818183,154.1472225515969L209.07836960227272,153.6362930434303L209.09019872159092,162.43945199235418L210.072015625,162.44073003521046L210.45186178977272,165.8273618637948L210.49654957386363,168.03969367858343L210.6082690340909,156.95081455419407L210.74496107954548,156.5503222042915L210.75810454545453,164.63732913104278L210.79753494318183,160.54782242755638L210.91976917613638,161.34137480366556L211.14189374999998,159.54507858102517L211.42447826704546,158.59422110047936L212.0106768465909,159.20734148935674L212.0225059659091,150.00762378404258L212.1697127840909,151.93298534887862L212.2406875,159.6910293897261L212.28537528409092,150.4941972017449L212.4562403409091,150.45479751349458L212.4864703125,147.55920680595023L212.57978892045455,151.53250666995396L213.5248041193182,150.47083416306705L213.58526406250002,157.70777377917605L213.74692869318181,152.8974526252403L214.35941420454546,147.2442630723747L214.37650071022728,153.89212742421822L214.6722286931818,157.77937931998844L214.8575515625,149.87766593804523L215.4069484375,157.35857523745636L215.86696974431817,156.70481651584115L216.29150369318182,147.40711075997237L216.54648693181818,153.14660495481422L216.5478012784091,157.8027320084663L216.5898603693182,154.9264739082868L217.88449176136365,162.87303226152747L218.0238125,166.162141883133L218.18153409090908,165.24503266439328L218.41023039772725,164.92004533186847L218.53903636363637,160.00366670832213L218.81504914772728,155.3160217401098L219.1094627840909,156.0087657092041L219.27769914772725,149.54045005548156L219.33421605113637,159.408462464262L219.82709602272726,158.140931063562L221.81701676136365,160.70055747250876L221.86433323863636,163.1555775774727L222.27309502840907,161.12749273617325L222.32041150568182,153.82439164542708L223.33903011363637,157.3408931209061L223.34034446022727,154.61166345557052L223.58612727272725,154.0995313851862L224.63891889204544,158.16781302266293L224.69280710227275,154.31983174069507L224.73486619318183,146.3369420062529L224.85052869318181,153.45649505204122L224.85447173295455,160.2423892411361L225.11076931818184,168.38749001579106L225.397296875,167.413710726241L225.40123991477273,159.51682093318684L225.49061548295455,157.10916495070686L225.83103125,162.3132236465563L225.94143636363637,166.45429300455748L226.11493011363638,164.47212266438305L226.20956306818184,164.67989480205236L226.29893863636363,162.64852650587474L226.31996818181818,165.61604112163016L226.43563068181817,163.71098030671376L226.47506107954547,159.07189769187508L227.06520269886363,153.73678347253167L227.07177443181817,153.4133414792023L227.15194957386362,150.72503182691347L227.30047073863636,155.07089630008943L227.46870710227273,155.68930022264246L227.6080278409091,155.45621192064718L227.7250046875,158.46440436009667L227.86826846590907,159.5119260463959L228.1574247159091,155.31664233886278L228.5635578125,156.0488805382435L228.9710052556818,155.03704770857004L229.3863387784091,150.03438625606245L229.6347502840909,152.84777802748886L229.75829886363636,155.7942347498143L229.81875880681818,152.66181662508276L229.87527571022727,148.84935922520415L229.94625042613637,153.64956846295033L231.2067088068182,160.04747559105297L231.30659914772727,162.20608673378788L231.76793480113636,161.1813282304106L231.7705634943182,161.43869951564656L231.99400241477272,158.7273837459003L232.15566704545455,158.77490139197798L232.30813125,165.75558026547128L232.67220525568183,162.27086735913093L233.00473494318183,160.45737090795598L233.34777940340908,160.24080973916864L233.6343069602273,160.50378885301123L234.58195085227274,158.9786403681765L234.77778849431817,162.5017179552275L235.07877386363634,160.78853942177045L235.58348295454545,161.41956150067656L235.6728585227273,162.7330976815987L236.06059076704543,159.16915188979914L236.35763309659092,159.19700051994212L236.41415,161.14723737627915L236.53901292613634,156.89285646433026L236.68096235795454,159.15601028534405L236.81765440340908,158.86044678409476L237.1344119318182,157.30106740784396L237.23561661931817,154.9822784161076L237.53134460227272,153.38301303359896L238.02422457386365,155.98641237242833L238.467159375,154.77050571217427L238.49081761363635,155.88137409433298L238.82991903409092,159.78081073370322L239.07044446022726,151.26167254451957L239.10593181818183,152.97865014555484L240.31775937499998,155.28838451673047L240.41370667613637,159.40977131110108L240.47285227272727,164.62001378406092L240.491253125,165.87631340067983L240.5188544034091,167.81055186534763L240.62531647727272,165.48008663263823L240.80275326704546,169.05384248380008L241.26277457386365,166.95954655339804L241.54535909090907,170.13802431065133L241.80034232954546,168.23140510343487L242.197275,158.2007704998432L242.35893963068182,158.73495537193884L242.44700085227274,157.25111460776492L242.50877514204547,161.33123760277846L242.83341875,164.9494974127699L243.1383471590909,160.8180100924545L243.38675866477274,157.91199245493254L243.48796335227271,154.52885201836014L243.90198252840906,156.78402169504395L243.9742715909091,160.58778554772513L244.2647421875,163.4402451072644L244.8167677556818,166.15403588739102L245.51600014204547,164.62263103203216L245.71578082386364,166.24634166286134L245.73418167613636,164.80039734676922L245.98127883522727,151.85520360490943L246.03253835227272,160.0992596842126L246.04699616477274,165.36404016001677L246.1192852272727,157.0508146547297L246.12717130681818,154.91099980253097L246.28489289772727,156.78098233805963L246.83034673295455,159.67724445025246L247.0432708806818,159.45957523322176L247.55980909090908,161.72904240331692L247.82399275568181,154.110990996609L247.8647375,155.53995594707123L247.91994005681818,161.8848033984124L248.08423338068184,169.11491062877295L248.4417356534091,160.19039838694164L248.6730606534091,159.77466262091772L248.68488977272727,153.9874626917218L249.31314744318183,155.8627710296258L249.57338806818183,157.42732967457442L249.62333323863635,159.80987186742584L249.68116448863634,155.6877698154018L249.75345355113637,161.54361810390745L249.8296856534091,162.51118733349202L250.0478671875,156.26465550579283L250.0780971590909,161.35570230196507L250.21873224431818,162.69409506982916L250.37776818181817,159.51727033535454L250.63800880681816,157.98621393966562L250.64589488636364,160.7473832948678L250.70766917613636,163.15537782214125L251.00865454545453,158.82926093758365L251.09803011363636,162.32137593162787L251.15191832386364,167.29505967815362L251.17426221590907,165.66698881220603L251.2176356534091,167.09247591633667L251.48970539772728,164.3309648903553L251.9116106534091,162.81825436784888L252.15345042613637,160.8264660277013L252.49123749999998,164.65358577001356L252.91840014204544,161.5370670189158L252.9985752840909,155.98326891241643L253.08532215909094,159.65855873571738L253.850271875,163.36445682613197L253.97513480113636,154.41756403665627L254.03033735795455,155.37204875481655L254.58104857954547,158.93735170920212L254.71248323863637,158.2559693310232L254.7164262784091,160.6333286853773L254.82025965909088,159.99725323868645L254.98192428977273,149.30110176773582L255.31445397727273,158.49358822328873L255.39331477272725,163.4888810361804L255.54052159090907,165.00626681121477L255.92431079545455,163.82858514709645L256.04654502840907,164.32575709774122L256.2082096590909,159.4871412167193L256.3317582386364,159.17126403148418L257.2978029829545,157.36691726979882L257.5186132102273,162.0402856811122L257.5501575284091,156.10113449956393L257.7643960227273,162.71331322232137L258.12978437500004,165.69741176986247L258.40316846590906,166.0595740343544L259.0393122159091,166.1422194043048L259.9488400568182,171.5523185550718L260.1223338068182,168.87955805179766L260.19462286931815,169.04328526566798L260.20513764204543,173.76740973299965L260.28794147727274,171.66864551965134L260.44960610795454,169.7627680889591L260.5678973011364,171.2653672451868L260.8136801136364,167.523493108457L260.8701970170455,171.2589880569611L261.00294602272726,173.19706719778978L261.01608948863634,162.80848114885688L261.16329630681815,158.0034526657927L261.5825728693182,158.6724006636064L261.6877205965909,158.0799095453692L261.888815625,155.512721021287L262.2187166193182,159.59199002344153L262.43295511363635,163.55318258976186L262.62879275568184,166.31668715343025L262.8285734375,164.85355145135608L262.9126916193182,168.0333093011325L263.50414758522726,161.0344222726789L263.5843227272727,162.24135716213985L263.9313102272727,159.94239128502727L263.96416889204545,164.83171742482494L264.1310909090909,168.52064301564405L264.57402571022726,165.2231142937786L264.8119224431818,158.1137529444484L265.1155365056818,159.0023180622928L265.1615386363636,162.99608817571837L265.1720534090909,168.45744414850734L265.3573762784091,163.4855484111587L265.5887012784091,166.28564556500194L266.34576491477276,164.91136489546824L266.60994857954546,160.37608710072357L267.3157526988636,156.890938336503L267.5286768465909,155.94283919027538L267.6088519886364,155.79152713710718L267.62199545454547,156.07036717232856" style="fill: none;" fill="none"></path></g></g></g></g><g opacity="0.2"><g><g><g><path stroke="rgb(51, 187, 238)" stroke-width="2px" d="M26.607632386363637,29.13605037331583L26.898102982954544,65.2799701988697L27.017708522727272,39.873077005147955L27.151771874999998,73.13450101017952L27.343666477272727,82.5508061349392L27.635451420454544,92.57693830132484L27.774772159090908,92.39589589834213L28.203249147727274,96.51069867610931L28.250565625,99.78494095802307L28.271595170454546,116.88214990496635L28.343884232954547,88.9352570772171L28.836764204545457,99.5168970823288L28.863051136363637,85.75876343250275L29.576741335227272,91.28874349594116L29.8264671875,91.81232097744942L29.85801150568182,91.23419094085693L30.339062357954546,58.86011454463007L30.546729119318183,53.765115916728995L30.5782734375,49.558942794799826L30.97389176136364,74.48877337574959L31.70335411931818,105.32419028878212L31.782214914772727,81.55365335941315L32.28560965909091,52.6781484782696L32.97695596590909,85.63135313987732L33.10444758522727,95.97108471393585L33.20302357954545,76.87456610798836L33.24639701704545,97.12799298763275L33.334458238636365,72.53262090682983L33.455378124999996,94.83000549674034L33.73533394886364,88.61984270811081L33.95220113636364,107.11778703331947L33.996888920454545,62.04638305306437L34.14803877840909,113.0138707458973L34.16906832386364,101.68559449911118L34.24267173295455,127.34888988733292L34.5397140625,87.90555167198181L34.612003125,79.54477626085281L34.920874573863635,88.23473381996155L35.132484375,117.67028394341469L35.29020596590909,75.82831862568855L35.47552883522727,77.62319880723953L35.81988764204545,108.28959095478058L36.060413068181816,102.24092084169388L36.09721477272727,90.00004309415817L36.33379715909091,122.0321159362793L36.44683096590909,93.22122368216515L36.78330369318182,94.48604437708855L36.96205482954546,101.16923797130585L37.18417940340909,98.73354676365852L37.52196647727273,90.0650964975357L37.529852556818184,116.77648025751114L37.61397073863637,86.05741533637047L37.66785894886363,121.2469117641449L37.71386107954545,104.51969566941261L37.753291477272725,100.24635601043701L37.79009318181818,100.4623104929924L37.8216375,94.74030750989914L37.82426619318181,113.55697202682495L38.31583181818182,107.73624810576439L38.44726647727273,114.79713517427444L38.49852599431818,106.54315727949142L38.54584247159091,100.35745757818222L38.5879015625,106.14324349164963L39.05186590909091,108.71444749832153L39.10575411931818,108.89197665452957L39.216159232954546,106.21869403123856L39.29107698863636,122.42169740796089L39.32130696022727,103.63702806830406L39.36336605113637,125.4270661175251L39.40279644886363,101.52236464619637L39.5132015625,103.24962455034256L39.548688920454545,90.18935653567314L39.589433664772734,81.20034518837929L39.68143792613636,98.706737190485L40.01528196022728,98.05442708730698L40.11122926136364,99.47870510816574L40.27552258522727,124.53135672211647L40.27815127840909,128.21517097949982L40.35964076704545,124.29364863038063L40.77497428977273,93.65398827195168L40.89983721590909,103.18598422408104L41.821194176136366,101.82768005132675L41.884282812500004,114.95757776498795L42.094578267045456,118.18708124756813L42.158981250000004,112.80107948184013L42.52436960227273,121.12519267201424L42.58220085227273,109.4931307733059L42.68471988636364,105.3665177822113L43.248574573863635,132.73351746797562L43.77299886363636,113.91939389705658L43.88340397727272,110.44147405028343L44.059526420454546,130.61502966284752L44.096328125,120.25704476237297L44.21724801136364,113.04770681262016L44.223819744318185,125.51606404781342L44.427543465909096,130.5059375166893L44.48931775568182,105.73664027452469L44.64966803977273,117.40820351243019L44.74824403409091,100.3248142004013L44.934881250000004,130.40162909030914L45.0360859375,104.38174563646317L45.162263210227266,76.24285581707954L45.535537642045455,96.32325205206871L45.66697230113636,106.40524613857269L45.806293039772726,113.10117039084435L45.82337954545454,113.83528339862823L46.08756321022727,114.77163496613503L46.09413494318182,129.676953881979L46.245284801136364,111.27013358473778L46.48975326704546,117.33342710137367L46.80388210227273,125.94859528541565L47.63323480113636,112.55245569348335L47.83170113636364,128.45019552111626L48.412642329545456,125.06608325242996L48.45470142045454,122.5196145772934L48.477045312499996,106.16581383347511L48.50858963068182,108.2823181450367L48.56116349431818,120.90486931800842L50.104206392045455,101.0923743546009L50.114721164772725,106.38148310780525L50.1252359375,107.40023392438889L50.47748082386364,125.55767852067947L50.57737116477272,130.12056934833527L50.94275951704546,75.31898859143257L50.95064559659091,131.26775461435318L50.99007599431818,101.81419748067856L51.40278082386364,112.15969803929329L51.53421548295455,123.11501267552376L51.678793607954546,126.94905388355255L51.75502571022727,135.23710119724274L51.918004687499995,116.41159522533417L51.977150284090904,105.83345550298691L52.070468892045454,121.97710964083672L52.36488252840909,126.01223561167717L52.57254928977273,115.1803642809391L53.38612982954545,114.99772730469704L53.42293153409091,126.61639738082886L53.67922911931818,107.60555791854858L53.84615113636364,127.23879951238632L53.93552670454546,148.0203088670969L53.95655625,135.43205398321152L54.0577609375,116.33557426929474L54.239140767045456,130.3648501932621L54.296972017045455,118.65252810716629L54.77670852272727,144.37552924454212L55.28536065340909,130.9129944741726L55.41548096590909,148.20032063126564L56.125228125,125.12009131908417L56.61022201704545,135.22956262528896L56.65622414772727,131.59350129961967L57.050528125,119.02591753005981L57.174076704545456,93.5578601360321L58.328073011363635,145.95011200010777L58.44767855113636,124.57928466796875L58.77495085227273,132.15124543011189L58.82752471590909,126.854338824749L58.919528977272726,123.2891193330288L59.06410710227273,133.09806543588638L59.133767471590915,133.94092704355717L59.29280340909091,133.76595827937126L59.72916647727273,128.63517898321152L59.99860752840909,133.28911605477333L60.085354403409085,133.25837190449238L60.36662457386364,125.85574704408646L60.85819019886364,127.16695296764374L60.95545184659091,134.9203644990921L61.309011079545456,118.97037971019745L61.370785369318185,120.87339270114899L61.53245,134.59805975854397L61.792690625,122.28907558321953L61.81240582386364,116.32875519990921L61.91098181818182,123.89973717927933L62.179108522727276,130.1172635257244L62.81525227272728,98.05769401788712L62.86914048295454,120.01478630304337L62.949315625000004,116.81633162498474L63.09652244318182,132.61470879614353L63.22269971590909,98.56935757398605L64.13222755681818,131.83661538362503L64.36618125,121.83096635341644L64.38195340909091,144.33551582694054L64.81043039772727,98.74275121092796L65.04701278409091,130.85883083939552L65.14558877840909,129.21607035398483L65.2178778409091,134.2058401107788L65.23890738636364,146.84473890066147L65.2927955965909,122.01120498776436L65.49520497159091,131.99051763117313L65.551721875,126.81941378116608L65.78961860795454,126.88320967555046L65.82247727272727,126.72101694345474L66.11163352272727,132.05234947800636L66.64131519886364,125.00626730918884L66.9252140625,137.22939732670784L66.97778792613637,117.77452754974365L66.98830269886363,123.47657892107964L67.03956221590909,140.2676233202219L67.52587045454545,129.94787576794624L67.57055823863637,127.51353281736374L67.89914488636363,124.37271612882614L68.23824630681818,97.24770265817642L68.2842484375,146.54209408164024L68.31447840909091,126.34229931235313L68.36442357954546,120.38138258457184L69.4119578125,130.01771289110184L69.42904431818182,131.73722031712532L70.02707201704546,116.5634945333004L70.19662272727273,121.99667233228683L70.58172627840909,124.60206243395805L70.71578963068183,121.07332366704941L70.79596477272727,125.35193967819214L71.58457272727273,126.76160725951195L72.22465951704545,136.94495397806168L72.24568906249999,141.98097284138203L72.47307102272728,140.1359997242689L72.57427571022727,118.02755910158157L72.78457116477273,140.81578056514263L72.91600582386363,142.69305999577045L73.01326747159092,140.18571670353413L73.2143625,143.59083715081215L73.4890609375,154.90613642334938L73.53506306818183,126.31302657723427L74.26189673295454,110.80730545520782L74.515565625,105.34948307275772L74.7744919034091,123.5469086766243L74.7902640625,130.72168457508087L74.91249829545455,135.24405638873577L75.00318821022728,134.13154985010624L75.0215890625,132.64392967522144L75.07021988636363,110.03277066349983L75.15696676136363,142.59268614649773L75.80362528409091,134.61931425333023L75.90220127840908,146.82562346756458L76.1492984375,114.33056044578552L76.73944005681817,131.4272637963295L76.74075440340908,127.10161435604095L76.76835568181819,124.17325186729431L76.8721890625,132.51907977461815L77.2901512784091,111.40401291847229L77.33483906250001,142.64185863733292L77.38872727272727,146.40811751782894L77.41238551136362,131.7155444920063L77.57930752840909,113.52842527627945L78.31928465909091,130.96993240714073L78.48226363636364,110.62579634785652L79.00537357954545,142.55257549881935L79.17098125,125.31439590454102L79.18806775568181,129.813685297966L79.29715852272727,139.54686324298382L79.40756363636363,129.400885283947L79.57054261363636,128.06870359182358L79.67174730113635,139.10558778047562L80.09890994318182,124.24931171536446L80.2710893465909,130.29225173592567L80.66670767045454,117.7593466937542L80.79682798295454,131.8844072073698L80.87963181818182,123.61813294887543L80.88620355113636,112.44513961672783L80.9190622159091,134.03417716920376L81.44742954545455,140.10811413824558L81.50526079545455,128.63219726085663L81.66166803977274,156.38237419724464L82.09540241477274,141.26271481812L82.1926640625,143.45494191348553L82.6132549715909,117.763845205307L82.7394322443182,108.29774531722069L82.98521505681818,165.43574537336826L83.10744928977273,139.246195435524L83.19288181818182,146.32072712481022L83.6069009943182,145.05064952373505L83.8250825284091,144.73349149525166L84.45334019886364,143.2031160145998L84.49014190340908,120.55519106984138L84.5768887784091,121.0768109858036L84.72672428977273,150.48382732272148L84.80427073863636,155.75644585490227L85.05268224431818,126.98352518677711L85.06976875000001,111.42011421918869L85.07765482954545,146.6606564372778L85.11839957386363,125.42143973708153L85.40098409090909,141.64929512143135L87.39353352272727,138.97247332334518L87.91664346590909,125.4356871843338L88.14402542613637,151.45756709575653L88.1492828125,140.1879529953003L88.17031235795454,149.40211679041386L88.20842840909091,146.39832320809364L88.2951752840909,146.6663930118084L88.46078295454545,146.68146367371082L88.88268821022727,133.48839882016182L89.37425383522728,133.87218537926674L89.6239796875,152.06844422221184L89.70021178977272,142.87312361598015L89.88159161931819,129.36144876480103L90.04588494318182,138.5932954698801L90.21017826704545,118.85069596767426L90.3179546875,139.1848432570696L90.48356235795455,132.5666317641735L90.90678196022728,126.95547106862068L91.10261960227272,152.58284318447113L91.32474417613636,139.50766655802727L91.67830340909092,125.74669378995895L91.82551022727273,144.9407471269369L92.01740482954546,106.47230896353722L92.34730582386364,127.68301132321358L92.84412883522727,157.42482970654964L92.9203609375,134.42657831311226L94.36614218749999,128.61727568507195L94.54095028409091,149.20219230651855L94.54883636363637,124.12690553069115L94.59483849431818,143.5453723669052L94.65004105113636,126.2779848575592L94.93393991477272,136.81204694509506L94.97862769886363,142.22158487141132L95.09560454545455,145.0618698745966L95.11137670454546,150.55166798830032L95.15737883522726,145.50731326639652L95.508309375,131.44310581684113L95.90392769886363,146.10896649956703L96.05507755681818,150.48777486383915L96.28114517045454,137.28719088435173L96.7661390625,125.02948585152626L97.3155359375,140.0980216562748L97.8636184659091,134.3231708854437L98.03974090909091,147.1434296965599L98.2684372159091,140.82030500471592L98.67982769886363,123.60840994119644L98.77051761363637,153.2239264547825L99.05835951704546,111.84074449539185L99.23185326704545,122.4421935081482L99.34620142045453,127.44630146026611L99.40271832386364,138.1278680562973L99.51969517045455,131.15614096820354L99.86668267045455,156.7625178694725L100.27281576704544,132.6319444477558L100.52254161931819,142.5106304436922L101.11531193181818,139.11203089356422L101.15079928977273,143.24812705814838L101.291434375,146.0872841924429L101.74619829545455,138.0526314228773L101.7974578125,138.55273108184338L102.38497073863635,147.25883531570435L102.44543068181818,148.48073217272758L102.74247301136363,149.05827882885933L103.0408296875,122.53299343585968L103.05134446022727,115.35132068395615L103.32735724431818,128.4064030945301L103.37993110795455,122.44771617650986L103.52582357954546,139.7882401496172L103.65594389204544,124.28415897488594L103.9082984375,139.7928358912468L104.47083877840909,133.5856677889824L104.56021434659091,133.30106239020824L105.14904161931818,151.44646342098713L105.51574431818182,152.43855375051498L105.7142106534091,145.08192519843578L106.40687130681818,140.52357177436352L106.98518380681818,131.56240712106228L107.43731903409092,136.72243970632553L107.65024318181818,120.28100225329399L107.76327698863636,136.23523923754692L107.84476647727273,120.74397298693657L108.2285556818182,123.28853595256805L108.28375823863637,142.24215227365494L108.8541846590909,138.2853937447071L109.04870795454545,128.00861540436745L109.8373159090909,138.01318842172623L109.90829062499999,152.28531914949417L109.99372315340909,129.60063475370407L110.28025071022728,118.09186059236526L110.52471917613636,136.35087820887566L111.06097258522726,136.9833015203476L111.58013948863636,147.18258100748062L111.62482727272727,134.17947779595852L112.14662286931818,149.08442723751068L112.26754275568182,133.78487925231457L112.30434446022727,124.77040010690689L112.452865625,141.1920998543501L112.61847329545454,149.70660249888897L112.6684184659091,147.19073536992073L112.82482571022726,125.34479650855064L112.84716960227273,132.71341028809547L112.94574559659091,146.07896129786968L112.97597556818181,135.91455499827862L113.0167203125,135.4199391156435L113.30981960227273,113.86748600006104L113.3361065340909,139.61275930702686L113.35450738636364,136.3989617228508L113.41759602272728,138.236986130476L113.70280923295455,141.53624247014523L113.89076079545454,147.616369754076L113.90653295454545,139.27502739429474L113.92756250000001,140.97125793993473L114.00905198863636,124.4091968536377L114.71748480113637,143.81054471433163L115.01978451704545,132.4695183634758L115.03555667613637,139.6051948070526L115.44431846590909,156.00637900829315L115.52843664772728,137.29257094860077L115.65461392045454,138.09840086102486L115.90959715909091,131.86051453649998L116.23818380681817,147.89785082638264L116.26184204545454,123.54030999541283L116.43402144886363,143.5971246957779L116.47608053977272,144.83566085994244L116.74815028409091,131.0082280933857L117.0635934659091,148.51688879728317L117.28440369318182,148.92363461852074L117.58144602272728,142.57753121852875L117.67213593749999,132.5554956793785L117.81802840909091,121.99803355336189L117.86403053977273,145.21026241779327L118.05723948863637,146.71775642037392L118.54749076704546,138.8780823647976L118.76435795454545,128.23303538560867L119.06402897727273,153.05916684865952L119.07060071022727,141.81900697946548L119.44124644886364,131.12631726264954L119.54113678977274,140.05505892634392L119.5503372159091,131.68756167590618L119.71200184659091,131.3916386961937L119.81452088068181,146.83362226188183L119.87629517045454,136.67054477334023L119.9420125,126.56454133987427L120.51769630681818,139.37580312788486L120.70039048295455,126.4518451988697L121.2997325284091,158.90641513466835L121.64277698863636,139.9537451863289L121.68877911931818,131.31185817718506L122.39721193181819,149.279192045331L122.50235965909091,126.61777156591415L122.55230482954545,126.58388364315033L122.82963196022727,143.9201554208994L122.97683877840909,150.57016114890575L123.13587471590908,121.08991760015488L123.33565539772728,157.33469742536545L123.43686008522727,126.90093147754669L123.44606051136364,136.7961919605732L123.47366178977273,124.43901407718658L123.59589602272726,152.97860848903656L123.8009340909091,153.65816894173622L124.54222556818182,131.76031570136547L124.86949786931818,138.75316116213799L125.00750426136364,153.84971219301224L125.05482073863637,147.51864056289196L125.10476590909091,141.84157083928585L125.13236718750001,142.0661658346653L125.34792002840909,139.3186577707529L125.44386732954545,119.18834361433983L125.51615639204545,140.99547471106052L125.60553196022727,125.54804626107216L126.46511463068182,137.90707151591778L126.87519076704545,138.35778477787971L127.21954957386363,134.07715934515L127.50739147727273,150.03408636152744L128.2250247159091,143.90126037597656L128.29205639204545,130.30149507522583L128.55098267045454,143.85357874631882L128.74024857954547,146.63957047462463L128.92294275568182,133.14766573905945L128.99523181818182,148.3325405716896L129.05043437499998,136.353613615036L129.1069512784091,160.0859196782112L129.26861590909093,161.65044884383678L129.36193451704546,120.17001736164093L129.37770667613637,138.87445244193077L129.58143039772727,106.91207411885262L130.19917329545456,134.36679477989674L130.35426619318181,144.20097532868385L130.42261221590908,136.55755046010017L130.84846051136364,145.91599072515965L131.25722230113635,146.4417850524187L132.0563450284091,162.65637177228928L132.08263196022727,156.72724279761314L133.55732883522728,153.10440476238728L133.69664957386365,148.68048164248466L134.69686732954546,133.6297843158245L134.79544332386362,139.25912055373192L135.04648352272727,156.521568775177L135.57485085227273,124.07656627893448L135.60902386363637,161.62233638763428L135.8035471590909,131.5954588651657L136.42260440340908,142.603076800704L136.5658681818182,160.9714199155569L136.67758764204547,132.74817976355553L136.7433049715909,140.77141124010086L137.06137684659092,152.3460101634264L137.77243835227273,140.44515247642994L137.81975482954545,117.5108525454998L138.1733140625,150.03234918415546L138.55841761363638,150.83607244491577L138.80157173295456,148.88466480374336L139.03683977272726,144.95286199450493L139.61252357954544,143.45894131064415L139.8491059659091,124.3474752008915L139.87407855113636,150.7155201137066L140.1855786931818,159.2296273559332L140.26181079545455,155.56573230028152L140.46027713068182,145.44663521647453L140.49576448863635,150.34634399414062L140.55491008522728,201.28931026160717L141.05699048295455,129.7161700129509L141.5393556818182,148.7992708683014L141.67867642045454,146.4277579933405L141.8298262784091,166.6905513703823L142.0769234375,158.52032098174095L142.24384545454544,143.8473365753889L142.68152286931817,132.0852715820074L143.04296818181817,152.25088673830032L143.84997698863637,137.79029171168804L144.25348139204544,142.66789036989212L144.63595625,200.32588984072208L144.76344786931818,173.0495409965515L144.80419261363636,143.3095505386591L144.82653650568182,147.32810850441456L145.33650298295456,121.67616310715675L145.3457034090909,155.18107715249062L145.63748835227273,143.5977015942335L145.65851789772728,133.8111508190632L145.7610369318182,149.62035293877125L145.8832711647727,160.3914036154747L146.44449715909093,137.64604765176773L146.8611450284091,143.89633405208588L147.00966619318183,132.2625479400158L147.19761775568185,141.18537801504135L147.45260099431817,138.76303325593472L147.5393478693182,149.31185486912727L147.5406622159091,153.98034404218197L147.54723394886364,153.0208581984043L147.55643437499998,141.32240112125874L148.1938924715909,136.88279803097248L148.28852542613637,135.33250983059406L148.9877578125,144.63194440305233L149.46092258522728,147.4165813922882L149.51875383522727,145.50536866486073L149.52926860795452,135.15065069496632L149.8420830965909,147.5187183469534L149.8525978693182,147.6507178992033L150.05237855113637,133.63499584794044L150.45456860795457,144.1738546192646L150.9829359375,146.1457583606243L151.2602630681818,137.52718064188957L151.4613580965909,153.3627061843872L152.0541284090909,140.63037577271461L152.17241960227273,130.76924952864647L152.65872784090908,143.61082117259502L153.62477258522728,149.00753769278526L153.79695198863638,167.93737153708935L154.96277741477272,149.86620891094208L155.80133053977272,161.6138190329075L155.9406512784091,127.03466820716858L156.47427599431816,129.94407731294632L156.49661988636365,155.03083723783493L156.54130767045453,155.3662032186985L156.57022329545455,139.44722186028957L156.85543650568184,140.30440221726894L156.95926988636364,166.38628605008125L158.0370340909091,142.13029231131077L158.19344133522728,150.1793156862259L158.28807428977274,161.43534350395203L158.5864309659091,146.71131978929043L158.76781079545455,163.3882808983326L158.949190625,147.48390997946262L159.1673721590909,142.71809349954128L159.26594815340908,154.7974267154932L159.44995667613637,155.79115051031113L159.69442514204545,139.8063897639513L159.87974801136366,153.37114575505257L160.41863011363637,159.52363814413548L160.56189389204545,163.87578602135181L160.56846562500002,135.2787869721651L160.67492769886363,124.78893864154816L161.01928650568183,152.15492713451385L161.4096474431818,150.32593216001987L161.59759900568181,145.62907773256302L161.60285639204545,154.92332670092583L161.97481647727275,136.8951527327299L162.19694105113635,139.78969860076904L162.33231875,145.5154546648264L162.61096022727273,137.1591388732195L162.86988650568182,150.22559072077274L163.42585511363637,118.78859835863113L163.43505553977275,147.902705848217L163.52180241477274,162.71490427851677L163.58620539772727,163.23681588470936L164.13034488636364,159.66458286345005L164.24995042613634,138.15716671943665L164.39452855113637,170.13653437793255L164.48258977272727,150.49800994992256L164.68499914772727,138.049409866333L164.98204147727273,149.8450516462326L165.0766744318182,151.0841063708067L165.09901832386362,155.0671235024929L165.24228210227272,152.2055580765009L165.28828423295454,165.86654591560364L165.34217244318182,152.39245373010635L165.88368323863637,165.44450256228447L166.01774659090907,151.33665177226067L166.05586264204544,155.81813509762287L166.08477826704544,140.57588803768158L166.23987116477272,145.0231917500496L166.79189673295457,154.96114920079708L166.87864360795456,148.88042557239532L167.00876392045453,152.34316456317902L167.02322173295454,154.22795663774014L167.07448125,134.37415185570717L167.30580625,118.13391584157944L167.74348366477273,168.55279903113842L167.94983607954546,143.76990254223347L168.02606818181818,148.66450998187065L168.06286988636364,147.7379656881094L168.173275,170.29481846094131L168.32573920454544,137.9378027021885L169.73471874999998,141.02601143717766L169.81883693181817,168.28230495750904L170.20656917613636,160.00126469135284L170.75202301136363,157.00723949074745L170.89922982954545,146.12427699565887L170.92814545454544,145.0410043001175L171.3960528409091,161.1858705729246L171.52223011363634,155.28167787194252L172.14128735795455,160.466711550951L172.19648991477274,145.43862994015217L172.46330227272728,163.46742618083954L172.5277052556818,130.1552610397339L172.59079389204547,156.7147130817175L172.6302242897727,148.2132911235094L172.97852613636366,147.12918873131275L173.44511917613636,170.65029162168503L173.86176704545454,158.8005964010954L173.89199701704544,165.02887639403343L173.92485568181817,127.64733436703682L174.04971860795453,152.09050896763802L174.08257727272726,154.9100969284773L174.19298238636364,134.66391044855118L174.2126975852273,149.47511065006256L174.35201832386363,166.76787520945072L174.35333267045456,146.659146130085L174.74106491477272,129.2953582406044L175.40612428977275,156.90398114919662L176.32353821022727,148.68520054221153L176.39056988636364,165.354247123003L176.59955099431818,161.23161408305168L176.61269446022726,139.2242992222309L176.88213551136363,148.23838944733143L177.13317571022728,139.0688218474388L177.20415042613638,137.4709038734436L177.2251799715909,160.80932441353798L177.90732585227272,134.00673884153366L177.91258323863636,164.56925037503242L177.99801576704544,157.1855724155903L178.27008551136365,146.7447215616703L178.3068872159091,150.7969989180565L178.48958139204547,152.13570150732994L178.958803125,161.21573317050934L178.9601174715909,126.88016313314438L179.0849803977273,140.3191098868847L179.28476107954546,155.52558276057243L179.53185823863637,155.0910356193781L179.537115625,167.77303974330425L180.27183536931818,152.71302777528763L180.40064133522728,151.9264429360628L181.06964374999998,151.78890126943588L181.90425383522725,147.35671359300613L182.13557883522728,134.38558611273766L182.23678352272725,139.96080408990383L182.72703480113637,132.7100655734539L182.80720994318182,143.3893245756626L182.96098849431817,153.96704944968224L183.0345919034091,151.2923472672701L183.36186420454547,145.96526044607162L183.84291505681819,151.71358036994934L184.37391107954545,148.73192931711674L184.46197230113637,146.31339597702026L184.6814681818182,159.0088437795639L185.22823636363634,129.4643830060959L185.28212457386365,149.85505338013172L185.3149832386364,143.17773248255253L185.4924200284091,165.00532726943493L186.07336122159091,166.52199330925941L186.19428110795454,161.7867783755064L186.60961463068182,157.01535496115685L187.24575838068182,145.55885168910027L187.41399474431816,159.45247220993042L187.4862838068182,127.52007964253426L187.82669957386364,138.84690392017365L188.32220823863636,157.2181120812893L188.54827585227275,164.33036255836487L189.23173607954547,168.7503381371498L189.45911803977273,140.36995473504066L189.50249147727274,143.48748157918453L190.05451704545453,138.95677390694618L190.41859105113636,140.98358671367168L190.69066079545456,139.14503726363182L190.7248338068182,152.9222020804882L191.1901125,161.55221405625343L191.44509573863638,157.16151769459248L191.6225325284091,147.1606329381466L191.9300896306818,150.5420292466879L192.07729644886365,159.38877354562283L192.83567443181818,159.58994257450104L193.0236259943182,148.60167342424393L193.20369147727274,169.15913227200508L193.78331832386365,162.99703355133533L194.01201463068182,165.46645711362362L195.11475142045455,161.06525342166424L195.15286747159092,159.83566242456436L195.3960215909091,155.64366544783115L195.4591102272727,164.09719835221767L195.56557230113637,168.5809050053358L195.73512301136364,139.21884137392044L196.21223082386362,160.20891572535038L196.2385177556818,156.2358679175377L196.24377514204545,161.42834293842316L196.27137642045454,160.26552955806255L196.5224166193182,161.1757391989231L196.6972247159091,157.75755751132965L197.0047818181818,141.58783923089504L197.5489213068182,149.79941833019257L197.95242571022726,155.10606090724468L197.9997421875,152.79649007320404L198.0326008522727,140.04778611660004L198.46896392045454,137.34072576463223L198.70028892045454,150.31858804821968L198.74103366477274,146.1695019453764L199.1971119318182,150.80061587691307L199.4034643465909,150.3950044065714L199.68079147727272,152.99050945043564L199.78593920454546,154.5050882846117L199.9213169034091,156.3403643220663L199.9922916193182,145.62512370944023L200.63895014204545,149.56188525259495L201.05691235795453,149.1635984480381L201.33029644886363,166.03101383149624L201.91912372159092,140.80971989035606L202.23062386363637,148.4670875519514L203.45559488636363,153.14537751674652L203.65800426136363,146.84896516799927L203.73029332386363,148.53925171494484L203.77366676136364,133.97456216812134L203.85778494318183,150.84317672252655L203.9287596590909,176.634712100029L203.94584616477272,132.15083706378937L204.22711633522727,155.5285580009222L204.4899856534091,159.56254313886166L205.75044403409092,158.78573316335678L206.04222897727274,139.28056302666664L206.3261278409091,159.7810644954443L206.43784730113637,154.49064637720585L206.93992769886364,150.61679269373417L207.07661974431818,158.99642425775528L207.54715582386362,139.74717664718628L207.63127400568183,162.50421318411827L207.76533735795454,159.9288995862007L207.83631207386364,132.09555852413177L207.86259900568183,163.1599133759737L207.94145980113635,162.6729203313589L208.23587343749998,165.70463839173317L208.80235681818183,144.57575838267803L209.07836960227272,152.86989878118038L209.09019872159092,175.64419041574L210.072015625,162.44264709949493L210.45186178977272,170.90730960667133L210.49654957386363,171.35819140076637L210.6082690340909,140.31749586760998L210.74496107954548,155.94958367943764L210.75810454545453,176.76783952116966L210.79753494318183,154.41356237232685L210.91976917613638,162.53170336782932L211.14189374999998,156.8506342470646L211.42447826704546,157.1679348796606L212.0106768465909,160.12702207267284L212.0225059659091,136.20804722607136L212.1697127840909,154.82102769613266L212.2406875,171.32809545099735L212.28537528409092,136.6989489197731L212.4562403409091,150.39569798111916L212.4864703125,143.21582074463367L212.57978892045455,157.49245646595955L213.5248041193182,148.87832540273666L213.58526406250002,168.56318320333958L213.74692869318181,145.6819708943367L214.35941420454546,138.76447874307632L214.37650071022728,163.86392395198345L214.6722286931818,163.61025716364384L214.8575515625,138.02509586513042L215.4069484375,168.57993918657303L215.86696974431817,155.72417843341827L216.29150369318182,133.4605521261692L216.54648693181818,161.755846247077L216.5478012784091,164.78692258894444L216.5898603693182,150.61208675801754L217.88449176136365,174.7928697913885L218.0238125,171.09580631554127L218.18153409090908,163.86936883628368L218.41023039772725,164.43256433308125L218.53903636363637,152.62909877300262L218.81504914772728,148.28455428779125L219.1094627840909,157.0478816628456L219.27769914772725,139.83797657489777L219.33421605113637,174.21048107743263L219.82709602272726,156.23963396251202L221.81701676136365,164.53999708592892L221.86433323863636,166.8381077349186L222.27309502840907,158.0853654742241L222.32041150568182,142.86974000930786L223.33903011363637,162.61564533412457L223.34034446022727,150.51781895756721L223.58612727272725,153.33133327960968L224.63891889204544,164.27023547887802L224.69280710227275,148.5478598177433L224.73486619318183,134.36260740458965L224.85052869318181,164.13582462072372L224.85447173295455,170.42123052477837L225.11076931818184,180.60514117777348L225.397296875,165.9530417919159L225.40123991477273,147.6714862436056L225.49061548295455,153.49768097698689L225.83103125,170.1193116903305L225.94143636363637,172.66589704155922L226.11493011363638,161.4988671541214L226.20956306818184,164.99155300855637L226.29893863636363,159.60147406160831L226.31996818181818,170.0673130452633L226.43563068181817,160.85338908433914L226.47506107954547,152.11327376961708L227.06520269886363,145.73411214351654L227.07177443181817,152.92817848920822L227.15194957386362,146.69256734848022L227.30047073863636,161.58969300985336L227.46870710227273,156.61690610647202L227.6080278409091,155.10657946765423L227.7250046875,162.9766930192709L227.86826846590907,161.08320857584476L228.1574247159091,149.0237167775631L228.5635578125,157.1472378373146L228.9710052556818,153.51929846405983L229.3863387784091,142.53039407730103L229.6347502840909,157.0678656846285L229.75829886363636,160.2139198333025L229.81875880681818,147.96318943798542L229.87527571022727,143.13067312538624L229.94625042613637,160.8498823195696L231.2067088068182,169.64433628320694L231.30659914772727,165.44400344789028L231.76793480113636,159.64419047534466L231.7705634943182,161.82475644350052L231.99400241477272,154.66041009128094L232.15566704545455,158.84617786109447L232.30813125,176.22659857571125L232.67220525568183,157.04379799962044L233.00473494318183,157.73712623119354L233.34777940340908,159.91596798598766L233.6343069602273,160.8982575237751L234.58195085227274,156.69091764092445L234.77778849431817,167.78633433580399L235.07877386363634,158.2187716215849L235.58348295454545,162.36609461903572L235.6728585227273,164.70340195298195L236.06059076704543,153.8232332020998L236.35763309659092,159.23877346515656L236.41415,164.07259266078472L236.53901292613634,150.51128509640694L236.68096235795454,162.55074101686478L236.81765440340908,158.41710153222084L237.1344119318182,154.9619983434677L237.23561661931817,151.50409492850304L237.53134460227272,150.984114959836L238.02422457386365,159.89151138067245L238.467159375,152.94664572179317L238.49081761363635,157.54767666757107L238.82991903409092,165.62996569275856L239.07044446022726,138.4829652607441L239.10593181818183,155.5541165471077L240.31775937499998,158.75298607349396L240.41370667613637,165.59185150265694L240.47285227272727,172.4353774935007L240.491253125,167.76076282560825L240.5188544034091,170.71190956234932L240.62531647727272,161.9843887835741L240.80275326704546,174.41447626054287L241.26277457386365,163.81810265779495L241.54535909090907,174.9057409465313L241.80034232954546,165.37147629261017L242.197275,143.15481859445572L242.35893963068182,159.53623268008232L242.44700085227274,155.02535346150398L242.50877514204547,167.45142209529877L242.83341875,170.37688712775707L243.1383471590909,154.6207791119814L243.38675866477274,153.5529659986496L243.48796335227271,149.45414136350155L243.90198252840906,160.16677621006966L243.9742715909091,166.29343132674694L244.2647421875,167.71893444657326L244.8167677556818,170.22472205758095L245.51600014204547,162.32552374899387L245.71578082386364,168.6819076091051L245.73418167613636,162.63148087263107L245.98127883522727,132.4374129921198L246.03253835227272,172.46534380316734L246.04699616477274,173.26121087372303L246.1192852272727,144.5809763967991L246.12717130681818,151.70127752423286L246.28489289772727,159.58595614135265L246.83034673295455,164.02163761854172L247.0432708806818,159.13307140767574L247.55980909090908,165.13324315845966L247.82399275568181,142.6839138865471L247.8647375,157.6834033727646L247.91994005681818,171.4020745754242L248.08423338068184,179.96007147431374L248.4417356534091,146.80363002419472L248.6730606534091,159.15105897188187L248.68488977272727,145.30666279792786L249.31314744318183,158.67573353648186L249.57338806818183,159.77416764199734L249.62333323863635,163.383685156703L249.68116448863634,149.50461673736572L249.75345355113637,170.32739053666592L249.8296856534091,163.96254117786884L250.0478671875,146.89485776424408L250.0780971590909,168.99227249622345L250.21873224431818,164.70168422162533L250.37776818181817,154.75203323364258L250.63800880681816,155.68962934613228L250.64589488636364,164.88913732767105L250.70766917613636,166.76736961305141L251.00865454545453,152.34008561074734L251.09803011363636,167.5595484226942L251.15191832386364,174.75558529794216L251.17426221590907,163.22488251328468L251.2176356534091,169.23070657253265L251.48970539772728,160.1886983513832L251.9116106534091,160.54918858408928L252.15345042613637,157.8387835174799L252.49123749999998,170.39426538348198L252.91840014204544,156.86228889226913L252.9985752840909,147.65257175266743L253.08532215909094,165.1714934706688L253.850271875,168.92330396175385L253.97513480113636,140.99722485244274L254.03033735795455,156.803775832057L254.58104857954547,164.28530614078045L254.71248323863637,157.23389576375484L254.7164262784091,164.19936771690845L254.82025965909088,159.04314006865025L254.98192428977273,133.25687456130981L255.31445397727273,172.28231790661812L255.39331477272725,170.98182025551796L255.54052159090907,167.28234547376633L255.92431079545455,162.06206265091896L256.04654502840907,165.07151502370834L256.2082096590909,152.22921739518642L256.3317582386364,158.6974482536316L257.2978029829545,154.6603971272707L257.5186132102273,169.05033829808235L257.5501575284091,147.19240772724152L257.7643960227273,172.63158130645752L258.12978437500004,170.17355959117413L258.40316846590906,166.60281743109226L259.0393122159091,166.26618745923042L259.9488400568182,179.66746728122234L260.1223338068182,164.87041729688644L260.19462286931815,169.28887608647346L260.20513764204543,180.85359643399715L260.28794147727274,168.52049919962883L260.44960610795454,166.90395194292068L260.5678973011364,173.51926597952843L260.8136801136364,161.91068190336227L260.8701970170455,176.86223047971725L261.00294602272726,176.10418590903282L261.01608948863634,147.22560207545757L261.16329630681815,150.79590994119644L261.5825728693182,159.67582266032696L261.6877205965909,157.19117286801338L261.888815625,151.6619382351637L262.2187166193182,165.71089352667332L262.43295511363635,169.49497143924236L262.62879275568184,170.46194399893284L262.8285734375,162.65884789824486L262.9126916193182,172.80294607579708L263.50414758522726,150.5360917299986L263.5843227272727,164.05175949633121L263.9313102272727,156.49394246935844L263.96416889204545,172.16570663452148L264.1310909090909,174.05403140187263L264.57402571022726,160.27682121098042L264.8119224431818,147.44971092045307L265.1155365056818,160.33516573905945L265.1615386363636,168.98674334585667L265.1720534090909,176.6494781076908L265.3573762784091,156.02770480513573L265.5887012784091,170.48579129576683L266.34576491477276,162.84994389116764L266.60994857954546,153.57317040860653L267.3157526988636,151.6632151901722L267.5286768465909,154.5206904709339L267.6088519886364,155.56455905735493L267.62199545454547,156.4886272251606" style="fill: none;" fill="none"></path></g></g></g></g></g></g><g transform="translate(40, 174)" clip-path="url(#clip_1)"><clipPath id="clip_1"><rect width="289" height="26"></rect></clipPath><g><g><line x1="0" y1="0" x2="0" y2="5" style="visibility: inherit;" fill="rgb(0, 0, 0)" stroke="rgb(204, 204, 204)" stroke-width="1px"></line><line x1="26.28693181818182" y1="0" x2="26.28693181818182" y2="5" style="visibility: inherit;" fill="rgb(0, 0, 0)" stroke="rgb(204, 204, 204)" stroke-width="1px"></line><line x1="52.57386363636364" y1="0" x2="52.57386363636364" y2="5" style="visibility: inherit;" fill="rgb(0, 0, 0)" stroke="rgb(204, 204, 204)" stroke-width="1px"></line><line x1="78.86079545454545" y1="0" x2="78.86079545454545" y2="5" style="visibility: inherit;" fill="rgb(0, 0, 0)" stroke="rgb(204, 204, 204)" stroke-width="1px"></line><line x1="105.14772727272728" y1="0" x2="105.14772727272728" y2="5" style="visibility: inherit;" fill="rgb(0, 0, 0)" stroke="rgb(204, 204, 204)" stroke-width="1px"></line><line x1="131.4346590909091" y1="0" x2="131.4346590909091" y2="5" style="visibility: inherit;" fill="rgb(0, 0, 0)" stroke="rgb(204, 204, 204)" stroke-width="1px"></line><line x1="157.7215909090909" y1="0" x2="157.7215909090909" y2="5" style="visibility: inherit;" fill="rgb(0, 0, 0)" stroke="rgb(204, 204, 204)" stroke-width="1px"></line><line x1="184.00852272727272" y1="0" x2="184.00852272727272" y2="5" style="visibility: inherit;" fill="rgb(0, 0, 0)" stroke="rgb(204, 204, 204)" stroke-width="1px"></line><line x1="210.29545454545456" y1="0" x2="210.29545454545456" y2="5" style="visibility: inherit;" fill="rgb(0, 0, 0)" stroke="rgb(204, 204, 204)" stroke-width="1px"></line><line x1="236.58238636363637" y1="0" x2="236.58238636363637" y2="5" style="visibility: inherit;" fill="rgb(0, 0, 0)" stroke="rgb(204, 204, 204)" stroke-width="1px"></line><line x1="262.8693181818182" y1="0" x2="262.8693181818182" y2="5" style="visibility: inherit;" fill="rgb(0, 0, 0)" stroke="rgb(204, 204, 204)" stroke-width="1px"></line><line x1="289.15625" y1="0" x2="289.15625" y2="5" style="visibility: inherit;" fill="rgb(0, 0, 0)" stroke="rgb(204, 204, 204)" stroke-width="1px"></line></g><g transform="translate(0, 8)"><text x="0" y="0" dx="0em" dy="0.95em" style="text-anchor: middle; visibility: hidden; font-family: Roboto, sans-serif; font-size: 12px; font-weight: 200;" fill="rgb(33, 33, 33)" stroke="none" stroke-width="1px">-20k</text><text x="26.28693181818182" y="0" dx="0em" dy="0.95em" style="text-anchor: middle; visibility: inherit; font-family: Roboto, sans-serif; font-size: 12px; font-weight: 200;" fill="rgb(33, 33, 33)" stroke="none" stroke-width="1px">0</text><text x="52.57386363636364" y="0" dx="0em" dy="0.95em" style="text-anchor: middle; visibility: hidden; font-family: Roboto, sans-serif; font-size: 12px; font-weight: 200;" fill="rgb(33, 33, 33)" stroke="none" stroke-width="1px">20k</text><text x="78.86079545454545" y="0" dx="0em" dy="0.95em" style="text-anchor: middle; visibility: inherit; font-family: Roboto, sans-serif; font-size: 12px; font-weight: 200;" fill="rgb(33, 33, 33)" stroke="none" stroke-width="1px">40k</text><text x="105.14772727272728" y="0" dx="0em" dy="0.95em" style="text-anchor: middle; visibility: hidden; font-family: Roboto, sans-serif; font-size: 12px; font-weight: 200;" fill="rgb(33, 33, 33)" stroke="none" stroke-width="1px">60k</text><text x="131.4346590909091" y="0" dx="0em" dy="0.95em" style="text-anchor: middle; visibility: inherit; font-family: Roboto, sans-serif; font-size: 12px; font-weight: 200;" fill="rgb(33, 33, 33)" stroke="none" stroke-width="1px">80k</text><text x="157.7215909090909" y="0" dx="0em" dy="0.95em" style="text-anchor: middle; visibility: hidden; font-family: Roboto, sans-serif; font-size: 12px; font-weight: 200;" fill="rgb(33, 33, 33)" stroke="none" stroke-width="1px">100k</text><text x="184.00852272727272" y="0" dx="0em" dy="0.95em" style="text-anchor: middle; visibility: inherit; font-family: Roboto, sans-serif; font-size: 12px; font-weight: 200;" fill="rgb(33, 33, 33)" stroke="none" stroke-width="1px">120k</text><text x="210.29545454545456" y="0" dx="0em" dy="0.95em" style="text-anchor: middle; visibility: hidden; font-family: Roboto, sans-serif; font-size: 12px; font-weight: 200;" fill="rgb(33, 33, 33)" stroke="none" stroke-width="1px">140k</text><text x="236.58238636363637" y="0" dx="0em" dy="0.95em" style="text-anchor: middle; visibility: inherit; font-family: Roboto, sans-serif; font-size: 12px; font-weight: 200;" fill="rgb(33, 33, 33)" stroke="none" stroke-width="1px">160k</text><text x="262.8693181818182" y="0" dx="0em" dy="0.95em" style="text-anchor: middle; visibility: hidden; font-family: Roboto, sans-serif; font-size: 12px; font-weight: 200;" fill="rgb(33, 33, 33)" stroke="none" stroke-width="1px">180k</text><text x="289.15625" y="0" dx="0em" dy="0.95em" style="text-anchor: middle; visibility: hidden; font-family: Roboto, sans-serif; font-size: 12px; font-weight: 200;" fill="rgb(33, 33, 33)" stroke="none" stroke-width="1px">200k</text></g><line x1="0" y1="0" x2="289.15625" y2="0" fill="rgb(0, 0, 0)" stroke="rgb(204, 204, 204)" stroke-width="1px"></line></g></g></g></g></svg>