<svg viewBox="0 0 330 200" xmlns="http://www.w3.org/2000/svg"><g><g><g><g><g><line x1="51.125" y1="174" x2="46.125" y2="174" style="visibility: inherit;" fill="rgb(0, 0, 0)" stroke="rgb(204, 204, 204)" stroke-width="1px"></line><line x1="51.125" y1="159.5" x2="46.125" y2="159.5" style="visibility: inherit;" fill="rgb(0, 0, 0)" stroke="rgb(204, 204, 204)" stroke-width="1px"></line><line x1="51.125" y1="144.99999999999997" x2="46.125" y2="144.99999999999997" style="visibility: inherit;" fill="rgb(0, 0, 0)" stroke="rgb(204, 204, 204)" stroke-width="1px"></line><line x1="51.125" y1="130.49999999999997" x2="46.125" y2="130.49999999999997" style="visibility: inherit;" fill="rgb(0, 0, 0)" stroke="rgb(204, 204, 204)" stroke-width="1px"></line><line x1="51.125" y1="115.99999999999993" x2="46.125" y2="115.99999999999993" style="visibility: inherit;" fill="rgb(0, 0, 0)" stroke="rgb(204, 204, 204)" stroke-width="1px"></line><line x1="51.125" y1="101.49999999999993" x2="46.125" y2="101.49999999999993" style="visibility: inherit;" fill="rgb(0, 0, 0)" stroke="rgb(204, 204, 204)" stroke-width="1px"></line><line x1="51.125" y1="87.00000000000007" x2="46.125" y2="87.00000000000007" style="visibility: inherit;" fill="rgb(0, 0, 0)" stroke="rgb(204, 204, 204)" stroke-width="1px"></line><line x1="51.125" y1="72.50000000000007" x2="46.125" y2="72.50000000000007" style="visibility: inherit;" fill="rgb(0, 0, 0)" stroke="rgb(204, 204, 204)" stroke-width="1px"></line><line x1="51.125" y1="58.00000000000004" x2="46.125" y2="58.00000000000004" style="visibility: inherit;" fill="rgb(0, 0, 0)" stroke="rgb(204, 204, 204)" stroke-width="1px"></line><line x1="51.125" y1="43.500000000000036" x2="46.125" y2="43.500000000000036" style="visibility: inherit;" fill="rgb(0, 0, 0)" stroke="rgb(204, 204, 204)" stroke-width="1px"></line><line x1="51.125" y1="29.000000000000032" x2="46.125" y2="29.000000000000032" style="visibility: inherit;" fill="rgb(0, 0, 0)" stroke="rgb(204, 204, 204)" stroke-width="1px"></line><line x1="51.125" y1="14.500000000000007" x2="46.125" y2="14.500000000000007" style="visibility: inherit;" fill="rgb(0, 0, 0)" stroke="rgb(204, 204, 204)" stroke-width="1px"></line><line x1="51.125" y1="0" x2="46.125" y2="0" style="visibility: inherit;" fill="rgb(0, 0, 0)" stroke="rgb(204, 204, 204)" stroke-width="1px"></line></g><g transform="translate(41.125, 0)"><text x="0" y="174" dx="0em" dy="0.3em" style="text-anchor: end; visibility: hidden; font-family: Roboto, sans-serif; font-size: 12px; font-weight: 200;" fill="rgb(33, 33, 33)" stroke="none" stroke-width="1px">0.76</text><text x="0" y="159.5" dx="0em" dy="0.3em" style="text-anchor: end; visibility: inherit; font-family: Roboto, sans-serif; font-size: 12px; font-weight: 200;" fill="rgb(33, 33, 33)" stroke="none" stroke-width="1px">0.77</text><text x="0" y="144.99999999999997" dx="0em" dy="0.3em" style="text-anchor: end; visibility: hidden; font-family: Roboto, sans-serif; font-size: 12px; font-weight: 200;" fill="rgb(33, 33, 33)" stroke="none" stroke-width="1px">0.78</text><text x="0" y="130.49999999999997" dx="0em" dy="0.3em" style="text-anchor: end; visibility: inherit; font-family: Roboto, sans-serif; font-size: 12px; font-weight: 200;" fill="rgb(33, 33, 33)" stroke="none" stroke-width="1px">0.79</text><text x="0" y="115.99999999999993" dx="0em" dy="0.3em" style="text-anchor: end; visibility: hidden; font-family: Roboto, sans-serif; font-size: 12px; font-weight: 200;" fill="rgb(33, 33, 33)" stroke="none" stroke-width="1px">0.8</text><text x="0" y="101.49999999999993" dx="0em" dy="0.3em" style="text-anchor: end; visibility: inherit; font-family: Roboto, sans-serif; font-size: 12px; font-weight: 200;" fill="rgb(33, 33, 33)" stroke="none" stroke-width="1px">0.81</text><text x="0" y="87.00000000000007" dx="0em" dy="0.3em" style="text-anchor: end; visibility: hidden; font-family: Roboto, sans-serif; font-size: 12px; font-weight: 200;" fill="rgb(33, 33, 33)" stroke="none" stroke-width="1px">0.82</text><text x="0" y="72.50000000000007" dx="0em" dy="0.3em" style="text-anchor: end; visibility: inherit; font-family: Roboto, sans-serif; font-size: 12px; font-weight: 200;" fill="rgb(33, 33, 33)" stroke="none" stroke-width="1px">0.83</text><text x="0" y="58.00000000000004" dx="0em" dy="0.3em" style="text-anchor: end; visibility: hidden; font-family: Roboto, sans-serif; font-size: 12px; font-weight: 200;" fill="rgb(33, 33, 33)" stroke="none" stroke-width="1px">0.84</text><text x="0" y="43.500000000000036" dx="0em" dy="0.3em" style="text-anchor: end; visibility: inherit; font-family: Roboto, sans-serif; font-size: 12px; font-weight: 200;" fill="rgb(33, 33, 33)" stroke="none" stroke-width="1px">0.85</text><text x="0" y="29.000000000000032" dx="0em" dy="0.3em" style="text-anchor: end; visibility: hidden; font-family: Roboto, sans-serif; font-size: 12px; font-weight: 200;" fill="rgb(33, 33, 33)" stroke="none" stroke-width="1px">0.86</text><text x="0" y="14.500000000000007" dx="0em" dy="0.3em" style="text-anchor: end; visibility: inherit; font-family: Roboto, sans-serif; font-size: 12px; font-weight: 200;" fill="rgb(33, 33, 33)" stroke="none" stroke-width="1px">0.87</text><text x="0" y="0" dx="0em" dy="0.3em" style="text-anchor: end; visibility: hidden; font-family: Roboto, sans-serif; font-size: 12px; font-weight: 200;" fill="rgb(33, 33, 33)" stroke="none" stroke-width="1px">0.88</text></g><line x1="51.125" y1="0" x2="51.125" y2="174" fill="rgb(0, 0, 0)" stroke="rgb(204, 204, 204)" stroke-width="1px"></line></g></g><g transform="translate(51, 0)" clip-path="url(#clip_0)"><clipPath id="clip_0"><rect width="278" height="174"></rect></clipPath><g><g><g><line x1="0" y1="0" x2="0" y2="174" fill="rgb(0, 0, 0)" stroke="rgb(66, 66, 66)" stroke-width="1px" opacity="0.25"></line><line x1="25.352272727272727" y1="0" x2="25.352272727272727" y2="174" fill="rgb(0, 0, 0)" stroke="rgb(66, 66, 66)" stroke-width="1px" opacity="0.25"></line><line x1="50.70454545454545" y1="0" x2="50.70454545454545" y2="174" fill="rgb(0, 0, 0)" stroke="rgb(66, 66, 66)" stroke-width="1px" opacity="0.25"></line><line x1="76.05681818181817" y1="0" x2="76.05681818181817" y2="174" fill="rgb(0, 0, 0)" stroke="rgb(66, 66, 66)" stroke-width="1px" opacity="0.25"></line><line x1="101.4090909090909" y1="0" x2="101.4090909090909" y2="174" fill="rgb(0, 0, 0)" stroke="rgb(66, 66, 66)" stroke-width="1px" opacity="0.25"></line><line x1="126.76136363636363" y1="0" x2="126.76136363636363" y2="174" fill="rgb(0, 0, 0)" stroke="rgb(66, 66, 66)" stroke-width="1px" opacity="0.25"></line><line x1="152.11363636363635" y1="0" x2="152.11363636363635" y2="174" fill="rgb(0, 0, 0)" stroke="rgb(66, 66, 66)" stroke-width="1px" opacity="0.25"></line><line x1="177.4659090909091" y1="0" x2="177.4659090909091" y2="174" fill="rgb(0, 0, 0)" stroke="rgb(66, 66, 66)" stroke-width="1px" opacity="0.25"></line><line x1="202.8181818181818" y1="0" x2="202.8181818181818" y2="174" fill="rgb(0, 0, 0)" stroke="rgb(66, 66, 66)" stroke-width="1px" opacity="0.25"></line><line x1="228.17045454545456" y1="0" x2="228.17045454545456" y2="174" fill="rgb(0, 0, 0)" stroke="rgb(66, 66, 66)" stroke-width="1px" opacity="0.25"></line><line x1="253.52272727272725" y1="0" x2="253.52272727272725" y2="174" fill="rgb(0, 0, 0)" stroke="rgb(66, 66, 66)" stroke-width="1px" opacity="0.25"></line><line x1="278.875" y1="0" x2="278.875" y2="174" fill="rgb(0, 0, 0)" stroke="rgb(66, 66, 66)" stroke-width="1px" opacity="0.25"></line></g><g><line x1="0" y1="174" x2="278.875" y2="174" fill="rgb(0, 0, 0)" stroke="rgb(66, 66, 66)" stroke-width="1px" opacity="0.25"></line><line x1="0" y1="159.5" x2="278.875" y2="159.5" fill="rgb(0, 0, 0)" stroke="rgb(66, 66, 66)" stroke-width="1px" opacity="0.25"></line><line x1="0" y1="144.99999999999997" x2="278.875" y2="144.99999999999997" fill="rgb(0, 0, 0)" stroke="rgb(66, 66, 66)" stroke-width="1px" opacity="0.25"></line><line x1="0" y1="130.49999999999997" x2="278.875" y2="130.49999999999997" fill="rgb(0, 0, 0)" stroke="rgb(66, 66, 66)" stroke-width="1px" opacity="0.25"></line><line x1="0" y1="115.99999999999993" x2="278.875" y2="115.99999999999993" fill="rgb(0, 0, 0)" stroke="rgb(66, 66, 66)" stroke-width="1px" opacity="0.25"></line><line x1="0" y1="101.49999999999993" x2="278.875" y2="101.49999999999993" fill="rgb(0, 0, 0)" stroke="rgb(66, 66, 66)" stroke-width="1px" opacity="0.25"></line><line x1="0" y1="87.00000000000007" x2="278.875" y2="87.00000000000007" fill="rgb(0, 0, 0)" stroke="rgb(66, 66, 66)" stroke-width="1px" opacity="0.25"></line><line x1="0" y1="72.50000000000007" x2="278.875" y2="72.50000000000007" fill="rgb(0, 0, 0)" stroke="rgb(66, 66, 66)" stroke-width="1px" opacity="0.25"></line><line x1="0" y1="58.00000000000004" x2="278.875" y2="58.00000000000004" fill="rgb(0, 0, 0)" stroke="rgb(66, 66, 66)" stroke-width="1px" opacity="0.25"></line><line x1="0" y1="43.500000000000036" x2="278.875" y2="43.500000000000036" fill="rgb(0, 0, 0)" stroke="rgb(66, 66, 66)" stroke-width="1px" opacity="0.25"></line><line x1="0" y1="29.000000000000032" x2="278.875" y2="29.000000000000032" fill="rgb(0, 0, 0)" stroke="rgb(66, 66, 66)" stroke-width="1px" opacity="0.25"></line><line x1="0" y1="14.500000000000007" x2="278.875" y2="14.500000000000007" fill="rgb(0, 0, 0)" stroke="rgb(66, 66, 66)" stroke-width="1px" opacity="0.25"></line><line x1="0" y1="0" x2="278.875" y2="0" fill="rgb(0, 0, 0)" stroke="rgb(66, 66, 66)" stroke-width="1px" opacity="0.25"></line></g></g></g><g><g><line x1="0" y1="1276" x2="278.875" y2="1276" fill="rgb(0, 0, 0)" stroke="rgb(153, 153, 153)" stroke-width="1.5px"></line></g></g><g><g><line x1="25.352272727272727" y1="0" x2="25.352272727272727" y2="174" fill="rgb(0, 0, 0)" stroke="rgb(153, 153, 153)" stroke-width="1.5px"></line></g></g><g><g><g><g><g><path stroke="rgb(51, 187, 238)" stroke-width="2px" d="M25.352272727272727,102.95378065109253L26.619886363636365,132.82750567793832L27.887500000000003,375.25241363900045L36.76079545454545,180.87127502037538L38.028409090909086,162.43463088143858L39.29602272727273,144.84401009823566L40.56363636363636,131.63230866662656L41.83125,127.09225546669455L43.09886363636363,122.11664259047427L44.36647727272727,110.82647941116896L45.63409090909091,107.75621995743712L46.90170454545454,106.9711229336309L48.169318181818184,102.17350260925814L49.43693181818182,95.61002337948064L50.70454545454545,92.37274905157169L51.972159090909095,85.3102698828126L53.23977272727273,73.25375341655422L54.507386363636364,70.1876288045003L55.775000000000006,67.17656661072854L57.04261363636364,62.63469680051749L58.31022727272727,58.25855098044147L59.5778409090909,52.34249482367241L60.845454545454544,50.777222019754184L62.11306818181818,49.30691444694091L63.38068181818181,44.95213801209776L64.64829545454545,44.44497365816102L65.9159090909091,43.58934161787509L67.18352272727273,49.32098561094145L68.45113636363637,48.74856135794512L69.71875,49.71779064670926L70.98636363636363,45.213460538738595L72.25397727272727,42.081148764157284L73.5215909090909,38.58119128202313L74.78920454545455,35.7569953287932L76.05681818181817,33.713970593083104L77.32443181818182,33.298043400724154L78.59204545454546,31.771514791214372L79.85965909090909,29.70895684800408L81.12727272727273,28.741038924604556L82.39488636363637,28.754385546536167L83.6625,28.575919196414794L84.93011363636364,28.50233838880366L86.19772727272726,28.42164868071171L87.46534090909091,27.690809356889158L88.73295454545455,26.57738210422514L90.0005681818182,25.8139452079676L91.26818181818182,25.584257074578826L92.53579545454546,25.59385363363285L93.80340909090908,25.98403768600884L95.07102272727272,26.33178198851256L96.33863636363637,26.20436685393527L97.60624999999999,25.663598782481305L98.87386363636364,24.498897222674692L100.14147727272727,23.210922520158807L101.4090909090909,22.359973359583652L102.67670454545454,21.629395966815196L103.94431818181819,20.73685975378002L105.21193181818181,20.637896749408508L106.47954545454546,20.769625743050383L107.7471590909091,20.697485494505614L109.01477272727273,20.44183357232307L110.28238636363636,20.418704793891184L111.55000000000001,20.262327126288938L112.81761363636363,20.170159919037886L114.08522727272728,20.31616474567312L115.35284090909092,20.311394747367356L116.62045454545454,20.176852975053038L117.88806818181818,20.201810523129964L119.1556818181818,19.947928764973398L120.42329545454545,20.015815030666662L121.69090909090909,20.00849352546482L122.95852272727274,19.992070020842274L124.22613636363636,19.911899126534326L125.49375,19.875343201735358L126.76136363636363,20.084583877431687L128.02897727272727,20.15944764548978L129.2965909090909,19.925622400846752L130.56420454545454,19.686005650285825L131.8318181818182,19.577013718082874L133.0994318181818,19.715516511794416L134.36704545454546,19.86074172508508L135.6346590909091,19.824355763505775L136.90227272727273,19.36831627029835L138.16988636363638,18.964741335741643L139.4375,18.569690195579447L140.70511363636362,18.738208322441018L141.97272727272727,18.438472001979044L143.24034090909092,18.170405798691032L144.50795454545454,18.155385263882582L145.7755681818182,18.177693991734166L147.0431818181818,18.259114354177438L148.31079545454546,18.412300926043955L149.5784090909091,18.564193023201454L150.84602272727273,18.721807725999675L152.11363636363635,18.665717463358522L153.38125000000002,18.67624465266709L154.64886363636364,18.66147284293088L155.91647727272726,18.685209921502523L157.1840909090909,18.82210899085016L158.45170454545456,18.992092565835684L159.71931818181818,18.889562485302097L160.98693181818183,18.83516599993978L162.25454545454545,18.855524982577975L163.52215909090907,18.767934778670327L164.78977272727275,18.708535658919594L166.05738636363637,18.666811744930612L167.325,18.6795631650461L168.5926136363636,18.69879519959523L169.8602272727273,18.686515212179586L171.1278409090909,18.67517158992366L172.39545454545453,18.747739729924717L173.66306818181818,18.99192892172562L174.93068181818182,19.129212061516377L176.19829545454547,19.158101081819588L177.4659090909091,19.140760087949822L178.7335227272727,19.157700910557892L180.0011363636364,19.357727655404616L181.26875,19.56372101821521L182.53636363636363,19.592455051648646L183.80397727272725,19.44372156996017L185.07159090909093,19.155008576741857L186.33920454545455,18.948662055987768L187.60681818181817,18.852787264262865L188.87443181818182,18.717582039877946L190.14204545454544,18.706257136371775L191.4096590909091,18.63668181401908L192.67727272727274,18.584288846864908L193.94488636363636,18.621614176878044L195.21249999999998,18.577633642464104L196.48011363636365,18.584536900108763L197.74772727272727,18.45081092714414L199.0153409090909,18.330991898770005L200.28295454545454,18.278632923838483L201.5505681818182,18.370323780105746L202.8181818181818,18.547165419415446L204.08579545454546,18.59429279908888L205.35340909090908,18.57849159208144L206.62102272727273,18.63386548976425L207.88863636363638,18.676181920888123L209.15625,18.776624756170474L210.42386363636362,18.90399217433516L211.69147727272727,18.965892933766742L212.95909090909092,18.878302325583025L214.22670454545454,18.75681399689718L215.4943181818182,18.696573873678386L216.7619318181818,18.66381772775632L218.02954545454546,18.686409428233965L219.2971590909091,18.56462018162901L220.56477272727273,18.544578078215757L221.83238636363635,18.428564168706835L223.10000000000002,18.439816676196607L224.36761363636364,18.418980766902727L225.63522727272726,18.368071180325927L226.9028409090909,18.308209479893456L228.17045454545456,18.205329025414677L229.43806818181818,18.155527642147007L230.70568181818183,18.13021014379025L231.97329545454545,18.00546511558641L233.24090909090907,17.813872865128218L234.50852272727275,17.97973526196942L235.77613636363637,17.946743230088206L237.04375,18.083414971866247L238.3113636363636,18.02125822307946L239.5789772727273,17.838628976358734L240.8465909090909,18.02618654299596L242.11420454545453,18.194794748597225L243.38181818181818,18.327868422492056L244.64943181818182,18.40446298159575L245.91704545454547,18.538298421129117L247.1846590909091,18.590804846897534L248.4522727272727,18.646646470913154" style="fill: none;" fill="none"></path></g></g></g></g><g opacity="0.2"><g><g><g><path stroke="rgb(51, 187, 238)" stroke-width="2px" d="M25.352272727272727,102.95378065109253L26.619886363636365,150.75174069404602L27.887500000000003,607.98032528162L32.95795454545455,198.64191806316376L34.22556818181818,157.93043172359467L35.49318181818182,163.5569850206375L36.76079545454545,168.07770824432376L38.028409090909086,134.94688367843628L39.29602272727273,118.55380630493165L40.56363636363636,111.85789501667024L41.83125,120.29107010364532L43.09886363636363,114.65907192230225L44.36647727272727,93.8991973400116L45.63409090909091,103.15213000774384L46.90170454545454,105.79367673397064L48.169318181818184,94.97780299186707L49.43693181818182,85.76540446281433L50.70454545454545,87.51701509952545L51.972159090909095,74.71678352355958L53.23977272727273,55.16921675205231L54.507386363636364,65.5884782075882L55.775000000000006,62.65999472141267L57.04261363636364,55.82191145420075L58.31022727272727,51.69434344768524L59.5778409090909,43.468419671058655L60.845454545454544,48.429314255714424L62.11306818181818,47.10145390033722L63.38068181818181,38.41997480392456L64.64829545454545,43.68422722816468L65.9159090909091,42.30589365959168L67.18352272727273,57.91845118999482L68.45113636363637,47.88992500305176L69.71875,51.171634554862976L70.98636363636363,38.45696544647218L72.25397727272727,37.38268113136292L73.5215909090909,33.33125507831575L74.78920454545455,31.520701408386245L76.05681818181817,30.649433493614204L77.32443181818182,32.674152612686164L78.59204545454546,29.481721878051772L79.85965909090909,26.615119934082045L81.12727272727273,27.289162039756782L82.39488636363637,28.774405479431167L83.6625,28.308219671249404L84.93011363636364,28.391967177391066L86.19772727272726,28.300614118576057L87.46534090909091,26.59455037117005L88.73295454545455,24.90724122524263L90.0005681818182,24.668789863586426L91.26818181818182,25.23972487449646L92.53579545454546,25.608248472213752L93.80340909090908,26.569313764572144L95.07102272727272,26.853398442268386L96.33863636363637,26.0132441520691L97.60624999999999,24.852446675300605L98.87386363636364,22.751844882965102L100.14147727272727,21.278960466384888L101.4090909090909,21.083549618721015L102.67670454545454,20.53352987766266L103.94431818181819,19.398055434227004L105.21193181818181,20.489452242851257L106.47954545454546,20.967219233512893L107.7471590909091,20.589275121688843L109.01477272727273,20.058355689048774L110.28238636363636,20.3840116262436L111.55000000000001,20.027760624885566L112.81761363636363,20.031909108161933L114.08522727272728,20.535171985626228L115.35284090909092,20.30423974990846L116.62045454545454,19.975040316581726L117.88806818181818,20.23924684524536L119.1556818181818,19.567106127738967L120.42329545454545,20.117644429206848L121.69090909090909,19.997511267662063L122.95852272727274,19.9674347639084L124.22613636363636,19.79164278507234L125.49375,19.82050931453705L126.76136363636363,20.398444890975952L128.02897727272727,20.27174329757691L129.2965909090909,19.574884533882155L130.56420454545454,19.32658052444458L131.8318181818182,19.41352581977845L133.0994318181818,19.923270702362068L134.36704545454546,20.078579545021064L135.6346590909091,19.76977682113648L136.90227272727273,18.684257030487075L138.16988636363638,18.35937893390657L139.4375,17.97711348533631L140.70511363636362,18.990985512733474L141.97272727272727,17.988867521286025L143.24034090909092,17.768306493759155L144.50795454545454,18.132854461669922L145.7755681818182,18.211157083511353L147.0431818181818,18.381244897842407L148.31079545454546,18.642080783843994L149.5784090909091,18.79203116893769L150.84602272727273,18.95822978019715L152.11363636363635,18.581582069396987L153.38125000000002,18.692035436630263L154.64886363636364,18.639315128326423L155.91647727272726,18.72081553936006L157.1840909090909,19.027457594871528L158.45170454545456,19.247067928314216L159.71931818181818,18.73576736450196L160.98693181818183,18.753571271896362L162.25454545454545,18.88606345653534L163.52215909090907,18.636549472808852L164.78977272727275,18.619436979293837L166.05738636363637,18.604225873947144L167.325,18.69869029521943L168.5926136363636,18.727643251419067L169.8602272727273,18.66809523105622L171.1278409090909,18.658156156539917L172.39545454545453,18.856591939926155L173.66306818181818,19.35821270942688L174.93068181818182,19.335136771202087L176.19829545454547,19.201434612274177L177.4659090909091,19.11474859714508L178.7335227272727,19.18311214447023L180.0011363636364,19.657767772674568L181.26875,19.872711062431343L182.53636363636363,19.635556101799025L183.80397727272725,19.220621347427375L185.07159090909093,18.721939086914062L186.33920454545455,18.63914227485658L187.60681818181817,18.708975076675415L188.87443181818182,18.514774203300476L190.14204545454544,18.68926978111267L191.4096590909091,18.532318830490127L192.67727272727274,18.505699396133423L193.94488636363636,18.677602171897888L195.21249999999998,18.5116628408432L196.48011363636365,18.594891786575317L197.74772727272727,18.250221967697158L199.0153409090909,18.1512633562088L200.28295454545454,18.200094461441047L201.5505681818182,18.507860064506538L202.8181818181818,18.812427878379822L204.08579545454546,18.664983868598945L205.35340909090908,18.55478978157044L206.62102272727273,18.716926336288466L207.88863636363638,18.739656567573554L209.15625,18.92728900909424L210.42386363636362,19.095043301582336L211.69147727272727,19.058744072914124L212.95909090909092,18.746916413307197L214.22670454545454,18.574581503868117L215.4943181818182,18.606213688850417L216.7619318181818,18.614683508872993L218.02954545454546,18.720296978950515L219.2971590909091,18.381936311721816L220.56477272727273,18.514514923095703L221.83238636363635,18.254543304443366L223.10000000000002,18.456695437431335L224.36761363636364,18.38772690296173L225.63522727272726,18.29170680046083L226.9028409090909,18.218416929244995L228.17045454545456,18.0510083436966L229.43806818181818,18.08082556724549L230.70568181818183,18.0922338962555L231.97329545454545,17.818347573280334L233.24090909090907,17.526484489440925L234.50852272727275,18.22852885723114L235.77613636363637,17.897255182266242L237.04375,18.28842258453369L238.3113636363636,17.928023099899292L239.5789772727273,17.56468510627748L240.8465909090909,18.30752289295198L242.11420454545453,18.447707056999214L243.38181818181818,18.52747893333435L244.64943181818182,18.51935482025148L245.91704545454547,18.739051580429077L247.1846590909091,18.669564485549927L248.4522727272727,18.73040890693666" style="fill: none;" fill="none"></path></g></g></g></g></g></g><g transform="translate(51, 174)" clip-path="url(#clip_1)"><clipPath id="clip_1"><rect width="278" height="26"></rect></clipPath><g><g><line x1="0" y1="0" x2="0" y2="5" style="visibility: inherit;" fill="rgb(0, 0, 0)" stroke="rgb(204, 204, 204)" stroke-width="1px"></line><line x1="25.352272727272727" y1="0" x2="25.352272727272727" y2="5" style="visibility: inherit;" fill="rgb(0, 0, 0)" stroke="rgb(204, 204, 204)" stroke-width="1px"></line><line x1="50.70454545454545" y1="0" x2="50.70454545454545" y2="5" style="visibility: inherit;" fill="rgb(0, 0, 0)" stroke="rgb(204, 204, 204)" stroke-width="1px"></line><line x1="76.05681818181817" y1="0" x2="76.05681818181817" y2="5" style="visibility: inherit;" fill="rgb(0, 0, 0)" stroke="rgb(204, 204, 204)" stroke-width="1px"></line><line x1="101.4090909090909" y1="0" x2="101.4090909090909" y2="5" style="visibility: inherit;" fill="rgb(0, 0, 0)" stroke="rgb(204, 204, 204)" stroke-width="1px"></line><line x1="126.76136363636363" y1="0" x2="126.76136363636363" y2="5" style="visibility: inherit;" fill="rgb(0, 0, 0)" stroke="rgb(204, 204, 204)" stroke-width="1px"></line><line x1="152.11363636363635" y1="0" x2="152.11363636363635" y2="5" style="visibility: inherit;" fill="rgb(0, 0, 0)" stroke="rgb(204, 204, 204)" stroke-width="1px"></line><line x1="177.4659090909091" y1="0" x2="177.4659090909091" y2="5" style="visibility: inherit;" fill="rgb(0, 0, 0)" stroke="rgb(204, 204, 204)" stroke-width="1px"></line><line x1="202.8181818181818" y1="0" x2="202.8181818181818" y2="5" style="visibility: inherit;" fill="rgb(0, 0, 0)" stroke="rgb(204, 204, 204)" stroke-width="1px"></line><line x1="228.17045454545456" y1="0" x2="228.17045454545456" y2="5" style="visibility: inherit;" fill="rgb(0, 0, 0)" stroke="rgb(204, 204, 204)" stroke-width="1px"></line><line x1="253.52272727272725" y1="0" x2="253.52272727272725" y2="5" style="visibility: inherit;" fill="rgb(0, 0, 0)" stroke="rgb(204, 204, 204)" stroke-width="1px"></line><line x1="278.875" y1="0" x2="278.875" y2="5" style="visibility: inherit;" fill="rgb(0, 0, 0)" stroke="rgb(204, 204, 204)" stroke-width="1px"></line></g><g transform="translate(0, 8)"><text x="0" y="0" dx="0em" dy="0.95em" style="text-anchor: middle; visibility: hidden; font-family: Roboto, sans-serif; font-size: 12px; font-weight: 200;" fill="rgb(33, 33, 33)" stroke="none" stroke-width="1px">-20</text><text x="25.352272727272727" y="0" dx="0em" dy="0.95em" style="text-anchor: middle; visibility: inherit; font-family: Roboto, sans-serif; font-size: 12px; font-weight: 200;" fill="rgb(33, 33, 33)" stroke="none" stroke-width="1px">0</text><text x="50.70454545454545" y="0" dx="0em" dy="0.95em" style="text-anchor: middle; visibility: inherit; font-family: Roboto, sans-serif; font-size: 12px; font-weight: 200;" fill="rgb(33, 33, 33)" stroke="none" stroke-width="1px">20</text><text x="76.05681818181817" y="0" dx="0em" dy="0.95em" style="text-anchor: middle; visibility: inherit; font-family: Roboto, sans-serif; font-size: 12px; font-weight: 200;" fill="rgb(33, 33, 33)" stroke="none" stroke-width="1px">40</text><text x="101.4090909090909" y="0" dx="0em" dy="0.95em" style="text-anchor: middle; visibility: inherit; font-family: Roboto, sans-serif; font-size: 12px; font-weight: 200;" fill="rgb(33, 33, 33)" stroke="none" stroke-width="1px">60</text><text x="126.76136363636363" y="0" dx="0em" dy="0.95em" style="text-anchor: middle; visibility: inherit; font-family: Roboto, sans-serif; font-size: 12px; font-weight: 200;" fill="rgb(33, 33, 33)" stroke="none" stroke-width="1px">80</text><text x="152.11363636363635" y="0" dx="0em" dy="0.95em" style="text-anchor: middle; visibility: inherit; font-family: Roboto, sans-serif; font-size: 12px; font-weight: 200;" fill="rgb(33, 33, 33)" stroke="none" stroke-width="1px">100</text><text x="177.4659090909091" y="0" dx="0em" dy="0.95em" style="text-anchor: middle; visibility: inherit; font-family: Roboto, sans-serif; font-size: 12px; font-weight: 200;" fill="rgb(33, 33, 33)" stroke="none" stroke-width="1px">120</text><text x="202.8181818181818" y="0" dx="0em" dy="0.95em" style="text-anchor: middle; visibility: inherit; font-family: Roboto, sans-serif; font-size: 12px; font-weight: 200;" fill="rgb(33, 33, 33)" stroke="none" stroke-width="1px">140</text><text x="228.17045454545456" y="0" dx="0em" dy="0.95em" style="text-anchor: middle; visibility: inherit; font-family: Roboto, sans-serif; font-size: 12px; font-weight: 200;" fill="rgb(33, 33, 33)" stroke="none" stroke-width="1px">160</text><text x="253.52272727272725" y="0" dx="0em" dy="0.95em" style="text-anchor: middle; visibility: inherit; font-family: Roboto, sans-serif; font-size: 12px; font-weight: 200;" fill="rgb(33, 33, 33)" stroke="none" stroke-width="1px">180</text><text x="278.875" y="0" dx="0em" dy="0.95em" style="text-anchor: middle; visibility: hidden; font-family: Roboto, sans-serif; font-size: 12px; font-weight: 200;" fill="rgb(33, 33, 33)" stroke="none" stroke-width="1px">200</text></g><line x1="0" y1="0" x2="278.875" y2="0" fill="rgb(0, 0, 0)" stroke="rgb(204, 204, 204)" stroke-width="1px"></line></g></g></g></g></svg>