<svg viewBox="0 0 330 200" xmlns="http://www.w3.org/2000/svg"><g><g><g><g><g><line x1="51.5625" y1="177" x2="46.5625" y2="177" style="visibility: inherit;" fill="rgb(0, 0, 0)" stroke="rgb(204, 204, 204)" stroke-width="1px"></line><line x1="51.5625" y1="157.33333333333331" x2="46.5625" y2="157.33333333333331" style="visibility: inherit;" fill="rgb(0, 0, 0)" stroke="rgb(204, 204, 204)" stroke-width="1px"></line><line x1="51.5625" y1="137.66666666666666" x2="46.5625" y2="137.66666666666666" style="visibility: inherit;" fill="rgb(0, 0, 0)" stroke="rgb(204, 204, 204)" stroke-width="1px"></line><line x1="51.5625" y1="118" x2="46.5625" y2="118" style="visibility: inherit;" fill="rgb(0, 0, 0)" stroke="rgb(204, 204, 204)" stroke-width="1px"></line><line x1="51.5625" y1="98.33333333333334" x2="46.5625" y2="98.33333333333334" style="visibility: inherit;" fill="rgb(0, 0, 0)" stroke="rgb(204, 204, 204)" stroke-width="1px"></line><line x1="51.5625" y1="78.66666666666666" x2="46.5625" y2="78.66666666666666" style="visibility: inherit;" fill="rgb(0, 0, 0)" stroke="rgb(204, 204, 204)" stroke-width="1px"></line><line x1="51.5625" y1="58.999999999999964" x2="46.5625" y2="58.999999999999964" style="visibility: inherit;" fill="rgb(0, 0, 0)" stroke="rgb(204, 204, 204)" stroke-width="1px"></line><line x1="51.5625" y1="39.33333333333333" x2="46.5625" y2="39.33333333333333" style="visibility: inherit;" fill="rgb(0, 0, 0)" stroke="rgb(204, 204, 204)" stroke-width="1px"></line><line x1="51.5625" y1="19.666666666666636" x2="46.5625" y2="19.666666666666636" style="visibility: inherit;" fill="rgb(0, 0, 0)" stroke="rgb(204, 204, 204)" stroke-width="1px"></line><line x1="51.5625" y1="0" x2="46.5625" y2="0" style="visibility: inherit;" fill="rgb(0, 0, 0)" stroke="rgb(204, 204, 204)" stroke-width="1px"></line></g><g transform="translate(41.5625, 0)"><text x="0" y="177" dx="0em" dy="0.3em" style="text-anchor: end; visibility: hidden; font-family: Roboto, sans-serif; font-size: 12px; font-weight: 200;" fill="rgb(33, 33, 33)" stroke="none" stroke-width="1px">0.15</text><text x="0" y="157.33333333333331" dx="0em" dy="0.3em" style="text-anchor: end; visibility: inherit; font-family: Roboto, sans-serif; font-size: 12px; font-weight: 200;" fill="rgb(33, 33, 33)" stroke="none" stroke-width="1px">0.2</text><text x="0" y="137.66666666666666" dx="0em" dy="0.3em" style="text-anchor: end; visibility: hidden; font-family: Roboto, sans-serif; font-size: 12px; font-weight: 200;" fill="rgb(33, 33, 33)" stroke="none" stroke-width="1px">0.25</text><text x="0" y="118" dx="0em" dy="0.3em" style="text-anchor: end; visibility: inherit; font-family: Roboto, sans-serif; font-size: 12px; font-weight: 200;" fill="rgb(33, 33, 33)" stroke="none" stroke-width="1px">0.3</text><text x="0" y="98.33333333333334" dx="0em" dy="0.3em" style="text-anchor: end; visibility: hidden; font-family: Roboto, sans-serif; font-size: 12px; font-weight: 200;" fill="rgb(33, 33, 33)" stroke="none" stroke-width="1px">0.35</text><text x="0" y="78.66666666666666" dx="0em" dy="0.3em" style="text-anchor: end; visibility: inherit; font-family: Roboto, sans-serif; font-size: 12px; font-weight: 200;" fill="rgb(33, 33, 33)" stroke="none" stroke-width="1px">0.4</text><text x="0" y="58.999999999999964" dx="0em" dy="0.3em" style="text-anchor: end; visibility: hidden; font-family: Roboto, sans-serif; font-size: 12px; font-weight: 200;" fill="rgb(33, 33, 33)" stroke="none" stroke-width="1px">0.45</text><text x="0" y="39.33333333333333" dx="0em" dy="0.3em" style="text-anchor: end; visibility: inherit; font-family: Roboto, sans-serif; font-size: 12px; font-weight: 200;" fill="rgb(33, 33, 33)" stroke="none" stroke-width="1px">0.5</text><text x="0" y="19.666666666666636" dx="0em" dy="0.3em" style="text-anchor: end; visibility: hidden; font-family: Roboto, sans-serif; font-size: 12px; font-weight: 200;" fill="rgb(33, 33, 33)" stroke="none" stroke-width="1px">0.55</text><text x="0" y="0" dx="0em" dy="0.3em" style="text-anchor: end; visibility: hidden; font-family: Roboto, sans-serif; font-size: 12px; font-weight: 200;" fill="rgb(33, 33, 33)" stroke="none" stroke-width="1px">0.6</text></g><line x1="51.5625" y1="0" x2="51.5625" y2="177" fill="rgb(0, 0, 0)" stroke="rgb(204, 204, 204)" stroke-width="1px"></line></g></g><g transform="translate(51, 0)" clip-path="url(#clip_0)"><clipPath id="clip_0"><rect width="278" height="177"></rect></clipPath><g><g><g><line x1="0" y1="0" x2="0" y2="177" fill="rgb(0, 0, 0)" stroke="rgb(66, 66, 66)" stroke-width="1px" opacity="0.25"></line><line x1="25.3125" y1="0" x2="25.3125" y2="177" fill="rgb(0, 0, 0)" stroke="rgb(66, 66, 66)" stroke-width="1px" opacity="0.25"></line><line x1="50.625" y1="0" x2="50.625" y2="177" fill="rgb(0, 0, 0)" stroke="rgb(66, 66, 66)" stroke-width="1px" opacity="0.25"></line><line x1="75.9375" y1="0" x2="75.9375" y2="177" fill="rgb(0, 0, 0)" stroke="rgb(66, 66, 66)" stroke-width="1px" opacity="0.25"></line><line x1="101.25" y1="0" x2="101.25" y2="177" fill="rgb(0, 0, 0)" stroke="rgb(66, 66, 66)" stroke-width="1px" opacity="0.25"></line><line x1="126.5625" y1="0" x2="126.5625" y2="177" fill="rgb(0, 0, 0)" stroke="rgb(66, 66, 66)" stroke-width="1px" opacity="0.25"></line><line x1="151.875" y1="0" x2="151.875" y2="177" fill="rgb(0, 0, 0)" stroke="rgb(66, 66, 66)" stroke-width="1px" opacity="0.25"></line><line x1="177.1875" y1="0" x2="177.1875" y2="177" fill="rgb(0, 0, 0)" stroke="rgb(66, 66, 66)" stroke-width="1px" opacity="0.25"></line><line x1="202.5" y1="0" x2="202.5" y2="177" fill="rgb(0, 0, 0)" stroke="rgb(66, 66, 66)" stroke-width="1px" opacity="0.25"></line><line x1="227.8125" y1="0" x2="227.8125" y2="177" fill="rgb(0, 0, 0)" stroke="rgb(66, 66, 66)" stroke-width="1px" opacity="0.25"></line><line x1="253.125" y1="0" x2="253.125" y2="177" fill="rgb(0, 0, 0)" stroke="rgb(66, 66, 66)" stroke-width="1px" opacity="0.25"></line><line x1="278.4375" y1="0" x2="278.4375" y2="177" fill="rgb(0, 0, 0)" stroke="rgb(66, 66, 66)" stroke-width="1px" opacity="0.25"></line></g><g><line x1="0" y1="177" x2="278.4375" y2="177" fill="rgb(0, 0, 0)" stroke="rgb(66, 66, 66)" stroke-width="1px" opacity="0.25"></line><line x1="0" y1="157.33333333333331" x2="278.4375" y2="157.33333333333331" fill="rgb(0, 0, 0)" stroke="rgb(66, 66, 66)" stroke-width="1px" opacity="0.25"></line><line x1="0" y1="137.66666666666666" x2="278.4375" y2="137.66666666666666" fill="rgb(0, 0, 0)" stroke="rgb(66, 66, 66)" stroke-width="1px" opacity="0.25"></line><line x1="0" y1="118" x2="278.4375" y2="118" fill="rgb(0, 0, 0)" stroke="rgb(66, 66, 66)" stroke-width="1px" opacity="0.25"></line><line x1="0" y1="98.33333333333334" x2="278.4375" y2="98.33333333333334" fill="rgb(0, 0, 0)" stroke="rgb(66, 66, 66)" stroke-width="1px" opacity="0.25"></line><line x1="0" y1="78.66666666666666" x2="278.4375" y2="78.66666666666666" fill="rgb(0, 0, 0)" stroke="rgb(66, 66, 66)" stroke-width="1px" opacity="0.25"></line><line x1="0" y1="58.999999999999964" x2="278.4375" y2="58.999999999999964" fill="rgb(0, 0, 0)" stroke="rgb(66, 66, 66)" stroke-width="1px" opacity="0.25"></line><line x1="0" y1="39.33333333333333" x2="278.4375" y2="39.33333333333333" fill="rgb(0, 0, 0)" stroke="rgb(66, 66, 66)" stroke-width="1px" opacity="0.25"></line><line x1="0" y1="19.666666666666636" x2="278.4375" y2="19.666666666666636" fill="rgb(0, 0, 0)" stroke="rgb(66, 66, 66)" stroke-width="1px" opacity="0.25"></line><line x1="0" y1="0" x2="278.4375" y2="0" fill="rgb(0, 0, 0)" stroke="rgb(66, 66, 66)" stroke-width="1px" opacity="0.25"></line></g></g></g><g><g><line x1="0" y1="236.00000000000003" x2="278.4375" y2="236.00000000000003" fill="rgb(0, 0, 0)" stroke="rgb(153, 153, 153)" stroke-width="1.5px"></line></g></g><g><g><line x1="25.3125" y1="0" x2="25.3125" y2="177" fill="rgb(0, 0, 0)" stroke="rgb(153, 153, 153)" stroke-width="1.5px"></line></g></g><g><g><g><g><g><path stroke="rgb(0, 119, 187)" stroke-width="2px" d="M25.7124375,29.98366928100586L25.8136875,25.983994712432224L26.421187500000002,16.01909062975929L26.8261875,22.87277250137985L26.9274375,12.076700714156798L27.2311875,16.568714565192312L27.3324375,23.171573059598657L27.4336875,16.36586474602631L27.636187500000002,24.292051828726574L27.7374375,23.806958293271375L28.041187500000003,34.506315215852794L28.1424375,34.7343482468399L28.7499375,37.95225499494953L29.0536875,41.64710893362273L29.1549375,37.64528122435456L29.2561875,39.690068551491336L29.4586875,44.89679816200316L30.167437500000002,51.02314591366864L30.2686875,48.82079960055943L30.369937500000002,51.089809636026395L30.5724375,47.6367583195276L30.8761875,44.958501177722844L31.1799375,52.50634139534513L31.4836875,45.820730854513734L31.584937500000002,51.200384753569324L31.6861875,55.303028209362985L31.787437500000003,57.95872103186215L31.9899375,61.38784465178182L32.091187500000004,66.38990944740597L32.1924375,65.3552751446334L32.293687500000004,65.6301448176064L32.496187500000005,64.63238373383915L32.5974375,59.742034195698714L33.2049375,59.74346448515225L33.4074375,62.849016045477946L33.5086875,63.744314418498575L33.7111875,64.1161300441371L34.0149375,64.98529808649776L34.4199375,62.462236006972844L34.521187499999996,64.01913040682234L35.4324375,67.39406858836828L35.5336875,72.78750351701578L35.8374375,74.67977298732241L36.1411875,73.64465751690999L36.2424375,71.43731504125297L36.4449375,69.8947116539484L37.1536875,72.5062719508357L37.659937500000005,70.1719084137758L38.0649375,69.05221628072822L38.1661875,69.29515825265624L38.3686875,70.43724408083105L38.5711875,77.19669191640362L38.6724375,76.6529682831064L38.7736875,75.89049303269874L39.1786875,69.20532513302037L39.279937499999996,68.67721338654421L39.9886875,73.76236091207495L40.191187500000005,70.29111628225021L40.2924375,74.66017692381519L40.596187500000006,79.59211035427106L41.3049375,77.31682770166779L41.5074375,79.0443103514949L41.6086875,76.86008918699656L41.811187499999996,75.80233501841845L42.0136875,82.63575715690983L42.6211875,84.65796717129228L42.722437500000005,86.27304271134979L42.8236875,83.50369472865212L43.1274375,82.22053164381154L43.2286875,84.7126396783493L43.3299375,83.55921594430814L43.4311875,85.74959654885419L43.6336875,86.74932640757889L43.7349375,91.45605349123517L44.0386875,90.11226364521205L44.1399375,83.04415304987442L44.241187499999995,83.1592548501222L44.646187499999996,81.53327435324958L44.747437500000004,82.3369449420991L44.848687500000004,85.83893873955147L45.152437500000005,87.3918292681297L45.557437500000006,84.63427711486342L45.6586875,82.14757414436055L45.8611875,84.15269714062836L45.96243749999999,83.05228379646198L46.0636875,81.03129393624815L46.1649375,80.84165829877585L46.367437499999994,91.92352757331052L46.5699375,93.69330610519441L46.772437499999995,97.22035234979266L46.9749375,92.42498864617829L47.177437499999996,90.71044850679367L47.278687500000004,83.01621575553494L47.5824375,82.13046870668298L47.683687500000005,87.7380220852667L47.7849375,98.41118743990107L47.8861875,97.16094244504517L48.0886875,91.31682745407747L48.1899375,96.28974415336485L48.5949375,93.67900499586922L49.202437499999995,89.54516907265581L49.4049375,86.63453446068839L49.5061875,87.73942611757006L49.607437499999996,86.08278166935692L49.809937500000004,90.0099114319832L49.9111875,88.74778959002997L50.113687500000005,89.3785102179462L50.214937500000005,94.29338646396882L50.3161875,92.57588269192905L50.4174375,91.00405176011085L50.92368750000001,86.43075623230553L51.0249375,87.19043657451716L51.1261875,93.21787088674216L51.5311875,91.10465196904681L51.6324375,89.62186121227629L51.733687499999995,88.39206811159225L51.9361875,92.49230110865456L52.7461875,92.8165021830099L52.8474375,95.97877687374536L53.1511875,97.65174506203203L53.3536875,95.69602439063313L53.5561875,97.25093555405252L53.7586875,98.70415776543526L53.9611875,102.17211393657949L54.0624375,98.67314504867967L54.2649375,98.73549138279463L54.4674375,95.04614841205897L54.568687499999996,94.37469328599984L54.7711875,91.86463850234634L55.2774375,92.58882404264622L55.3786875,99.09246300596085L55.479937500000005,96.76706679029118L55.5811875,95.33943345961681L56.3911875,91.44830136389162L56.5936875,90.417126573467L56.694937499999995,98.70942520936953L56.998687499999996,100.53614794318254L57.4036875,98.15260141951468L57.606187500000004,95.45775091963584L57.7074375,100.19148973813202L58.011187500000005,102.57089399610287L58.2136875,98.41379090536233L58.7199375,98.89533862504521L58.8211875,95.10337803184882L58.9224375,92.52492370657062L59.0236875,93.47484441470267L59.529937499999996,99.3605450543036L59.6311875,96.1689333609106L59.8336875,98.55126231261262L60.137437500000004,97.37090305496159L60.2386875,98.23077714448513L60.3399375,95.84053154789612L60.4411875,100.08717254799527L60.8461875,100.52864595255409L61.0486875,96.131981619206L61.1499375,98.03677096844133L61.2511875,102.82062132485959L61.656187499999994,91.78328281637978L62.061187499999996,96.7315015991347L62.1624375,95.20481055179141L62.2636875,94.56676790634137L62.364937499999996,94.67404476912422L62.4661875,96.21597665217483L62.567437500000004,100.43473546703832L63.2761875,99.0343866884719L63.5799375,102.56077531218594L63.6811875,99.51706155482967L64.4911875,100.8636235098682L64.8961875,96.58249258800204L64.9974375,99.92340658388845L65.0986875,99.8785967724461L65.19993749999999,105.12084206920497L65.3011875,102.476426194002L65.60493749999999,105.93364846898504L66.00993749999999,108.16313749269675L66.1111875,101.7472023350956L66.3136875,103.68448310988914L66.7186875,105.42334229487837L66.8199375,109.76963997724847L67.1236875,107.93638442859967L67.2249375,106.92049367570432L67.3261875,114.52113179769248L67.4274375,108.86349939747332L67.7311875,108.295519396327L68.0349375,107.33119226574621L68.1361875,107.8359941705846L68.4399375,108.08198021639087L68.5411875,97.15835049225109L68.94618750000001,104.20038472696076L69.0474375,106.78985481510917L69.4524375,107.02160502900895L69.5536875,101.19869698741168L69.6549375,103.59161130780855L69.8574375,105.13872124470201L69.9586875,104.05139844646213L70.05993749999999,104.58071040131742L70.2624375,103.61352056871709L70.3636875,100.17016510930173L70.4649375,104.96760704974241L70.5661875,108.53517152583544L70.9711875,101.80126135577328L71.0724375,104.8041240912451L71.1736875,108.26873153101046L71.27493750000001,110.95626040488861L71.3761875,106.75463709149987L71.5786875,107.30890546389955L71.78118749999999,112.44387875883902L71.9836875,111.53781244092659L72.08493750000001,102.36628015597744L72.4899375,105.09579624986696L72.59118749999999,108.47807632042596L72.7936875,115.12648318302807L72.9961875,114.90329733347203L73.40118749999999,106.62931228591188L73.50243750000001,106.69982319422475L73.80618750000001,110.51078988719728L73.9074375,108.83691504165778L74.0086875,108.39016114810256L74.1099375,104.24499443653711L74.2111875,105.75352070023708L74.31243749999999,100.83834867451642L74.41368750000001,103.87295074129536L74.6161875,104.58229293941119L74.7174375,103.60758678824897L74.8186875,111.65519444571648L74.9199375,114.49011901474026L75.12243749999999,110.5481763886771L75.4261875,110.96044246002205L75.8311875,109.76726925955715L76.1349375,113.69345478566393L76.2361875,109.62963706067343L76.33743750000001,113.35997718460048L76.6411875,113.51757153999816L76.94493750000001,111.60589374581183L77.0461875,108.72607172417166L77.1474375,110.64597291680685L77.2486875,111.83189408142873L77.3499375,108.47019108231568L77.4511875,102.70597491321385L77.75493750000001,109.34913828566125L77.8561875,110.36170716242663L77.9574375,113.39838873837394L78.0586875,111.34014174636604L78.3624375,114.13329515435137L79.0711875,116.34577070222998L79.3749375,112.70383925366424L79.47618750000001,118.30040952639594L79.6786875,113.57289444452611L79.7799375,113.53627217836829L79.8811875,115.57737674530934L79.98243749999999,110.94696945081108L80.0836875,108.06767461774717L80.28618750000001,107.13887974865021L80.3874375,109.59737588512965L80.4886875,114.99912615745107L80.6911875,114.59063295600122L80.79243749999999,115.86356799648586L81.0961875,119.31410081096324L81.2986875,120.10548586194415L81.6024375,114.43145453062472L81.7036875,113.67615097638063L82.3111875,113.84033269410979L82.4124375,111.67357379630599L82.51368749999999,113.15162530602254L82.9186875,111.95991898612918L83.2224375,115.03078235608382L83.42493750000001,120.63865485244219L83.7286875,121.64198330910935L84.1336875,127.11237952632864L84.53868750000001,123.06318181468939L84.6399375,113.17980060009496L84.7411875,121.68544685658814L84.9436875,120.691461045446L85.14618750000001,117.58534120653192L85.2474375,121.05435382009023L85.3486875,119.98847878782236L85.5511875,116.74644148831536L85.7536875,119.80753282995008L85.85493749999999,113.10515914931483L85.95618750000001,115.96553312882536L86.0574375,115.58555720932137L86.2599375,110.79164868207883L86.3611875,122.05816854802038L86.4624375,123.28563245396174L86.6649375,128.80495629465793L86.9686875,128.89057890031464L87.1711875,124.61599325808128L87.4749375,124.19502981308445L87.57618749999999,122.40113571367665L87.7786875,127.07773100782633L87.9811875,124.47254901398739L88.18368749999999,126.92964531542574L88.38618749999999,132.14161651270618L88.48743750000001,129.39873878719627L88.7911875,130.7085375501447L88.9936875,135.65858087422845L89.0949375,134.64287884324233L89.4999375,136.50095541053676L89.9049375,135.35019816621343L90.20868750000001,132.91115033029038L90.3099375,132.71857729394347L90.4111875,128.8012181212849L90.5124375,128.74878968141556L90.6136875,129.9105260531629L90.71493749999999,129.74823809626847L91.1199375,133.25009445923456L91.3224375,129.3924315248602L91.4236875,130.0743495151206L91.5249375,132.20816165952706L91.6261875,133.6605549737741L91.7274375,130.2274272015649L92.0311875,131.2463236394102L92.2336875,129.66765977596688L92.9424375,124.79683320714305L93.24618749999999,128.88919233278395L93.7524375,129.1758796155212L93.85368749999999,129.43593543647276L93.9549375,130.59629821307587L94.25868750000001,131.5473575245964L94.46118750000001,133.3512719423549L94.5624375,134.56814978625238L94.6636875,134.38002601130322L94.96743749999999,135.07917053816823L95.4736875,133.12962868601943L95.6761875,134.92579143916092L95.87868750000001,134.18325860703698L95.9799375,130.3994774623993L96.1824375,134.702847850578L96.4861875,135.62748036320426L96.5874375,135.1409070424363L96.78993750000001,133.1432448505635L97.1949375,136.41952147558973L97.2961875,137.5307004917203L97.49868749999999,137.872596164656L97.8024375,137.29499226020513L98.0049375,133.92750844879987L98.30868749999999,134.30986306781L98.40993750000001,136.76965367226458L98.6124375,134.52430547532632L98.8149375,131.57584233238612L98.91618749999999,137.18336336108632L99.0174375,140.5429291901544L99.1186875,144.17348320747746L99.21993749999999,141.6670243708213L99.4224375,142.00874415047488L99.52368750000001,142.14259150231393L99.6249375,141.9476639028659L100.13118750000001,141.88717575051012L100.5361875,138.39149074858997L100.63743749999999,138.28180941605513L100.7386875,142.0476889411446L101.85243750000001,139.39406900802274L101.9536875,135.04797553936058L102.1561875,129.56155602089214L102.66243750000001,132.60811071367056L102.7636875,135.01169259213006L102.8649375,141.4857474497711L103.16868749999999,139.41545482069785L103.2699375,136.9968814428083L103.5736875,141.3532221620539L103.8774375,142.38291029365416L103.97868749999999,143.5237510694954L104.18118750000001,144.6260200000143L104.2824375,146.04268792011356L104.38368750000001,142.28482349756172L104.4849375,141.1168204230635L104.5861875,140.54404895797782L105.19368750000001,142.28179994401583L105.4974375,142.6862421860928L105.69993749999999,142.41105617864739L105.9024375,141.86589526603902L106.30743749999999,140.39918532850515L106.4086875,140.3126101188789L106.8136875,141.2210663294552L106.91493750000001,142.54935728723353L107.0161875,140.85463232525913L107.1174375,132.91726182338832L107.42118749999999,137.6884139047299L108.23118749999999,141.67308828430777L108.33243750000001,143.23498001812342L108.5349375,141.33626442224846L108.7374375,140.90355129085617L109.04118749999999,142.5339715980051L109.14243750000001,140.02931450024593L109.24368750000001,139.31455531646023L109.6486875,140.8968927240126L109.7499375,139.91059117570038L109.95243749999999,141.0611792229882L110.05368750000001,139.3763047589821L110.1549375,135.94787298842047L110.3574375,135.1842841498282L110.4586875,138.61028091463803L110.76243749999999,142.7683155160349L110.9649375,143.80399553902157L111.4711875,143.69417214151548L111.57243749999999,143.9275072083254L111.8761875,143.5892241675881L112.1799375,143.02248254691924L112.4836875,139.0039637045584L112.6861875,139.65901705164842L112.9899375,141.43678400837857L113.09118749999999,140.64067835364824L113.4961875,143.30789918951643L113.5974375,143.09871065171035L114.6099375,144.34018499583883L114.8124375,141.62820715266994L114.9136875,135.88760433132566L115.0149375,137.81058749478132L115.11618750000001,141.89801970077198L115.3186875,141.60252179475214L115.5211875,141.72805088622323L115.7236875,141.16856647648186L116.0274375,139.2692453292078L116.2299375,140.39969386818404L116.3311875,145.07679414448577L116.6349375,148.81647806781987L116.7361875,142.1131733581531L116.9386875,143.46974185656154L117.2424375,141.34455932508297L117.34368749999999,141.92864738303655L117.5461875,140.44748743215143L117.64743750000001,140.9860031436221L117.9511875,137.65130736611306L118.3561875,133.7539710333865L118.4574375,130.35954953020342L118.6599375,137.67914623887654L118.8624375,140.90976414007733L119.2674375,143.5625120456385L119.36868750000001,142.51585345598264L119.5711875,145.11435984650572L119.6724375,142.5599514429529L119.7736875,138.18463341701582L119.87493749999999,139.22396699771417L120.0774375,145.10466661563595L120.4824375,141.71907077537625L120.68493749999999,144.14605884337413L120.78618750000001,139.87041059683156L121.0899375,136.8467849545701L121.49493749999999,139.16534160294276L121.7986875,145.15164088438834L122.1024375,142.70415875453284L122.2036875,139.68764128568887L122.6086875,140.55253652502964L122.8111875,145.66986492337708L122.9124375,146.70957025922493L123.1149375,148.8702878616481L123.31743750000001,144.34373686684543L123.4186875,144.0222111581169L123.7224375,143.53078637352004L124.2286875,143.3810036847815L124.43118750000001,141.34546616890978L124.5324375,141.4694074584183L124.7349375,144.62505389411075L124.8361875,143.38350971435798L125.2411875,139.4315288696406L125.6461875,138.9447524925302L125.84868750000001,141.04447749337933L126.0511875,141.0838249787572L126.1524375,141.78834596464333L126.2536875,143.86676965071337L126.4561875,142.3991038913344L126.5574375,143.4371056704609L126.8611875,140.74163172337742L126.9624375,137.56459457294144L127.0636875,140.4366179701646L127.1649375,139.61128191929814L127.2661875,139.15599453915212L127.7724375,142.09568130454852L127.9749375,142.1401140579468L128.1774375,146.03112724754527L128.2786875,146.055767961343L128.37993749999998,146.63003647406887L128.8861875,150.01798825311656L129.2911875,150.35186815767284L129.4936875,145.60678179567336L129.59493750000001,143.06795239153672L130.2024375,139.39040118676326L130.3036875,135.89782745573063L130.40493750000002,140.47395309766017L130.5061875,135.47580439821812L130.6074375,140.22907612508095L131.0124375,140.46852780452704L131.21493750000002,141.12755332631667L131.3161875,140.8912966146636L131.9236875,141.00740153955826L132.0249375,140.21101083378437L132.3286875,137.95146054041652L132.5311875,141.1967731913662L132.6324375,145.49255747402128L132.7336875,142.4050107964143L132.93618750000002,140.5238734742958L133.2399375,142.20658911035213L133.3411875,141.56355049271835L133.44243749999998,143.41868799960287L133.6449375,142.1304541788638L133.7461875,147.75286930971185L133.8474375,145.75678850515388L133.9486875,140.0358954030496L134.0499375,141.64176643043092L134.1511875,142.69376622130073L134.4549375,138.3437332937495L134.5561875,141.97145397440846L134.7586875,140.95138982321572L134.8599375,138.33474631738116L134.9611875,142.14421180664368L135.2649375,140.47313343552074L135.3661875,143.5691840752005L135.46743750000002,145.76904076560572L135.8724375,142.11815008853418L136.5811875,135.29714532693947L136.78368749999998,138.8002325216972L136.9861875,137.27727775891879L137.0874375,134.194936131161L137.18868750000001,138.42099115136554L137.4924375,141.63248202532503L137.5936875,138.04349441526318L137.69493749999998,141.2254660717526L137.8974375,140.7163847163446L137.9986875,145.49781428228582L138.2011875,147.4706609872029L138.7074375,144.225692444665L138.9099375,143.39868760126197L139.0111875,137.95560042073743L139.31493749999998,138.15023039188236L139.41618749999998,139.85704909805207L139.61868750000002,138.15092822935432L139.71993750000001,139.06118729726222L139.8211875,142.70940559913166L139.9224375,141.92209093854495L140.0236875,139.98558882724646L140.2261875,142.002010670412L140.3274375,141.68072499857846L140.4286875,145.76272409375412L140.7324375,144.72816088924347L141.03618749999998,143.9376871772381L141.33993750000002,145.73523768113688L141.4411875,147.670293801983L141.6436875,148.66158465184358L141.7449375,148.78473566157174L141.8461875,148.12710414438976L141.9474375,147.5626206444275L142.0486875,141.66311938245525L142.1499375,141.4026116689807L142.8586875,142.556903467224L143.06118750000002,140.7478971554712L143.2636875,135.412449777556L143.4661875,141.46241838560454L143.5674375,141.49227248922557L144.1749375,141.56093524671934L144.2761875,140.060233100915L144.4786875,140.12025534987293L144.5799375,139.56226025350796L144.68118750000002,142.1873609920019L145.0861875,149.23568616904862L145.2886875,144.6363805607838L145.4911875,138.58342726682918L145.69368749999998,137.93850253217596L145.7949375,136.23986109610306L145.8961875,138.46365691333557L146.1999375,142.72490675315981L146.3011875,144.56823837200238L146.40243750000002,138.2910903817779L146.6049375,140.28455100017982L146.7061875,140.73874512647507L147.0099375,138.50858066480308L147.1111875,144.62816368342013L147.41493749999998,139.87278323253335L147.5161875,142.82996558078332L147.6174375,145.50509683447007L147.8199375,142.32083830926965L148.2249375,140.43243824061247L148.3261875,141.04923424690858L148.4274375,147.42293557467L148.7311875,145.7921033200141L149.2374375,145.9947961666097L149.4399375,144.86021839566487L149.7436875,142.3208462019014L149.84493750000001,144.24188482081377L150.1486875,143.39872513998836L150.2499375,144.81589205338133L150.75618749999998,140.19087841872516L150.95868750000002,135.53207235394405L151.05993750000002,138.70580836648833L151.1611875,142.72903129566762L151.2624375,136.55435380801987L151.3636875,145.04216802993673L151.46493750000002,142.47473635402872L151.5661875,138.42099949992232L151.8699375,143.11507226592224L151.97118749999998,146.49670874416384L152.0724375,143.52233326041429L152.1736875,143.6053408758068L152.3761875,142.8645455425714L152.57868750000003,143.05433801724917L152.67993750000002,143.25739166685582L152.9836875,146.3534368607321L153.0849375,139.84390941855818L153.3886875,142.53833837269255L153.69243749999998,143.79358246500396L154.09743749999998,141.64713973944447L154.6036875,140.6360199400488L154.7049375,140.3010040967884L154.8061875,141.65724818999902L155.2111875,144.18089299854836L155.5149375,143.1355249491763L156.02118750000002,145.35907248700252L156.3249375,141.13420679595822L156.6286875,140.1673957810407L156.8311875,142.02525282932947L156.9324375,145.84895016173698L157.2361875,142.76684915276473L157.64118749999997,139.21133815796438L158.0461875,139.20606949061906L158.5524375,138.15472842532847L159.0586875,138.48371087677353L159.26118749999998,141.67201755345107L159.3624375,138.30554776529615L159.5649375,135.42376659596053L159.6661875,137.66519872119477L159.8686875,140.19515370391082L160.5774375,139.7202181362844L161.4886875,137.77592821580586L161.5899375,137.21991921064705L161.7924375,138.02641249853838L161.8936875,143.53973611886383L162.1974375,141.4566478850151L162.2986875,143.23547185192734L162.5011875,145.16008681891498L162.90618750000002,149.1509596358029L163.1086875,153.58812937638888L163.5136875,153.01023574770528L163.6149375,144.83909207245333L163.7161875,140.8146365979947L163.81743749999998,144.15633202987732L163.9186875,139.5693015976617L164.3236875,141.5002029929878L164.4249375,142.77475421792198L164.6274375,140.11311910052655L164.7286875,141.53644290864204L165.1336875,143.0257993815327L165.6399375,144.24394132363702L165.7411875,142.08918443720285L166.1461875,141.88420404235964L166.4499375,142.1825344556994L166.8549375,140.61538213060857L167.4624375,144.0474864496781L168.7786875,143.93514655355574L168.87993749999998,145.07697677408035L169.2849375,145.1553947118583L170.2974375,143.87722906198078L170.3986875,145.2551679257113L170.8036875,144.25847010872118L171.0061875,142.91302923994076L171.1074375,138.69771839362468L171.2086875,145.87961625167978L171.30993750000002,142.5182043022469L171.6136875,144.39125579038588L171.81618749999998,144.63291727765L171.9174375,141.4019657011644L172.1199375,140.9119338931133L172.32243749999998,146.57199562836624L172.4236875,144.45322429288785L172.62618750000001,147.02016972988463L172.7274375,149.28852999700874L172.8286875,144.45663159187896L172.9299375,142.2392443563318L173.03118750000002,139.59654399628099L173.1324375,141.11855236415855L173.2336875,138.30113827223454L173.3349375,140.63176979443358L173.5374375,143.79323558303273L174.24618750000002,141.19603304242625L174.5499375,140.1544281572632L174.65118750000002,143.7808568754116L174.8536875,145.31309007873054L175.3599375,140.3456794218416L175.4611875,149.02675390618214L175.5624375,151.16435280071L175.96743750000002,146.67605706826626L176.1699375,145.0342369443721L176.2711875,141.9154826064833L176.5749375,143.18657988269695L176.6761875,143.07242825404546L177.0811875,141.27436430519268L177.1824375,140.433855624589L177.28368749999998,140.52827823853056L177.48618750000003,140.62653171636003L178.1949375,143.11989437510968L178.2961875,145.88386051835855L178.3974375,146.24366142540518L178.59993749999998,148.80880214088765L178.8024375,148.49972431647942L178.9036875,147.5935657548199L179.6124375,147.79288054271282L179.9161875,141.43066007751466L180.1186875,140.48464526449587L180.72618749999998,139.21164783069457L181.02993750000002,139.24525520938022L181.1311875,137.30765671970872L181.4349375,137.19822896784004L182.1436875,142.3068986570763L182.44743749999998,141.14701119875477L182.5486875,145.60041323392926L182.64993750000002,142.9927826270819L183.0549375,143.46932642134192L183.5611875,139.89171268426674L183.7636875,138.96115874777215L183.8649375,142.48218702989803L183.9661875,141.0181894206086L184.16868749999998,141.32723570087032L184.37118750000002,144.7304061505306L184.4724375,150.3470263393586L184.5736875,142.88899731110723L184.6749375,141.54691284182383L184.9786875,142.1092005726658L185.1811875,139.52569174112656L185.38368749999998,143.21841993734307L185.4849375,141.05312734527428L185.5861875,145.24856742431544L185.8899375,143.86615411565597L186.3961875,144.4396762060676L186.9024375,144.91458863462333L187.00368749999998,146.3485976126511L187.1049375,146.1146773378086L187.5099375,144.60892724275777L187.6111875,146.10055493084704L187.71243750000002,145.80630960524945L188.4211875,148.92594567812006L188.5224375,143.30778131411384L188.72493749999998,145.23883851484007L188.8261875,141.3815539049042L189.0286875,142.70539343557354L189.6361875,142.7678866636848L189.8386875,142.45713574799473L190.0411875,144.06834801303887L190.1424375,145.30852960110232L190.5474375,143.16417612966217L190.9524375,142.30786193809698L191.0536875,144.70631794175577L191.15493750000002,138.56643617177647L191.4586875,144.2207724493224L191.5599375,142.85949204612643L192.06618749999998,143.41873974551083L192.16743749999998,140.5281408326784L192.3699375,139.23214193763093L192.5724375,137.01632607329938L192.6736875,138.13210661619337L192.77493750000002,140.58145979688226L192.87618750000001,141.12927641657387L193.0786875,144.54498726241226L193.2811875,144.1687995718664L193.6861875,143.0073257839727L193.8886875,142.3727851086486L194.09118750000002,142.80937326194615L194.3949375,148.42201135302648L194.49618750000002,148.30548691200252L194.9011875,145.06386282909136L195.2049375,145.90557825685474L195.4074375,148.8992217547949L195.50868749999998,145.97560225530003L195.71118750000002,143.69782826862854L196.0149375,142.57610256808275L196.1161875,147.57660177948438L196.21743750000002,145.02061493159746L196.3186875,148.08550316668402L196.8249375,144.70259481217573L196.9261875,146.71091531244582L197.0274375,142.99120417353112L197.22993749999998,144.803815216521L197.43243750000002,142.75331996124962L197.5336875,135.26333598042712L197.7361875,132.71568869597823L197.93868750000001,139.20250307945673L198.2424375,138.5966085320409L198.4449375,140.9890423611221L198.5461875,145.3411406752716L198.6474375,148.47270799938343L198.7486875,144.07609433291455L199.3561875,145.41592288628084L199.4574375,142.76423763800577L199.7611875,144.5624046856299L199.8624375,146.6256126006922L199.9636875,143.458019255031L200.06493749999998,146.60637561386557L200.57118749999998,143.13466529790003L201.3811875,142.60714374826415L201.4824375,141.98029605654517L201.8874375,140.9315789864916L202.0899375,140.16491712290792L202.39368750000003,147.34190049862116L202.49493750000002,146.2667024161135L202.5961875,147.24574071719536L202.6974375,145.76905186904045L202.8999375,144.89759993512973L203.00118750000001,142.93611134663945L203.3049375,145.76946447040075L203.8111875,144.01114861416082L203.91243749999998,144.01589006730273L204.11493750000002,143.67165327796354L204.4186875,146.13548122681587L205.12743749999998,148.0129720777516L205.2286875,146.4840916639712L205.3299375,145.3918581155626L205.63368749999998,145.28905546750752L206.0386875,150.99538513075984L206.1399375,147.7291794541578L206.2411875,146.95641793746356L206.5449375,143.3338499582128L206.6461875,144.55503433444002L206.84868749999998,141.80061566927768L207.0511875,138.51845494170232L207.25368749999998,140.13872147754378L207.6586875,139.27009712749052L207.8611875,139.11463082885737L207.9624375,144.76093585325876L208.06368750000001,146.70839233617147L208.4686875,144.36303600124612L208.6711875,145.81033465337015L209.0761875,142.93611225130908L209.27868750000002,144.8988584318325L209.4811875,142.47352822851528L209.5824375,145.85326692401208L209.9874375,142.75400101108653L210.29118749999998,143.07299758770048L210.3924375,146.29879524178097L210.5949375,141.25199958006613L210.6961875,141.90254140885713L210.89868750000002,142.96087984040605L210.99993750000002,143.36874795632693L211.1011875,141.95571571594755L211.3036875,139.08065335356957L211.4049375,139.9662235999332L211.5061875,144.2401626521881L212.1136875,144.73104349064047L212.2149375,141.52163300089367L212.31618749999998,140.52854067388571L212.4174375,144.50895196380256L212.5186875,147.49947136749051L212.8224375,146.42807346647515L213.0249375,142.9573153618904L213.7336875,146.1381188371141L214.1386875,149.8657388928548L214.2399375,146.8974715775062L214.34118750000002,144.5140369359141L214.4424375,143.25365098457448L214.8474375,139.28921160781925L214.9486875,141.11487715453634L215.0499375,137.62379268612895L215.1511875,141.73137575669946L215.25243749999998,145.33816242784576L215.4549375,142.90747941674977L215.7586875,142.56702966576134L216.06243750000002,147.19043821743318L216.1636875,147.97599407822602L216.3661875,144.61372854386198L216.5686875,141.51190900449612L216.7711875,141.65879830307557L217.27743750000002,143.33200706195908L217.68243750000002,145.1155390967056L217.9861875,140.01096246813484L218.3911875,142.03850838844824L218.5936875,143.67864042900908L218.69493749999998,142.60147508611027L218.7961875,142.41007876771533L219.0999375,143.93308502263534L219.40368750000002,141.78124459083898L219.6061875,144.51843886869764L220.2136875,146.44557789940205L220.31493749999998,143.2347593703582L220.41618749999998,142.76487698547328L220.71993750000001,144.8575559122897L221.0236875,146.1420679845534L221.3274375,143.8105623220278L221.4286875,144.089818121684L221.7324375,143.619254685457L221.8336875,145.30718717794545L221.9349375,147.1732535629725L222.03618749999998,144.89945064401164L222.33993750000002,144.73305826037446L222.5424375,145.48296146779845L222.8461875,147.09717570060246L222.9474375,147.40668186931066L223.1499375,145.80256025029172L223.4536875,147.90644183178514L223.85868749999997,145.87477488370598L223.95993750000002,146.26784388453876L224.06118750000002,144.04401561556924L224.1624375,142.11981065038046L224.2636875,143.0455246227773L224.46618750000002,144.110741797554L224.5674375,146.08315810966542L224.6686875,145.83397819245687L224.7699375,145.45968209293383L225.37743749999998,147.83466974051933L225.57993750000003,150.1902844696371L225.78243750000001,148.56812826330233L225.8836875,147.28008986831568L225.9849375,148.65273105296012L226.0861875,150.5858147016715L226.18743750000002,150.66627102722035L226.3899375,148.6707007584729L226.5924375,146.4303294875875L226.69368749999998,140.55946968746116L226.9974375,139.99895691922464L227.09868749999998,141.26928164989445L227.19993749999998,140.54964148062882L227.40243750000002,143.00586966907034L228.1111875,145.2069040074053L229.5286875,139.38117406770206L229.6299375,141.64142493012318L230.03493749999998,144.13565322321318L230.1361875,145.1350473675827L230.2374375,146.05755907577475L230.43993749999998,144.81024062404353L230.54118749999998,146.48715428373805L230.74368750000002,146.90563108043827L231.0474375,142.75728994320008L231.1486875,143.04663124309084L231.3511875,145.01985879714948L231.4524375,140.92319041078684L231.5536875,145.0328876192494L231.9586875,138.33898917924108L232.0599375,140.01844763809885L232.2624375,142.31023389530844L232.3636875,141.55114870726666L232.6674375,141.02743191794315L232.7686875,141.3635661638325L232.8699375,139.85137920597467L233.3761875,145.33619414778119L233.47743749999998,147.7672187984679L233.5786875,146.68956606988274L233.6799375,144.50570257546997L234.6924375,144.50337387746072L234.7936875,140.1217715837091L234.9961875,141.95958876396398L235.4011875,141.854967362395L235.80618750000002,141.55371947688525L235.90743750000001,145.22693368357022L236.4136875,144.96419904566764L236.6161875,144.2656773841597L236.7174375,145.4113413244218L236.9199375,144.41194353996102L237.0211875,141.85398162900435L237.1224375,141.3756203979196L237.52743750000002,143.9381576019491L237.6286875,144.28475357123006L237.7299375,143.12610348678302L237.8311875,142.15104713807506L238.0336875,141.4208755022486L238.1349375,141.4114574308912L238.3374375,145.9416596561106L238.4386875,144.08167860127082L238.53993749999998,146.0029967936869L238.6411875,145.9837060399649L238.9449375,150.81490824388248L239.0461875,146.7872798071312L239.4511875,144.81518455501438L239.5524375,141.52181044512616L239.9574375,142.04902255114092L240.0586875,143.47272468155327L240.26118749999998,146.00010913538358L240.3624375,141.42566505627286L240.46368750000002,144.79336727195852L240.6661875,144.5209436368974L240.7674375,143.4986285657902L241.1724375,148.1427867824566L241.4761875,147.19855006623655L241.5774375,147.35343730502362L241.6786875,152.54355188242414L241.98243749999997,149.8595582248677L242.3874375,146.475201598917L242.9949375,147.49560009963187L243.09618749999998,147.31893667892737L243.5011875,145.54118680943722L243.60243749999998,143.82993991368812L244.0074375,145.82312857624174L244.1086875,146.14630408793457L244.2099375,148.1110798421091L244.31118750000002,146.41623649016535L245.0199375,145.09851183701863L245.42493750000003,143.2477404885052L245.6274375,143.55255845859995L245.7286875,146.2008370221179L246.4374375,145.59610758188492L246.6399375,141.40403154271718L246.8424375,138.31587282882853L247.04493749999997,141.30061287919713L247.5511875,145.20511633102117L248.0574375,142.74100325471574L248.2599375,147.92263308743486L248.3611875,148.29148656276772L248.4624375,150.163921655106L248.76618749999997,145.75576932085798L249.0699375,149.53209262005436L249.2724375,147.16603067464797L249.37368750000002,144.159466212673L249.5761875,145.5989771042365L249.6774375,141.12759371722328L249.7786875,144.50359919145458L250.28493749999998,141.99109873657278" style="fill: none;" fill="none"></path></g></g></g></g><g opacity="0.2"><g><g><g><path stroke="rgb(0, 119, 187)" stroke-width="2px" d="M25.7124375,29.98366928100586L25.8136875,23.58418997128803L26.421187500000002,6.452782710393262L26.8261875,30.932702382405584L26.9274375,-2.01865061124165L27.2311875,22.782786846160874L27.3324375,32.61376635233562L27.4336875,6.443076690038037L27.636187500000002,35.981638193130486L27.7374375,23.086650927861516L28.041187500000003,50.45830821990967L28.1424375,35.0751568476359L28.7499375,42.76860809326172L29.0536875,47.18215123812357L29.1549375,31.647243658701573L29.2561875,42.75580739974975L29.4586875,52.70468926429748L30.167437500000002,60.21111206213633L30.2686875,45.51761563618977L30.369937500000002,54.49311729272207L30.5724375,42.4573707183202L30.8761875,40.94120359420776L31.1799375,63.827952702840165L31.4836875,35.79239424069721L31.584937500000002,59.26982736587525L31.6861875,61.45697589715322L31.787437500000003,61.942253470420845L31.9899375,66.53152481714883L32.091187500000004,73.89300203323364L32.1924375,63.80332426230113L32.293687500000004,66.04244923591614L32.496187500000005,63.13574230670929L32.5974375,52.406510472297654L33.2049375,59.745609919230134L33.4074375,67.5073432524999L33.5086875,65.08726195494334L33.7111875,64.67385347684224L34.0149375,66.2890501419703L34.4199375,58.67764290173848L34.521187499999996,66.35447200139363L35.4324375,72.45647585391998L35.5336875,80.87765590349832L35.8374375,77.51817719141643L36.1411875,72.0919843117396L36.2424375,68.12630132834117L36.4449375,67.58080657323201L37.1536875,76.42361239592233L37.659937500000005,66.67036310831705L38.0649375,67.37267808119455L38.1661875,69.6595712105433L38.3686875,72.15037282307944L38.5711875,87.33586366971332L38.6724375,75.83738283316293L38.7736875,74.74678015708923L39.1786875,59.177573283513375L39.279937499999996,67.88504576683044L39.9886875,81.39008220036823L40.191187500000005,65.08424933751424L40.2924375,81.21376788616179L40.596187500000006,86.99001049995421L41.3049375,73.90390372276306L41.5074375,81.63553432623544L41.6086875,73.58375744024912L41.811187499999996,74.21570376555124L42.0136875,92.8858903646469L42.6211875,87.691282192866L42.722437500000005,88.69565602143604L42.8236875,79.3496727546056L43.1274375,80.29578701655069L43.2286875,88.45080173015594L43.3299375,81.82908034324646L43.4311875,89.03516745567322L43.6336875,88.24892119566599L43.7349375,98.51614411671957L44.0386875,88.09657887617746L44.1399375,72.44198715686798L44.241187499999995,83.33190755049387L44.646187499999996,79.09430360794067L44.747437500000004,83.54245082537332L44.848687500000004,91.09192943572998L45.152437500000005,89.72116506099701L45.557437500000006,80.49794888496398L45.6586875,78.41751968860626L45.8611875,87.1603816350301L45.96243749999999,81.40166378021239L46.0636875,77.99980914592743L46.1649375,80.55720484256743L46.367437499999994,108.54633148511249L46.5699375,96.3479739030202L46.772437499999995,102.51092171669006L46.9749375,85.23194309075673L47.177437499999996,88.13863829771675L47.278687500000004,71.47486662864685L47.5824375,80.80184813340504L47.683687500000005,96.1493521531423L47.7849375,114.42093547185263L47.8861875,95.28557495276132L48.0886875,82.55065496762593L48.1899375,103.74911920229593L48.5949375,89.76289625962573L49.202437499999995,83.34441518783568L49.4049375,82.2685825427373L49.5061875,89.39676360289255L49.607437499999996,83.59781499703725L49.809937500000004,95.90060607592262L49.9111875,86.85460682710011L50.113687500000005,90.32459115982056L50.214937500000005,101.66570083300272L50.3161875,89.99962703386942L50.4174375,88.6463053623835L50.92368750000001,79.57081294059752L51.0249375,88.32995708783467L51.1261875,102.25902235507965L51.5311875,87.93482359250386L51.6324375,87.39767507712045L51.733687499999995,86.54737846056618L51.9361875,98.64265060424805L52.7461875,93.30280379454294L52.8474375,100.72218890984853L53.1511875,100.16119734446207L53.3536875,92.76244338353473L53.5561875,99.5833022991816L53.7586875,100.88399108250937L53.9611875,107.3740481932958L54.0624375,93.42469171682993L54.2649375,98.82901088396707L54.4674375,89.5121339559555L54.568687499999996,93.3675105969111L54.7711875,88.09955632686614L55.2774375,93.67510235309601L55.3786875,108.84792145093282L55.479937500000005,93.27897246678668L55.5811875,93.19798346360523L56.3911875,85.61160322030385L56.5936875,88.87036438783008L56.694937499999995,111.14787316322325L56.998687499999996,103.27623204390206L57.4036875,94.57728163401285L57.606187500000004,91.41547516981758L57.7074375,107.29209796587624L58.011187500000005,106.14000038305917L58.2136875,92.17813626925148L58.7199375,99.61766020456949L58.8211875,89.41543714205423L58.9224375,88.65724221865335L59.0236875,94.89972547690071L59.529937499999996,108.18909601370493L59.6311875,91.38151582082112L59.8336875,102.1247557401657L60.137437500000004,95.600364168485L60.2386875,99.52058827877043L60.3399375,92.25516315301259L60.4411875,106.45713404814401L60.8461875,101.19085605939227L61.0486875,89.53698511918384L61.1499375,100.89395499229431L61.2511875,109.9963968594869L61.656187499999994,75.22727505366007L62.061187499999996,104.15382977326709L62.1624375,92.91477398077646L62.2636875,93.60970393816629L62.364937499999996,94.83496006329854L62.4661875,98.52887447675067L62.567437500000004,106.76287368933359L63.2761875,96.93386352062225L63.5799375,107.85035824775694L63.6811875,94.95149091879526L64.4911875,102.88346644242604L64.8961875,90.16079620520273L64.9974375,104.93477757771811L65.0986875,99.81138205528259L65.19993749999999,112.98421001434325L65.3011875,98.5098023811976L65.60493749999999,111.11948188145954L66.00993749999999,111.50737102826436L66.1111875,92.12329959869385L66.3136875,106.59040427207947L66.7186875,108.03163107236227L66.8199375,116.28908650080362L67.1236875,105.18650110562643L67.2249375,105.3966575463613L67.3261875,125.92208898067474L67.4274375,100.37705079714456L67.7311875,107.44354939460753L68.0349375,105.88470156987509L68.1361875,108.5931970278422L68.4399375,108.45095928510028L68.5411875,80.77290590604144L68.94618750000001,114.76343607902527L69.0474375,110.67405994733173L69.4524375,107.3692303498586L69.5536875,92.46433492501575L69.6549375,107.18098278840384L69.8574375,107.4593861500422L69.9586875,102.42041424910225L70.05993749999999,105.37467833360034L70.2624375,102.16273581981658L70.3636875,95.00513192017873L70.4649375,112.16376996040344L70.5661875,113.88651823997498L70.9711875,91.70039610068002L71.0724375,109.3084181944529L71.1736875,113.46564269065857L71.27493750000001,114.98755371570586L71.3761875,100.4522021214167L71.5786875,108.14030802249908L71.78118749999999,120.14633870124817L71.9836875,110.17871296405792L72.08493750000001,88.60898172855377L72.4899375,109.1900703907013L72.59118749999999,113.55149642626444L72.7936875,125.09909347693124L72.9961875,114.56851855913797L73.40118749999999,94.21833471457163L73.50243750000001,106.80558955669402L73.80618750000001,116.22723992665608L73.9074375,106.32610277334848L74.0086875,107.72003030776978L74.1099375,98.02724436918894L74.2111875,108.01631009578703L74.31243749999999,93.46559063593546L74.41368750000001,108.4248538414637L74.6161875,105.64630623658498L74.7174375,102.14552756150562L74.8186875,123.7266059319178L74.9199375,118.74250586827594L75.12243749999999,104.63526244958243L75.4261875,111.57884156703948L75.8311875,107.97750945885977L76.1349375,119.582733074824L76.2361875,103.53391047318775L76.33743750000001,118.95548737049103L76.6411875,113.7539630730947L76.94493750000001,108.73837705453238L77.0461875,104.40633869171143L77.1474375,113.52582470575967L77.2486875,113.6107758283615L77.3499375,103.42763658364613L77.4511875,94.05965065956116L77.75493750000001,119.31388334433237L77.8561875,111.88056047757465L77.9574375,117.95341110229492L78.0586875,108.25277125835419L78.3624375,118.32302526632944L79.0711875,119.66448402404784L79.3749375,107.24094208081563L79.47618750000001,126.69526493549347L79.6786875,106.4816218217214L79.7799375,113.48133877913156L79.8811875,118.63903359572092L79.98243749999999,104.00135850906372L80.0836875,103.74873236815134L80.28618750000001,105.74568744500478L80.3874375,113.28512008984885L80.4886875,123.10175156593323L80.6911875,113.97789315382639L80.79243749999999,117.77297055721282L81.0961875,124.48990003267922L81.2986875,121.29256343841551L81.6024375,105.92040753364563L81.7036875,112.54319564501444L82.3111875,114.08660527070364L82.4124375,108.4234354496002L82.51368749999999,115.36870257059732L82.9186875,110.17235950628914L83.2224375,119.63707741101584L83.42493750000001,129.05046359697977L83.7286875,123.14697599411011L84.1336875,135.3179738521576L84.53868750000001,116.98938524723053L84.6399375,98.35472877820334L84.7411875,134.4439162413279L84.9436875,119.20048232873279L85.14618750000001,112.9261614481608L85.2474375,126.25787274042763L85.3486875,118.38966623942055L85.5511875,111.88338553905487L85.7536875,124.39916984240212L85.85493749999999,103.05159862836203L85.95618750000001,120.25609409809113L86.0574375,115.0155933300654L86.2599375,103.600785891215L86.3611875,138.9579483469327L86.4624375,125.12682831287384L86.6649375,137.0839420557022L86.9686875,129.01901280879974L87.1711875,118.20411479473114L87.4749375,123.5635846455892L87.57618749999999,119.71029456456503L87.7786875,134.0926239490509L87.9811875,120.56477602322896L88.18368749999999,130.61528976758322L88.38618749999999,139.9595733086268L88.48743750000001,125.28442219893135L88.7911875,132.67323569456735L88.9936875,143.0836458603541L89.0949375,133.1193257967631L89.4999375,139.28807026147842L89.9049375,133.6240622997284L90.20868750000001,129.25257857640585L90.3099375,132.42971773942313L90.4111875,122.92517936229704L90.5124375,128.6701470216115L90.6136875,131.6531306107839L90.71493749999999,129.50480616092682L91.1199375,138.50287900368372L91.3224375,123.60593712329865L91.4236875,131.09722650051117L91.5249375,135.40887987613678L91.6261875,135.83914494514465L91.7274375,125.07773554325104L92.0311875,132.7746682961782L92.2336875,127.29966398080191L92.9424375,117.49059335390724L93.24618749999999,135.02773102124533L93.7524375,129.60591053962708L93.85368749999999,129.82601916790009L93.9549375,132.33684237798056L94.25868750000001,132.97394649187723L94.46118750000001,136.05714356899261L94.5624375,136.3934665520986L94.6636875,134.0978403488795L94.96743749999999,136.1278873284658L95.4736875,130.20531590779623L95.6761875,137.62003556887308L95.87868750000001,133.0694593588511L95.9799375,124.7238057454427L96.1824375,141.15790343284607L96.4861875,137.01442913214365L96.5874375,134.41104706128436L96.78993750000001,130.1467515627543L97.1949375,141.33393641312918L97.2961875,139.1974690159162L97.49868749999999,138.38543967405954L97.8024375,136.42858640352884L98.0049375,128.876282731692L98.30868749999999,134.88339499632517L98.40993750000001,140.45933957894644L98.6124375,131.15628317991892L98.8149375,127.15314761797585L98.91618749999999,145.59464490413666L99.0174375,145.5822779337565L99.1186875,149.619314233462L99.21993749999999,137.9073361158371L99.4224375,142.52132381995517L99.52368750000001,142.34336253007254L99.6249375,141.65527250369388L100.13118750000001,141.79644352197647L100.5361875,133.14796324570975L100.63743749999999,138.11728741725287L100.7386875,147.69650822877884L101.85243750000001,135.41363910833994L101.9536875,128.52883533636728L102.1561875,121.33192674318948L102.66243750000001,137.17794275283813L102.7636875,138.61706540981928L102.8649375,151.19682973623276L103.16868749999999,136.31001587708792L103.2699375,133.369021375974L103.5736875,147.8877332409223L103.8774375,143.92744249105453L103.97868749999999,145.2350122332573L104.18118750000001,146.27942339579263L104.2824375,148.16768980026245L104.38368750000001,136.64802686373392L104.4849375,139.36481581131616L104.5861875,139.68489176034927L105.19368750000001,144.88842642307281L105.4974375,143.2929055492083L105.69993749999999,141.9982771674792L105.9024375,141.04815389712653L106.30743749999999,138.19912042220435L106.4086875,140.18274730443954L106.8136875,142.5837506453196L106.91493750000001,144.54179372390112L107.0161875,138.31254488229752L107.1174375,121.01120607058206L107.42118749999999,144.8451420267423L108.23118749999999,147.65009985367456L108.33243750000001,145.5778176188469L108.5349375,138.48819102843603L108.7374375,140.2544815937678L109.04118749999999,144.97960205872855L109.14243750000001,136.27232885360718L109.24368750000001,138.24241654078165L109.6486875,143.27039883534113L109.7499375,138.43113885323206L109.95243749999999,142.7870612939199L110.05368750000001,136.84899306297302L110.1549375,130.80522533257803L110.3574375,134.0389008919398L110.4586875,143.74927606185278L110.76243749999999,149.00536741813022L110.9649375,145.3575155735016L111.4711875,143.5294370452563L111.57243749999999,144.27750980854034L111.8761875,143.08179960648218L112.1799375,142.17237011591592L112.4836875,132.97618544101715L112.6861875,140.64159707228342L112.9899375,144.10343444347382L113.09118749999999,139.44651987155277L113.4961875,147.3087304433187L113.5974375,142.78492784500122L114.6099375,146.20239651203156L114.8124375,137.56024038791656L114.9136875,127.27670009930928L115.0149375,140.69506223996478L115.11618750000001,148.029168009758L115.3186875,141.15927493572235L115.5211875,141.91634452342987L115.7236875,140.3293398618698L116.0274375,136.42026360829672L116.2299375,142.09536667664844L116.3311875,152.09244455893835L116.6349375,154.4260039528211L116.7361875,132.05821629365286L116.9386875,145.5045946041743L117.2424375,138.15678552786508L117.34368749999999,142.8047794699669L117.5461875,138.22574750582376L117.64743750000001,141.79377671082815L117.9511875,132.64926369984946L118.3561875,127.90796653429666L118.4574375,125.26791727542876L118.6599375,148.65854130188623L118.8624375,145.7556909918785L119.2674375,147.54163390398026L119.36868750000001,140.94586557149887L119.5711875,149.01211943229038L119.6724375,138.7283388376236L119.7736875,131.62165637811026L119.87493749999999,140.7829673687617L120.0774375,153.92571604251862L120.4824375,136.64067701498666L120.68493749999999,147.786540945371L120.78618750000001,133.45693822701773L121.0899375,132.3113464911779L121.49493749999999,142.64317657550174L121.7986875,154.1310898065567L122.1024375,139.0329355597496L122.2036875,135.16286508242288L122.6086875,141.84987938404083L122.8111875,153.34585752089816L122.9124375,148.26912826299667L123.1149375,152.11136426528296L123.31743750000001,137.55391037464142L123.4186875,143.5399225950241L123.7224375,142.79364919662476L124.2286875,143.15632965167362L124.43118750000001,138.29215989510217L124.5324375,141.65531939268112L124.7349375,149.35852354764938L124.8361875,141.52119344472885L125.2411875,133.50355760256448L125.6461875,138.21458792686462L125.84868750000001,144.19406499465308L126.0511875,141.14284620682398L126.1524375,142.84512744347253L126.2536875,146.98440517981845L126.4561875,140.19760525226593L126.5574375,144.99410833915076L126.8611875,136.69842080275217L126.9624375,132.7990388472875L127.0636875,144.74465306599936L127.1649375,138.3732778429985L127.2661875,138.4730634689331L127.7724375,146.50521145264307L127.9749375,142.20676318804422L128.1774375,151.867647031943L128.2786875,146.09272903203964L128.37993749999998,147.49143924315769L128.8861875,155.09991592168808L129.2911875,150.8526880145073L129.4936875,138.4891522526741L129.59493750000001,139.25970828533173L130.2024375,133.87407437960306L130.3036875,130.65896685918173L130.40493750000002,147.3381415605545L130.5061875,127.97858134905495L130.6074375,147.35898371537525L131.0124375,140.82770532369614L131.21493750000002,142.11609160900116L131.3161875,140.536911547184L131.9236875,141.18155892690024L132.0249375,139.0164247751236L132.3286875,134.56213510036469L132.5311875,146.06474216779074L132.6324375,151.9362338980039L132.7336875,137.77369078000388L132.93618750000002,137.7021674911181L133.2399375,144.73066256443659L133.3411875,140.59899256626764L133.44243749999998,146.20139425992966L133.6449375,140.19810344775516L133.7461875,156.18649200598398L133.8474375,142.76266729831696L133.9486875,131.4545557498932L134.0499375,144.05057297150293L134.1511875,144.2717659076055L134.4549375,131.81868390242258L134.5561875,147.41303499539694L134.7586875,139.42129359642664L134.8599375,134.40978105862933L134.9611875,147.8584100405375L135.2649375,137.9665158788363L135.3661875,148.2132600347201L135.46743750000002,149.06882580121356L135.8724375,136.64181407292685L136.5811875,125.06563818454742L136.78368749999998,144.05486331383386L136.9861875,134.9928456147512L137.0874375,129.57142368952432L137.18868750000001,144.76007368167242L137.4924375,146.44971833626428L137.5936875,132.66001300017038L137.69493749999998,145.99842355648676L137.8974375,139.9527626832326L137.9986875,152.6699586311976L138.2011875,150.42993104457855L138.7074375,139.3582396308581L138.9099375,142.15818033615747L139.0111875,129.79096964995065L139.31493749999998,138.44217534859976L139.41618749999998,142.41727715730667L139.61868750000002,135.59174692630768L139.71993750000001,140.42657589912415L139.8211875,148.18173305193582L139.9224375,140.7411189476649L140.0236875,137.08083566029865L140.2261875,145.0266434351603L140.3274375,141.1987964908282L140.4286875,151.88572273651758L140.7324375,143.17631608247757L141.03618749999998,142.75197660923004L141.33993750000002,148.43156343698502L141.4411875,150.5728779832522L141.6436875,150.14852092663446L141.7449375,148.969462176164L141.8461875,147.14065686861673L141.9474375,146.7158953944842L142.0486875,132.81386748949686L142.1499375,141.01185009876886L142.8586875,144.28834116458893L143.06118750000002,138.03438768784204L143.2636875,127.4092787106832L143.4661875,150.53737129767737L143.5674375,141.53705364465714L144.1749375,141.66392938296L144.2761875,137.8091798822085L144.4786875,140.21028872330982L144.5799375,138.72526760896045L144.68118750000002,146.1250120997429L145.0861875,159.80817393461862L145.2886875,137.73742214838663L145.4911875,129.50399732589722L145.69368749999998,136.9711154301961L145.7949375,133.6918989419937L145.8961875,141.79935063918433L146.1999375,149.1167815128962L146.3011875,147.33323580026627L146.40243750000002,128.87536839644113L146.6049375,143.27474192778269L146.7061875,141.42003631591797L147.0099375,135.16333397229513L147.1111875,153.80753821134567L147.41493749999998,132.7397125562032L147.5161875,147.26573910315832L147.6174375,149.51779371500015L147.8199375,137.54445052146912L148.2249375,137.59983813762665L148.3261875,141.97442825635275L148.4274375,156.98348756631216L148.7311875,143.34585493803024L149.2374375,146.29883543650308L149.4399375,143.15835173924765L149.7436875,138.51178791125614L149.84493750000001,147.12344274918237L150.1486875,142.13398561875024L150.2499375,146.94164242347082L150.75618749999998,133.25335796674094L150.95868750000002,128.54386325677234L151.05993750000002,143.46641238530478L151.1611875,148.76386568943659L151.2624375,127.29233757654825L151.3636875,157.77388936281204L151.46493750000002,138.62358884016672L151.5661875,132.3403942187627L151.8699375,150.1561814149221L151.97118749999998,151.56916346152624L152.0724375,139.06077003479004L152.1736875,143.7298522988955L152.3761875,141.75335254271826L152.57868750000003,143.33902672926584L152.67993750000002,143.56197214126587L152.9836875,150.99750465154648L153.0849375,130.07961825529733L153.3886875,146.57998180389404L153.69243749999998,145.67644860347113L154.09743749999998,138.42747565110525L154.6036875,139.11934024095535L154.7049375,139.79848033189774L154.8061875,143.6916143298149L155.2111875,147.96636021137238L155.5149375,141.56747287511826L156.02118750000002,148.69439379374185L156.3249375,134.79690825939178L156.6286875,138.71717925866446L156.8311875,144.81203840176263L156.9324375,151.58449616034827L157.2361875,138.14369763930637L157.64118749999997,133.87807166576385L158.0461875,139.19816648960114L158.5524375,136.57771682739258L159.0586875,138.9771845539411L159.26118749999998,146.45447756846744L159.3624375,133.25584308306375L159.5649375,131.1010948419571L159.6661875,141.02734690904617L159.8686875,143.99008617798486L160.5774375,139.00781478484473L161.4886875,134.8594933350881L161.5899375,136.38590570290881L161.7924375,139.2361524303754L161.8936875,151.809721549352L162.1974375,138.33201553424198L162.2986875,145.90370780229568L162.5011875,148.04700926939645L162.90618750000002,155.13726886113486L163.1086875,160.2438839872678L163.5136875,152.14339530467987L163.6149375,132.5823765595754L163.7161875,134.77795338630676L163.81743749999998,149.16887517770132L163.9186875,132.68875594933826L164.3236875,144.39655508597693L164.4249375,144.68658105532327L164.6274375,136.12066642443338L164.7286875,143.67142862081528L165.1336875,145.25983409086862L165.6399375,146.07115423679352L165.7411875,138.85704910755157L166.1461875,141.57673345009485L166.4499375,142.63003007570902L166.8549375,138.2646536429723L167.4624375,149.1956429282824L168.7786875,143.7666367093722L168.87993749999998,146.7897221048673L169.2849375,145.27302161852518L170.2974375,141.95998058716455L170.3986875,147.32207622130713L170.8036875,142.76342338323593L171.0061875,140.8948679367701L171.1074375,132.3747521241506L171.2086875,156.65246303876242L171.30993750000002,137.47608637809753L171.6136875,147.20083302259445L171.81618749999998,144.99540950854617L171.9174375,136.55553833643594L172.1199375,140.17688618103662L172.32243749999998,155.06208823124567L172.4236875,141.27506728967032L172.62618750000001,150.8705878853798L172.7274375,152.6910703976949L172.8286875,137.20878398418427L172.9299375,138.91316350301105L173.03118750000002,135.63249345620474L173.1324375,143.40156491597492L173.2336875,134.07501713434854L173.3349375,144.1277170777321L173.5374375,148.53543426593146L174.24618750000002,137.3002292315165L174.5499375,138.59202082951862L174.65118750000002,149.22049995263419L174.8536875,147.61143988370895L175.3599375,132.89456343650818L175.4611875,162.04836563269296L175.5624375,154.37075114250183L175.96743750000002,139.94361346960068L176.1699375,142.57150675853094L176.2711875,137.23735109965006L176.5749375,145.09322579701742L176.6761875,142.9012008110682L177.0811875,138.5772683819135L177.1824375,139.17309260368347L177.28368749999998,140.6699121594429L177.48618750000003,140.7739119331042L178.1949375,146.8599383632342L178.2961875,150.02980973323187L178.3974375,146.78336278597513L178.59993749999998,152.65651321411133L178.8024375,148.03610757986704L178.9036875,146.23432791233063L179.6124375,148.09185272455215L179.9161875,131.8873293797175L180.1186875,139.06562304496765L180.72618749999998,137.30215167999268L181.02993750000002,139.2956662774086L181.1311875,134.4012589852015L181.4349375,137.03408734003702L182.1436875,149.96990319093067L182.44743749999998,139.40718001127243L182.5486875,152.280516286691L182.64993750000002,139.08133671681085L183.0549375,144.18414211273193L183.5611875,134.52529207865396L183.7636875,137.5653278430303L183.8649375,147.76372945308685L183.9661875,138.82219300667444L184.16868749999998,141.79080512126288L184.37118750000002,149.83516182502112L184.4724375,158.77195662260056L184.5736875,131.70195376873016L184.6749375,139.53378613789877L184.9786875,142.95263216892877L185.1811875,135.65042849381766L185.38368749999998,148.75751223166785L185.4849375,137.8051884571711L185.5861875,151.5417275428772L185.8899375,141.79253415266672L186.3961875,145.29995934168497L186.9024375,145.6269572774569L187.00368749999998,148.49961107969284L187.1049375,145.76379692554474L187.5099375,142.35030210018158L187.6111875,148.3379964629809L187.71243750000002,145.3649416168531L188.4211875,153.605399787426L188.5224375,134.88053476810455L188.72493749999998,148.1354243159294L188.8261875,135.5956269900004L189.0286875,144.69115273157755L189.6361875,142.86162650585175L189.8386875,141.9910093744596L190.0411875,146.4851664106051L190.1424375,147.16880198319754L190.5474375,139.94764592250186L190.9524375,141.0233906507492L191.0536875,148.304001947244L191.15493750000002,129.35661351680756L191.4586875,152.70227686564127L191.5599375,140.8175714413325L192.06618749999998,144.25761129458746L192.16743749999998,136.19224246342978L192.3699375,137.2881435950597L192.5724375,133.69260227680206L192.6736875,139.80577743053436L192.77493750000002,144.2554895679156L192.87618750000001,141.9510013461113L193.0786875,149.6685535311699L193.2811875,143.6045180360476L193.6861875,141.26511510213217L193.8886875,141.42097409566244L194.09118750000002,143.4642554918925L194.3949375,156.8409684896469L194.49618750000002,148.13070025046667L194.9011875,140.2014267047246L195.2049375,147.16815139849982L195.4074375,153.38968700170517L195.50868749999998,141.59017300605774L195.71118750000002,140.28116728862128L196.0149375,140.89351401726404L196.1161875,155.07735059658685L196.21743750000002,141.18663465976715L196.3186875,152.6828355193138L196.8249375,139.6282322804133L196.9261875,149.72339606285095L197.0274375,137.4116374651591L197.22993749999998,147.52273178100586L197.43243750000002,139.67757707834244L197.5336875,124.02836000919342L197.7361875,128.8942177693049L197.93868750000001,148.93272465467453L198.2424375,137.68776671091715L198.4449375,144.57769310474396L198.5461875,151.86928814649582L198.6474375,153.1700589855512L198.7486875,137.48117383321127L199.3561875,147.4256657163302L199.4574375,138.7867097655932L199.7611875,147.25965525706607L199.8624375,149.72042447328568L199.9636875,138.70662923653921L200.06493749999998,151.3289101521174L200.57118749999998,137.92709982395172L201.3811875,141.81586142381033L201.4824375,141.04002451896667L201.8874375,139.35850338141123L202.0899375,139.01492432753244L202.39368750000003,158.107375562191L202.49493750000002,144.65390529235202L202.5961875,148.71429816881815L202.6974375,143.5540185968081L202.8999375,143.5904220342636L203.00118750000001,139.99387846390405L203.3049375,150.01949415604273L203.8111875,141.37367482980093L203.91243749999998,144.02300224701563L204.11493750000002,143.1552980939547L204.4186875,149.83122315009433L205.12743749999998,150.8292083541552L205.2286875,144.19077104330063L205.3299375,143.75350779294968L205.63368749999998,145.1348514954249L206.0386875,159.55487962563834L206.1399375,142.82987093925476L206.2411875,145.79727566242218L206.5449375,137.89999798933664L206.6461875,146.38681089878082L206.84868749999998,137.6689876715342L207.0511875,133.59521385033923L207.25368749999998,142.56912128130594L207.6586875,137.96716060241064L207.8611875,138.88143138090769L207.9624375,153.23039338986078L208.06368750000001,149.62957706054053L208.4686875,140.84500149885812L208.6711875,147.98128263155618L209.0761875,138.6247786482175L209.27868750000002,147.84297770261765L209.4811875,138.8355329235395L209.5824375,150.92287496725717L209.9874375,138.1051021416982L210.29118749999998,143.55149245262146L210.3924375,151.13749172290167L210.5949375,133.6818060874939L210.6961875,142.87835415204367L210.89868750000002,144.5483874877294L210.99993750000002,143.98055013020831L211.1011875,139.83616735537848L211.3036875,134.76805981000263L211.4049375,141.2945789694786L211.5061875,150.65107123057047L212.1136875,145.46736474831897L212.2149375,136.7075172662735L212.31618749999998,139.03890218337378L212.4174375,150.47956889867783L212.5186875,151.98525047302246L212.8224375,144.8209766149521L213.0249375,137.75117820501328L213.7336875,150.90932404994965L214.1386875,155.45716897646585L214.2399375,142.44507060448328L214.34118750000002,140.938884973526L214.4424375,141.36307205756506L214.8474375,133.34255254268646L214.9486875,143.8533754746119L215.0499375,132.38716598351797L215.1511875,147.89275036255518L215.25243749999998,150.74834243456522L215.4549375,139.2614549001058L215.7586875,142.05635503927866L216.06243750000002,154.12555104494095L216.1636875,149.15432786941528L216.3661875,139.57033024231592L216.5686875,136.85917969544727L216.7711875,141.87913225094476L217.27743750000002,145.84182020028433L217.68243750000002,147.79083714882532L217.9861875,132.35409752527872L218.3911875,145.07982726891836L218.5936875,146.13883848985037L218.69493749999998,140.98572707176208L218.7961875,142.122984290123L219.0999375,146.21759440501532L219.40368750000002,138.55348394314447L219.6061875,148.6242302854856L220.2136875,149.33628644545874L220.31493749999998,138.4185315767924L220.41618749999998,142.0600534081459L220.71993750000001,147.99657430251438L221.0236875,148.0688360929489L221.3274375,140.31330382823944L221.4286875,144.50870182116827L221.7324375,142.91340953111649L221.8336875,147.8390859166781L221.9349375,149.9723531405131L222.03618749999998,141.4887462655703L222.33993750000002,144.4834696849187L222.5424375,146.60781627893448L222.8461875,149.5184970498085L222.9474375,147.87094112237295L223.1499375,143.39637782176337L223.4536875,151.06226420402527L223.85868749999997,142.82727446158725L223.95993750000002,146.85744738578796L224.06118750000002,140.70827321211496L224.1624375,139.2335032025973L224.2636875,144.43409558137256L224.46618750000002,145.70856755971909L224.5674375,149.04178257783255L224.6686875,145.46020831664404L224.7699375,144.8982379436493L225.37743749999998,151.39715121189752L225.57993750000003,153.72370656331378L225.78243750000001,146.1348939538002L225.8836875,145.34803227583566L225.9849375,150.71169282992682L226.0861875,153.48544017473856L226.18743750000002,150.7869555155436L226.3899375,145.67734535535178L226.5924375,143.0697725812594L226.69368749999998,131.7531799872716L226.9974375,139.15818776686984L227.09868749999998,143.1747687458992L227.19993749999998,139.47018122673035L227.40243750000002,146.69021195173264L228.1111875,148.50845551490784L229.5286875,130.64257915814716L229.6299375,145.03180122375488L230.03493749999998,147.87699566284815L230.1361875,146.63413858413696L230.2374375,147.44132663806278L230.43993749999998,142.93926294644672L230.54118749999998,149.00252477327982L230.74368750000002,147.53334627548853L231.0474375,136.53477823734283L231.1486875,143.48064319292703L231.3511875,147.9797001282374L231.4524375,134.77818783124286L231.5536875,151.19743343194327L231.9586875,128.2981415192286L232.0599375,142.5376353263855L232.2624375,145.74791328112283L232.3636875,140.41252092520395L232.6674375,140.24185673395792L232.7686875,141.86776753266653L232.8699375,137.58309876918793L233.3761875,153.56341656049094L233.47743749999998,151.413755774498L233.5786875,145.073086977005L233.6799375,141.22990733385086L234.6924375,144.49988083044687L234.7936875,133.54936814308167L234.9961875,144.71631453434625L235.4011875,141.69803526004156L235.80618750000002,141.1018476486206L235.90743750000001,150.73675499359766L236.4136875,144.57009708881378L236.6161875,143.21789489189783L236.7174375,147.12983723481494L236.9199375,142.9128468632698L237.0211875,138.01703876256943L237.1224375,140.65807855129242L237.52743750000002,147.78196340799332L237.6286875,144.80464752515158L237.7299375,141.38812836011252L237.8311875,140.68846261501312L238.0336875,140.32561804850897L238.1349375,141.39733032385507L238.3374375,152.7369629939397L238.4386875,141.29170701901117L238.53993749999998,148.884974082311L238.6411875,145.95476990938187L238.9449375,158.0617115497589L239.0461875,140.74583715200424L239.4511875,141.85704167683917L239.5524375,136.5817492802938L239.9574375,142.83984071016312L240.0586875,145.60827787717184L240.26118749999998,149.79118581612903L240.3624375,134.5639989376068L240.46368750000002,149.84492059548697L240.6661875,144.11230818430582L240.7674375,141.96515595912933L241.1724375,155.1090241074562L241.4761875,145.7821949919065L241.5774375,147.5857681632042L241.6786875,160.328723748525L241.98243749999997,145.83356773853302L242.3874375,141.39866665999094L242.9949375,149.0261978507042L243.09618749999998,147.05394154787064L243.5011875,142.87456200520197L243.60243749999998,141.26306957006454L244.0074375,148.81291157007217L244.1086875,146.63106735547385L244.2099375,151.05824347337085L244.31118750000002,143.87397146224976L245.0199375,143.12192485729852L245.42493750000003,140.4715834657351L245.6274375,144.00978541374207L245.7286875,150.17325486739475L246.4374375,144.6890134215355L246.6399375,135.11591748396555L246.8424375,133.6836347579956L247.04493749999997,145.77772295475006L247.5511875,151.06187150875726L248.0574375,139.0448336402575L248.2599375,155.69507783651352L248.3611875,148.844766775767L248.4624375,152.97257429361343L248.76618749999997,139.143540819486L249.0699375,155.19657756884894L249.2724375,143.6169377565384L249.37368750000002,139.64961951971054L249.5761875,147.75824344158173L249.6774375,134.4205186367035L249.7786875,149.5676074028015L250.28493749999998,138.22234805425006" style="fill: none;" fill="none"></path></g></g></g></g></g></g><g transform="translate(51, 177)" clip-path="url(#clip_1)"><clipPath id="clip_1"><rect width="278" height="23"></rect></clipPath><g><g><line x1="0" y1="0" x2="0" y2="5" style="visibility: inherit;" fill="rgb(0, 0, 0)" stroke="rgb(204, 204, 204)" stroke-width="1px"></line><line x1="25.3125" y1="0" x2="25.3125" y2="5" style="visibility: inherit;" fill="rgb(0, 0, 0)" stroke="rgb(204, 204, 204)" stroke-width="1px"></line><line x1="50.625" y1="0" x2="50.625" y2="5" style="visibility: inherit;" fill="rgb(0, 0, 0)" stroke="rgb(204, 204, 204)" stroke-width="1px"></line><line x1="75.9375" y1="0" x2="75.9375" y2="5" style="visibility: inherit;" fill="rgb(0, 0, 0)" stroke="rgb(204, 204, 204)" stroke-width="1px"></line><line x1="101.25" y1="0" x2="101.25" y2="5" style="visibility: inherit;" fill="rgb(0, 0, 0)" stroke="rgb(204, 204, 204)" stroke-width="1px"></line><line x1="126.5625" y1="0" x2="126.5625" y2="5" style="visibility: inherit;" fill="rgb(0, 0, 0)" stroke="rgb(204, 204, 204)" stroke-width="1px"></line><line x1="151.875" y1="0" x2="151.875" y2="5" style="visibility: inherit;" fill="rgb(0, 0, 0)" stroke="rgb(204, 204, 204)" stroke-width="1px"></line><line x1="177.1875" y1="0" x2="177.1875" y2="5" style="visibility: inherit;" fill="rgb(0, 0, 0)" stroke="rgb(204, 204, 204)" stroke-width="1px"></line><line x1="202.5" y1="0" x2="202.5" y2="5" style="visibility: inherit;" fill="rgb(0, 0, 0)" stroke="rgb(204, 204, 204)" stroke-width="1px"></line><line x1="227.8125" y1="0" x2="227.8125" y2="5" style="visibility: inherit;" fill="rgb(0, 0, 0)" stroke="rgb(204, 204, 204)" stroke-width="1px"></line><line x1="253.125" y1="0" x2="253.125" y2="5" style="visibility: inherit;" fill="rgb(0, 0, 0)" stroke="rgb(204, 204, 204)" stroke-width="1px"></line><line x1="278.4375" y1="0" x2="278.4375" y2="5" style="visibility: inherit;" fill="rgb(0, 0, 0)" stroke="rgb(204, 204, 204)" stroke-width="1px"></line></g><g transform="translate(0, 8)"><text x="0" y="0" dx="0em" dy="0.95em" style="text-anchor: middle; visibility: hidden; font-family: Roboto, sans-serif; font-size: 12px; font-weight: 200;" fill="rgb(33, 33, 33)" stroke="none" stroke-width="1px">-5k</text><text x="25.3125" y="0" dx="0em" dy="0.95em" style="text-anchor: middle; visibility: inherit; font-family: Roboto, sans-serif; font-size: 12px; font-weight: 200;" fill="rgb(33, 33, 33)" stroke="none" stroke-width="1px">0</text><text x="50.625" y="0" dx="0em" dy="0.95em" style="text-anchor: middle; visibility: inherit; font-family: Roboto, sans-serif; font-size: 12px; font-weight: 200;" fill="rgb(33, 33, 33)" stroke="none" stroke-width="1px">5k</text><text x="75.9375" y="0" dx="0em" dy="0.95em" style="text-anchor: middle; visibility: inherit; font-family: Roboto, sans-serif; font-size: 12px; font-weight: 200;" fill="rgb(33, 33, 33)" stroke="none" stroke-width="1px">10k</text><text x="101.25" y="0" dx="0em" dy="0.95em" style="text-anchor: middle; visibility: inherit; font-family: Roboto, sans-serif; font-size: 12px; font-weight: 200;" fill="rgb(33, 33, 33)" stroke="none" stroke-width="1px">15k</text><text x="126.5625" y="0" dx="0em" dy="0.95em" style="text-anchor: middle; visibility: inherit; font-family: Roboto, sans-serif; font-size: 12px; font-weight: 200;" fill="rgb(33, 33, 33)" stroke="none" stroke-width="1px">20k</text><text x="151.875" y="0" dx="0em" dy="0.95em" style="text-anchor: middle; visibility: inherit; font-family: Roboto, sans-serif; font-size: 12px; font-weight: 200;" fill="rgb(33, 33, 33)" stroke="none" stroke-width="1px">25k</text><text x="177.1875" y="0" dx="0em" dy="0.95em" style="text-anchor: middle; visibility: inherit; font-family: Roboto, sans-serif; font-size: 12px; font-weight: 200;" fill="rgb(33, 33, 33)" stroke="none" stroke-width="1px">30k</text><text x="202.5" y="0" dx="0em" dy="0.95em" style="text-anchor: middle; visibility: inherit; font-family: Roboto, sans-serif; font-size: 12px; font-weight: 200;" fill="rgb(33, 33, 33)" stroke="none" stroke-width="1px">35k</text><text x="227.8125" y="0" dx="0em" dy="0.95em" style="text-anchor: middle; visibility: inherit; font-family: Roboto, sans-serif; font-size: 12px; font-weight: 200;" fill="rgb(33, 33, 33)" stroke="none" stroke-width="1px">40k</text><text x="253.125" y="0" dx="0em" dy="0.95em" style="text-anchor: middle; visibility: inherit; font-family: Roboto, sans-serif; font-size: 12px; font-weight: 200;" fill="rgb(33, 33, 33)" stroke="none" stroke-width="1px">45k</text><text x="278.4375" y="0" dx="0em" dy="0.95em" style="text-anchor: middle; visibility: hidden; font-family: Roboto, sans-serif; font-size: 12px; font-weight: 200;" fill="rgb(33, 33, 33)" stroke="none" stroke-width="1px">50k</text></g><line x1="0" y1="0" x2="278.4375" y2="0" fill="rgb(0, 0, 0)" stroke="rgb(204, 204, 204)" stroke-width="1px"></line></g></g></g></g></svg>