<svg viewBox="0 0 330 200" xmlns="http://www.w3.org/2000/svg"><g><g><g><g><g><line x1="51.5625" y1="177" x2="46.5625" y2="177" style="visibility: inherit;" fill="rgb(0, 0, 0)" stroke="rgb(204, 204, 204)" stroke-width="1px"></line><line x1="51.5625" y1="157.33333333333331" x2="46.5625" y2="157.33333333333331" style="visibility: inherit;" fill="rgb(0, 0, 0)" stroke="rgb(204, 204, 204)" stroke-width="1px"></line><line x1="51.5625" y1="137.66666666666666" x2="46.5625" y2="137.66666666666666" style="visibility: inherit;" fill="rgb(0, 0, 0)" stroke="rgb(204, 204, 204)" stroke-width="1px"></line><line x1="51.5625" y1="118" x2="46.5625" y2="118" style="visibility: inherit;" fill="rgb(0, 0, 0)" stroke="rgb(204, 204, 204)" stroke-width="1px"></line><line x1="51.5625" y1="98.33333333333334" x2="46.5625" y2="98.33333333333334" style="visibility: inherit;" fill="rgb(0, 0, 0)" stroke="rgb(204, 204, 204)" stroke-width="1px"></line><line x1="51.5625" y1="78.66666666666666" x2="46.5625" y2="78.66666666666666" style="visibility: inherit;" fill="rgb(0, 0, 0)" stroke="rgb(204, 204, 204)" stroke-width="1px"></line><line x1="51.5625" y1="58.999999999999964" x2="46.5625" y2="58.999999999999964" style="visibility: inherit;" fill="rgb(0, 0, 0)" stroke="rgb(204, 204, 204)" stroke-width="1px"></line><line x1="51.5625" y1="39.33333333333333" x2="46.5625" y2="39.33333333333333" style="visibility: inherit;" fill="rgb(0, 0, 0)" stroke="rgb(204, 204, 204)" stroke-width="1px"></line><line x1="51.5625" y1="19.666666666666636" x2="46.5625" y2="19.666666666666636" style="visibility: inherit;" fill="rgb(0, 0, 0)" stroke="rgb(204, 204, 204)" stroke-width="1px"></line><line x1="51.5625" y1="0" x2="46.5625" y2="0" style="visibility: inherit;" fill="rgb(0, 0, 0)" stroke="rgb(204, 204, 204)" stroke-width="1px"></line></g><g transform="translate(41.5625, 0)"><text x="0" y="177" dx="0em" dy="0.3em" style="text-anchor: end; visibility: hidden; font-family: Roboto, sans-serif; font-size: 12px; font-weight: 200;" fill="rgb(33, 33, 33)" stroke="none" stroke-width="1px">0.15</text><text x="0" y="157.33333333333331" dx="0em" dy="0.3em" style="text-anchor: end; visibility: inherit; font-family: Roboto, sans-serif; font-size: 12px; font-weight: 200;" fill="rgb(33, 33, 33)" stroke="none" stroke-width="1px">0.2</text><text x="0" y="137.66666666666666" dx="0em" dy="0.3em" style="text-anchor: end; visibility: hidden; font-family: Roboto, sans-serif; font-size: 12px; font-weight: 200;" fill="rgb(33, 33, 33)" stroke="none" stroke-width="1px">0.25</text><text x="0" y="118" dx="0em" dy="0.3em" style="text-anchor: end; visibility: inherit; font-family: Roboto, sans-serif; font-size: 12px; font-weight: 200;" fill="rgb(33, 33, 33)" stroke="none" stroke-width="1px">0.3</text><text x="0" y="98.33333333333334" dx="0em" dy="0.3em" style="text-anchor: end; visibility: hidden; font-family: Roboto, sans-serif; font-size: 12px; font-weight: 200;" fill="rgb(33, 33, 33)" stroke="none" stroke-width="1px">0.35</text><text x="0" y="78.66666666666666" dx="0em" dy="0.3em" style="text-anchor: end; visibility: inherit; font-family: Roboto, sans-serif; font-size: 12px; font-weight: 200;" fill="rgb(33, 33, 33)" stroke="none" stroke-width="1px">0.4</text><text x="0" y="58.999999999999964" dx="0em" dy="0.3em" style="text-anchor: end; visibility: hidden; font-family: Roboto, sans-serif; font-size: 12px; font-weight: 200;" fill="rgb(33, 33, 33)" stroke="none" stroke-width="1px">0.45</text><text x="0" y="39.33333333333333" dx="0em" dy="0.3em" style="text-anchor: end; visibility: inherit; font-family: Roboto, sans-serif; font-size: 12px; font-weight: 200;" fill="rgb(33, 33, 33)" stroke="none" stroke-width="1px">0.5</text><text x="0" y="19.666666666666636" dx="0em" dy="0.3em" style="text-anchor: end; visibility: hidden; font-family: Roboto, sans-serif; font-size: 12px; font-weight: 200;" fill="rgb(33, 33, 33)" stroke="none" stroke-width="1px">0.55</text><text x="0" y="0" dx="0em" dy="0.3em" style="text-anchor: end; visibility: hidden; font-family: Roboto, sans-serif; font-size: 12px; font-weight: 200;" fill="rgb(33, 33, 33)" stroke="none" stroke-width="1px">0.6</text></g><line x1="51.5625" y1="0" x2="51.5625" y2="177" fill="rgb(0, 0, 0)" stroke="rgb(204, 204, 204)" stroke-width="1px"></line></g></g><g transform="translate(51, 0)" clip-path="url(#clip_0)"><clipPath id="clip_0"><rect width="278" height="177"></rect></clipPath><g><g><g><line x1="0" y1="0" x2="0" y2="177" fill="rgb(0, 0, 0)" stroke="rgb(66, 66, 66)" stroke-width="1px" opacity="0.25"></line><line x1="30.9375" y1="0" x2="30.9375" y2="177" fill="rgb(0, 0, 0)" stroke="rgb(66, 66, 66)" stroke-width="1px" opacity="0.25"></line><line x1="61.875" y1="0" x2="61.875" y2="177" fill="rgb(0, 0, 0)" stroke="rgb(66, 66, 66)" stroke-width="1px" opacity="0.25"></line><line x1="92.8125" y1="0" x2="92.8125" y2="177" fill="rgb(0, 0, 0)" stroke="rgb(66, 66, 66)" stroke-width="1px" opacity="0.25"></line><line x1="123.75" y1="0" x2="123.75" y2="177" fill="rgb(0, 0, 0)" stroke="rgb(66, 66, 66)" stroke-width="1px" opacity="0.25"></line><line x1="154.6875" y1="0" x2="154.6875" y2="177" fill="rgb(0, 0, 0)" stroke="rgb(66, 66, 66)" stroke-width="1px" opacity="0.25"></line><line x1="185.625" y1="0" x2="185.625" y2="177" fill="rgb(0, 0, 0)" stroke="rgb(66, 66, 66)" stroke-width="1px" opacity="0.25"></line><line x1="216.5625" y1="0" x2="216.5625" y2="177" fill="rgb(0, 0, 0)" stroke="rgb(66, 66, 66)" stroke-width="1px" opacity="0.25"></line><line x1="247.5" y1="0" x2="247.5" y2="177" fill="rgb(0, 0, 0)" stroke="rgb(66, 66, 66)" stroke-width="1px" opacity="0.25"></line><line x1="278.4375" y1="0" x2="278.4375" y2="177" fill="rgb(0, 0, 0)" stroke="rgb(66, 66, 66)" stroke-width="1px" opacity="0.25"></line></g><g><line x1="0" y1="177" x2="278.4375" y2="177" fill="rgb(0, 0, 0)" stroke="rgb(66, 66, 66)" stroke-width="1px" opacity="0.25"></line><line x1="0" y1="157.33333333333331" x2="278.4375" y2="157.33333333333331" fill="rgb(0, 0, 0)" stroke="rgb(66, 66, 66)" stroke-width="1px" opacity="0.25"></line><line x1="0" y1="137.66666666666666" x2="278.4375" y2="137.66666666666666" fill="rgb(0, 0, 0)" stroke="rgb(66, 66, 66)" stroke-width="1px" opacity="0.25"></line><line x1="0" y1="118" x2="278.4375" y2="118" fill="rgb(0, 0, 0)" stroke="rgb(66, 66, 66)" stroke-width="1px" opacity="0.25"></line><line x1="0" y1="98.33333333333334" x2="278.4375" y2="98.33333333333334" fill="rgb(0, 0, 0)" stroke="rgb(66, 66, 66)" stroke-width="1px" opacity="0.25"></line><line x1="0" y1="78.66666666666666" x2="278.4375" y2="78.66666666666666" fill="rgb(0, 0, 0)" stroke="rgb(66, 66, 66)" stroke-width="1px" opacity="0.25"></line><line x1="0" y1="58.999999999999964" x2="278.4375" y2="58.999999999999964" fill="rgb(0, 0, 0)" stroke="rgb(66, 66, 66)" stroke-width="1px" opacity="0.25"></line><line x1="0" y1="39.33333333333333" x2="278.4375" y2="39.33333333333333" fill="rgb(0, 0, 0)" stroke="rgb(66, 66, 66)" stroke-width="1px" opacity="0.25"></line><line x1="0" y1="19.666666666666636" x2="278.4375" y2="19.666666666666636" fill="rgb(0, 0, 0)" stroke="rgb(66, 66, 66)" stroke-width="1px" opacity="0.25"></line><line x1="0" y1="0" x2="278.4375" y2="0" fill="rgb(0, 0, 0)" stroke="rgb(66, 66, 66)" stroke-width="1px" opacity="0.25"></line></g></g></g><g><g><line x1="0" y1="236.00000000000003" x2="278.4375" y2="236.00000000000003" fill="rgb(0, 0, 0)" stroke="rgb(153, 153, 153)" stroke-width="1.5px"></line></g></g><g><g><line x1="30.9375" y1="0" x2="30.9375" y2="177" fill="rgb(0, 0, 0)" stroke="rgb(153, 153, 153)" stroke-width="1.5px"></line></g></g><g><g><g><g><g><path stroke="rgb(0, 119, 187)" stroke-width="2px" d="M31.243781249999998,23.58418997128803L31.86253125,28.1770102282365L31.92440625,12.77106082033948L32.11003125,17.37203785426477L32.17190625,23.98278061019415L32.23378125,16.623546621138324L32.35753125,24.5897869965071L32.605031249999996,35.11396119965203L32.66690625,35.098281443024966L33.471281250000004,42.18368731136058L33.90440625,49.42091365578451L33.96628125,47.85618838160908L34.02815625,50.51443179644036L34.33753125,46.682137370054356L34.70878125,42.324191077401125L34.77065625,49.104358352498174L34.832531249999995,54.04624186615266L34.89440625,57.20496730787892L35.080031250000005,63.88058798346874L35.14190625,63.84968136500672L35.32753125,63.564099476892004L35.38940625,59.101005131046016L35.760656250000004,59.35884908259131L36.07003125,61.48486091414647L36.503156249999996,60.36197051677352L37.12190625,65.19978090405269L37.369406250000004,70.12714446210732L37.555031250000006,70.91308088459927L37.61690625,69.79836865137301L38.17378125,72.44846673506031L38.48315625,70.13722497778984L38.73065625,69.03140613114331L38.792531249999996,69.28267217490176L38.916281250000004,70.42975246703801L39.040031250000006,77.19219706435935L39.41128125,69.98634747769674L39.47315625,69.14582678814853L39.90628125,74.04352897122254L40.03003124999999,70.45981710975502L40.09190625,74.76139742606789L40.27753125,79.6528426595456L40.71065625,77.35326708372594L40.89628125,75.84546322589985L41.020031249999995,75.19355944164745L41.143781249999996,82.27049181158286L41.51503125,84.43880796423133L41.57690625,86.14154718717695L41.63878125,83.4247974140874L41.94815625,82.78651058574242L42.38128125,84.9105379019336L42.44315625,79.92311760388314L42.505031249999995,81.28663358253142L42.752531250000004,80.40970159269358L42.81440625,81.6628012857668L42.876281250000005,85.43445254575444L43.30940625,83.45985108143752L43.49503125,84.9400633028749L43.556906250000004,83.52470349380971L43.61878125,81.31474575465661L43.68065625,81.01172938982091L43.80440625,92.02557022793788L44.05190625,96.21971082343885L44.175656249999996,91.82460373036592L44.29940625,90.35021755730627L44.60878125,92.66987139564067L44.67065625,101.37029702612546L44.856281249999995,93.84244020272564L45.16565625,92.2106226254857L45.784406249999996,88.76549957410631L46.09378125,89.38913620839202L46.15565625,94.29976205823628L46.21753125,92.57970804848952L46.96003125,90.72175426609523L47.021906249999994,89.39212259050534L47.08378125,88.25422493852969L47.76440625,93.24141052705721L47.95003125,96.00932525401916L48.07378125,94.71057250582538L48.197531250000004,96.65966442316788L48.44503125,100.94541793121905L48.63065625,100.09885511231825L48.816281249999996,97.40631730615539L48.94003125,93.68361291443969L49.24940625,93.68020868990224L49.37315625,93.51971420065601L49.43503125,93.39102190583571L49.93003125,90.27925443162299L50.05378125,89.71569841410586L50.30128125,95.13991186602432L50.548781250000005,94.91485977321973L50.67253125,93.51510593185887L50.73440625,99.0259027454658L50.92003125,101.87154180050315L51.848156249999995,104.39856348578387L51.91003125,99.19174441979875L52.219406250000006,97.75519231927325L52.34315625,95.555180652769L52.40503125,99.915962010919L52.77628125,95.76437125422494L52.900031250000005,101.45718149632972L53.14753125,90.96521891926186L53.39503125,96.24066326086397L53.456906249999996,94.91030754882897L53.518781249999996,94.39006610456389L53.580656250000004,94.56802368805774L53.64253125,96.15236400353493L53.704406250000005,100.39656787785438L54.385031250000004,98.21853709423071L54.88003125,100.08450883350882L55.12753125,96.11502378218641L55.25128125,97.59356709142487L55.37503125,97.96006120733398L55.56065625,103.22382947698419L55.870031250000004,98.78361752566802L55.99378125,101.90633222423261L56.30315625,107.65943393486101L56.612531249999996,114.96449595318651L56.67440625,109.12951789076972L57.04565625,107.83159136241188L57.10753125,108.13623362858401L57.35503125,97.19090253956699L57.97378125,95.30027549374648L58.03565625,100.05255841160943L58.159406249999996,103.01528950698254L58.40690625,102.67426803211617L58.46878125,99.60661358734119L58.59253125,105.31857544839468L58.840031249999996,99.87130370930882L58.96378125,105.30903930184874L59.21128125,106.44154679010887L59.520656249999995,99.30852076548683L59.76815625,103.26114061557261L59.83003125,107.37728293984934L59.95378125,114.46600715468209L60.07753125,114.50701171646445L60.325031249999995,106.39154091570734L60.38690625,106.557160372102L60.696281250000006,107.0223083463691L60.75815625,103.42428275549703L61.129406249999995,102.91278067790046L61.25315625,109.24467075405065L61.56253125,110.17833907924619L61.81003125,109.29800723109162L62.49065625,109.07415516046792L62.55253125,107.2070285729653L62.61440625,109.73454702608308L62.676281249999995,111.28503854699444L62.73815625,108.14207776165514L62.800031249999996,102.50910692081754L62.98565625,109.23101749022348L63.04753125,110.29083468516396L63.10940625,113.35586525201632L63.97565625,110.90989598353605L64.03753125,117.224043564319L64.16128125,112.92707486727996L64.22315625,113.1487804320206L64.28503125,115.34488169750071L64.40878125,110.70642196576098L64.53253125,108.72212815745849L64.65628125,114.47397752084836L64.78003125000001,114.27554377403955L65.02753125,118.36128627749544L65.15128125,119.53379714186347L65.39878125,116.73755654312386L65.77003125,115.67717603415578L65.89378125,115.5537866487324L66.14128125,113.4012157917551L66.32690625000001,115.89556043945937L66.45065625000001,121.15752170246753L67.13128125,119.49026712037275L67.19315625,111.03605178350496L67.37878125,114.30182400159609L67.50253125,113.75155898022197L67.56440625,118.75408448430423L67.75003124999999,116.00580490620447L67.87378125,119.36315088068358L68.30690625,121.66862185355967L68.61628125,124.60877823565569L68.92565625,124.1907007996291L68.98753125,122.39853830560347L69.11128125,127.07617256298245L69.48253125000001,132.2295328612402L69.54440625,129.45148859631666L69.73003125,130.74018743561692L69.85378125,135.6775708055118L69.91565625,134.65427280201231L70.16315625,136.50779178579876L70.41065624999999,135.3542999913706L70.78190625,132.68063880346696L70.84378125,132.26963552639376L71.15315625000001,134.7629329173097L71.27690625,130.3001345997053L71.52440625,128.2111749771236L71.71003125,130.03657230474542L71.83378125,128.94180897516802L72.26690625,124.36132272666372L72.45253125,128.62788604449636L72.76190625000001,129.01909584254867L72.82378125000001,129.3418651726892L73.07128125,130.79469770036442L73.31878125,132.11595475977046L73.81378125,131.35169921898074L73.93753125,133.8590337589377L74.06128125,133.54320399890304L74.12315625000001,130.01544469751892L74.43253125000001,132.8150384713688L74.92753125,135.36801068918774L75.23690625,135.79224097492417L75.36065624999999,133.0258576776313L75.54628125,133.76887260510884L75.60815625,136.4450593946439L75.73190625,134.32954890875388L75.85565625000001,131.45898839244268L75.91753125,137.11325099712028L76.04128125,142.11567629165697L76.10315625000001,140.432340221329L76.22690625,141.26793366077948L76.28878125,141.69810520849668L76.35065625,141.6809721265756L76.66003125,141.72716068473594L76.90753125,138.29548170912545L77.03128124999999,142.0558923169868L77.77378125000001,136.645069524739L78.26878125,137.4338678787711L78.33065624999999,142.9390526217558L78.57815625,139.11104012344308L78.76378125000001,142.62171737043477L78.94940625,143.14400741868266L79.01128125,143.9804093445125L79.13503125000001,144.90001496502455L79.25878125,141.59921972450832L79.38253125,140.8334885388447L79.75378124999999,142.45546369253594L80.74378125000001,142.5067784736494L80.80565625,143.32078457375007L80.86753125,141.31748869716907L80.92940625,133.19497564653426L81.11503125,137.85504219861747L81.61003125,141.77306526064032L81.67190624999999,143.29496620392294L82.22878125,141.2739463386664L82.47628125,142.0725273373363L82.53815625,140.6159719436946L82.66190625,141.48440768378472L82.72378124999999,139.63024183546005L82.90940625,137.39370545805195L82.97128125,139.93593369957225L83.15690625,143.56370718699546L83.28065624999999,144.28123054159792L83.65190625,144.2797422483749L84.02315625,143.4367933953913L84.20878125,139.25255021364163L84.33253125,139.80816895709836L84.58003125,139.66350932288012L84.82753125,142.72159777105554L84.88940625000001,142.7469298006338L85.69378125,136.558837920104L85.81753125,141.14696995596557L86.18878125,140.81991791832726L86.37440624999999,139.06005619431505L86.49815625000001,140.2741803872484L86.56003125,145.00148605592437L86.74565625000001,148.77129321468308L86.80753125000001,142.08606244627097L87.11690625,140.5143516789086L87.17878125,141.43052279533194L87.30253125,140.14861267952867L87.36440625,140.80667829204847L87.79753125,135.64719358894774L87.85940625,131.49548306354015L87.98315625,138.3607063588786L88.41628125000001,139.39477004392668L88.54003125,143.24170979927217L88.60190625,141.43636141461272L88.66378125,137.51047940001175L89.28253125,135.8890629308141L89.71565625,138.59070838868917L89.90128125,144.80686095583619L90.08690625000001,142.49729079740155L90.39628124999999,142.23832623205726L90.58190625,144.65064704443301L90.82940625,141.81195237651636L90.89128125,142.50314046391946L91.51003125,140.81874823639254L91.57190625,141.15337669890798L91.75753125,141.30050339723633L92.00503125,138.1817250793676L92.25253125,138.1948702183664L92.37628124999999,140.59454812888106L92.50003125,140.81386736005823L92.62378125,143.28208248796233L92.80940625000001,143.9668928284377L92.99503125,141.0595040181635L93.05690625,137.75531794981308L93.11878125000001,140.55105199628758L93.24253125,139.71985658534578L93.67565624999999,140.71461922642519L93.79940625,145.1758303486323L94.23253125,149.14546457785463L94.48003125000001,149.8283539525157L94.60378125,145.29267327257907L95.03690625,140.72523371538867L95.09878125,136.69872697290586L95.16065625,140.95449280796532L95.53190625,140.90377781425764L95.71753125,140.7570313074282L96.33628125,138.2790728246028L96.46003125,141.39334056187798L96.58378125,139.9454806491283L96.70753124999999,139.04815538592425L97.20253125,145.90349003394812L97.26440625,144.64716093969565L97.32628125,139.37011886377468L97.38815625,141.24230050686597L97.63565625,137.47285386508864L97.82128125,138.25222975762384L98.19253125,142.23664186846233L98.25440625,144.96951544156283L98.50190625,141.63843489410843L98.93503125,135.00931621028403L99.18253125,135.0027279720709L99.24440625,132.83020625905223L99.30628125,137.6021532281003L99.49190625,141.1411792713659L99.61565625,143.08407698541424L99.73940624999999,141.8315512645416L99.80128125,146.166914211204L99.92503125,147.8721209445538L100.35815625,145.5865447011953L100.42003125000001,139.26831468069744L100.60565625,138.93785894785836L100.66753125,140.3296262316377L100.79128125000001,138.43447450950566L100.85315625,139.23131506535307L101.03878125,138.3711233033313L101.16253125,141.03333135606292L101.47190625,141.89052524662875L101.90503125,145.36346634127813L102.21440625,145.90443796256056L102.27628125,140.6682097733351L102.89503125,139.61468093913786L103.01878124999999,134.732520047756L103.20440625,137.45433348651645L103.63753125,137.59627204479327L103.76128125000001,138.6418787161999L103.82315625,138.6752342733041L103.88503125,141.65514540387966L104.13253125,148.91635681617524L104.25628125,144.44478294905977L104.56565625,140.14362934623335L104.81315625,143.7328902128985L104.87503125,145.1730284478456L105.06065625,144.41371383982042L105.55565625,139.74411332637354L105.61753125,142.75276363708744L105.67940625,145.45877566825254L106.11253125,144.06503670349264L106.36003124999999,143.77736399730767L106.66940625,144.78595257298585L106.79315625000001,144.13491223949057L107.04065625,145.3303244433673L107.96878124999999,150.30775041114518L108.09253125000001,143.1208079341922L108.27815625,145.93495732648412L108.34003125,148.18863978050098L108.40190625000001,144.5374918822166L108.46378125000001,144.2144360488882L108.58753125,143.2300026464202L108.77315625,143.3627904443585L108.95878125,146.41667612723367L109.02065624999999,139.88185297845914L109.39190624999999,142.19969122846393L109.63940625,140.69080499752044L109.94878125,140.0622190948944L110.01065625,139.95672358969574L110.07253125000001,141.4506798857434L110.32003125,144.056952015995L110.50565625,143.0611603596443L110.81503125,145.3144537332833L111.00065624999999,141.1074355437267L111.31003125,142.58927668694108L111.37190625,146.18736447630394L111.55753125,142.96989774150492L111.80503125,139.33316731120848L112.05253124999999,139.27916698256553L112.36190624999999,138.19858692049635L112.67128124999999,138.51002597387424L112.79503125000001,141.68780661171152L112.98065625,137.45312190380974L113.04253125,138.88281190590433L113.59940625,138.93281305748047L114.21815625,137.9140501156518L114.40378125000001,143.47231868913187L114.77503125,145.3021949212377L115.14628125,151.27887054764975L115.39378124999999,151.62468045046177L115.45565625,144.00775889410724L115.51753125,140.31583669098706L115.64128124999999,137.26500439432752L116.07440625000001,136.80726920636988L116.13628125000001,139.55293297214803L116.38378125000001,141.83569341963627L116.75503125,140.6442356948024L117.00253124999999,141.01723479691938L117.18815625,141.66235290843522L117.43565625000001,140.30327320225007L118.67315624999999,142.89785276329692L118.92065625,143.84792030538821L119.53940625,143.09274441809876L119.84878125,142.9610160041536L119.97253125,142.1345567772002L120.03440624999999,138.23063491598037L120.09628125,145.5993661650932L120.15815625,142.35005425029493L120.65315625,141.4807870225916L121.02440625,145.9649003726329L121.14815625,143.14420562478418L121.21003125,140.13952075735241L121.33378125,137.71371930815087L121.39565625,140.27931841598334L122.13815625000001,139.60439938139749L122.20003125,143.45083960989214L122.32378125,145.11507971941887L122.75690625,148.81734828865206L123.00440624999999,145.2678543610315L123.19003125,142.05565305647892L123.43753125,142.39387215831465L123.68503125,140.86723064775418L123.74690625000001,140.1895754301259L123.93253125,140.42331003131721L124.36565624999999,142.997961364084L124.42753125,145.81070071174315L124.48940625,146.19976554143594L124.61315625,148.78246461050608L124.79878125,147.7632099312359L125.54128125,144.2841751767286L125.91253125,141.49136577803424L126.09815625,140.61308597778398L126.16003125,138.128355180751L126.34565624999999,137.6906480444654L126.77878125000001,142.60235010305152L126.96440625,141.3242820663399L127.02628125,145.70677575448033L127.64503125,141.23418228414977L127.83065625,143.8460011517246L127.89253125,141.83647789370454L128.01628125,141.8182087847279L128.26378125,137.7717067783288L128.32565625,138.47653852215677L128.51128125,140.26697598086557L128.75878125,143.6631904811865L129.06815625,142.9149279497786L129.68690625,143.9997396808499L129.74878125,145.79968824038707L129.81065625,145.78533171445014L130.05815625,144.4113198687427L130.18190625,144.79276856798685L130.67690625,140.82787504803395L131.66690625,143.36424582209938L131.91440625,141.99760586226037L132.16190625,141.60791977765592L132.28565625000002,136.70739727331653L132.47128125,143.10534911024644L132.84253125,143.56625398398285L132.90440625,140.6166493757616L133.33753125,141.15039016390148L133.83253125,141.19628013919373L134.08003125,142.10347028027326L134.32753125,144.51436226835062L134.57503125,142.7891880429002L134.76065625,144.54077338514006L134.88440625,148.08033883176608L135.25565625000002,145.20560890596528L135.31753125,149.1543055822139L135.37940625,145.96723721323522L135.44128125,148.65347653566664L135.75065625,145.04337883356533L135.81253125,146.91538572527958L135.87440625000002,143.11388642123137L136.30753125,137.42601896046077L136.43128124999998,142.02870123814625L136.61690625,140.29232742725463L136.74065625,142.00647369825037L136.80253125,145.95159947754854L136.86440625,148.8389832807496L136.92628125000002,144.29585950173427L137.29753125,145.54778198757265L137.54503125,146.23253129537002L137.60690625,147.62768856653628L137.73065625,149.10817720076872L138.04003125,144.6357462500419L138.53503125,143.50779231954928L138.59690625000002,142.52068519931623L138.84440625,141.25581247215422L138.96815625,140.3594572143055L139.27753125,143.70139359611056L139.46315625,143.65700497137178L139.52503124999998,142.1917543683847L140.20565625,142.5771718586127L140.82440625,145.87798645682972L140.94815624999998,145.02819499127773L141.13378125,145.0708575929366L141.38128125,150.86446640601727L141.44315625000002,147.65062821931227L141.50503124999997,146.90928719655622L141.69065625,143.30557151366838L141.87628125,141.05093797681474L142.12378124999998,141.6582112986112L142.37128125,140.181791020131L142.49503125,139.66164716444166L143.54690625,144.16613828556785L143.79440624999998,141.74172382802L143.98003125,142.46563127786058L144.04190625,145.93437545587702L144.22753125000003,144.71196693434368L144.35128125,144.64653515569796L144.59878125,140.69514501741983L144.72253125,144.67751550268008L145.27940625000002,146.9983368610792L145.52690625,146.12739276262835L146.08378125,148.04016527755687L146.39315625,145.80212740832744L146.45503125,143.85683043440685L146.51690624999998,142.85932708367014L146.95003125000002,144.87269639522415L147.32128125,143.74615985284595L147.50690625000001,147.89791632968394L147.69253125,144.56688189473672L147.81628125,141.48380101502096L148.24940625,143.2270086891263L148.49690625,145.05254007300593L148.68253124999998,139.97316305391504L149.05378125000001,142.43943322828918L149.11565625,141.85795076567834L149.17753125,141.9639641754562L149.36315625,143.66541626727985L149.67253125000002,145.64894187456213L150.04378125,147.12387970292076L150.10565625,143.64174045246943L150.72440625000002,142.31036580277743L150.78628125,143.18970021013376L151.03378125,145.0494544927515L151.09565625,147.01861395185614L151.15753125,144.8066668773418L151.34315625000002,144.67738800037256L151.46690625,145.44955931179734L151.83815625000003,144.62828671578373L152.02378124999998,147.20187771108036L152.27128125000002,145.4520364112831L152.33315625,146.01420080108505L152.45690624999997,143.30192176168995L152.51878125,143.754791289563L152.64253125,144.53630179762544L153.32315625,148.21126370390078L153.44690625,147.38071580386054L153.94190625000002,145.65633851482008L154.00378125,140.0950751038007L154.18940625,139.72032016902835L155.79815624999998,141.84491259091897L156.04565625,144.25774581969063L156.35503125,146.1556574011263L156.66440625,142.30730573561294L156.91190625,139.2956585738649L156.97378125,144.05636851709625L157.22128125,137.7530777179492L157.40690625,140.95101194321865L157.65440625,140.66734985951436L158.08753124999998,145.82577653990498L158.14940625,148.0609682337422L158.21128125,146.8658157310473L158.89190625,145.9194417708071L158.95378125000002,140.97141231971693L159.07753125,142.46937320556867L159.32503125,142.1608380273578L159.63440624999998,145.59120481385375L160.12940625,146.20665778223824L160.25315625,144.88913341465087L160.37690625,143.19671146930747L160.74815625,142.4732782256295L160.81003124999998,141.75935198138293L160.93378125,141.18585840823334L161.11940625,145.8063002425159L161.24315625,147.03776977843393L161.49065625,151.4473464869639L161.55253125000002,147.16674275298004L161.80003125,145.04286232252372L161.86190624999998,141.65841710563174L162.10940625,142.13098654744428L162.17128125000002,143.52190307933532L162.35690624999998,139.93874142264391L162.41878125,143.90121309178113L162.60440625,143.1267902387204L163.16128125,150.00756364264222L163.34690625000002,148.33796528099856L163.96565625000002,148.6132583088808L164.58440625,148.69311961335737L164.77003125,146.76546035291432L165.20315625,145.308046154668L165.63628125,147.2541296397587L166.31690625,141.82593168705347L166.44065625,143.4066481941321L166.75003124999998,146.46873751998217L167.05940625,143.4991759680923L167.18315625000002,148.3775367154608L167.30690625,150.21555174672184L167.67815625,152.20796207557268L167.80190625,148.77155234795896L167.98753125,148.36622878540805L168.04940625,142.78794472592622L168.42065624999998,140.96170605725575L168.66815625,139.72884070181766L169.34878125,139.39554819645835L169.53440625,141.86697192896816L169.72003125,139.85131223147758L169.84378125,139.65083612886457L170.64815625,140.54880812498365L171.08128125000002,144.08536604284703L171.26690625,146.5597137326367L171.82378125,143.75507018453087L172.13315625,138.79084971836926L172.81378124999998,140.7302993414306L173.30878124999998,140.65769876703638L173.61815625,141.64623302021633L173.68003125,141.83174760619212L173.98940625,141.573299182332L174.29878125000002,143.7172581272581L174.48440624999998,142.37476022545053L174.79378125,143.77812665007642L175.28878125,147.69239031455197L175.47440625000002,144.46048148779838L175.78378125,146.94207679614684L175.90753125,146.6169553322708L175.96940625000002,145.5834698512027L176.03128124999998,145.48167770508147L176.15503124999998,145.08820638698268L176.52628125,147.4588629184679L176.83565625,145.34198699266807L176.95940625,146.76414502782282L177.82565624999998,146.48625709884956L178.13503125,149.03144738439875L178.50628125,148.3865698895702L178.81565625,148.28747847409147L178.93940625,144.2729211413727L179.06315625,139.80656903766786L179.12503125,141.26474606464225L179.31065625000002,139.98415850482337L179.37253124999998,140.85576705266206L180.42440624999998,143.29334316330656L181.22878125,142.2263897360017L181.41440625,142.31406839493812L181.66190625,146.23436996819913L181.72378125,142.69022560208444L181.90940625000002,142.22626070234818L182.03315625000002,143.45431238842195L182.09503124999998,140.37180329024108L182.83753125,140.5955295681515L183.33253125,143.11729864197326L183.45628125,147.5202198023638L183.51815625,147.52575172553705L183.76565624999998,145.03395782452967L184.01315625,146.5816625985035L184.26065624999998,146.46783308779374L184.69378125,150.20844034708642L184.75565625000002,148.03632865164937L185.00315625,149.29631376553135L185.25065625000002,147.09184671415025L185.56003125,150.85520789408565L185.68378125,151.51924520363735L185.86940625000003,151.00339329419728L185.99315625,153.18654525386214L186.05503124999998,150.67299822235256L186.17878125000001,144.60904457130522L186.30253125000002,146.1388867415497L186.48815624999997,142.77574779893015L186.73565625,141.41133514824543L186.79753125,144.18067037135182L186.85940625,145.8364807152936L186.98315625,143.65741115714246L187.10690624999998,141.37955728712757L187.41628125,145.35580285912602L187.54003125,147.96706981972366L187.60190624999998,148.3859500776659L188.03503125,144.58750453934653L188.15878124999998,144.97158164587964L188.34440625,142.5629023639799L189.70565625,144.38629561633513L189.76753125,149.8502280988533L189.89128125,151.97202617396346L190.32440624999998,151.5934146551456L190.44815624999998,154.3666998252173L190.51003125,148.17827304829555L190.81940625000001,147.885030098534L190.88128125,146.551735179291L190.94315625,146.57006483276635L191.12878125,146.27470873792936L191.19065625000002,144.2289431512354L191.37628124999998,145.03580705444006L191.80940625000002,148.5268294023672L191.93315625,146.7415057186603L192.05690625,149.035794355332L192.24253125,149.06318616342097L192.92315625,146.4773949909501L192.98503125000002,144.14045004019894L193.04690624999998,147.32712538224314L193.54190625,145.94911556550971L193.60378125,145.02119591897196L193.91315625000001,142.9562856459546L193.97503125,148.14683712148238L194.03690625000002,150.33811140432098L194.09878125,151.93227572664108L194.22253125,147.96963660373976L194.28440625,148.39247913631613L194.34628125,143.93451195243685L194.53190625000002,146.5040186958533L195.21253124999998,146.47328883312272L195.58378125000002,147.37065848053768L195.70753125000002,145.80852631931268L196.20253125000002,147.7580519211576L196.26440625,146.67238589677925L196.32628125,144.95608580442496L196.45003125,148.73868896364507L196.88315624999998,148.09217551032307L197.06878125,149.62658931421996L197.19253125,152.2798817968831L197.37815625000002,149.09061539271266L197.50190625,147.47726463535702L197.62565625,145.4737038647688L198.18253125,146.07468809498687L198.43003125,143.36128586419426L198.55378125,145.86424635581972L198.67753125,146.8011627439626L198.80128125,147.25934562547812L198.86315625,146.6041396148829L199.11065624999998,144.33679051128001L199.17253125,147.294052626254L199.23440625,145.15635853542594L199.54378125000002,145.4549934637569L199.85315625,148.2770393633061L199.91503125,144.31064423381568L200.16253124999997,143.81032173112598L200.47190625,140.9565164741411L200.53378125,142.68577713747027L200.59565625000002,141.8430359143766L200.65753125,141.16502491903816L200.78128124999998,144.14409084482497L200.84315625,145.5686283947836L201.33815625,142.0422549590554L201.40003124999998,144.312792496587L201.46190625,149.9236628512771L201.77128125000002,148.89985900125293L201.83315624999997,144.18478778005473L202.08065625,142.78517692288258L202.26628125000002,146.21349453727703L202.45190624999998,145.86256446719347L202.57565625,145.70769178636976L202.69940625,143.79717285494868L202.88503125,143.4753668252281L202.94690624999998,147.30435019793023L203.25628125,145.9524922573283L203.31815625000002,146.6946760060617L204.06065625,149.2936490163542L204.18440625,145.79395023496969L204.98878125000002,143.2749504537107L205.05065625,143.03006432994533L205.73128125,145.07135260032211L205.79315624999998,149.8628442203597L206.35003125,145.12314115656986L206.47378125,146.33260734097306L206.59753125,149.4198368264207L206.78315625,146.77976409631782L206.96878125,145.25154648644414L207.15440625000002,143.22785295499972L207.40190625,145.56089187534815L207.46378124999998,149.90331567648352L207.77315625,148.01619542433798L207.89690625,147.62232869939393L208.02065625,145.76879811729822L208.08253125,146.43156156805654L208.33003125000002,143.54664589882393L208.45378125,147.91617176882724L208.63940625,145.48869593512393L209.13440624999998,148.1757316245916L209.25815625,147.72743290588951L209.32003125,144.01172862405994L209.44378125,144.72081075085453L209.75315625,144.85145489756218L209.87690625000002,147.03245376179981L210.00065625000002,147.34417445638002L210.12440625,148.3548564782434L210.61940625,145.83988925639946L211.11440624999997,145.98922470107175L211.17628125,145.02063295977013L211.30003125,142.72662790062049L211.36190625,147.32887317006995L211.54753125000002,150.34425783116743L211.67128125,149.42788572287037L211.73315624999998,147.3764098197747L211.91878125,148.71807918412657L212.29003125,144.2977368998319L212.53753125,151.53888042178494L212.59940625000002,146.02063921733742L213.46565625,147.5520679055296L213.65128125,144.99524377377685L213.83690625000003,147.30315554097407L214.02253125,144.55874350838926L214.27003125000002,144.96362311347167L214.45565624999998,148.9039350750278L214.51753125,146.69139136486632L214.57940625,147.23649172155092L214.95065624999998,148.1573798587006L215.26003125,145.23711975793532L215.32190625,143.3211265427698L215.63128125,143.8474508617021L215.75503125,147.68529297274534L216.18815625,147.93461929974268L216.37378125,146.478002360765L216.49753125,150.654459077897L216.55940625000002,146.6446464769735L216.68315625,147.289799526097L216.74503124999998,143.32629198715784L216.86878125,146.6059439513228L217.05440625,142.1093380172933L217.24003125,140.37934133131614L217.73503125,144.07780623069985L217.79690624999998,147.17053015807224L218.10628125,147.1837016171949L218.35378125,151.5028733785989L218.41565624999998,149.36647545353821L218.72503125,146.0770190659538L219.52940625,141.87549706121533L219.59128125,143.88189844183276L219.65315625,142.84665180777796L219.71503125,145.12695918998293L220.27190625,146.4395614138514L220.70503125,151.27096498437348L220.89065625,151.88835077540648L221.20003125,152.53532646332127L221.38565625,147.60171498199668L221.75690625,145.9615996838035L221.81878125,149.26748365722628L221.88065625000002,148.67874515789268L222.19003125,145.19546053849172L222.43753125,147.20233531420934L222.56128125,146.60174760595265L222.74690625,145.17045520171706L222.99440625,146.0924859827271L223.05628125,142.65203108701175L223.11815625000003,140.22225849417686L223.24190625,140.31105162653034L223.48940625,141.1442179637315L223.55128125000002,143.3574155702489L223.67503125000002,145.19637017255806L223.73690624999998,152.15403461141855L223.98440625,147.7342382730055L224.04628125,146.5200002627179L224.10815625,148.51950093328585L224.41753125,147.24728191824533L224.54128125,150.08324763535526L225.16003125,145.8206932466769L225.22190625000002,153.80094705749815L225.46940625,151.0360970262444L225.59315625,148.88596625509396L225.90253124999998,147.70481325417282L226.02628124999998,143.0674268477928L226.21190625,148.47207006258398L226.33565625,143.9746189143814L226.95440625,147.21751509665793L227.14003125,150.40123929118718L227.32565625,149.85775903981292L227.63503125,148.85418129039624L227.82065625,149.6164525910585L228.19190625,148.9992698290568L228.37753125,145.07579712025054L228.50128125,142.02965314359503L228.81065625,145.19837283594035L228.93440625,147.02474638324554L229.18190625000003,147.2794735143676L229.24378124999998,148.11348017712996L229.73878125,148.5073125401769L229.98628125,146.9488562607547L230.04815625,148.1550360836852L230.23378125000002,146.90110247442732L230.35753125,142.48159916267562L230.48128125,142.52719319899342L230.79065625,144.45654277626352L231.03815625,148.65849972937707L231.28565625000002,148.39608807468935L231.53315625,148.34683741989448L231.65690625,151.97086753366023L232.02815625,147.61652163218037L232.77065625,149.56106413732317L232.89440625,151.29883654910532L233.01815625,149.59209389685515L233.20378125,149.48865730285004L233.38940625,151.94759346675488L233.57503125000002,149.97538142382072L233.63690624999998,146.19226382362226L233.94628125,147.93110392602708L234.44128125,148.44989605414327L234.81253125,144.54406022032572L234.99815625,143.81380714774414L235.06003125,141.97579631289014L235.55503125,142.1296099806637L236.05003125,144.05547092665097L236.60690625,146.69436046069183L236.85440625,147.0207293783743L237.28753125,141.33029014001997L237.65878125,146.59230149267543L237.78253125,147.03901303099647L237.96815625,150.16331543298796L238.09190625,152.82816152039507L238.46315625000003,153.07014408268535L238.58690625,154.2033080253482L238.64878124999998,147.16578783950092L239.02003125000002,146.48214467184275L239.14378125,142.95285410771686L239.20565625,146.2931766376292L239.26753125,147.53102358174692L239.51503125000002,147.00197581445596L239.57690625,147.50895167189094L239.63878125,148.67161593117666L239.76253125,145.96863757736494L239.94815625,144.406298767529L240.07190625,143.42259495119376L240.38128125,145.26393003857208L240.44315625,148.70460211195194L240.62878125,149.46791567181137L240.93815625,149.40776174331458L241.00003125,144.8894713862623L241.18565625000002,146.78781121634754L241.49503125,143.02602740325517L241.61878125,143.82408410031388L241.80440624999997,146.85320075582737L241.86628125,146.345954618243L241.92815625,149.4551908501313L242.11378125000002,148.81708339422897L242.29940625,150.12290235104138L242.48503125,146.94728692218845L242.73253125,149.1427581539463L242.98003125,145.98929318372672L243.10378125,148.59648917069592L243.41315625000001,148.7919132587347L243.47503124999997,155.05497760039768L243.59878125,150.2346143154037L243.78440625000002,148.36601810223254L244.09378124999998,142.80316039264036L244.21753125,146.6124996443977L244.71253124999998,147.70019038321914L244.77440625,145.0386490094801L245.02190625,147.65294135023L245.14565625,147.89354561413631L245.45503125000002,145.1626871981937L245.57878125000002,149.87670854878732L245.70253125,153.75844260147596L245.82628125,152.25003205194903L246.01190625,150.33492894841135L246.32128125,150.34433688246946L246.38315624999998,144.73701351597154L246.44503125,145.93246331441944L246.50690625000001,139.4807563699993L246.56878125,143.6165191060928L246.63065625000002,147.66703230499988L246.87815625,148.42274693465095L247.00190625,143.36285137225704L247.12565625000002,142.9643234437079L247.31128124999998,146.45786312572386L247.49690625,147.72325240384873L247.55878125,150.2202645151496L247.74440625,146.81947054119985L248.36315625,148.70841554195928L248.42503125,151.37086054915932L248.73440625,153.59138841570265L248.79628125000002,152.16806748990723L249.16753125,148.02493439208175L249.47690624999998,147.86388085339888L249.72440625,148.806311031507L249.78628125,147.52768857101194L249.97190625000002,147.27111740998185L250.09565625,148.89464009657556L250.15753125,146.1852674058381L250.28128125,148.47458116837163L250.59065625,145.84783313648592L250.65253124999998,149.76505892660234L250.90003125,148.16467369309672L251.14753125,146.551138294011L251.27128125,144.89549790160038L251.45690625,142.00413655243028L251.64253125000002,135.90163168312137L251.82815625,146.203870779282L252.07565625,147.9719993150271L252.19940625,147.3485302374385L252.26128125,148.60827445063723L252.44690625,148.2119999512458L252.50878125,145.78554407265327L252.75628125000003,143.90738598211533L252.94190625,145.88639185252146L253.00378125,147.36878102673504L253.06565625,149.55203876686144L253.18940625000002,151.24597201620765L253.4585625,151.80122332101203" style="fill: none;" fill="none"></path></g></g></g></g><g opacity="0.2"><g><g><g><path stroke="rgb(0, 119, 187)" stroke-width="2px" d="M31.243781249999998,23.58418997128803L31.86253125,30.932702382405584L31.92440625,-2.01865061124165L32.11003125,22.782786846160874L32.17190625,32.61376635233562L32.23378125,6.443076690038037L32.35753125,35.981638193130486L32.605031249999996,50.45830821990967L32.66690625,35.0751568476359L33.471281250000004,52.70468926429748L33.90440625,60.21111206213633L33.96628125,45.51761563618977L34.02815625,54.49311729272207L34.33753125,40.94120359420776L34.70878125,35.79239424069721L34.77065625,59.26982736587525L34.832531249999995,61.45697589715322L34.89440625,61.942253470420845L35.080031250000005,73.89300203323364L35.14190625,63.80332426230113L35.32753125,63.13574230670929L35.38940625,52.406510472297654L35.760656250000004,59.745609919230134L36.07003125,64.67385347684224L36.503156249999996,58.67764290173848L37.12190625,72.45647585391998L37.369406250000004,77.51817719141643L37.555031250000006,72.0919843117396L37.61690625,68.12630132834117L38.17378125,76.42361239592233L38.48315625,66.67036310831705L38.73065625,67.37267808119455L38.792531249999996,69.6595712105433L38.916281250000004,72.15037282307944L39.040031250000006,87.33586366971332L39.41128125,59.177573283513375L39.47315625,67.88504576683044L39.90628125,81.39008220036823L40.03003124999999,65.08424933751424L40.09190625,81.21376788616179L40.27753125,86.99001049995421L40.71065625,73.90390372276306L40.89628125,73.58375744024912L41.020031249999995,74.21570376555124L41.143781249999996,92.8858903646469L41.51503125,87.691282192866L41.57690625,88.69565602143604L41.63878125,79.3496727546056L41.94815625,81.82908034324646L42.38128125,88.09657887617746L42.44315625,72.44198715686798L42.505031249999995,83.33190755049387L42.752531250000004,79.09430360794067L42.81440625,83.54245082537332L42.876281250000005,91.09192943572998L43.30940625,80.49794888496398L43.49503125,87.1603816350301L43.556906250000004,81.40166378021239L43.61878125,77.99980914592743L43.68065625,80.55720484256743L43.80440625,108.54633148511249L44.05190625,102.51092171669006L44.175656249999996,85.23194309075673L44.29940625,88.13863829771675L44.60878125,96.1493521531423L44.67065625,114.42093547185263L44.856281249999995,82.55065496762593L45.16565625,89.76289625962573L45.784406249999996,83.59781499703725L46.09378125,90.32459115982056L46.15565625,101.66570083300272L46.21753125,89.99962703386942L46.96003125,87.93482359250386L47.021906249999994,87.39767507712045L47.08378125,86.54737846056618L47.76440625,100.72218890984853L47.95003125,100.16119734446207L48.07378125,92.76244338353473L48.197531250000004,99.5833022991816L48.44503125,107.3740481932958L48.63065625,98.82901088396707L48.816281249999996,93.3675105969111L48.94003125,88.09955632686614L49.24940625,93.67510235309601L49.37315625,93.27897246678668L49.43503125,93.19798346360523L49.93003125,85.61160322030385L50.05378125,88.87036438783008L50.30128125,103.27623204390206L50.548781250000005,94.57728163401285L50.67253125,91.41547516981758L50.73440625,107.29209796587624L50.92003125,106.14000038305917L51.848156249999995,108.18909601370493L51.91003125,91.38151582082112L52.219406250000006,95.600364168485L52.34315625,92.25516315301259L52.40503125,106.45713404814401L52.77628125,89.53698511918384L52.900031250000005,109.9963968594869L53.14753125,75.22727505366007L53.39503125,104.15382977326709L53.456906249999996,92.91477398077646L53.518781249999996,93.60970393816629L53.580656250000004,94.83496006329854L53.64253125,98.52887447675067L53.704406250000005,106.76287368933359L54.385031250000004,94.95149091879526L54.88003125,102.88346644242604L55.12753125,90.16079620520273L55.25128125,99.81138205528259L55.37503125,98.5098023811976L55.56065625,111.11948188145954L55.870031250000004,92.12329959869385L55.99378125,106.59040427207947L56.30315625,116.28908650080362L56.612531249999996,125.92208898067474L56.67440625,100.37705079714456L57.04565625,105.88470156987509L57.10753125,108.5931970278422L57.35503125,80.77290590604144L57.97378125,92.46433492501575L58.03565625,107.18098278840384L58.159406249999996,107.4593861500422L58.40690625,102.16273581981658L58.46878125,95.00513192017873L58.59253125,113.88651823997498L58.840031249999996,91.70039610068002L58.96378125,113.46564269065857L59.21128125,108.14030802249908L59.520656249999995,88.60898172855377L59.76815625,109.1900703907013L59.83003125,113.55149642626444L59.95378125,125.09909347693124L60.07753125,114.56851855913797L60.325031249999995,94.21833471457163L60.38690625,106.80558955669402L60.696281250000006,107.72003030776978L60.75815625,98.02724436918894L61.129406249999995,102.14552756150562L61.25315625,118.74250586827594L61.56253125,111.57884156703948L61.81003125,107.97750945885977L62.49065625,108.73837705453238L62.55253125,104.40633869171143L62.61440625,113.52582470575967L62.676281249999995,113.6107758283615L62.73815625,103.42763658364613L62.800031249999996,94.05965065956116L62.98565625,119.31388334433237L63.04753125,111.88056047757465L63.10940625,117.95341110229492L63.97565625,107.24094208081563L64.03753125,126.69526493549347L64.16128125,106.4816218217214L64.22315625,113.48133877913156L64.28503125,118.63903359572092L64.40878125,103.74873236815134L64.53253125,105.74568744500478L64.65628125,123.10175156593323L64.78003125000001,113.97789315382639L65.02753125,124.48990003267922L65.15128125,121.29256343841551L65.39878125,112.54319564501444L65.77003125,114.08660527070364L65.89378125,115.36870257059732L66.14128125,110.17235950628914L66.32690625000001,119.63707741101584L66.45065625000001,129.05046359697977L67.13128125,116.98938524723053L67.19315625,98.35472877820334L67.37878125,119.20048232873279L67.50253125,112.9261614481608L67.56440625,126.25787274042763L67.75003124999999,111.88338553905487L67.87378125,124.39916984240212L68.30690625,125.12682831287384L68.61628125,129.01901280879974L68.92565625,123.5635846455892L68.98753125,119.71029456456503L69.11128125,134.0926239490509L69.48253125000001,139.9595733086268L69.54440625,125.28442219893135L69.73003125,132.67323569456735L69.85378125,143.0836458603541L69.91565625,133.1193257967631L70.16315625,139.28807026147842L70.41065624999999,133.6240622997284L70.78190625,128.6701470216115L70.84378125,131.6531306107839L71.15315625000001,138.50287900368372L71.27690625,123.60593712329865L71.52440625,125.07773554325104L71.71003125,132.7746682961782L71.83378125,127.29966398080191L72.26690625,117.49059335390724L72.45253125,135.02773102124533L72.76190625000001,129.60591053962708L72.82378125000001,129.82601916790009L73.07128125,132.97394649187723L73.31878125,134.0978403488795L73.81378125,130.20531590779623L73.93753125,137.62003556887308L74.06128125,133.0694593588511L74.12315625000001,124.7238057454427L74.43253125000001,137.01442913214365L74.92753125,139.1974690159162L75.23690625,136.42858640352884L75.36065624999999,128.876282731692L75.54628125,134.88339499632517L75.60815625,140.45933957894644L75.73190625,131.15628317991892L75.85565625000001,127.15314761797585L75.91753125,145.59464490413666L76.04128125,149.619314233462L76.10315625000001,137.9073361158371L76.22690625,142.52132381995517L76.28878125,142.34336253007254L76.35065625,141.65527250369388L76.66003125,141.79644352197647L76.90753125,133.14796324570975L77.03128124999999,147.69650822877884L77.77378125000001,128.52883533636728L78.26878125,138.61706540981928L78.33065624999999,151.19682973623276L78.57815625,133.369021375974L78.76378125000001,147.8877332409223L78.94940625,143.92744249105453L79.01128125,145.2350122332573L79.13503125000001,146.27942339579263L79.25878125,136.64802686373392L79.38253125,139.68489176034927L79.75378124999999,144.88842642307281L80.74378125000001,142.5837506453196L80.80565625,144.54179372390112L80.86753125,138.31254488229752L80.92940625,121.01120607058206L81.11503125,144.8451420267423L81.61003125,147.65009985367456L81.67190624999999,145.5778176188469L82.22878125,138.24241654078165L82.47628125,143.27039883534113L82.53815625,138.43113885323206L82.66190625,142.7870612939199L82.72378124999999,136.84899306297302L82.90940625,134.0389008919398L82.97128125,143.74927606185278L83.15690625,149.00536741813022L83.28065624999999,145.3575155735016L83.65190625,144.27750980854034L84.02315625,142.17237011591592L84.20878125,132.97618544101715L84.33253125,140.64159707228342L84.58003125,139.44651987155277L84.82753125,147.3087304433187L84.88940625000001,142.78492784500122L85.69378125,127.27670009930928L85.81753125,148.029168009758L86.18878125,140.3293398618698L86.37440624999999,136.42026360829672L86.49815625000001,142.09536667664844L86.56003125,152.09244455893835L86.74565625000001,154.4260039528211L86.80753125000001,132.05821629365286L87.11690625,138.15678552786508L87.17878125,142.8047794699669L87.30253125,138.22574750582376L87.36440625,141.79377671082815L87.79753125,127.90796653429666L87.85940625,125.26791727542876L87.98315625,148.65854130188623L88.41628125000001,140.94586557149887L88.54003125,149.01211943229038L88.60190625,138.7283388376236L88.66378125,131.62165637811026L89.28253125,133.45693822701773L89.71565625,142.64317657550174L89.90128125,154.1310898065567L90.08690625000001,139.0329355597496L90.39628124999999,141.84987938404083L90.58190625,148.26912826299667L90.82940625,137.55391037464142L90.89128125,143.5399225950241L91.51003125,138.29215989510217L91.57190625,141.65531939268112L91.75753125,141.52119344472885L92.00503125,133.50355760256448L92.25253125,138.21458792686462L92.37628124999999,144.19406499465308L92.50003125,141.14284620682398L92.62378125,146.98440517981845L92.80940625000001,144.99410833915076L92.99503125,136.69842080275217L93.05690625,132.7990388472875L93.11878125000001,144.74465306599936L93.24253125,138.4730634689331L93.67565624999999,142.20676318804422L93.79940625,151.867647031943L94.23253125,155.09991592168808L94.48003125000001,150.8526880145073L94.60378125,138.4891522526741L95.03690625,133.87407437960306L95.09878125,130.65896685918173L95.16065625,147.3381415605545L95.53190625,140.82770532369614L95.71753125,140.536911547184L96.33628125,134.56213510036469L96.46003125,146.06474216779074L96.58378125,137.77369078000388L96.70753124999999,137.7021674911181L97.20253125,156.18649200598398L97.26440625,142.76266729831696L97.32628125,131.4545557498932L97.38815625,144.05057297150293L97.63565625,131.81868390242258L97.82128125,139.42129359642664L98.19253125,148.2132600347201L98.25440625,149.06882580121356L98.50190625,136.64181407292685L98.93503125,125.06563818454742L99.18253125,134.9928456147512L99.24440625,129.57142368952432L99.30628125,144.76007368167242L99.49190625,146.44971833626428L99.61565625,145.99842355648676L99.73940624999999,139.9527626832326L99.80128125,152.6699586311976L99.92503125,150.42993104457855L100.35815625,142.15818033615747L100.42003125000001,129.79096964995065L100.60565625,138.44217534859976L100.66753125,142.41727715730667L100.79128125000001,135.59174692630768L100.85315625,140.42657589912415L101.03878125,137.08083566029865L101.16253125,145.0266434351603L101.47190625,143.17631608247757L101.90503125,150.5728779832522L102.21440625,146.7158953944842L102.27628125,132.81386748949686L102.89503125,138.03438768784204L103.01878124999999,127.4092787106832L103.20440625,141.53705364465714L103.63753125,137.8091798822085L103.76128125000001,140.21028872330982L103.82315625,138.72526760896045L103.88503125,146.1250120997429L104.13253125,159.80817393461862L104.25628125,137.73742214838663L104.56565625,133.6918989419937L104.81315625,149.1167815128962L104.87503125,147.33323580026627L105.06065625,143.27474192778269L105.55565625,132.7397125562032L105.61753125,147.26573910315832L105.67940625,149.51779371500015L106.11253125,141.97442825635275L106.36003124999999,143.34585493803024L106.66940625,146.29883543650308L106.79315625000001,143.15835173924765L107.04065625,147.12344274918237L107.96878124999999,157.77388936281204L108.09253125000001,132.3403942187627L108.27815625,150.1561814149221L108.34003125,151.56916346152624L108.40190625000001,139.06077003479004L108.46378125000001,143.7298522988955L108.58753125,141.75335254271826L108.77315625,143.56197214126587L108.95878125,150.99750465154648L109.02065624999999,130.07961825529733L109.39190624999999,145.67644860347113L109.63940625,138.42747565110525L109.94878125,139.11934024095535L110.01065625,139.79848033189774L110.07253125000001,143.6916143298149L110.32003125,147.96636021137238L110.50565625,141.56747287511826L110.81503125,148.69439379374185L111.00065624999999,134.79690825939178L111.31003125,144.81203840176263L111.37190625,151.58449616034827L111.55753125,138.14369763930637L111.80503125,133.87807166576385L112.05253124999999,139.19816648960114L112.36190624999999,136.57771682739258L112.67128124999999,138.9771845539411L112.79503125000001,146.45447756846744L112.98065625,131.1010948419571L113.04253125,141.02734690904617L113.59940625,139.00781478484473L114.21815625,136.38590570290881L114.40378125000001,151.809721549352L114.77503125,148.04700926939645L115.14628125,160.2438839872678L115.39378124999999,152.14339530467987L115.45565625,132.5823765595754L115.51753125,134.77795338630676L115.64128124999999,132.68875594933826L116.07440625000001,136.12066642443338L116.13628125000001,143.67142862081528L116.38378125000001,145.25983409086862L116.75503125,138.85704910755157L117.00253124999999,141.57673345009485L117.18815625,142.63003007570902L117.43565625000001,138.2646536429723L118.67315624999999,146.7897221048673L118.92065625,145.27302161852518L119.53940625,141.95998058716455L119.84878125,142.76342338323593L119.97253125,140.8948679367701L120.03440624999999,132.3747521241506L120.09628125,156.65246303876242L120.15815625,137.47608637809753L120.65315625,140.17688618103662L121.02440625,152.6910703976949L121.14815625,138.91316350301105L121.21003125,135.63249345620474L121.33378125,134.07501713434854L121.39565625,144.1277170777321L122.13815625000001,138.59202082951862L122.20003125,149.22049995263419L122.32378125,147.61143988370895L122.75690625,154.37075114250183L123.00440624999999,139.94361346960068L123.19003125,137.23735109965006L123.43753125,142.9012008110682L123.68503125,138.5772683819135L123.74690625000001,139.17309260368347L123.93253125,140.7739119331042L124.36565624999999,146.8599383632342L124.42753125,150.02980973323187L124.48940625,146.78336278597513L124.61315625,152.65651321411133L124.79878125,146.23432791233063L125.54128125,139.06562304496765L125.91253125,137.30215167999268L126.09815625,139.2956662774086L126.16003125,134.4012589852015L126.34565624999999,137.03408734003702L126.77878125000001,149.96990319093067L126.96440625,139.40718001127243L127.02628125,152.280516286691L127.64503125,134.52529207865396L127.83065625,147.76372945308685L127.89253125,138.82219300667444L128.01628125,141.79080512126288L128.26378125,131.70195376873016L128.32565625,139.53378613789877L128.51128125,142.95263216892877L128.75878125,148.75751223166785L129.06815625,141.79253415266672L129.68690625,145.6269572774569L129.74878125,148.49961107969284L129.81065625,145.76379692554474L130.05815625,142.35030210018158L130.18190625,145.3649416168531L130.67690625,134.88053476810455L131.66690625,147.16880198319754L131.91440625,139.94764592250186L132.16190625,141.0233906507492L132.28565625000002,129.35661351680756L132.47128125,152.70227686564127L132.84253125,144.25761129458746L132.90440625,136.19224246342978L133.33753125,141.9510013461113L133.83253125,141.26511510213217L134.08003125,143.4642554918925L134.32753125,148.13070025046667L134.57503125,140.2014267047246L134.76065625,147.16815139849982L134.88440625,153.38968700170517L135.25565625000002,140.89351401726404L135.31753125,155.07735059658685L135.37940625,141.18663465976715L135.44128125,152.6828355193138L135.75065625,139.6282322804133L135.81253125,149.72339606285095L135.87440625000002,137.4116374651591L136.30753125,128.8942177693049L136.43128124999998,148.93272465467453L136.61690625,137.68776671091715L136.74065625,144.57769310474396L136.80253125,151.86928814649582L136.86440625,153.1700589855512L136.92628125000002,137.48117383321127L137.29753125,147.4256657163302L137.54503125,147.25965525706607L137.60690625,149.72042447328568L137.73065625,151.3289101521174L138.04003125,137.92709982395172L138.53503125,141.81586142381033L138.59690625000002,141.04002451896667L138.84440625,139.35850338141123L138.96815625,139.01492432753244L139.27753125,148.71429816881815L139.46315625,143.5904220342636L139.52503124999998,139.99387846390405L140.20565625,143.1552980939547L140.82440625,150.8292083541552L140.94815624999998,143.75350779294968L141.13378125,145.1348514954249L141.38128125,159.55487962563834L141.44315625000002,142.82987093925476L141.50503124999997,145.79727566242218L141.69065625,137.89999798933664L141.87628125,137.6689876715342L142.12378124999998,142.56912128130594L142.37128125,137.96716060241064L142.49503125,138.88143138090769L143.54690625,150.92287496725717L143.79440624999998,138.1051021416982L143.98003125,143.55149245262146L144.04190625,151.13749172290167L144.22753125000003,142.87835415204367L144.35128125,144.5483874877294L144.59878125,134.76805981000263L144.72253125,150.65107123057047L145.27940625000002,150.47956889867783L145.52690625,144.8209766149521L146.08378125,150.90932404994965L146.39315625,142.44507060448328L146.45503125,140.938884973526L146.51690624999998,141.36307205756506L146.95003125000002,147.89275036255518L147.32128125,142.05635503927866L147.50690625000001,154.12555104494095L147.69253125,139.57033024231592L147.81628125,136.85917969544727L148.24940625,145.84182020028433L148.49690625,147.79083714882532L148.68253124999998,132.35409752527872L149.05378125000001,146.13883848985037L149.11565625,140.98572707176208L149.17753125,142.122984290123L149.36315625,146.21759440501532L149.67253125000002,148.6242302854856L150.04378125,149.33628644545874L150.10565625,138.4185315767924L150.72440625000002,140.31330382823944L150.78628125,144.50870182116827L151.03378125,147.8390859166781L151.09565625,149.9723531405131L151.15753125,141.4887462655703L151.34315625000002,144.4834696849187L151.46690625,146.60781627893448L151.83815625000003,143.39637782176337L152.02378124999998,151.06226420402527L152.27128125000002,142.82727446158725L152.33315625,146.85744738578796L152.45690624999997,139.2335032025973L152.51878125,144.43409558137256L152.64253125,145.70856755971909L153.32315625,153.72370656331378L153.44690625,146.1348939538002L153.94190625000002,143.0697725812594L154.00378125,131.7531799872716L154.18940625,139.15818776686984L155.79815624999998,145.03180122375488L156.04565625,147.87699566284815L156.35503125,149.00252477327982L156.66440625,136.53477823734283L156.91190625,134.77818783124286L156.97378125,151.19743343194327L157.22128125,128.2981415192286L157.40690625,145.74791328112283L157.65440625,140.24185673395792L158.08753124999998,153.56341656049094L158.14940625,151.413755774498L158.21128125,145.073086977005L158.89190625,144.49988083044687L158.95378125000002,133.54936814308167L159.07753125,144.71631453434625L159.32503125,141.69803526004156L159.63440624999998,150.73675499359766L160.12940625,147.12983723481494L160.25315625,142.9128468632698L160.37690625,140.65807855129242L160.74815625,141.38812836011252L160.81003124999998,140.68846261501312L160.93378125,140.32561804850897L161.11940625,152.7369629939397L161.24315625,148.884974082311L161.49065625,158.0617115497589L161.55253125000002,140.74583715200424L161.80003125,141.85704167683917L161.86190624999998,136.5817492802938L162.10940625,142.83984071016312L162.17128125000002,145.60827787717184L162.35690624999998,134.5639989376068L162.41878125,149.84492059548697L162.60440625,141.96515595912933L163.16128125,160.328723748525L163.34690625000002,145.83356773853302L163.96565625000002,149.0261978507042L164.58440625,148.81291157007217L164.77003125,143.87397146224976L165.20315625,143.12192485729852L165.63628125,150.17325486739475L166.31690625,133.6836347579956L166.44065625,145.77772295475006L166.75003124999998,151.06187150875726L167.05940625,139.0448336402575L167.18315625000002,155.69507783651352L167.30690625,152.97257429361343L167.67815625,155.19657756884894L167.80190625,143.6169377565384L167.98753125,147.75824344158173L168.04940625,134.4205186367035L168.42065624999998,138.22234805425006L168.66815625,137.8795426686605L169.34878125,138.89560943841934L169.53440625,145.57410752773285L169.72003125,136.8278226852417L169.84378125,139.35012197494507L170.64815625,141.89576611916223L171.08128125000002,149.39020291964212L171.26690625,150.27123526732126L171.82378125,139.54810486237207L172.13315625,131.3445190191269L172.81378124999998,143.63947377602258L173.30878124999998,140.5487979054451L173.61815625,143.12903439998627L173.68003125,142.11001948515573L173.98940625,141.18562654654184L174.29878125000002,146.93319654464722L174.48440624999998,140.36101337273917L174.79378125,145.8831762870153L175.28878125,153.56378581126532L175.47440625000002,139.61261824766794L175.78378125,150.66446975866953L175.90753125,146.1292731364568L175.96940625000002,144.03324162960052L176.03128124999998,145.3289894858996L176.15503124999998,144.49799940983453L176.52628125,151.0148477156957L176.83565625,142.1666731039683L176.95940625,148.89738208055496L177.82565624999998,146.06942520538965L178.13503125,152.84923281272253L178.50628125,147.41925364732742L178.81565625,148.1388413508733L178.93940625,138.25108514229456L179.06315625,133.1070408821106L179.12503125,143.45201160510382L179.31065625000002,138.063277165095L179.37253124999998,142.16317987442017L180.42440624999998,146.94970732927322L181.22878125,140.62595959504443L181.41440625,142.44558638334274L181.66190625,152.11482232809067L181.72378125,137.37400905291238L181.90940625000002,141.53031335274378L182.03315625000002,145.2963899175326L182.09503124999998,135.74803964296976L182.83753125,140.93111898501712L183.33253125,146.89995225270587L183.45628125,154.12460154294968L183.51815625,147.53404961029688L183.76565624999998,141.29626697301865L184.01315625,148.90321975946426L184.26065624999998,146.29708882172903L184.69378125,155.81935123602548L184.75565625000002,144.7781611084938L185.00315625,151.1862914363543L185.25065625000002,143.7851461370786L185.56003125,156.50024966398874L185.68378125,152.51530116796494L185.86940625000003,150.22961543003717L185.99315625,156.46127319335938L186.05503124999998,146.90267767508826L186.17878125000001,135.5131140947342L186.30253125000002,148.43364999691644L186.48815624999997,137.73103938500086L186.73565625,139.36471617221832L186.79753125,148.33467320601144L186.85940625,148.32019623120624L186.98315625,140.38880681991577L187.10690624999998,137.96277648210526L187.41628125,151.32017121712366L187.54003125,151.88397026062012L187.60190624999998,149.01427046457925L188.03503125,138.88983623186746L188.15878124999998,145.54769730567932L188.34440625,138.9498834411303L189.70565625,147.12138549486795L189.76753125,158.04612682263055L189.89128125,155.15472328662872L190.32440624999998,151.0254973769188L190.44815624999998,158.5266275803248L190.51003125,138.89563288291296L190.81940625000001,147.4451656738917L190.88128125,144.55179280042648L190.94315625,146.59755931297937L191.12878125,145.8316745956739L191.19065625000002,141.16029477119446L191.37628124999998,146.24610290924707L191.80940625000002,153.7633629242579L191.93315625,144.06352019309998L192.05690625,152.4772273103396L192.24253125,149.10427387555438L192.92315625,142.59870823224384L192.98503125000002,140.63503261407214L193.04690624999998,152.10713839530945L193.54190625,143.8821008404096L193.60378125,143.62931644916534L193.91315625000001,139.85892023642856L193.97503125,155.93266433477402L194.03690625000002,153.62502282857895L194.09878125,154.32352221012115L194.22253125,142.02567791938782L194.28440625,149.02674293518066L194.34628125,137.24756117661795L194.53190625000002,150.35827881097794L195.21253124999998,146.4271940390269L195.58378125000002,148.71671295166016L195.70753125000002,143.46532807747522L196.20253125000002,150.68234032392502L196.26440625,145.04388686021167L196.32628125,142.38163566589355L196.45003125,154.41259370247522L196.88315624999998,147.12240533034006L197.06878125,151.9282100200653L197.19253125,156.25982052087784L197.37815625000002,144.30671578645706L197.50190625,145.05723849932352L197.62565625,142.46836270888645L198.18253125,146.97616444031397L198.43003125,139.29118251800537L198.55378125,149.6186870932579L198.67753125,148.20653732617697L198.80128125,147.94661994775134L198.86315625,145.6213305989901L199.11065624999998,140.93576685587564L199.17253125,151.72994579871497L199.23440625,141.9498173991839L199.54378125000002,145.9029458562533L199.85315625,152.51010821262994L199.91503125,138.36105153958002L200.16253124999997,143.05983797709146L200.47190625,136.67580858866373L200.53378125,145.27966813246408L200.59565625000002,140.57892407973608L200.65753125,140.1480084260305L200.78128124999998,148.61268973350525L200.84315625,147.70543471972147L201.33815625,136.75269480546316L201.40003124999998,147.71859880288443L201.46190625,158.33996838331223L201.77128125000002,147.36415322621662L201.83315624999997,137.11218094825745L202.08065625,140.6857606371244L202.26628125000002,151.35597095886865L202.45190624999998,145.33616936206818L202.57565625,145.47538276513416L202.69940625,140.93139445781708L202.88503125,142.99265778064728L202.94690624999998,153.04782525698343L203.25628125,143.92470534642538L203.31815625000002,147.80795162916183L204.06065625,153.19210853179297L204.18440625,140.5444020628929L204.98878125000002,139.4964507818222L205.05065625,142.66273514429727L205.73128125,148.13328500588736L205.79315624999998,157.05008165041605L206.35003125,138.0135865608851L206.47378125,148.14680661757785L206.59753125,154.05068105459213L206.78315625,142.81965500116348L206.96878125,142.95922007163367L207.15440625000002,140.1923126578331L207.40190625,149.06045025587082L207.46378124999998,156.41695137818655L207.77315625,145.1855150461197L207.89690625,147.0315286119779L208.02065625,142.9885022441546L208.08253125,147.42570674419403L208.33003125000002,139.219272394975L208.45378125,154.47046057383218L208.63940625,141.84748218456903L209.13440624999998,152.20628515879312L209.25815625,147.05498482783634L209.32003125,138.43817220131555L209.44378125,145.7844339410464L209.75315625,145.04742111762363L209.87690625000002,150.30395205815634L210.00065625000002,147.81175549825033L210.12440625,149.87087951103845L210.61940625,142.06743842363358L211.11440624999997,146.21322786808014L211.17628125,143.56774534781775L211.30003125,139.285620311896L211.36190625,154.23224107424417L211.54753125000002,154.86733482281366L211.67128125,148.0533275604248L211.73315624999998,144.29919596513113L211.91878125,150.7305832306544L212.29003125,137.66722347338995L212.53753125,162.40059570471445L212.59940625000002,137.74327741066614L213.46565625,149.84921093781787L213.65128125,141.1600075761477L213.83690625000003,150.76502319176993L214.02253125,140.44212545951206L214.27003125000002,145.57094252109528L214.45565624999998,154.81440301736197L214.51753125,143.37257579962412L214.57940625,148.05414225657782L214.95065624999998,149.53871206442514L215.26003125,140.85672960678735L215.32190625,140.44713672002155L215.63128125,144.63693734010062L215.75503125,153.4420561393102L216.18815625,148.3086087902387L216.37378125,144.2930769522985L216.49753125,156.91914415359497L216.55940625000002,140.62992757558823L216.68315625,148.2575290997823L216.74503124999998,137.38103067874908L216.86878125,151.52542189757028L217.05440625,135.36442911624908L217.24003125,137.78434630235037L217.73503125,149.62550357977548L217.79690624999998,151.80961604913074L218.10628125,147.20345880587897L218.35378125,157.9816310207049L218.41565624999998,146.1618785659472L218.72503125,141.14283448457718L219.52940625,135.57321405410767L219.59128125,146.89150051275888L219.65315625,141.2937818566958L219.71503125,148.5474202632904L220.27190625,148.40846474965414L220.70503125,158.51807034015656L220.89065625,152.81442946195602L221.20003125,153.50578999519348L221.38565625,140.20129776000977L221.75690625,143.50142673651376L221.81878125,154.2263096173604L221.88065625000002,147.7956374088923L222.19003125,139.97053360939026L222.43753125,150.21264747778574L222.56128125,145.70086604356766L222.74690625,143.02351659536362L222.99440625,147.4755321542422L223.05628125,137.49134874343872L223.11815625000003,136.5775996049245L223.24190625,140.44424132506052L223.48940625,142.3939674695333L223.55128125000002,146.67721198002496L223.67503125000002,147.95480207602182L223.73690624999998,162.59053126970926L223.98440625,141.10454376538596L224.04628125,144.69864324728647L224.10815625,151.51875193913776L224.41753125,145.33895339568457L224.54128125,154.33719621102014L225.16003125,139.42686166365942L225.22190625000002,165.77132777372995L225.46940625,146.88882197936374L225.59315625,145.66077009836832L225.90253124999998,145.93308375279108L226.02628124999998,136.11134723822275L226.21190625,156.57903488477072L226.33565625,137.22844219207764L226.95440625,152.08185937007266L227.14003125,155.1768255829811L227.32565625,149.04253866275153L227.63503125,147.3488146662712L227.82065625,150.75985954205194L228.19190625,148.07349568605423L228.37753125,139.19058805704117L228.50128125,137.46043717861176L228.81065625,149.9514523744583L228.93440625,149.76430670420328L229.18190625000003,147.66156421105066L229.24378124999998,149.36449017127353L229.73878125,149.09806108474731L229.98628125,144.6111718416214L230.04815625,149.9643058180809L230.23378125000002,145.0202020605405L230.35753125,135.852344195048L230.48128125,142.5955842534701L230.79065625,147.35056714216867L231.03815625,154.96143515904743L231.28565625000002,148.00247059265772L231.53315625,148.27296143770218L231.65690625,157.40691270430884L232.02815625,141.08500277996063L232.77065625,152.47787789503732L232.89440625,153.90549516677856L233.01815625,147.03197991847992L233.20378125,149.33350241184235L233.38940625,155.63599771261215L233.57503125000002,147.0170633594195L233.63690624999998,140.51758742332458L233.94628125,150.53936407963434L234.44128125,149.22808424631754L234.81253125,138.6853064695994L234.99815625,142.71842753887177L235.06003125,139.2187800606092L235.55503125,142.36033048232395L236.05003125,146.9442623456319L236.60690625,150.65269476175308L236.85440625,147.51028275489807L237.28753125,132.7946312824885L237.65878125,154.48531852165857L237.78253125,147.7090803384781L237.96815625,154.84976903597513L238.09190625,156.8254306515058L238.46315625000003,153.43311792612076L238.58690625,155.9030539393425L238.64878124999998,136.60950756072998L239.02003125000002,145.45667992035547L239.14378125,137.65891826152802L239.20565625,151.30366043249765L239.26753125,149.38779399792352L239.51503125000002,146.20840416351953L239.57690625,148.26941545804343L239.63878125,150.41561232010523L239.76253125,141.91417004664737L239.94815625,142.06279055277506L240.07190625,141.94703922669092L240.38128125,148.0259326696396L240.44315625,153.86561022202173L240.62878125,150.6128860116005L240.93815625,149.3175308505694L241.00003125,138.11203585068384L241.18565625000002,149.63532096147537L241.49503125,137.38335168361664L241.61878125,145.021169145902L241.80440624999997,151.3968757390976L241.86628125,145.58508541186652L241.92815625,154.11904519796371L242.11378125000002,147.85992221037546L242.29940625,152.08163078625998L242.48503125,142.18386377890906L242.73253125,152.4359650015831L242.98003125,141.25909572839737L243.10378125,152.50728315114975L243.41315625000001,149.08504939079285L243.47503124999997,164.44957411289215L243.59878125,143.00406938791275L243.78440625000002,145.5631237824758L244.09378124999998,134.45887382825217L244.21753125,152.3265085220337L244.71253124999998,149.33172649145126L244.77440625,141.0463369488716L245.02190625,151.57437986135483L245.14565625,148.2544520099958L245.45503125000002,141.06639957427979L245.57878125000002,156.94774057467777L245.70253125,159.58104368050894L245.82628125,149.98741622765857L246.01190625,147.4622742931048L246.32128125,150.3584487835566L246.38315624999998,136.32602846622467L246.44503125,147.7256380120913L246.50690625000001,129.80319595336914L246.56878125,149.82016321023306L246.63065625000002,153.74280210336048L246.87815625,149.5563188791275L247.00190625,135.77300802866617L247.12565625000002,142.36653155088425L247.31128124999998,151.69817264874777L247.49690625,149.621336321036L247.55878125,153.96578268210092L247.74440625,141.7182795802752L248.36315625,151.54183304309845L248.42503125,155.3645280599594L248.73440625,156.92218021551767L248.79628125000002,150.03308610121408L249.16753125,141.81023474534354L249.47690624999998,147.62230054537454L249.72440625,150.2199562986692L249.78628125,145.60975488026938L249.97190625000002,146.88626066843668L250.09565625,151.32992412646612L250.15753125,142.1212083697319L250.28128125,151.90855181217194L250.59065625,141.90771108865738L250.65253124999998,155.64089761177698L250.90003125,145.7640958428383L251.14753125,144.13083519538242L251.27128125,142.41203731298447L251.45690625,137.66709452867508L251.64253125000002,126.747874379158L251.82815625,161.65722942352295L252.07565625,150.62419211864471L252.19940625,146.4133266210556L252.26128125,150.49789077043533L252.44690625,147.6175882021586L252.50878125,142.14586025476456L252.75628125000003,141.09014884630838L252.94190625,148.85490065813065L253.00378125,149.59236478805542L253.06565625,152.82692537705103L253.18940625000002,153.786871890227L253.4585625,152.63410027821857" style="fill: none;" fill="none"></path></g></g></g></g></g></g><g transform="translate(51, 177)" clip-path="url(#clip_1)"><clipPath id="clip_1"><rect width="278" height="23"></rect></clipPath><g><g><line x1="0" y1="0" x2="0" y2="5" style="visibility: inherit;" fill="rgb(0, 0, 0)" stroke="rgb(204, 204, 204)" stroke-width="1px"></line><line x1="30.9375" y1="0" x2="30.9375" y2="5" style="visibility: inherit;" fill="rgb(0, 0, 0)" stroke="rgb(204, 204, 204)" stroke-width="1px"></line><line x1="61.875" y1="0" x2="61.875" y2="5" style="visibility: inherit;" fill="rgb(0, 0, 0)" stroke="rgb(204, 204, 204)" stroke-width="1px"></line><line x1="92.8125" y1="0" x2="92.8125" y2="5" style="visibility: inherit;" fill="rgb(0, 0, 0)" stroke="rgb(204, 204, 204)" stroke-width="1px"></line><line x1="123.75" y1="0" x2="123.75" y2="5" style="visibility: inherit;" fill="rgb(0, 0, 0)" stroke="rgb(204, 204, 204)" stroke-width="1px"></line><line x1="154.6875" y1="0" x2="154.6875" y2="5" style="visibility: inherit;" fill="rgb(0, 0, 0)" stroke="rgb(204, 204, 204)" stroke-width="1px"></line><line x1="185.625" y1="0" x2="185.625" y2="5" style="visibility: inherit;" fill="rgb(0, 0, 0)" stroke="rgb(204, 204, 204)" stroke-width="1px"></line><line x1="216.5625" y1="0" x2="216.5625" y2="5" style="visibility: inherit;" fill="rgb(0, 0, 0)" stroke="rgb(204, 204, 204)" stroke-width="1px"></line><line x1="247.5" y1="0" x2="247.5" y2="5" style="visibility: inherit;" fill="rgb(0, 0, 0)" stroke="rgb(204, 204, 204)" stroke-width="1px"></line><line x1="278.4375" y1="0" x2="278.4375" y2="5" style="visibility: inherit;" fill="rgb(0, 0, 0)" stroke="rgb(204, 204, 204)" stroke-width="1px"></line></g><g transform="translate(0, 8)"><text x="0" y="0" dx="0em" dy="0.95em" style="text-anchor: middle; visibility: hidden; font-family: Roboto, sans-serif; font-size: 12px; font-weight: 200;" fill="rgb(33, 33, 33)" stroke="none" stroke-width="1px">-10k</text><text x="30.9375" y="0" dx="0em" dy="0.95em" style="text-anchor: middle; visibility: inherit; font-family: Roboto, sans-serif; font-size: 12px; font-weight: 200;" fill="rgb(33, 33, 33)" stroke="none" stroke-width="1px">0</text><text x="61.875" y="0" dx="0em" dy="0.95em" style="text-anchor: middle; visibility: inherit; font-family: Roboto, sans-serif; font-size: 12px; font-weight: 200;" fill="rgb(33, 33, 33)" stroke="none" stroke-width="1px">10k</text><text x="92.8125" y="0" dx="0em" dy="0.95em" style="text-anchor: middle; visibility: inherit; font-family: Roboto, sans-serif; font-size: 12px; font-weight: 200;" fill="rgb(33, 33, 33)" stroke="none" stroke-width="1px">20k</text><text x="123.75" y="0" dx="0em" dy="0.95em" style="text-anchor: middle; visibility: inherit; font-family: Roboto, sans-serif; font-size: 12px; font-weight: 200;" fill="rgb(33, 33, 33)" stroke="none" stroke-width="1px">30k</text><text x="154.6875" y="0" dx="0em" dy="0.95em" style="text-anchor: middle; visibility: inherit; font-family: Roboto, sans-serif; font-size: 12px; font-weight: 200;" fill="rgb(33, 33, 33)" stroke="none" stroke-width="1px">40k</text><text x="185.625" y="0" dx="0em" dy="0.95em" style="text-anchor: middle; visibility: inherit; font-family: Roboto, sans-serif; font-size: 12px; font-weight: 200;" fill="rgb(33, 33, 33)" stroke="none" stroke-width="1px">50k</text><text x="216.5625" y="0" dx="0em" dy="0.95em" style="text-anchor: middle; visibility: inherit; font-family: Roboto, sans-serif; font-size: 12px; font-weight: 200;" fill="rgb(33, 33, 33)" stroke="none" stroke-width="1px">60k</text><text x="247.5" y="0" dx="0em" dy="0.95em" style="text-anchor: middle; visibility: inherit; font-family: Roboto, sans-serif; font-size: 12px; font-weight: 200;" fill="rgb(33, 33, 33)" stroke="none" stroke-width="1px">70k</text><text x="278.4375" y="0" dx="0em" dy="0.95em" style="text-anchor: middle; visibility: hidden; font-family: Roboto, sans-serif; font-size: 12px; font-weight: 200;" fill="rgb(33, 33, 33)" stroke="none" stroke-width="1px">80k</text></g><line x1="0" y1="0" x2="278.4375" y2="0" fill="rgb(0, 0, 0)" stroke="rgb(204, 204, 204)" stroke-width="1px"></line></g></g></g></g></svg>