<svg viewBox="0 0 330 200" xmlns="http://www.w3.org/2000/svg"><g><g><g><g><g><line x1="51.5625" y1="177" x2="46.5625" y2="177" style="visibility: inherit;" fill="rgb(0, 0, 0)" stroke="rgb(204, 204, 204)" stroke-width="1px"></line><line x1="51.5625" y1="157.33333333333334" x2="46.5625" y2="157.33333333333334" style="visibility: inherit;" fill="rgb(0, 0, 0)" stroke="rgb(204, 204, 204)" stroke-width="1px"></line><line x1="51.5625" y1="137.66666666666669" x2="46.5625" y2="137.66666666666669" style="visibility: inherit;" fill="rgb(0, 0, 0)" stroke="rgb(204, 204, 204)" stroke-width="1px"></line><line x1="51.5625" y1="118.00000000000001" x2="46.5625" y2="118.00000000000001" style="visibility: inherit;" fill="rgb(0, 0, 0)" stroke="rgb(204, 204, 204)" stroke-width="1px"></line><line x1="51.5625" y1="98.33333333333334" x2="46.5625" y2="98.33333333333334" style="visibility: inherit;" fill="rgb(0, 0, 0)" stroke="rgb(204, 204, 204)" stroke-width="1px"></line><line x1="51.5625" y1="78.66666666666666" x2="46.5625" y2="78.66666666666666" style="visibility: inherit;" fill="rgb(0, 0, 0)" stroke="rgb(204, 204, 204)" stroke-width="1px"></line><line x1="51.5625" y1="59.00000000000001" x2="46.5625" y2="59.00000000000001" style="visibility: inherit;" fill="rgb(0, 0, 0)" stroke="rgb(204, 204, 204)" stroke-width="1px"></line><line x1="51.5625" y1="39.33333333333333" x2="46.5625" y2="39.33333333333333" style="visibility: inherit;" fill="rgb(0, 0, 0)" stroke="rgb(204, 204, 204)" stroke-width="1px"></line><line x1="51.5625" y1="19.666666666666675" x2="46.5625" y2="19.666666666666675" style="visibility: inherit;" fill="rgb(0, 0, 0)" stroke="rgb(204, 204, 204)" stroke-width="1px"></line><line x1="51.5625" y1="0" x2="46.5625" y2="0" style="visibility: inherit;" fill="rgb(0, 0, 0)" stroke="rgb(204, 204, 204)" stroke-width="1px"></line></g><g transform="translate(41.5625, 0)"><text x="0" y="177" dx="0em" dy="0.3em" style="text-anchor: end; visibility: hidden; font-family: Roboto, sans-serif; font-size: 12px; font-weight: 200;" fill="rgb(33, 33, 33)" stroke="none" stroke-width="1px">0.2</text><text x="0" y="157.33333333333334" dx="0em" dy="0.3em" style="text-anchor: end; visibility: inherit; font-family: Roboto, sans-serif; font-size: 12px; font-weight: 200;" fill="rgb(33, 33, 33)" stroke="none" stroke-width="1px">0.25</text><text x="0" y="137.66666666666669" dx="0em" dy="0.3em" style="text-anchor: end; visibility: hidden; font-family: Roboto, sans-serif; font-size: 12px; font-weight: 200;" fill="rgb(33, 33, 33)" stroke="none" stroke-width="1px">0.3</text><text x="0" y="118.00000000000001" dx="0em" dy="0.3em" style="text-anchor: end; visibility: inherit; font-family: Roboto, sans-serif; font-size: 12px; font-weight: 200;" fill="rgb(33, 33, 33)" stroke="none" stroke-width="1px">0.35</text><text x="0" y="98.33333333333334" dx="0em" dy="0.3em" style="text-anchor: end; visibility: hidden; font-family: Roboto, sans-serif; font-size: 12px; font-weight: 200;" fill="rgb(33, 33, 33)" stroke="none" stroke-width="1px">0.4</text><text x="0" y="78.66666666666666" dx="0em" dy="0.3em" style="text-anchor: end; visibility: inherit; font-family: Roboto, sans-serif; font-size: 12px; font-weight: 200;" fill="rgb(33, 33, 33)" stroke="none" stroke-width="1px">0.45</text><text x="0" y="59.00000000000001" dx="0em" dy="0.3em" style="text-anchor: end; visibility: hidden; font-family: Roboto, sans-serif; font-size: 12px; font-weight: 200;" fill="rgb(33, 33, 33)" stroke="none" stroke-width="1px">0.5</text><text x="0" y="39.33333333333333" dx="0em" dy="0.3em" style="text-anchor: end; visibility: inherit; font-family: Roboto, sans-serif; font-size: 12px; font-weight: 200;" fill="rgb(33, 33, 33)" stroke="none" stroke-width="1px">0.55</text><text x="0" y="19.666666666666675" dx="0em" dy="0.3em" style="text-anchor: end; visibility: hidden; font-family: Roboto, sans-serif; font-size: 12px; font-weight: 200;" fill="rgb(33, 33, 33)" stroke="none" stroke-width="1px">0.6</text><text x="0" y="0" dx="0em" dy="0.3em" style="text-anchor: end; visibility: hidden; font-family: Roboto, sans-serif; font-size: 12px; font-weight: 200;" fill="rgb(33, 33, 33)" stroke="none" stroke-width="1px">0.65</text></g><line x1="51.5625" y1="0" x2="51.5625" y2="177" fill="rgb(0, 0, 0)" stroke="rgb(204, 204, 204)" stroke-width="1px"></line></g></g><g transform="translate(51, 0)" clip-path="url(#clip_0)"><clipPath id="clip_0"><rect width="278" height="177"></rect></clipPath><g><g><g><line x1="0" y1="0" x2="0" y2="177" fill="rgb(0, 0, 0)" stroke="rgb(66, 66, 66)" stroke-width="1px" opacity="0.25"></line><line x1="25.3125" y1="0" x2="25.3125" y2="177" fill="rgb(0, 0, 0)" stroke="rgb(66, 66, 66)" stroke-width="1px" opacity="0.25"></line><line x1="50.625" y1="0" x2="50.625" y2="177" fill="rgb(0, 0, 0)" stroke="rgb(66, 66, 66)" stroke-width="1px" opacity="0.25"></line><line x1="75.9375" y1="0" x2="75.9375" y2="177" fill="rgb(0, 0, 0)" stroke="rgb(66, 66, 66)" stroke-width="1px" opacity="0.25"></line><line x1="101.25" y1="0" x2="101.25" y2="177" fill="rgb(0, 0, 0)" stroke="rgb(66, 66, 66)" stroke-width="1px" opacity="0.25"></line><line x1="126.5625" y1="0" x2="126.5625" y2="177" fill="rgb(0, 0, 0)" stroke="rgb(66, 66, 66)" stroke-width="1px" opacity="0.25"></line><line x1="151.875" y1="0" x2="151.875" y2="177" fill="rgb(0, 0, 0)" stroke="rgb(66, 66, 66)" stroke-width="1px" opacity="0.25"></line><line x1="177.1875" y1="0" x2="177.1875" y2="177" fill="rgb(0, 0, 0)" stroke="rgb(66, 66, 66)" stroke-width="1px" opacity="0.25"></line><line x1="202.5" y1="0" x2="202.5" y2="177" fill="rgb(0, 0, 0)" stroke="rgb(66, 66, 66)" stroke-width="1px" opacity="0.25"></line><line x1="227.8125" y1="0" x2="227.8125" y2="177" fill="rgb(0, 0, 0)" stroke="rgb(66, 66, 66)" stroke-width="1px" opacity="0.25"></line><line x1="253.125" y1="0" x2="253.125" y2="177" fill="rgb(0, 0, 0)" stroke="rgb(66, 66, 66)" stroke-width="1px" opacity="0.25"></line><line x1="278.4375" y1="0" x2="278.4375" y2="177" fill="rgb(0, 0, 0)" stroke="rgb(66, 66, 66)" stroke-width="1px" opacity="0.25"></line></g><g><line x1="0" y1="177" x2="278.4375" y2="177" fill="rgb(0, 0, 0)" stroke="rgb(66, 66, 66)" stroke-width="1px" opacity="0.25"></line><line x1="0" y1="157.33333333333334" x2="278.4375" y2="157.33333333333334" fill="rgb(0, 0, 0)" stroke="rgb(66, 66, 66)" stroke-width="1px" opacity="0.25"></line><line x1="0" y1="137.66666666666669" x2="278.4375" y2="137.66666666666669" fill="rgb(0, 0, 0)" stroke="rgb(66, 66, 66)" stroke-width="1px" opacity="0.25"></line><line x1="0" y1="118.00000000000001" x2="278.4375" y2="118.00000000000001" fill="rgb(0, 0, 0)" stroke="rgb(66, 66, 66)" stroke-width="1px" opacity="0.25"></line><line x1="0" y1="98.33333333333334" x2="278.4375" y2="98.33333333333334" fill="rgb(0, 0, 0)" stroke="rgb(66, 66, 66)" stroke-width="1px" opacity="0.25"></line><line x1="0" y1="78.66666666666666" x2="278.4375" y2="78.66666666666666" fill="rgb(0, 0, 0)" stroke="rgb(66, 66, 66)" stroke-width="1px" opacity="0.25"></line><line x1="0" y1="59.00000000000001" x2="278.4375" y2="59.00000000000001" fill="rgb(0, 0, 0)" stroke="rgb(66, 66, 66)" stroke-width="1px" opacity="0.25"></line><line x1="0" y1="39.33333333333333" x2="278.4375" y2="39.33333333333333" fill="rgb(0, 0, 0)" stroke="rgb(66, 66, 66)" stroke-width="1px" opacity="0.25"></line><line x1="0" y1="19.666666666666675" x2="278.4375" y2="19.666666666666675" fill="rgb(0, 0, 0)" stroke="rgb(66, 66, 66)" stroke-width="1px" opacity="0.25"></line><line x1="0" y1="0" x2="278.4375" y2="0" fill="rgb(0, 0, 0)" stroke="rgb(66, 66, 66)" stroke-width="1px" opacity="0.25"></line></g></g></g><g><g><line x1="0" y1="255.66666666666666" x2="278.4375" y2="255.66666666666666" fill="rgb(0, 0, 0)" stroke="rgb(153, 153, 153)" stroke-width="1.5px"></line></g></g><g><g><line x1="25.3125" y1="0" x2="25.3125" y2="177" fill="rgb(0, 0, 0)" stroke="rgb(153, 153, 153)" stroke-width="1.5px"></line></g></g><g><g><g><g><g><path stroke="rgb(187, 187, 187)" stroke-width="2px" d="M25.461843750000003,48.63544726371766L25.51246875,44.94264646371206L25.56309375,20.248483592961108L25.664343749999997,19.394028943835515L25.81621875,20.15385661102018L25.866843749999997,25.758752893396423L25.91746875,33.715454115081876L26.018718749999998,41.01160838858431L26.27184375,57.237340558018076L26.42371875,73.88574368704231L26.57559375,85.27432165554609L26.72746875,93.57539828641002L26.82871875,100.68892456728472L26.87934375,98.08493581675839L26.92996875,102.6205820219949L27.081843749999997,103.68289247743026L27.23371875,105.78298022558396L27.33496875,95.91822923049857L27.38559375,96.80832650230539L27.537468750000002,101.53109652705818L27.79059375,105.93543073730692L28.09434375,100.84592524161805L28.144968749999997,110.48462309296356L28.19559375,119.25503897305055L28.24621875,119.85766961820406L28.29684375,119.28483688856718L28.347468749999997,117.51743672215721L28.39809375,119.43142595560217L28.549968749999998,121.032100703037L28.75246875,125.90240050481526L28.85371875,126.16555645654427L29.005593750000003,121.92759303650917L29.10684375,121.63764358805862L29.30934375,122.68728897348694L29.71434375,126.16552125259619L29.86621875,128.74768800325845L29.91684375,122.58290558886642L30.11934375,123.30456109612197L30.22059375,122.40284999667786L30.32184375,121.37100817498228L30.42309375,121.21835941701801L30.52434375,121.94688668264044L30.57496875,127.2009415229218L30.62559375,124.10034817801181L30.67621875,129.42022938592655L30.72684375,129.60233995357353L30.77746875,132.06097899906615L30.828093749999997,128.53236195456677L30.92934375,132.00858839165898L31.08121875,135.5584469466401L31.13184375,136.08934914841467L31.23309375,137.52009255751918L31.486218750000003,134.17713999190315L31.53684375,133.67045626305517L31.58746875,131.39259784179572L31.63809375,132.68446023121112L31.73934375,133.63651794704597L31.89121875,135.24526988573575L31.94184375,132.3328205611765L31.99246875,134.29871024289497L32.043093750000004,131.99804964223756L32.34684375,126.42885843053999L32.39746875,128.5012633907927L32.44809375,131.45032141058445L32.54934375,133.70990087260088L32.70121875,129.80123439830112L32.75184375,133.46775596579855L32.95434375,129.88419835512408L33.35934375,131.67216666983305L33.56184375,128.1051604615454L33.66309375,130.05944845677243L33.76434375,131.92459503969047L33.86559375,135.8611062536269L33.91621875,134.4367647748965L33.96684375,132.49051393161884L34.01746875,135.36218871925672L34.11871875,135.48083062720934L34.16934375,135.33221426657423L34.27059375,136.85206818015328L34.473093750000004,132.92210648515396L34.52371875,137.59745879605555L34.57434375,139.20185259760504L34.62496875,133.19106492071003L34.67559375,135.96503469547818L34.77684375,138.37648472707187L34.87809375,139.1904753298802L35.08059375,136.90718663441595L35.13121875,135.22193186704789L35.23246875,129.46539312138842L35.28309375,134.17990656019066L35.48559375,139.14782150976347L35.73871875,135.2198861463417L35.78934375,136.16817490400172L36.042468750000005,140.60877652252495L36.09309375,142.87230698636043L36.24496875,141.42722343030096L36.295593749999995,145.27420451614768L36.346218750000006,146.94772259219593L36.44746875,147.28900133663876L36.599343749999996,145.1374563083716L36.64996875,143.8646049959859L36.80184375,140.50618894478086L37.206843750000004,141.1245701923792L37.30809375,144.9807542054747L37.45996875,144.4815895809071L37.66246875,144.4496112338704L37.71309375,147.1018211169244L37.76371875,146.36724696893702L37.91559375,148.05496241056449L37.966218749999996,144.66500648699318L38.01684375000001,145.6972585410403L38.421843749999994,143.2515845233516L38.57371875,149.88493020143008L38.62434375,149.13166080398892L38.67496875,148.11568560491128L38.77621875,149.69065840019854L38.826843749999995,146.1946501193885L38.877468750000006,142.26446879655785L38.92809375,144.78461990009149L39.02934375,142.22374088714758L39.130593749999996,144.335945664745L39.18121875,150.5425169342169L39.28246875,147.35507455707045L39.434343750000004,147.00172422274227L39.63684375,148.23651592300897L39.68746875,145.52539557039677L39.83934375,144.70385415844086L40.04184375,148.04075614308493L40.09246875,145.4521653951914L40.24434375,143.4279594919112L40.29496875,141.54113696223655L40.396218749999996,144.0745571983228L40.49746875,143.8258535861395L40.64934375,148.46037249561678L40.80121875,149.83424073535122L41.15559375,148.88962305830668L41.256843749999994,151.39607389716357L41.50996875,148.3712606585903L41.61121875,154.8923226529489L41.76309375,159.51673467561383L41.86434375,155.9157667295423L42.01621875,151.1567530236415L42.06684375,153.68157943895093L42.168093750000004,153.89317244377116L42.21871875,154.30616513542162L42.31996875,151.71857431522108L42.37059375,155.2871787408457L42.42121875,155.34618434068355L42.522468749999994,157.78463188463527L42.573093750000005,157.1832181592032L42.62371875,152.6570195662525L42.72496875,149.41375710413138L42.826218749999995,149.4831258089062L42.927468749999996,153.6868432937493L43.07934375,157.24204286208334L43.18059375,156.84687558971194L43.28184375,151.6650455007693L43.38309374999999,151.21329639810767L43.68684375,157.05501884495285L43.93996875,155.7453551269078L43.99059375,154.41995374221625L44.14246875,155.44905087069088L44.243718750000006,158.1024922731444L44.39559375,159.28320237415582L44.44621875,159.86111293882658L44.49684375,155.40777269989567L44.90184375,154.96606198940864L45.20559375,155.8739307562164L45.25621875,160.05011029877176L45.45871875,158.5369441738004L45.55996875,162.0062299229865L45.61059375,164.67600027272096L45.71184375,157.09439644544716L46.16746875,155.2281875530644L46.31934375,158.79485003469966L46.369968750000005,159.62981447568686L46.47121875,156.4243710894852L46.52184375,161.6062026695094L46.623093749999995,161.9566794877657L46.67371875,157.1109987643605L46.77496875,159.1072664030738L46.82559375,160.4710491678127L46.97746875,159.2123008041188L47.02809375,160.52061501355598L47.38246875,161.28925803827227L47.483718749999994,154.7736321659504L47.63559375,154.1862147870631L47.73684375,157.68463965791292L47.888718749999995,152.57519268515404L48.24309375,154.35124381098765L48.29371875,155.2119789901194L49.00246875,154.4833580642631L49.35684375,153.84096178947033L49.55934375,156.9284904969025L49.660593750000004,154.69610714349875L49.761843750000004,159.46983587404327L49.81246875,158.44434325492523L49.86309375,155.45441119231467L50.11621875,152.61443367217592L50.16684375,158.60077091027068L50.26809375,156.8088172513372L50.419968749999995,156.62150678464528L50.57184375,157.74507435219738L50.723718749999996,163.80362734034014L50.77434375,160.26710494856647L50.926218750000004,162.1543780992465L50.97684375,163.5018545963389L51.02746875,161.37416149246823L51.07809375,160.3152183755326L51.22996875,153.73949140294917L51.331218750000005,154.99153534164742L51.43246875,159.9969502822005L51.584343749999995,160.86943003349162L51.63496875,161.8122249969601L51.73621875,160.51783226303814L52.03996875,157.51821318292156L52.495593750000005,156.89633060509087L52.54621875,155.6518770755179L52.69809375,159.32518127168302L52.90059375,158.79504115544808L52.95121875,154.7854785551412L53.05246875,154.71046594956218L53.153718749999996,153.9354202996415L53.30559375,154.21555738354058L53.40684375,156.23427293720445L53.60934375,157.13508545173767L53.91309375,158.81853187966482L53.96371875,156.78274739317976L54.06496875,160.5499531300836L54.115593749999995,155.7237352771743L54.21684375,154.7870920962006L54.26746875,154.8127424199925L54.31809375,154.57967255987003L54.36871875,155.25491128649676L54.46996875,159.04153120291056L54.57121875000001,162.8036961223989L54.723093750000004,159.86230756042258L54.82434375,159.5619605056317L55.026843750000005,155.5780027511838L55.07746875,152.19295794585085L55.22934375,157.03755397092544L55.431843750000006,155.03745878432935L55.73559375,156.61546632068206L55.786218749999996,159.06044431775916L56.49496875,153.0186709021535L56.545593749999995,153.64998749027689L56.697468750000006,152.93327252346302L56.79871875,155.22374492652034L56.89996875,153.79448189993786L56.950593749999996,157.00441712534482L57.153093750000004,151.46556709446145L57.25434375,150.3120496485887L57.30496875,157.429281247512L57.70996875,155.96237281929783L57.811218749999995,157.20057373824514L57.91246875,156.4583559527961L58.11496875,155.06849821179912L58.16559375,156.33215772173688L58.216218749999996,158.71285539703698L58.26684375,153.98666539492487L58.31746875,155.6535250030097L58.57059375,154.56173783632934L58.62121875,157.42681639647176L58.671843749999994,160.27510507855234L58.722468750000004,161.939829150558L58.87434375,156.61601423405835L59.127468750000006,156.23402827093938L59.27934375,154.66628270810807L59.481843749999996,154.92829100369988L59.58309375,156.4194618786151L59.937468749999994,158.17286587107824L60.03871875,159.55067653863816L60.089343750000005,157.19174859171622L60.393093750000006,159.04336559720147L60.44371875,160.57218701013312L60.59559375,156.05767436644467L60.69684375,161.4782347509525L60.79809375000001,163.91368980184765L61.05121875,162.65350022500098L61.10184375,165.01142713180388L61.35496875,163.8767141625357L61.45621875,163.37902069837287L61.55746875,159.15291271657009L61.911843749999996,158.48341086338118L62.013093749999996,160.05688723820543L62.11434375,163.73244881370522L62.215593750000004,165.31343310518378L62.46871875,160.72359028722832L62.62059375,159.15695126413894L62.72184375,160.66610156432546L62.772468749999994,160.8822556432233L62.97496875,159.41511315283054L63.02559375,160.24950399901593L63.07621875,159.02584054612788L63.177468749999996,158.587582317255L63.27871875,162.85955204601808L63.37996875,164.26888734123543L63.58246875,166.41002185754837L63.73434375,161.81847387718872L63.88621875,161.6599266340398L63.93684375,161.02288350721577L63.98746875,155.9645056799673L64.03809375,153.33657854848838L64.64559375,152.62957547140363L64.69621875,155.8294773699775L64.94934375,155.4286129197638L64.99996875,160.96947120752895L65.25309375,160.23390863216102L65.45559374999999,165.30307036564457L65.50621875,163.94403361037794L65.55684375,161.6497915114289L65.60746875000001,158.57643930466924L65.65809375,152.89918763052594L65.70871875,152.25393683877292L65.80996875,151.94870142440024L66.21496875,155.1936820207041L66.31621875,157.40395204174527L66.41746875,152.75097341506486L66.46809375000001,157.21288442910992L66.51871875,158.32898411930373L66.61996875,156.03298113612792L66.72121874999999,157.91700308641867L66.77184375,160.44589202277507L66.87309375,160.21639257673013L67.07559375,155.87502252660346L67.17684375,157.99061565162035L67.32871875000001,156.9564585957604L67.37934375,159.74292520723805L67.42996875,156.71377392634986L67.53121875,154.22031276241086L67.83496875,154.6499011247266L67.98684374999999,153.6915741917834L68.03746875,159.440308182876L68.13871875,162.72339510685646L68.39184374999999,163.80445947507886L68.44246875,161.2339417115442L68.54371875,162.92085919234705L68.59434375000001,162.6030551361256L68.64496875,162.6189655800986L68.74621875,158.91375527820952L69.10059375,159.3946865124025L69.30309375,158.5365023924421L69.35371875,155.36754864336118L69.45496875,154.7466443015003L69.60684375,156.8099728603878L69.70809374999999,162.20914723354886L69.91059375,161.01082021720197L70.01184375,161.3639805558939L70.11309375,158.6295978691351L70.26496875,160.25452129440535L70.31559374999999,154.8674486183943L70.36621875,157.07130319101543L70.51809374999999,155.4662426842626L70.66996875000001,164.37660635312653L71.07496875,158.9904699134842L71.12559375,159.68849076875145L71.17621874999999,155.53094985116377L71.22684375,159.63493429439578L71.32809375,162.37732723643768L71.47996875000001,163.8766405063295L71.53059375000001,161.16063507462084L71.58121875,158.8958595279726L71.73309375,157.08260709149872L71.78371875,159.42193347277188L71.93559375,162.99732872284616L71.98621874999999,162.9831685887009L72.03684374999999,159.86100227830192L72.08746875,162.53546301840174L72.18871875,164.41698142082546L72.34059375000001,156.3365319819712L72.59371875,159.86889277208627L72.99871875000001,156.0902255990631L73.15059375,162.2417718063907L73.30246875,156.16926595515704L73.35309375,154.79548482664444L73.45434374999999,152.24162676672947L73.50496875,155.70933783893275L73.85934375000001,153.10006233559739L73.96059375,154.87740986649212L74.01121875,155.65672649405806L74.11246875,155.44334302025482L74.16309375,156.80505108243693L74.26434375,157.05345317168914L74.36559375,161.70045884714852L74.41621875,162.86239744186202L74.51746874999999,161.57684101835767L74.87184375,163.43394905433584L74.92246875000001,158.41205608510293L75.07434375,159.61784836250533L75.47934375000001,160.05790793457422L75.63121875,160.8737965795922L75.68184375,155.50005415917602L75.73246875000001,154.69550551478764L75.83371875,155.33531274897675L75.93496875,155.8094537009964L75.98559374999999,156.646961054216L76.03621875,159.8713688300114L76.18809375,157.55183898485072L76.28934375000001,160.67725371763925L76.44121875,158.12154249814643L76.54246875,162.60879067063826L76.64371875,162.80745428888298L76.69434375,160.43393074326693L76.84621874999999,161.8225111257214L77.09934374999999,159.40439339227547L77.20059375000001,157.43441008576L77.40309375,161.91127848057891L77.45371875000001,159.02085475581256L77.80809375,155.12612947895548L78.01059375000001,158.21805202011916L78.11184375,158.92283113228072L78.16246875,157.99547629014725L78.21309375,161.21406995727264L78.26371875,164.4231034485915L78.36496875,162.33812722176822L78.51684374999999,155.72897280421165L78.71934375,154.9916368792433L78.82059374999999,159.7472593587624L78.92184375000001,159.95691217990637L78.97246875,162.99002973643096L79.07371875,164.16949517174854L79.12434375000001,160.59354191607807L79.17496875,160.71870749147678L79.37746874999999,159.68318959644603L79.42809375,157.56060836655595L79.52934375,162.46439532802123L79.57996874999999,160.78927214363586L79.73184375000001,159.48503946117188L79.78246875,163.0628450961011L79.83309375,162.05088701950098L79.93434375,160.17126697166714L80.03559375,162.03802963414162L80.08621875,160.8704556007288L80.13684375,158.36535802955044L80.18746875,158.30007291321724L80.23809374999999,156.19057253490746L80.54184375000001,161.1826108981621L80.59246875000001,159.6488453958105L80.84559375,162.93180868707125L80.89621875,163.6993600627702L80.94684375,163.52669966027668L80.99746875,165.01648732705232L81.09871875,162.6519715270399L81.14934375,162.66104811912768L81.25059375,167.43008929780717L81.35184375,166.567156916608L81.40246875000001,159.71745004201904L81.50371875,158.13687415487553L81.60496875,160.52152209023825L81.95934375,154.9745848290534L82.00996875,152.5741632846442L82.11121874999999,157.10509159172258L82.21246875,157.2120327989539L82.36434375,155.52723595541403L82.51621875000001,157.14968322739014L82.56684375,159.86361452952033L82.66809375,158.23873801041648L82.92121875,150.9649002890329L82.97184375,155.37486584626873L83.12371875000001,155.74785229152388L83.17434375,156.14607119114763L83.22496875,154.10661975275417L83.27559375,154.7937454525487L83.37684375,159.02446071369587L83.42746875,158.74867850182338L83.47809375,154.47189134143522L83.52871875,157.07113566666482L83.68059375,158.87101176581564L83.73121875,161.40106844426265L83.83246875,159.40833407752356L84.23746875,155.2454645680148L84.28809375,159.58809821884387L84.38934375,159.36298087287278L84.43996874999999,159.15172992774842L84.49059374999999,155.34083895660837L84.89559375,150.25289838777422L84.94621875,156.0767093177623L84.99684375,158.07150013104993L85.14871875,162.800864316161L85.19934375,167.1045654796375L85.24996875,166.9318284223167L85.30059374999999,165.72106217720238L85.35121875,162.7350596470324L85.40184375,161.67040388679627L85.45246875000001,163.6135314120618L85.50309375,160.49529948713985L85.60434375,161.12400989661182L85.80684375,162.1854261771613L85.90809374999999,158.34685574863994L86.11059374999999,158.47873830931172L86.31309375000001,156.6999057936874L86.41434375,156.6173406605844L86.56621875,156.21937420556492L86.71809375,158.87020788146782L86.86996875,157.01679637563464L86.97121874999999,163.13302445331556L87.02184374999999,159.619443479693L87.07246875000001,165.62033495715224L87.22434375,158.46157982395667L87.37621875,161.41674973833508L87.57871875,160.56875261228052L87.83184374999999,157.7199805293129L87.98371875000001,155.9308372008987L88.13559375,161.8139537375085L88.23684375,157.44012922848736L88.38871875,157.79457465890334L88.43934374999999,159.84873186796875L88.48996875,158.74169548700237L88.59121875,161.18388547311218L88.79371875000001,158.94432943946117L88.89496875,161.962101566112L88.94559375,164.1288163665827L89.09746875,163.1784716052152L89.24934375,160.70326131993556L89.50246874999999,155.89668340532396L89.55309374999999,159.0954503797397L89.70496875,159.30788578487864L89.80621875,162.50049418944576L90.00871875,159.03485164685125L90.05934375,150.22647914276368L90.10996875,151.85413960408673L90.16059375,156.27758987620376L90.26184375,153.96295831923626L90.31246875,158.5012498040494L90.76809375,163.13272135294457L90.86934375,158.07261430921344L91.02121875,161.0922674717636L91.07184375,159.78416462632802L91.12246875,160.35816921329172L91.17309374999999,164.41697452188933L91.22371874999999,166.64782875610237L91.52746875,162.14363588789806L91.83121874999999,160.20363825499837L92.08434374999999,161.53945569558832L92.13496875000001,156.98093943018054L92.18559375000001,157.4766661021213L92.53996875,161.33691256601216L92.64121875,158.9618032059586L92.84371875,155.61985952545302L92.94496875,157.25409224960663L93.09684375,158.83514617681575L93.14746875,160.99924658219064L93.24871875,163.36249242512412L93.29934375,159.58254249664958L93.45121875,163.06420565310805L93.70434374999999,163.50513066846344L93.75496875,161.51016868351826L93.80559375,158.6868610374069L93.85621875000001,157.89259640327708L93.95746875,163.40514686078797L94.00809375,159.93280388337953L94.05871875,161.9206610128636L94.15996875,160.7481892747892L94.21059375,161.47498210926133L94.31184375,162.725535929159L94.41309375,163.1491199691826L94.51434375,160.40406321444516L94.56496875,159.63674392874086L94.76746875,155.9196988497677L94.96996875,151.4902095012567L95.07121875,153.4490930405876L95.12184375,158.9355302831106L95.17246875,160.30953692876733L95.42559375,155.73642299662095L95.57746875000001,157.70158045742946L95.62809375,158.647378777985L95.67871875,158.54382712971622L95.72934375,159.60944896140566L95.83059375,160.10423049051883L96.03309374999999,161.51254423888122L96.08371874999999,163.01977847674448L96.13434375,165.93078246112043L96.23559375,165.97989566959166L96.48871875,167.2661900749041L96.64059375,164.8250536022723L96.79246875,165.52404293406843L97.09621875,159.56288161867167L97.14684375,157.69347849881635L97.24809375000001,162.48680265384507L97.70371875,160.03756329002536L97.75434374999999,157.73829090942473L97.80496875,162.10497989862878L97.85559375000001,163.55214967693718L97.95684375,165.49173595725992L98.05809375,165.0760954909692L98.26059375,160.82891630489647L98.31121875,161.99819511190466L98.46309375,165.54802689164129L98.51371875,165.08968668704776L98.56434374999999,161.52857105051805L98.61496874999999,162.87599958647488L98.66559375,160.74766580463964L98.71621875000001,166.33960676313353L98.96934375000001,166.076723306105L99.07059375,163.0304370296352L99.27309375,161.99546660417434L99.37434375,158.08744912207595L99.42496874999999,160.34157614426098L99.52621875000001,161.29260526011157L99.77934375000001,156.34472887859604L100.03246874999999,154.748982929066L100.13371875,152.6441290197026L100.23496875,151.571403095161L100.28559374999999,154.6452366366198L100.33621874999999,154.48437376742822L100.38684375000001,154.84456884816444L100.48809375,159.03796452654495L100.84246875,159.31520987176754L100.94371875,160.4971561310124L100.99434375,162.0831760810275L101.04496875,160.8237425474202L101.09559374999999,163.61220293767505L101.34871875,160.09722608046087L101.39934375,152.7062377555153L101.50059375000001,151.97092796303718L101.55121875,155.14985792401168L101.70309375,156.96922871607185L101.75371874999999,158.944460088835L101.80434375,159.58557881603193L102.00684374999999,155.0726062477999L102.20934375,160.59107820320366L102.41184375,156.84281803843325L102.51309375,157.5508948187646L102.76621875,157.08527916395366L102.91809375000001,156.31167640123985L102.96871875000001,158.7496453076654L103.06996875,154.06723804176173L103.22184375,154.93046269556078L103.27246875,151.9137368305933L103.37371875,157.1871151112166L103.42434374999999,154.5241374482302L103.62684374999999,156.2773520336303L103.67746874999999,159.34643563741957L103.77871875000001,159.1140820172301L104.08246875,163.84804625432915L104.38621875,162.29308161211748L104.43684375,162.91335679534717L104.53809375,161.6252344455936L104.63934375000001,158.99747255682658L104.79121875,155.44147653921274L105.04434375,155.98273622717755L105.14559374999999,153.5212827745654L105.19621875,154.77682892224658L105.29746875,153.97682293102028L105.80371875,148.49450055665702L105.85434375,148.89386375689665L105.90496875,152.9964777784198L106.20871875,153.4503254030138L106.25934375,156.9705004891151L106.41121875,157.23979566496973L106.51246875,158.9279258052649L106.56309375,159.3790738225068L106.66434375,156.68915212393316L106.71496875,160.63594696665118L106.76559375,159.22237547483627L106.86684375,160.28801128216537L107.11996875,162.1242482321339L107.27184375,160.91783546150984L107.42371875,160.76862640425324L107.52496875,160.4319069181567L107.57559375,160.39335836935157L107.82871875000001,162.7498828528411L107.92996875,163.24027908393265L107.98059375000001,163.51052841672413L108.08184375,162.44272361474702L108.13246875,163.69494914776567L108.38559375,159.606454784273L108.43621875,160.90856820817723L108.63871875000001,159.90965366249839L108.68934375,158.72561098666327L109.34746874999999,158.6425201745709L109.39809375,156.06520157566948L109.44871875000001,160.49927801397214L109.70184375000001,158.51447645727856L109.75246875,159.21993855578143L109.90434375,162.27115599280063L110.05621875,165.8024773436713L110.10684375,166.43478375899363L110.25871875,163.75555677152215L110.30934375000001,163.4410078462156L110.35996875000001,163.13394709842558L110.41059375,167.06386292229388L110.66371875,168.17652766059018L110.71434375,165.03748862038162L111.11934375000001,163.43207703485155L111.22059375,160.94068751208422L111.27121875,162.79569213473263L111.37246875,161.3252828571208L111.52434375,163.85876872060743L111.57496875,163.23031541060237L111.62559375,163.0836652856121L111.67621875,160.6348428373168L111.77746875,163.53453625309248L111.87871874999999,162.42665750822093L111.92934374999999,162.62445318127078L111.97996875000001,161.2513879344328L112.08121875,159.95287515752298L112.13184375,160.43842677692246L112.18246875,158.17512381326955L112.38496875,158.92825304022512L112.43559375,161.15791011582462L112.53684375,163.45797187922784L112.58746875,161.72498108648296L112.73934374999999,163.36414200685243L112.89121875000001,160.78656299087496L112.99246875,162.31015407546218L113.19496875,162.51856851282034L113.29621875,159.44625948092727L113.34684374999999,156.33545535934797L113.39746875,156.4964761384298L113.90371875,156.44997403907595L113.95434375,159.3709727638234L114.15684375,160.03723856488483L114.20746875,157.24615088708967L114.51121875000001,155.47335025235674L114.61246875,162.4311189605673L114.71371875,161.68615716818252L114.76434375,160.26041702900298L114.86559375,159.61618438844263L114.96684375,161.7408056148949L115.21996874999999,159.1190027011869L115.37184375000001,159.90238092820474L115.52371875,160.2265362251637L115.57434375,161.88128844353582L115.62496875000001,163.26841285697435L115.67559375,164.40280028306532L115.72621875,162.63692246351496L115.77684375,162.779744282209L115.87809374999999,157.1754939406175L116.08059374999999,158.62822937860443L116.23246875000001,160.56890907224627L116.38434375,159.5283528864579L116.53621875,157.14632453323583L116.89059375,159.38098484953946L116.94121875,158.46639730938696L116.99184375,162.99054086849148L117.19434375,162.52459154513514L117.24496875,155.81607525738298L117.39684375,155.9196814767056L117.54871874999999,158.4294433080077L117.59934374999999,157.47530016995987L117.64996875,159.58612567006062L117.90309375000001,166.3295618006697L118.05496875,161.01269687667155L118.10559375,157.8544155445973L118.15621875,163.21343095822812L118.25746875,160.50460891558933L118.45996875,156.4238519626908L118.71309375,159.70306810287948L118.91559375,160.20295373130827L119.06746875,161.72122510788236L119.11809375,160.43950181315776L119.21934375,159.3764363752431L119.26996874999999,164.39377705017486L119.57371875,165.79167152897372L119.67496875,162.83240025116515L120.23184375000001,162.40460984432804L120.28246875,162.38842921569415L120.63684375,161.262898920662L120.68746875,161.88173789105028L120.78871875,157.86710870854782L120.83934375,161.68178925072783L120.99121874999999,161.71620085928222L121.04184375,162.79052307860087L121.09246875000001,163.54006803029395L121.34559375,163.13214853600832L121.49746875,167.00429446218115L121.64934375,165.9663566910289L121.80121874999999,162.57688589273266L121.95309375000001,162.82393064128385L122.00371875,160.90340834077415L122.05434375,155.8710453344358L122.40871874999999,157.79983876345395L122.45934375,156.2670209459335L122.66184374999999,155.874432805292L122.76309375000001,154.46454992479815L122.81371875,152.29177908055027L123.26934375,153.63590954910936L123.47184374999999,160.65734959744148L124.02871875,156.29717655839167L124.18059375,158.3282566698093L124.23121875,158.45949285616666L124.28184375,159.11023097866888L124.33246874999999,163.28939779778787L124.38309374999999,161.36780635623415L124.43371875000001,164.9664126561579L124.48434375000001,159.92876396535814L124.53496875,161.48613863364247L124.63621875,161.19210010275475L124.68684375000001,166.996873705617L124.73746875,161.98820558132613L124.83871875,162.8467252429836L124.93996874999999,166.06081637798823L125.19309374999999,161.61878321007336L125.24371875000001,156.3568746413913L125.34496875,154.93619749741515L125.64871875,163.652921512505L125.74996875,162.80386437263923L125.85121875,160.38517382911942L125.90184375,157.99328670802973L126.00309374999999,157.23657712481378L126.20559375,158.13927249794378L126.25621875,161.94758685043556L126.40809375,161.5673444724745L126.55996875,160.81656970520814L126.81309375,163.46520666642982L126.86371874999999,163.8457829973936L127.01559375000001,167.46961356134256L127.06621875,163.6101854459308L127.16746875,164.50886711771463L127.21809375,158.05675229208774L127.26871875,158.2831237124032L127.36996875,156.97524168133495L127.42059375,163.49747185333425L127.52184375,165.45202485972953L127.57246875,162.60464728824883L127.62309375,161.60473913124753L127.92684375,157.93636719090674L128.07871875,159.54240625522294L128.17996875,162.01605904949758L128.28121875,159.5880422881428L128.33184375,162.68785712070365L128.48371875,163.16829311617474L128.58496875,162.29850222926297L128.78746875,161.1904286121982L128.83809374999998,163.10766015702433L128.88871874999998,161.74600364915895L128.98996875,160.50960650932214L129.09121875,161.8480520659174L129.14184375,161.77020896356214L129.19246875,161.71273973513195L129.34434375,162.50865043955173L129.39496875,164.26881931875423L129.44559375,162.46916797948447L129.49621875,162.51312098816575L129.54684375,160.4575819050205L129.69871874999998,154.56553514053022L129.90121875,157.23398735870677L129.95184375,156.01969854086494L130.15434375,157.0674371642859L130.25559375,159.52567689754514L130.50871874999999,163.55500616116095L130.60996874999998,163.9762839882539L130.71121875,159.51866508378384L130.81246875,158.08854621760327L130.96434375,157.21502028770612L131.01496875,159.93946754257303L131.21746875,161.83843739422412L131.26809375,163.2407117898797L131.31871875,163.52054329408418L131.36934374999998,162.69715039547214L131.41996874999998,160.07114274074192L131.47059375,160.85513499639168L131.52121875,157.02230526960932L131.67309375,161.2938622035009L131.77434375,161.6177464126004L131.87559375,163.07717932453474L132.02746875,160.53925984615518L132.12871875,158.20548810272078L132.17934375,158.41146358077918L132.22996874999998,163.3129030320557L132.28059374999998,157.354276783477L132.33121875,159.18564273946131L132.38184375,162.5796454153417L132.58434375,164.10715615363668L132.78684375,162.8423329886501L132.88809375,161.16806759218602L132.93871875,161.82158499825138L133.03996874999999,162.411346589733L133.14121875,161.7117908687644L133.19184375,159.34103715566314L133.34371875,161.15560836085191L133.54621875,161.3618042219987L133.69809375,161.56828080113593L133.79934375,161.97288408177613L134.00184375,159.38654273925732L134.05246875,159.4966266523511L134.10309375,157.01965512260065L134.20434375,156.10759971990743L134.25496875,157.34501290989652L134.30559375,157.22985186977823L134.35621875,158.4768634724834L134.40684375,161.80301991829586L134.71059375,163.55594839888403L134.76121875,164.71219759526406L134.86246875,163.6534805934184L134.91309375,161.444222257965L134.96371875,161.40731963700048L135.16621875,158.06796977432168L135.26746875,160.48304906792401L135.41934375,155.1485894956606L135.57121874999999,162.66954019298657L135.62184375,161.74522704261844L135.72309375,161.72665998763821L135.87496875,159.12076994633864L135.92559375,160.16439490033898L136.02684375,164.65419663099675L136.07746875,166.46859969163873L136.12809375,165.28840534765484L136.22934375,161.98908842928583L136.33059375,162.18608740961977L136.48246875,159.2300548950618L136.63434375,158.03846369583124L136.68496875,157.56738328774003L136.73559375,160.8835703124954L136.83684374999999,155.76536454302195L136.98871875,157.766870619111L137.08996875,157.20152003839775L137.29246875,157.3702276107182L137.39371875,157.35175160307745L137.54559375,159.1299263064408L137.64684375,153.17837967620355L137.69746875,155.20978540269172L137.79871875,157.77276026857479L137.95059375,160.0245777188892L138.00121875,161.2596226345989L138.05184375000002,152.42637790510017L138.10246875,154.8999593254067L138.25434375,159.3834865011456L138.30496875,160.97163892891103L138.45684375,167.42982264224347L138.70996875,165.54790933050904L138.81121875,166.21704309255796L138.91246875000002,163.3519715770339L139.26684375000002,165.27170397664636L139.31746875000002,164.5220168063573L139.41871875,162.00575057046802L139.51996875,157.0498847129575L139.87434375,158.89532693799126L140.02621875,161.7082964057274L140.07684375,162.3573674524554L140.17809375,160.01093614288538L140.27934374999998,158.38594383510969L140.38059375,160.8521312227628L140.53246875000002,162.78509136145004L140.58309375000002,163.28421099248342L140.63371875,161.52199744738826L140.73496875,163.29795747334373L140.83621875,157.8591611703313L140.88684375,162.92749609470826L140.93746875,159.6038679793703L140.98809375000002,161.8827314048148L188.17059375,157.69133189136605L189.94246875,159.28902444133055L192.47371875000002,161.13584867848292L192.52434375,161.0267238680522L192.57496875,162.8760686197281L207.66121875,162.66604119211834L207.76246875,161.7449563125992L208.26871874999998,164.29853433252717L208.36996875,167.06456484326526L208.42059375,168.55217558897817L208.47121875000002,165.52805101130775L209.58496875,166.61783089988054L209.68621875,167.53188113422766L209.73684375,163.53298681607785L209.88871874999998,160.55064428030022L209.98996875,162.63775295522947L210.04059375,159.8217186282504L210.09121875,159.92683028481972L210.74934375,162.7887501595571L210.90121875,161.07502316702332L212.72371875,160.86236463746783L216.41934375,165.72863421496564L216.46996875,164.0048412342279L216.92559375000002,164.823505687281L217.17871875,164.71438700014227L217.27996875,159.15694469245597L217.43184375,159.15035249808824L217.48246875,158.13548233917987L218.79871875,157.80737838831524L220.31746875000002,159.5096512895047L220.41871875,163.97320826021146L220.72246875,160.1035134106913L221.12746875,161.10560288290415L221.17809375,162.39721015846868L221.27934374999998,168.0846727595099L221.43121875,166.78916074665597L221.48184375,163.78636153836376L221.58309375,162.43611511567826L222.19059375,162.77148631997665L222.44371875000002,160.67216887347556L222.59559375,163.78837122682327L222.64621875,161.74312478401419L222.69684375,161.51731234052673L222.79809375,163.9192599292133L222.84871875,164.8850773077528L225.98746875,161.0205092371297L249.98371875,160.37171498581523L250.08496875,159.75711340692493L250.43934375,160.31749525261037L250.59121875,157.0933591599789L252.91996874999998,161.79198119295796L253.07184375,163.37528730980452" style="fill: none;" fill="none"></path></g></g></g></g><g opacity="0.2"><g><g><g><path stroke="rgb(187, 187, 187)" stroke-width="2px" d="M25.461843750000003,48.63544726371766L25.51246875,42.72696598370871L25.56309375,-3.4579127629598023L25.664343749999997,18.389190276463832L25.81621875,21.145887613296516L25.866843749999997,33.512342214584365L25.91746875,45.09366416931152L26.018718749999998,51.64947136243184L26.27184375,81.16714382171631L26.42371875,98.60668206214905L26.57559375,102.25389504432678L26.72746875,105.98183914025626L26.82871875,111.33598709106445L26.87934375,94.18405417601268L26.92996875,109.41871984799704L27.081843749999997,105.2756089369456L27.23371875,108.93222316106161L27.33496875,81.12360739707947L27.38559375,98.14333681265512L27.537468750000002,108.61481988430023L27.79059375,112.54169050852457L28.09434375,93.211834470431L28.144968749999997,124.94247957070671L28.19559375,132.41055889924368L28.24621875,120.76161130269371L28.29684375,118.4255902369817L28.347468749999997,114.8663409948349L28.39809375,122.30240686734517L28.549968749999998,123.43311134974161L28.75246875,133.20784751574197L28.85371875,126.56029029687245L29.005593750000003,115.57064874966939L29.10684375,121.20271944999695L29.30934375,124.26175697644551L29.71434375,131.38286952177683L29.86621875,132.62093806266785L29.91684375,113.33573206265767L30.11934375,124.38704435030618L30.22059375,121.05028335253397L30.32184375,119.82324544588725L30.42309375,120.98938628037773L30.52434375,123.03967758019768L30.57496875,135.08202377955118L30.62559375,119.44945816198985L30.67621875,137.40005119641623L30.72684375,129.87550580501556L30.77746875,135.7489375670751L30.828093749999997,123.23943638801576L30.92934375,137.22292804718018L31.08121875,140.88323477904004L31.13184375,136.88570245107016L31.23309375,139.66620767116547L31.486218750000003,129.16271114349365L31.53684375,132.91043066978455L31.58746875,127.97581020991008L31.63809375,134.62225381533304L31.73934375,135.06460452079773L31.89121875,137.65839779376984L31.94184375,127.96414657433829L31.99246875,137.2475447654724L32.043093750000004,128.54705874125162L32.34684375,118.07507161299387L32.39746875,131.6098708311717L32.44809375,135.873908440272L32.54934375,137.09927006562552L32.70121875,123.9382346868515L32.75184375,138.96753831704459L32.95434375,124.50886193911235L33.35934375,134.35411914189658L33.56184375,122.75465114911398L33.66309375,132.99088044961294L33.76434375,134.7223149140676L33.86559375,141.76587307453156L33.91621875,132.30025255680084L33.96684375,129.57113766670227L34.01746875,139.6697009007136L34.11871875,135.65879348913828L34.16934375,135.10928972562155L34.27059375,139.13184905052185L34.473093750000004,127.02716394265495L34.52371875,144.61048726240793L34.57434375,141.60844329992932L34.62496875,124.17488340536752L34.67559375,140.1259893576304L34.77684375,141.99365977446237L34.87809375,140.4114612340927L35.08059375,133.48225359121957L35.13121875,132.6940497159958L35.23246875,120.83058500289917L35.28309375,141.25167671839395L35.48559375,146.5996939341227L35.73871875,129.32798310120899L35.78934375,137.59060804049173L36.042468750000005,147.26967895030975L36.09309375,146.26760268211365L36.24496875,139.25959809621176L36.295593749999995,151.04467614491782L36.346218750000006,149.4579997062683L36.44746875,147.800919453303L36.599343749999996,141.91013876597086L36.64996875,141.95532802740735L36.80184375,135.46856486797333L37.206843750000004,142.05214206377664L37.30809375,150.765030225118L37.45996875,143.7328426440557L37.66246875,144.40164371331534L37.71309375,151.08013594150543L37.76371875,145.26538574695587L37.91559375,150.58653557300568L37.966218749999996,139.58007260163626L38.01684375000001,147.24563662211102L38.421843749999994,139.58307349681854L38.57371875,159.83494871854782L38.62434375,148.00175670782727L38.67496875,146.59172280629477L38.77621875,152.05311759312949L38.826843749999995,140.95063769817352L38.877468750000006,136.36919681231183L38.92809375,148.56484655539194L39.02934375,138.38242236773172L39.130593749999996,147.50425283114114L39.18121875,159.85237383842468L39.28246875,142.5739109913508L39.434343750000004,146.4716987212499L39.63684375,150.08870347340903L39.68746875,141.45871504147848L39.83934375,143.471542040507L40.04184375,153.04610912005106L40.09246875,141.56927927335104L40.24434375,140.39165063699087L40.29496875,138.7109031677246L40.396218749999996,147.8746875524521L40.49746875,143.4527981678645L40.64934375,155.41215085983276L40.80121875,151.8950430949529L41.15559375,147.47269654273987L41.256843749999994,155.1557501554489L41.50996875,143.83404080073038L41.61121875,164.67391564448675L41.76309375,166.45335270961127L41.86434375,150.51431481043497L42.01621875,144.01823246479034L42.06684375,157.4688190619151L42.168093750000004,154.2105619510015L42.21871875,154.92565417289734L42.31996875,147.83718808492026L42.37059375,160.64008537928262L42.42121875,155.43469274044037L42.522468749999994,161.4423032005628L42.573093750000005,156.2810975710551L42.62371875,145.86772167682648L42.72496875,144.5488634109497L42.826218749999995,149.5871788660685L42.927468749999996,159.9924195210139L43.07934375,162.57484221458435L43.18059375,156.25412468115488L43.28184375,143.89230036735535L43.38309374999999,150.5356727441152L43.68684375,165.81760251522064L43.93996875,153.7808595498403L43.99059375,152.43185166517893L44.14246875,156.99269656340283L44.243718750000006,162.0826543768247L44.39559375,161.0542675256729L44.44621875,160.72797878583273L44.49684375,148.72776234149933L44.90184375,154.3034959236781L45.20559375,157.235733906428L45.25621875,166.3143796126048L45.45871875,156.26719498634338L45.55996875,167.21015854676565L45.61059375,168.6806557973226L45.71184375,145.72199070453644L46.16746875,152.42887421449026L46.31934375,164.14484375715256L46.369968750000005,160.8822611371676L46.47121875,151.6162060101827L46.52184375,169.3789500395457L46.623093749999995,162.4823947151502L46.67371875,149.84247767925262L46.77496875,162.10166786114374L46.82559375,162.51672331492105L46.97746875,157.324178258578L47.02809375,162.48308632771176L47.38246875,162.44222257534662L47.483718749999994,145.00019335746765L47.63559375,153.3050887187322L47.73684375,162.93227696418762L47.888718749999995,144.91102222601575L48.24309375,157.01532049973807L48.29371875,156.50308175881705L49.00246875,153.3904266754786L49.35684375,152.8773673772812L49.55934375,161.55978355805078L49.660593750000004,151.34753211339316L49.761843750000004,166.63042896986008L49.81246875,156.90610432624817L49.86309375,150.96951309839883L50.11621875,148.35446739196777L50.16684375,167.58027676741284L50.26809375,154.12088676293692L50.419968749999995,156.34054108460745L50.57184375,159.43042570352554L50.723718749999996,172.89145682255426L50.77434375,154.96232136090597L50.926218750000004,164.98528782526654L50.97684375,165.52306934197745L51.02746875,158.1826218366623L51.07809375,158.7268037001292L51.22996875,143.875900944074L51.331218750000005,156.86960124969482L51.43246875,167.50507269303003L51.584343749999995,162.17814966042837L51.63496875,163.22641744216284L51.73621875,158.57624316215515L52.03996875,153.01878456274667L52.495593750000005,155.96350673834482L52.54621875,153.78519678115845L52.69809375,164.8351375659307L52.90059375,157.99983098109564L52.95121875,148.77113465468088L53.05246875,154.59794704119366L53.153718749999996,152.77285182476044L53.30559375,154.63576300938925L53.40684375,159.2623462677002L53.60934375,158.48630422353745L53.91309375,161.34370152155557L53.96371875,153.72907066345215L54.06496875,166.2007617354393L54.115593749999995,148.48440849781036L54.21684375,153.38212732474008L54.26746875,154.85121790568033L54.31809375,154.2300677696864L54.36871875,156.26776937643686L54.46996875,164.7214610775312L54.57121875000001,168.4469435016314L54.723093750000004,155.4502247174581L54.82434375,159.11143992344537L55.026843750000005,149.60206611951193L55.07746875,147.11539073785147L55.22934375,164.3044480085373L55.431843750000006,152.0373160044352L55.73559375,158.9824776252111L55.786218749999996,162.72791131337485L56.49496875,143.95601077874502L56.545593749999995,154.59696237246195L56.697468750000006,151.8582000732422L56.79871875,158.65945353110632L56.89996875,151.6505873600642L56.950593749999996,161.8193199634552L57.153093750000004,143.1572920481364L57.25434375,148.58177347977957L57.30496875,168.1051286458969L57.70996875,153.76201017697653L57.811218749999995,159.05787511666617L57.91246875,155.3450292746226L58.11496875,152.98371160030365L58.16559375,158.22764698664346L58.216218749999996,162.28390190998715L58.26684375,146.8973803917567L58.31746875,158.15381441513696L58.57059375,152.9240570863088L58.62121875,161.72443423668545L58.671843749999994,164.54753810167313L58.722468750000004,164.43691525856653L58.87434375,148.63029185930887L59.127468750000006,155.6610493262609L59.27934375,152.31466436386108L59.481843749999996,155.32130344708762L59.58309375,158.65621819098791L59.937468749999994,160.802971859773L60.03871875,161.61739253997803L60.089343750000005,153.6533566713333L60.393093750000006,161.82079110542932L60.44371875,162.8654191295306L60.59559375,149.285905400912L60.69684375,169.6090753277143L60.79809375000001,167.56687237819037L61.05121875,160.76321585973105L61.10184375,168.5483174920082L61.35496875,162.17464470863342L61.45621875,162.6324805021286L61.55746875,152.81375074386597L61.911843749999996,157.47915808359784L62.013093749999996,162.41710180044174L62.11434375,169.2457911769549L62.215593750000004,167.68490954240164L62.46871875,153.8388260602951L62.62059375,156.8069927295049L62.72184375,162.92982701460522L62.772468749999994,161.20648676156998L62.97496875,157.21439941724142L63.02559375,161.50109026829404L63.07621875,157.19034536679587L63.177468749999996,157.93019497394562L63.27871875,169.2675066391627L63.37996875,166.38289028406143L63.58246875,169.62172363201776L63.73434375,154.93115190664926L63.88621875,161.42210576931635L63.93684375,160.06731881697974L63.98746875,148.37693893909454L64.03809375,149.39468785127005L64.64559375,151.56907085577646L64.69621875,160.6293302178383L64.94934375,154.82731624444327L64.99996875,169.2807586391767L65.25309375,159.1305647691091L65.45559374999999,172.9068129658699L65.50621875,161.90547847747803L65.55684375,158.20842836300534L65.60746875000001,153.96641099452972L65.65809375,144.38331011931103L65.70871875,151.2860606511434L65.80996875,151.4908483028412L66.21496875,160.06115291515985L66.31621875,160.71935707330704L66.41746875,145.77150547504425L66.46809375000001,163.90575095017752L66.51871875,160.00313365459442L66.61996875,152.58897666136423L66.72121874999999,160.7430360118548L66.77184375,164.23922542730966L66.87309375,159.87214340766272L67.07559375,149.36296745141348L67.17684375,161.16400533914566L67.32871875000001,155.40522301197052L67.37934375,163.9226251244545L67.42996875,152.1700470050176L67.53121875,150.48012101650238L67.83496875,155.29428366820017L67.98684374999999,152.25408379236856L68.03746875,168.06340916951498L68.13871875,167.6480254928271L68.39184374999999,165.42605602741241L68.44246875,157.37816506624222L68.54371875,165.45123541355133L68.59434375000001,162.12634905179343L68.64496875,162.64283124605814L68.74621875,153.35593982537588L69.10059375,160.11608336369198L69.30309375,157.24922621250153L69.35371875,150.61411801973978L69.45496875,153.815287788709L69.60684375,159.90496569871902L69.70809374999999,170.30790879329047L69.91059375,159.21332969268164L70.01184375,161.8937210639318L70.11309375,154.5280238389969L70.26496875,162.69190643231073L70.31559374999999,146.78683960437775L70.36621875,160.3770850499471L70.51809374999999,153.0586519241333L70.66996875000001,177.74215185642242L71.07496875,150.9112652540207L71.12559375,160.73552205165228L71.17621874999999,149.29463847478232L71.22684375,165.79091095924377L71.32809375,166.49091664950052L71.47996875000001,166.12561041116714L71.53059375000001,157.0866269270579L71.58121875,155.49869620800018L71.73309375,154.36272843678793L71.78371875,162.93092304468155L71.93559375,168.3604215979576L71.98621874999999,162.96192838748297L72.03684374999999,155.17775281270346L72.08746875,166.54715412855148L72.18871875,167.23925902446112L72.34059375000001,144.2158578236898L72.59371875,165.16743395725888L72.99871875000001,150.4222248395284L73.15059375,171.46909111738205L73.30246875,147.06050717830658L73.35309375,152.73481313387555L73.45434374999999,148.410839676857L73.50496875,160.91090444723764L73.85934375000001,149.1861490805944L73.96059375,157.54343116283417L74.01121875,156.825701435407L74.11246875,155.12326780954996L74.16309375,158.84761317571005L74.26434375,157.4260563055674L74.36559375,168.67096736033758L74.41621875,164.60530533393225L74.51746874999999,159.64850638310116L74.87184375,166.21961110830307L74.92246875000001,150.87921663125357L75.07434375,161.42653677860895L75.47934375000001,160.71799729267755L75.63121875,162.09762954711914L75.68184375,147.43944052855176L75.73246875000001,153.48868254820505L75.83371875,156.29502360026044L75.93496875,156.5206651290258L75.98559374999999,157.9032220840454L76.03621875,164.7079804937045L76.18809375,154.07254421710968L76.28934375000001,165.36537581682205L76.44121875,154.28797566890717L76.54246875,169.33966292937598L76.64371875,163.1054497162501L76.69434375,156.87364542484283L76.84621874999999,163.90538169940314L77.09934374999999,155.77721679210663L77.20059375000001,154.47943512598673L77.40309375,168.6265810728073L77.45371875000001,154.68521916866302L77.80809375,149.28404156366983L78.01059375000001,162.85593583186468L78.11184375,159.97999980052313L78.16246875,156.60444402694702L78.21309375,166.04196045796076L78.26371875,169.23665368556976L78.36496875,159.2106628815333L78.51684374999999,145.8152411778768L78.71934375,153.88563299179077L78.82059374999999,166.88069307804108L78.92184375000001,160.27139141162237L78.97246875,167.53970607121786L79.07371875,165.93869332472485L79.12434375000001,155.22961203257242L79.17496875,160.90645585457483L79.37746874999999,158.1299127538999L79.42809375,154.3767365217209L79.52934375,169.82007577021918L79.57996874999999,158.2765873670578L79.73184375000001,157.52869043747586L79.78246875,168.429553548495L79.83309375,160.53294990460077L79.93434375,157.35183689991632L80.03559375,164.8381736278534L80.08621875,159.1190945506096L80.13684375,154.6077116727829L80.18746875,158.2021452387174L80.23809374999999,153.02632196744284L80.54184375000001,168.67066844304404L80.59246875000001,157.3481971422831L80.84559375,167.8562536239624L80.89621875,164.8506871263186L80.94684375,163.26770905653635L80.99746875,167.25116882721585L81.09871875,159.10519782702127L81.14934375,162.67466300725937L81.25059375,174.58365106582642L81.35184375,165.2727583448092L81.40246875000001,149.44288973013562L81.50371875,155.76601032416025L81.60496875,164.09849399328232L81.95934375,146.6541789372762L82.00996875,148.9735309680303L82.11121874999999,163.9014840523402L82.21246875,157.372444609801L82.36434375,153.00004069010419L82.51621875000001,159.58335413535437L82.56684375,163.9345114827156L82.66809375,155.80142323176065L82.92121875,140.0541437069575L82.97184375,161.98981418212256L83.12371875000001,156.30733195940653L83.17434375,156.7433995405833L83.22496875,151.047442595164L83.27559375,155.8244340022405L83.37684375,165.37053360541663L83.42746875,158.33500518401465L83.47809375,148.05671060085297L83.52871875,160.97000215450925L83.68059375,161.5708259145419L83.73121875,165.19615346193314L83.83246875,156.41923252741495L84.23746875,149.00116030375165L84.28809375,166.10204869508743L84.38934375,159.02530485391617L84.43996874999999,158.8348535100619L84.49059374999999,149.62450249989828L84.89559375,142.620987534523L84.94621875,164.8124257127444L84.99684375,161.0636863509814L85.14871875,169.89491059382757L85.19934375,173.56011722485223L85.24996875,166.6727228363355L85.30059374999999,163.9049128095309L85.35121875,158.2560558517774L85.40184375,160.07342024644217L85.45246875000001,166.52822269996008L85.50309375,155.8179515997569L85.60434375,162.06707551081976L85.80684375,163.7775505979856L85.90809374999999,152.58900010585785L86.11059374999999,158.67656215031943L86.31309375000001,154.03165702025095L86.41434375,156.49349296092987L86.56621875,155.62242452303568L86.71809375,162.84645839532217L86.86996875,154.23667911688486L86.97121874999999,172.30736656983694L87.02184374999999,154.34907201925915L87.07246875000001,174.62167217334112L87.22434375,147.72344712416333L87.37621875,165.8495046099027L87.57871875,159.2967569231987L87.83184374999999,153.44682240486145L87.98371875000001,153.2471222082774L88.13559375,170.63862854242325L88.23684375,150.87939246495566L88.38871875,158.32624280452728L88.43934374999999,162.92996768156686L88.48996875,157.08114091555277L88.59121875,164.84717045227686L88.79371875000001,155.58499538898468L88.89496875,166.48875975608826L88.94559375,167.37888856728873L89.09746875,161.752954463164L89.24934375,156.99044589201608L89.50246874999999,148.68681653340658L89.55309374999999,163.89360084136328L89.70496875,159.62653889258704L89.80621875,167.28940679629645L90.00871875,153.8363878329595L90.05934375,137.0139203866323L90.10996875,154.29563029607138L90.16059375,162.91276528437933L90.26184375,150.491010983785L90.31246875,165.30868703126907L90.76809375,170.07992867628732L90.86934375,150.48245374361673L91.02121875,165.6217472155889L91.07184375,157.82201035817465L91.12246875,161.21917609373727L91.17309374999999,170.5051824847857L91.22371874999999,169.99411010742188L91.52746875,155.38734658559164L91.83121874999999,157.2936418056488L92.08434374999999,163.5431818564733L92.13496875000001,150.14316503206888L92.18559375000001,158.2202561100324L92.53996875,167.12728226184845L92.64121875,155.3991391658783L92.84371875,150.6069440046946L92.94496875,159.70544133583704L93.09684375,161.2067270676295L93.14746875,164.24539719025293L93.24871875,166.90736118952432L93.29934375,153.9126176039378L93.45121875,168.28670038779578L93.70434374999999,164.16651819149652L93.75496875,158.51772570610046L93.80559375,154.45189956823984L93.85621875000001,156.70119945208234L93.95746875,171.6739725470543L94.00809375,154.72428941726685L94.05871875,164.90244670708975L94.15996875,158.98948166767755L94.21059375,162.56517136096954L94.31184375,164.6013666590055L94.41309375,163.78449602921805L94.51434375,156.286478082339L94.56496875,158.4857650001844L94.76746875,150.34413123130798L94.96996875,144.8459754784902L95.07121875,156.38741834958395L95.12184375,167.1651861468951L95.17246875,162.3705468972524L95.42559375,148.8767520984014L95.57746875000001,160.6493166486422L95.62809375,160.06607625881833L95.67871875,158.38849965731302L95.72934375,161.20788170893988L95.83059375,160.8464027841886L96.03309374999999,163.62501486142477L96.08371874999999,165.28062983353934L96.13434375,170.2972884376844L96.23559375,166.05356548229852L96.48871875,169.19563168287277L96.64059375,161.16334889332452L96.79246875,166.5725269317627L97.09621875,150.62113964557648L97.14684375,154.8893738190333L97.24809375000001,169.67678888638815L97.70371875,156.36370424429577L97.75434374999999,154.28938233852386L97.80496875,168.65501338243484L97.85559375000001,165.72290434439978L97.95684375,168.40111537774405L98.05809375,164.45263479153314L98.26059375,154.45814752578735L98.31121875,163.75211332241693L98.46309375,170.87277456124625L98.51371875,164.40217638015747L98.56434374999999,156.18689759572348L98.61496874999999,164.89714239041012L98.66559375,157.5551651318868L98.71621875000001,174.72751820087433L98.96934375000001,165.68239812056223L99.07059375,158.46100761493048L99.27309375,160.44301096598306L99.37434375,152.22542289892831L99.42496874999999,163.72276667753857L99.52621875000001,162.71914893388748L99.77934375000001,148.92291430632272L100.03246874999999,152.3553640047709L100.13371875,149.48684815565744L100.23496875,149.9623142083486L100.28559374999999,159.25598694880804L100.33621874999999,154.24307946364084L100.38684375000001,155.3848614692688L100.48809375,165.32805804411572L100.84246875,159.73107788960138L100.94371875,162.27007551987967L100.99434375,164.4622060060501L101.04496875,158.93459224700928L101.09559374999999,167.7948935230573L101.34871875,154.8247607946396L101.39934375,141.61975526809692L101.50059375000001,150.86796327431998L101.55121875,159.91825286547342L101.70309375,159.69828490416208L101.75371874999999,161.90730714797974L101.80434375,160.5472569068273L102.00684374999999,148.30314739545187L102.20934375,168.8687861363093L102.41184375,151.22042779127756L102.51309375,158.61300998926163L102.76621875,156.38685568173727L102.91809375000001,155.1512722571691L102.96871875000001,162.40659866730374L103.06996875,147.0436271429062L103.22184375,156.22529967625937L103.27246875,147.3886480331421L103.37371875,165.09718253215155L103.42434374999999,150.5296709537506L103.62684374999999,158.90717391173044L103.67746874999999,163.95006104310355L103.77871875000001,158.76555158694586L104.08246875,170.94899260997772L104.38621875,159.9606346487999L104.43684375,163.8437695701917L104.53809375,159.6930509209633L104.63934375000001,155.05582972367606L104.79121875,150.10748251279196L105.04434375,156.79462575912476L105.14559374999999,149.82910259564719L105.19621875,156.6601481437683L105.29746875,152.77681394418082L105.80371875,140.27101699511212L105.85434375,149.49290855725607L105.90496875,159.15039881070456L106.20871875,154.13109683990479L106.25934375,162.25076311826706L106.41121875,157.64373842875165L106.51246875,161.46012101570764L106.56309375,160.0557958483696L106.66434375,152.6542695760727L106.71496875,166.55613923072815L106.76559375,157.10201823711395L106.86684375,161.88646499315897L107.11996875,164.8786036570867L107.27184375,159.1082163055738L107.42371875,160.54481281836829L107.52496875,159.9268276890119L107.57559375,160.33553554614386L107.82871875000001,166.2846695780754L107.92996875,163.97587343056998L107.98059375000001,163.91590241591135L108.08184375,160.8410164117813L108.13246875,165.5732874472936L108.38559375,153.47371323903403L108.43621875,162.86173834403357L108.63871875000001,158.41128184398016L108.68934375,156.94954697291058L109.34746874999999,158.51788395643234L109.39809375,152.1992236773173L109.44871875000001,167.15039267142615L109.70184375000001,155.53727412223816L109.75246875,160.27813170353573L109.90434375,166.8479821483294L110.05621875,171.09945936997732L110.10684375,167.38324338197708L110.25871875,159.736716290315L110.30934375000001,162.96918445825577L110.35996875000001,162.67335597674054L110.41059375,172.9587366580963L110.66371875,169.84552476803464L110.71434375,160.32893006006879L111.11934375000001,161.02395965655646L111.22059375,157.20360322793326L111.27121875,165.57819906870526L111.37246875,159.11966894070306L111.52434375,167.65899751583734L111.57496875,162.2876354455948L111.62559375,162.86369009812674L111.67621875,156.96160916487375L111.77746875,167.88407637675604L111.87871874999999,160.76483939091364L111.92934374999999,162.9211466908455L111.97996875000001,159.19179006417593L112.08121875,158.00510599215826L112.13184375,161.16675420602164L112.18246875,154.78016936779022L112.38496875,160.05794688065848L112.43559375,164.50239572922388L112.53684375,166.90806452433267L112.58746875,159.12549489736557L112.73934374999999,165.82288338740668L112.89121875000001,156.92019446690878L112.99246875,164.595540702343L113.19496875,162.83119016885757L113.29621875,154.83779593308768L113.34684374999999,151.66924917697906L113.39746875,156.7380073070526L113.90371875,156.38022089004517L113.95434375,163.75247085094452L114.15684375,161.03663726647696L114.20746875,153.05951937039694L114.51121875000001,152.81414930025738L114.61246875,172.8677720228831L114.71371875,160.56871447960535L114.76434375,158.12180682023367L114.86559375,158.64983542760214L114.96684375,164.92773745457333L115.21996874999999,155.1862983306249L115.37184375000001,161.07744826873144L115.52371875,160.71276917060217L115.57434375,164.36341677109402L115.62496875000001,165.34909947713217L115.67559375,166.1043814222018L115.72621875,159.98810573418936L115.77684375,162.9939770102501L115.87809374999999,148.76911842823029L116.08059374999999,160.80733253558478L116.23246875000001,163.47992861270905L116.38434375,157.9675186077754L116.53621875,153.5732820034027L116.89059375,162.73297532399496L116.94121875,157.09451599915823L116.99184375,169.77675620714822L117.19434375,161.82566756010056L117.24496875,145.7533008257548L117.39684375,156.07509080568948L117.54871874999999,162.19408605496088L117.59934374999999,156.0440854628881L117.64996875,162.7523639202118L117.90309375000001,176.4447159965833L118.05496875,153.03739949067435L118.10559375,153.1169935464859L118.15621875,171.25195407867432L118.25746875,156.44137585163116L118.45996875,150.30271653334302L118.71309375,164.6218923131625L118.91559375,160.95278217395148L119.06746875,163.99863217274347L119.11809375,158.51691687107086L119.21934375,157.7818382183711L119.26996874999999,171.91978806257248L119.57371875,167.88851324717203L119.67496875,158.3934933344523L120.23184375000001,161.76292423407236L120.28246875,162.36415827274323L120.63684375,159.57460347811383L120.68746875,162.80999634663263L120.78871875,151.8451649347941L120.83934375,167.4038100639979L120.99121874999999,161.7678182721138L121.04184375,164.4020064075788L121.09246875000001,164.66438545783362L121.34559375,162.52026929457983L121.49746875,172.81251335144043L121.64934375,164.40945003430048L121.80121874999999,157.49267969528833L121.95309375000001,163.19449776411057L122.00371875,158.02262489000955L122.05434375,148.32250082492828L122.40871874999999,160.69302890698114L122.45934375,153.96779421965283L122.66184374999999,155.28555059432983L122.76309375000001,152.3497256040573L122.81371875,149.03262281417847L123.26934375,155.65210525194806L123.47184374999999,171.18950966993967L124.02871875,149.7569169998169L124.18059375,161.37487683693567L124.23121875,158.65634713570276L124.28184375,160.08633816242218L124.33246874999999,169.55814802646637L124.38309374999999,158.48541919390362L124.43371875000001,170.36432210604352L124.48434375000001,152.37229092915854L124.53496875,163.822200636069L124.63621875,160.7510423064232L124.68684375000001,175.70403410991034L124.73746875,154.47520339488983L124.83871875,164.13450473546982L124.93996874999999,170.8819530804952L125.19309374999999,154.95573345820108L125.24371875000001,148.46401178836823L125.34496875,152.80518178145093L125.64871875,176.7280075351397L125.74996875,161.53027866284052L125.85121875,156.75713801383972L125.90184375,154.40545602639517L126.00309374999999,156.10151274998984L126.20559375,159.49331555763882L126.25621875,167.66005837917328L126.40809375,160.99698090553284L126.55996875,159.69040755430856L126.81309375,167.4381621082624L126.86371874999999,164.41664749383926L127.01559375000001,172.905359407266L127.06621875,157.82104327281317L127.16746875,165.85688962539038L127.21809375,148.37858005364737L127.26871875,158.62268084287643L127.36996875,155.01341863473257L127.42059375,173.28081711133322L127.52184375,168.38385436932245L127.57246875,158.33358093102774L127.62309375,160.1048768957456L127.92684375,152.4338092803955L128.07871875,161.9514648516973L128.17996875,165.72653824090958L128.28121875,155.94601714611053L128.33184375,167.33757936954498L128.48371875,163.88894710938135L128.58496875,160.99381589889526L128.78746875,159.528318186601L128.83809374999998,165.98350747426352L128.88871874999998,159.7035188873609L128.98996875,158.65501079956692L129.09121875,163.85572040081024L129.14184375,161.65344431002936L129.19246875,161.62653589248657L129.34434375,163.7025164961815L129.39496875,166.90907263755798L129.44559375,159.76969097057977L129.49621875,162.57905050118765L129.54684375,157.37427328030267L129.69871874999998,145.72746499379477L129.90121875,161.2366656859716L129.95184375,154.19826531410217L130.15434375,158.63904509941736L130.25559375,163.213036497434L130.50871874999999,169.59900005658469L130.60996874999998,164.60820072889328L130.71121875,152.83223672707877L130.81246875,155.94336791833243L130.96434375,155.9047313928604L131.01496875,164.02613842487335L131.21746875,164.6868921717008L131.26809375,165.3441233833631L131.31871875,163.94029055039087L131.36934374999998,161.46206104755402L131.41996874999998,156.13213125864667L131.47059375,162.0311233798663L131.52121875,151.27306067943573L131.67309375,167.70119760433832L131.77434375,162.1035727262497L131.87559375,165.26632869243622L132.02746875,156.73238062858582L132.12871875,154.70483048756918L132.17934375,158.72042679786682L132.22996874999998,170.6650622089704L132.28059374999998,148.41633741060892L132.33121875,161.93269167343777L132.38184375,167.67064942916235L132.58434375,166.39842226107916L132.78684375,160.94509824117026L132.88809375,158.65666949748993L132.93871875,162.8018611073494L133.03996874999999,163.2959889769554L133.14121875,160.66245728731155L133.19184375,155.78490658601126L133.34371875,163.87746516863504L133.54621875,161.67109801371893L133.69809375,161.87799566984177L133.79934375,162.57978900273642L134.00184375,155.50703072547913L134.05246875,159.66175252199173L134.10309375,153.30419782797497L134.20434375,154.73951661586761L134.25496875,159.2011326948802L134.30559375,157.05711030960083L134.35621875,160.34738087654114L134.40684375,166.79225458701453L134.71059375,166.18534111976624L134.76121875,166.4465713898341L134.86246875,162.06540509064993L134.91309375,158.1303347547849L134.96371875,161.3519657055537L135.16621875,153.05894498030344L135.26746875,164.10566800832748L135.41934375,147.14690013726553L135.57121874999999,173.95096623897552L135.62184375,160.3587573170662L135.72309375,161.6988094051679L135.87496875,155.21193488438925L135.92559375,161.7298323313395L136.02684375,171.3888992269834L136.07746875,169.19020428260168L136.12809375,163.51811383167902L136.22934375,157.0401130517324L136.33059375,162.4815858801206L136.48246875,154.79600612322488L136.63434375,156.25107689698538L136.68496875,156.86076267560324L136.73559375,165.85785084962845L136.83684374999999,148.08805588881177L136.98871875,160.7691297332446L137.08996875,156.35349416732788L137.29246875,157.62328896919885L137.39371875,157.3240375916163L137.54559375,161.7971883614858L137.64684375,144.2510597308477L137.69746875,158.256893992424L137.79871875,161.61722256739935L137.95059375,163.40230389436087L138.00121875,163.11219000816345L138.05184375000002,139.17651081085205L138.10246875,158.61033145586651L138.25434375,166.10877726475397L138.30496875,163.35386757055917L138.45684375,177.11709821224213L138.70996875,162.7250393629074L138.81121875,167.22074373563132L138.91246875000002,159.0543643037478L139.26684375000002,168.15130257606506L139.31746875000002,163.39748605092367L139.41871875,158.23135121663412L139.51996875,149.61608592669168L139.87434375,161.66349027554193L140.02621875,165.9277506073316L140.07684375,163.3309740225474L140.17809375,156.49128917853037L140.27934374999998,155.94845537344617L140.38059375,164.55141230424246L140.53246875000002,165.6845315694809L140.58309375000002,164.0328904390335L140.63371875,158.87867712974548L140.73496875,165.96189751227698L140.83621875,149.70096671581268L140.88684375,170.52999848127365L140.93746875,154.61842580636343L140.98809375000002,165.30102654298148L188.17059375,151.40423262119293L189.94246875,161.6855632662773L192.47371875000002,163.9060850342115L192.52434375,160.86303665240607L192.57496875,165.65008574724197L207.66121875,162.3510000507037L207.76246875,160.36332899332047L208.26871874999998,168.12890136241913L208.36996875,171.21361060937247L208.42059375,170.78359170754752L208.47121875000002,160.9918641448021L209.58496875,168.25250073273978L209.68621875,168.9029564857483L209.73684375,157.5346453388532L209.88871874999998,156.0771304766337L209.98996875,165.7684159676234L210.04059375,155.5976671377818L210.09121875,160.08449776967367L210.74934375,167.08162997166318L210.90121875,158.50443267822266L212.72371875,160.54337684313455L216.41934375,173.02803858121237L216.46996875,161.41915176312128L216.92559375000002,166.05150236686072L217.17871875,164.5507089694341L217.27996875,150.8207812309265L217.43184375,159.14046420653662L217.48246875,156.61317710081735L218.79871875,157.31522246201834L220.31746875000002,162.06306064128876L220.41871875,170.66854371627173L220.72246875,154.29897113641104L221.12746875,162.60873709122342L221.17809375,164.3346210718155L221.27934374999998,176.61586666107178L221.43121875,164.84589272737503L221.48184375,159.28216272592545L221.58309375,160.41074548165005L222.19059375,163.27454312642416L222.44371875000002,157.5231927037239L222.59559375,168.46267475684485L222.64621875,158.67525511980057L222.69684375,161.1785936752955L222.79809375,167.52218131224313L222.84871875,166.33380337556204L225.98746875,155.22365713119507L249.98371875,159.3985236088435L250.08496875,158.83521103858948L250.43934375,161.15806802113852L250.59121875,152.2571550210317L252.91996874999998,168.83991424242654L253.07184375,165.75024648507437" style="fill: none;" fill="none"></path></g></g></g></g></g></g><g transform="translate(51, 177)" clip-path="url(#clip_1)"><clipPath id="clip_1"><rect width="278" height="23"></rect></clipPath><g><g><line x1="0" y1="0" x2="0" y2="5" style="visibility: inherit;" fill="rgb(0, 0, 0)" stroke="rgb(204, 204, 204)" stroke-width="1px"></line><line x1="25.3125" y1="0" x2="25.3125" y2="5" style="visibility: inherit;" fill="rgb(0, 0, 0)" stroke="rgb(204, 204, 204)" stroke-width="1px"></line><line x1="50.625" y1="0" x2="50.625" y2="5" style="visibility: inherit;" fill="rgb(0, 0, 0)" stroke="rgb(204, 204, 204)" stroke-width="1px"></line><line x1="75.9375" y1="0" x2="75.9375" y2="5" style="visibility: inherit;" fill="rgb(0, 0, 0)" stroke="rgb(204, 204, 204)" stroke-width="1px"></line><line x1="101.25" y1="0" x2="101.25" y2="5" style="visibility: inherit;" fill="rgb(0, 0, 0)" stroke="rgb(204, 204, 204)" stroke-width="1px"></line><line x1="126.5625" y1="0" x2="126.5625" y2="5" style="visibility: inherit;" fill="rgb(0, 0, 0)" stroke="rgb(204, 204, 204)" stroke-width="1px"></line><line x1="151.875" y1="0" x2="151.875" y2="5" style="visibility: inherit;" fill="rgb(0, 0, 0)" stroke="rgb(204, 204, 204)" stroke-width="1px"></line><line x1="177.1875" y1="0" x2="177.1875" y2="5" style="visibility: inherit;" fill="rgb(0, 0, 0)" stroke="rgb(204, 204, 204)" stroke-width="1px"></line><line x1="202.5" y1="0" x2="202.5" y2="5" style="visibility: inherit;" fill="rgb(0, 0, 0)" stroke="rgb(204, 204, 204)" stroke-width="1px"></line><line x1="227.8125" y1="0" x2="227.8125" y2="5" style="visibility: inherit;" fill="rgb(0, 0, 0)" stroke="rgb(204, 204, 204)" stroke-width="1px"></line><line x1="253.125" y1="0" x2="253.125" y2="5" style="visibility: inherit;" fill="rgb(0, 0, 0)" stroke="rgb(204, 204, 204)" stroke-width="1px"></line><line x1="278.4375" y1="0" x2="278.4375" y2="5" style="visibility: inherit;" fill="rgb(0, 0, 0)" stroke="rgb(204, 204, 204)" stroke-width="1px"></line></g><g transform="translate(0, 8)"><text x="0" y="0" dx="0em" dy="0.95em" style="text-anchor: middle; visibility: hidden; font-family: Roboto, sans-serif; font-size: 12px; font-weight: 200;" fill="rgb(33, 33, 33)" stroke="none" stroke-width="1px">-10k</text><text x="25.3125" y="0" dx="0em" dy="0.95em" style="text-anchor: middle; visibility: inherit; font-family: Roboto, sans-serif; font-size: 12px; font-weight: 200;" fill="rgb(33, 33, 33)" stroke="none" stroke-width="1px">0</text><text x="50.625" y="0" dx="0em" dy="0.95em" style="text-anchor: middle; visibility: inherit; font-family: Roboto, sans-serif; font-size: 12px; font-weight: 200;" fill="rgb(33, 33, 33)" stroke="none" stroke-width="1px">10k</text><text x="75.9375" y="0" dx="0em" dy="0.95em" style="text-anchor: middle; visibility: inherit; font-family: Roboto, sans-serif; font-size: 12px; font-weight: 200;" fill="rgb(33, 33, 33)" stroke="none" stroke-width="1px">20k</text><text x="101.25" y="0" dx="0em" dy="0.95em" style="text-anchor: middle; visibility: inherit; font-family: Roboto, sans-serif; font-size: 12px; font-weight: 200;" fill="rgb(33, 33, 33)" stroke="none" stroke-width="1px">30k</text><text x="126.5625" y="0" dx="0em" dy="0.95em" style="text-anchor: middle; visibility: inherit; font-family: Roboto, sans-serif; font-size: 12px; font-weight: 200;" fill="rgb(33, 33, 33)" stroke="none" stroke-width="1px">40k</text><text x="151.875" y="0" dx="0em" dy="0.95em" style="text-anchor: middle; visibility: inherit; font-family: Roboto, sans-serif; font-size: 12px; font-weight: 200;" fill="rgb(33, 33, 33)" stroke="none" stroke-width="1px">50k</text><text x="177.1875" y="0" dx="0em" dy="0.95em" style="text-anchor: middle; visibility: inherit; font-family: Roboto, sans-serif; font-size: 12px; font-weight: 200;" fill="rgb(33, 33, 33)" stroke="none" stroke-width="1px">60k</text><text x="202.5" y="0" dx="0em" dy="0.95em" style="text-anchor: middle; visibility: inherit; font-family: Roboto, sans-serif; font-size: 12px; font-weight: 200;" fill="rgb(33, 33, 33)" stroke="none" stroke-width="1px">70k</text><text x="227.8125" y="0" dx="0em" dy="0.95em" style="text-anchor: middle; visibility: inherit; font-family: Roboto, sans-serif; font-size: 12px; font-weight: 200;" fill="rgb(33, 33, 33)" stroke="none" stroke-width="1px">80k</text><text x="253.125" y="0" dx="0em" dy="0.95em" style="text-anchor: middle; visibility: inherit; font-family: Roboto, sans-serif; font-size: 12px; font-weight: 200;" fill="rgb(33, 33, 33)" stroke="none" stroke-width="1px">90k</text><text x="278.4375" y="0" dx="0em" dy="0.95em" style="text-anchor: middle; visibility: hidden; font-family: Roboto, sans-serif; font-size: 12px; font-weight: 200;" fill="rgb(33, 33, 33)" stroke="none" stroke-width="1px">100k</text></g><line x1="0" y1="0" x2="278.4375" y2="0" fill="rgb(0, 0, 0)" stroke="rgb(204, 204, 204)" stroke-width="1px"></line></g></g></g></g></svg>