<svg viewBox="0 0 330 200" xmlns="http://www.w3.org/2000/svg"><g><g><g><g><g><line x1="51.5625" y1="177" x2="46.5625" y2="177" style="visibility: inherit;" fill="rgb(0, 0, 0)" stroke="rgb(204, 204, 204)" stroke-width="1px"></line><line x1="51.5625" y1="157.33333333333334" x2="46.5625" y2="157.33333333333334" style="visibility: inherit;" fill="rgb(0, 0, 0)" stroke="rgb(204, 204, 204)" stroke-width="1px"></line><line x1="51.5625" y1="137.66666666666666" x2="46.5625" y2="137.66666666666666" style="visibility: inherit;" fill="rgb(0, 0, 0)" stroke="rgb(204, 204, 204)" stroke-width="1px"></line><line x1="51.5625" y1="118.00000000000001" x2="46.5625" y2="118.00000000000001" style="visibility: inherit;" fill="rgb(0, 0, 0)" stroke="rgb(204, 204, 204)" stroke-width="1px"></line><line x1="51.5625" y1="98.33333333333334" x2="46.5625" y2="98.33333333333334" style="visibility: inherit;" fill="rgb(0, 0, 0)" stroke="rgb(204, 204, 204)" stroke-width="1px"></line><line x1="51.5625" y1="78.66666666666669" x2="46.5625" y2="78.66666666666669" style="visibility: inherit;" fill="rgb(0, 0, 0)" stroke="rgb(204, 204, 204)" stroke-width="1px"></line><line x1="51.5625" y1="59.00000000000001" x2="46.5625" y2="59.00000000000001" style="visibility: inherit;" fill="rgb(0, 0, 0)" stroke="rgb(204, 204, 204)" stroke-width="1px"></line><line x1="51.5625" y1="39.33333333333333" x2="46.5625" y2="39.33333333333333" style="visibility: inherit;" fill="rgb(0, 0, 0)" stroke="rgb(204, 204, 204)" stroke-width="1px"></line><line x1="51.5625" y1="19.666666666666675" x2="46.5625" y2="19.666666666666675" style="visibility: inherit;" fill="rgb(0, 0, 0)" stroke="rgb(204, 204, 204)" stroke-width="1px"></line><line x1="51.5625" y1="0" x2="46.5625" y2="0" style="visibility: inherit;" fill="rgb(0, 0, 0)" stroke="rgb(204, 204, 204)" stroke-width="1px"></line></g><g transform="translate(41.5625, 0)"><text x="0" y="177" dx="0em" dy="0.3em" style="text-anchor: end; visibility: hidden; font-family: Roboto, sans-serif; font-size: 12px; font-weight: 200;" fill="rgb(33, 33, 33)" stroke="none" stroke-width="1px">0.45</text><text x="0" y="157.33333333333334" dx="0em" dy="0.3em" style="text-anchor: end; visibility: inherit; font-family: Roboto, sans-serif; font-size: 12px; font-weight: 200;" fill="rgb(33, 33, 33)" stroke="none" stroke-width="1px">0.5</text><text x="0" y="137.66666666666666" dx="0em" dy="0.3em" style="text-anchor: end; visibility: hidden; font-family: Roboto, sans-serif; font-size: 12px; font-weight: 200;" fill="rgb(33, 33, 33)" stroke="none" stroke-width="1px">0.55</text><text x="0" y="118.00000000000001" dx="0em" dy="0.3em" style="text-anchor: end; visibility: inherit; font-family: Roboto, sans-serif; font-size: 12px; font-weight: 200;" fill="rgb(33, 33, 33)" stroke="none" stroke-width="1px">0.6</text><text x="0" y="98.33333333333334" dx="0em" dy="0.3em" style="text-anchor: end; visibility: hidden; font-family: Roboto, sans-serif; font-size: 12px; font-weight: 200;" fill="rgb(33, 33, 33)" stroke="none" stroke-width="1px">0.65</text><text x="0" y="78.66666666666669" dx="0em" dy="0.3em" style="text-anchor: end; visibility: inherit; font-family: Roboto, sans-serif; font-size: 12px; font-weight: 200;" fill="rgb(33, 33, 33)" stroke="none" stroke-width="1px">0.7</text><text x="0" y="59.00000000000001" dx="0em" dy="0.3em" style="text-anchor: end; visibility: hidden; font-family: Roboto, sans-serif; font-size: 12px; font-weight: 200;" fill="rgb(33, 33, 33)" stroke="none" stroke-width="1px">0.75</text><text x="0" y="39.33333333333333" dx="0em" dy="0.3em" style="text-anchor: end; visibility: inherit; font-family: Roboto, sans-serif; font-size: 12px; font-weight: 200;" fill="rgb(33, 33, 33)" stroke="none" stroke-width="1px">0.8</text><text x="0" y="19.666666666666675" dx="0em" dy="0.3em" style="text-anchor: end; visibility: hidden; font-family: Roboto, sans-serif; font-size: 12px; font-weight: 200;" fill="rgb(33, 33, 33)" stroke="none" stroke-width="1px">0.85</text><text x="0" y="0" dx="0em" dy="0.3em" style="text-anchor: end; visibility: hidden; font-family: Roboto, sans-serif; font-size: 12px; font-weight: 200;" fill="rgb(33, 33, 33)" stroke="none" stroke-width="1px">0.9</text></g><line x1="51.5625" y1="0" x2="51.5625" y2="177" fill="rgb(0, 0, 0)" stroke="rgb(204, 204, 204)" stroke-width="1px"></line></g></g><g transform="translate(51, 0)" clip-path="url(#clip_0)"><clipPath id="clip_0"><rect width="278" height="177"></rect></clipPath><g><g><g><line x1="0" y1="0" x2="0" y2="177" fill="rgb(0, 0, 0)" stroke="rgb(66, 66, 66)" stroke-width="1px" opacity="0.25"></line><line x1="23.203125" y1="0" x2="23.203125" y2="177" fill="rgb(0, 0, 0)" stroke="rgb(66, 66, 66)" stroke-width="1px" opacity="0.25"></line><line x1="46.40625" y1="0" x2="46.40625" y2="177" fill="rgb(0, 0, 0)" stroke="rgb(66, 66, 66)" stroke-width="1px" opacity="0.25"></line><line x1="69.609375" y1="0" x2="69.609375" y2="177" fill="rgb(0, 0, 0)" stroke="rgb(66, 66, 66)" stroke-width="1px" opacity="0.25"></line><line x1="92.8125" y1="0" x2="92.8125" y2="177" fill="rgb(0, 0, 0)" stroke="rgb(66, 66, 66)" stroke-width="1px" opacity="0.25"></line><line x1="116.015625" y1="0" x2="116.015625" y2="177" fill="rgb(0, 0, 0)" stroke="rgb(66, 66, 66)" stroke-width="1px" opacity="0.25"></line><line x1="139.21875" y1="0" x2="139.21875" y2="177" fill="rgb(0, 0, 0)" stroke="rgb(66, 66, 66)" stroke-width="1px" opacity="0.25"></line><line x1="162.421875" y1="0" x2="162.421875" y2="177" fill="rgb(0, 0, 0)" stroke="rgb(66, 66, 66)" stroke-width="1px" opacity="0.25"></line><line x1="185.625" y1="0" x2="185.625" y2="177" fill="rgb(0, 0, 0)" stroke="rgb(66, 66, 66)" stroke-width="1px" opacity="0.25"></line><line x1="208.828125" y1="0" x2="208.828125" y2="177" fill="rgb(0, 0, 0)" stroke="rgb(66, 66, 66)" stroke-width="1px" opacity="0.25"></line><line x1="232.03125" y1="0" x2="232.03125" y2="177" fill="rgb(0, 0, 0)" stroke="rgb(66, 66, 66)" stroke-width="1px" opacity="0.25"></line><line x1="255.234375" y1="0" x2="255.234375" y2="177" fill="rgb(0, 0, 0)" stroke="rgb(66, 66, 66)" stroke-width="1px" opacity="0.25"></line><line x1="278.4375" y1="0" x2="278.4375" y2="177" fill="rgb(0, 0, 0)" stroke="rgb(66, 66, 66)" stroke-width="1px" opacity="0.25"></line></g><g><line x1="0" y1="177" x2="278.4375" y2="177" fill="rgb(0, 0, 0)" stroke="rgb(66, 66, 66)" stroke-width="1px" opacity="0.25"></line><line x1="0" y1="157.33333333333334" x2="278.4375" y2="157.33333333333334" fill="rgb(0, 0, 0)" stroke="rgb(66, 66, 66)" stroke-width="1px" opacity="0.25"></line><line x1="0" y1="137.66666666666666" x2="278.4375" y2="137.66666666666666" fill="rgb(0, 0, 0)" stroke="rgb(66, 66, 66)" stroke-width="1px" opacity="0.25"></line><line x1="0" y1="118.00000000000001" x2="278.4375" y2="118.00000000000001" fill="rgb(0, 0, 0)" stroke="rgb(66, 66, 66)" stroke-width="1px" opacity="0.25"></line><line x1="0" y1="98.33333333333334" x2="278.4375" y2="98.33333333333334" fill="rgb(0, 0, 0)" stroke="rgb(66, 66, 66)" stroke-width="1px" opacity="0.25"></line><line x1="0" y1="78.66666666666669" x2="278.4375" y2="78.66666666666669" fill="rgb(0, 0, 0)" stroke="rgb(66, 66, 66)" stroke-width="1px" opacity="0.25"></line><line x1="0" y1="59.00000000000001" x2="278.4375" y2="59.00000000000001" fill="rgb(0, 0, 0)" stroke="rgb(66, 66, 66)" stroke-width="1px" opacity="0.25"></line><line x1="0" y1="39.33333333333333" x2="278.4375" y2="39.33333333333333" fill="rgb(0, 0, 0)" stroke="rgb(66, 66, 66)" stroke-width="1px" opacity="0.25"></line><line x1="0" y1="19.666666666666675" x2="278.4375" y2="19.666666666666675" fill="rgb(0, 0, 0)" stroke="rgb(66, 66, 66)" stroke-width="1px" opacity="0.25"></line><line x1="0" y1="0" x2="278.4375" y2="0" fill="rgb(0, 0, 0)" stroke="rgb(66, 66, 66)" stroke-width="1px" opacity="0.25"></line></g></g></g><g><g><line x1="0" y1="354" x2="278.4375" y2="354" fill="rgb(0, 0, 0)" stroke="rgb(153, 153, 153)" stroke-width="1.5px"></line></g></g><g><g><line x1="23.203125" y1="0" x2="23.203125" y2="177" fill="rgb(0, 0, 0)" stroke="rgb(153, 153, 153)" stroke-width="1.5px"></line></g></g><g><g><g><g><g><path stroke="rgb(0, 153, 136)" stroke-width="2px" d="M23.432835937500002,15.548350652058936L23.8968984375,62.44577789306642L23.9433046875,73.93601990394858L24.082523437499997,77.1109270818678L24.1289296875,89.1010388327561L24.4537734375,95.37227685902651L24.500179687499998,107.44080641738189L25.1034609375,117.45433972995491L25.428304687500003,122.96311181821847L25.4747109375,124.39077702475059L25.5211171875,120.2664330526133L25.7531484375,128.61874065993143L26.124398437500002,131.97189861034187L26.1708046875,130.49919077441024L26.3100234375,127.0316378498781L26.3564296875,134.09705066791327L26.495648437499998,131.35034449024332L26.5420546875,128.50905989009865L26.820492187499998,129.6091406956562L27.0525234375,133.29686950091482L27.3773671875,134.34765470284563L27.841429687500003,133.24810036126058L28.0270546875,130.80291468517433L28.2126796875,130.94258693248918L28.862367187500002,130.99298604784596L29.0479921875,140.18034140532225L29.0943984375,146.54622818651836L29.1872109375,136.97773227572958L29.280023437500002,132.38266202665304L29.558460937499998,143.85658177390798L29.9297109375,146.4601825868828L30.022523437500002,140.99689969426032L30.0689296875,142.38355944225074L30.2081484375,141.7655132772407L30.5329921875,147.18404080816018L30.6722109375,152.50582654212187L30.765023437500002,149.33680787668976L30.857835937500003,147.08197563637293L31.182679687500002,144.22793474604015L31.2290859375,145.25518685404282L31.4611171875,146.12683927580386L31.7859609375,143.3693177581352L31.832367187499997,140.63035635156953L32.1108046875,139.68860755747252L32.157210937500004,135.9869569916793L32.6676796875,132.819887557186L32.7604921875,133.02339533084833L33.1317421875,141.37670227972072L33.2245546875,138.9827678506493L33.6422109375,135.09571676479135L33.874242187499995,132.2500798365913L34.5703359375,136.15998897125127L34.6167421875,142.29368310672996L35.220023437500004,142.13448864720024L35.2664296875,140.28104757369496L35.3128359375,128.9726538127674L35.823304687500006,135.41064017609978L35.9625234375,136.4167392031128L36.1481484375,135.1541231498583L36.3337734375,133.3822228128987L36.472992187500004,140.85571038019347L36.6122109375,138.356438497454L36.705023437499996,139.93594386960075L36.937054687499995,131.09275767078995L37.0298671875,130.38858742438356L37.0762734375,139.4796357170101L37.540335937500004,136.07838856470718L37.725960937500005,136.45768405969227L37.9115859375,140.71269713625486L38.0043984375,132.17723786106805L38.0508046875,137.17880699200094L38.190023437499995,141.22144358851114L38.8861171875,133.77725009221396L39.257367187499995,138.23495551009117L39.3037734375,135.3820705019979L39.8606484375,134.30862052461794L40.1390859375,136.14794134629543L40.1854921875,136.11341620802543L40.2318984375,141.43400383782188L40.7887734375,143.17349176878807L41.1600234375,147.43435985212574L41.345648437499996,137.0563285094403L41.438460937500004,139.992011674756L41.6704921875,137.45152579656096L41.9025234375,146.4180918708097L41.995335937499995,142.04148358750254L42.5058046875,132.57846659013373L42.784242187500006,132.223212887379L42.830648437499995,140.0611154613092L43.4803359375,145.47846392654546L43.5267421875,139.5902281514595L43.619554687500006,137.63552310735724L43.8051796875,132.48958988192126L43.8515859375,131.64396122615997L43.9443984375,132.5871886304307L44.2228359375,140.1212130640718L44.4084609375,146.9493536306286L44.6404921875,143.23796497302436L44.8261171875,143.03213152796337L44.9653359375,138.33452635711618L45.0581484375,135.4787615321449L45.2437734375,138.28020570570456L45.2901796875,144.01448448833364L45.5222109375,148.26285522979424L45.568617187499996,138.25501627406632L45.8470546875,142.51157388695768L45.9398671875,138.0647669729115L46.1718984375,145.84335693298905L46.914398437500004,148.3274393751967L47.0072109375,148.23953988600258L47.0536171875,135.2631356226314L47.1000234375,135.8115198318308L47.2392421875,141.00200055266293L47.332054687500005,140.52308273846828L47.981742187500004,138.79821885745676L48.02814843749999,142.92416504097554L48.1209609375,133.5827326798791L48.2137734375,134.13744506981098L48.306585937499996,131.5210114742088L48.4922109375,137.21773460058972L48.5850234375,149.64510288168157L48.7706484375,145.90550277031954L48.863460937499994,145.00963228581844L49.0490859375,140.4567997076422L49.3275234375,144.1068226109928L49.4203359375,141.0205217765363L49.6059609375,142.43175527452976L50.3484609375,132.58983189065987L50.3948671875,141.96384821454527L50.5340859375,139.60832442911374L50.626898437499996,141.7590420766984L50.8125234375,134.77477615620583L50.9053359375,145.17650549538467L51.4622109375,140.27442686315894L51.6942421875,137.38270383212875L51.7406484375,142.10328012983348L52.1118984375,142.51388474075208L52.1583046875,141.78161807716813L52.390335937500005,150.7499941420213L52.436742187499995,151.41893445442057L52.622367187500004,147.3347293237245L52.807992187500005,142.52995708581184L53.0864296875,145.31443433958117L53.1328359375,148.37726410030024L53.3648671875,151.1908718256078L53.457679687500004,148.6872922921929L53.7825234375,147.09557722875L53.875335937500004,148.43652371685815L54.2001796875,147.47417390418715L54.5714296875,145.20490620179575L54.6178359375,155.5205086249725L54.9890859375,147.56286714346902L55.360335937500004,140.67417035423736L55.4531484375,145.7617560183387L56.195648437500004,154.30461395315615L56.7061171875,151.26559625783935L56.7989296875,144.8510035676919L56.8917421875,147.88303802826977L56.9381484375,146.96854634932066L57.030960937500005,146.3720620861732L57.077367187499995,148.37822986390688L57.1701796875,150.5932790959666L57.2165859375,148.02924731521546L57.2629921875,144.27679591466233L57.495023437499995,141.08113091641212L57.7734609375,140.9980009642455L58.701585937500006,142.98239232583123L59.0728359375,147.30220121631987L59.2120546875,144.59616552883367L59.2584609375,138.9681870962817L59.3512734375,134.21221674436165L59.4440859375,138.86483929725787L59.5368984375,142.06563177608828L59.815335937499995,141.4697159860733L60.5578359375,147.2492316047869L60.604242187500006,144.21853996995225L60.6970546875,145.18656869937857L60.8362734375,138.17118245090973L61.2075234375,132.55479343966206L61.2539296875,142.3290778650973L61.6715859375,139.84457669978147L61.85721093750001,143.2464135944335L62.2284609375,142.8974715188834L62.3676796875,144.09221575155019L62.4604921875,145.27783025201654L63.0173671875,146.04563453731834L63.1565859375,144.53427883945642L63.2493984375,149.75170168655757L63.4350234375,147.88276717689223L63.6670546875,140.00271531915618L64.27033593750001,146.40958080078732L64.3631484375,148.86538282266605L64.6415859375,152.78387151895768L64.7808046875,138.32583486282113L64.8736171875,133.09652818387718L65.0592421875,136.70291218645954L65.10564843750001,140.43557307812128L65.3840859375,135.09402686968974L66.3122109375,138.6835478382242L66.40502343749999,141.3925948284228L66.4978359375,138.70221059374964L66.9618984375,141.938795825956L67.2867421875,138.5729980117784L67.5651796875,141.3159305997713L67.9364296875,146.2889795749202L68.6789296875,147.4848474770078L68.8181484375,147.33719138161078L69.0037734375,140.90177943620523L69.2822109375,143.68326695549553L69.3750234375,151.2980253365918L69.6070546875,141.47536073926796L69.7462734375,141.9065143116536L69.8390859375,151.073799871299L70.34955468749999,155.17351744744778L70.6743984375,158.05337954068347L70.8600234375,156.21484540604052L70.95283593750001,159.50311302365364L71.3240859375,156.43748618297678L71.3704921875,150.7166678496176L72.2522109375,154.46636933413984L72.4378359375,153.40808777607188L72.9018984375,156.10654603201175L72.9483046875,153.72813320214365L73.04111718749999,153.9537159923006L73.22674218750001,148.59409836470815L73.6443984375,151.19912666205406L74.2012734375,152.2467586484979L74.3868984375,143.15282193943446L74.4797109375,144.48626659785458L74.6189296875,147.87025418961898L74.7117421875,142.29000145048812L74.8045546875,146.67640393883534L75.2686171875,146.98925679074057L75.3150234375,147.98110525496597L75.4542421875,153.1014048458405L75.5006484375,156.00013285882878L75.6398671875,153.16182291114893L75.7790859375,152.0490192469233L75.87189843750001,141.5271193601454L76.1039296875,147.2881187052189L76.42877343750001,147.9090599209463L76.66080468749999,145.39020587546005L76.70721093750001,145.07635378167456L77.26408593750001,139.0997939864323L77.7281484375,147.0706524347976L77.8209609375,142.00641454234014L77.86736718750001,142.92381125871913L78.1922109375,145.62267454972613L78.4242421875,146.60179842617558L78.6098671875,149.6084068920599L78.65627343749999,148.32054028747797L79.2131484375,155.70385487380614L79.5843984375,148.40310522419006L79.7700234375,144.72647788823718L80.00205468749999,149.05728581766928L80.0948671875,141.48289532991632L80.2804921875,146.95816565075944L80.9765859375,141.36625789316156L81.0693984375,148.91024262931938L81.2550234375,147.85626256799893L81.30142968749999,141.43432247839095L81.34783593750001,147.9714813482864L81.4406484375,151.10286730043708L81.5798671875,143.7427115848419L81.7654921875,149.4247148440733L82.04392968750001,151.13798902073228L82.2295546875,142.61665492239828L82.4615859375,151.26992188880783L82.74002343750001,143.4830338497357L82.87924218750001,144.63599493142345L83.1112734375,145.98912198962597L83.2504921875,147.42631913595497L83.4825234375,147.20766809010368L83.5289296875,146.89669570778125L83.6681484375,146.6302978443363L83.8537734375,149.00433999581688L84.27142968749999,157.37083926767244L84.5962734375,148.19988062562624L84.7354921875,147.6938896968886L84.7818984375,146.29535288780477L85.1995546875,142.16291714014338L85.6636171875,140.581698641986L85.80283593749999,144.40155878810708L86.08127343749999,144.08775070000863L86.3597109375,149.68702511800834L86.5453359375,147.94749211955173L87.0558046875,150.42822993410488L87.1022109375,143.72124663559313L87.2878359375,148.77734347721562L87.5662734375,147.4898250532585L87.75189843749999,150.95844164882726L87.8911171875,148.05686897870675L89.0048671875,152.63860990307793L89.88658593749999,155.30814480206604L89.9793984375,153.25971750868104L90.0258046875,150.1373307175601L90.0722109375,139.42479001683978L90.4898671875,139.33475297611744L90.8611171875,142.05188865217642L90.9075234375,144.3872022474989L91.0003359375,146.35369341245402L91.0467421875,153.70551047725147L91.6500234375,153.66227821907995L91.7428359375,133.79142840147972L92.25330468749999,135.76491063102657L92.39252343749999,146.86326369403548L92.5781484375,151.42341661905496L92.7637734375,155.46328948610176L92.9493984375,147.0621309042363L93.27424218750001,150.67782737575305L93.3206484375,151.14800711728532L93.3670546875,142.69650655740932L93.4598671875,145.36395836127463L93.5990859375,146.0986336723129L94.1559609375,142.87943456104358L94.43439843750001,132.9778657130259L94.5736171875,132.5256367150063L94.6200234375,139.59111292499986L95.0840859375,141.57045262260453L95.2233046875,144.2892350745393L95.73377343749999,147.84304679983018L95.8729921875,146.40098633897202L96.0122109375,146.61933580159288L96.2442421875,149.50349800856395L96.3834609375,148.6220442994723L96.8011171875,146.8958711630676L97.3115859375,147.50876531640134L97.5436171875,140.28010138853057L97.6364296875,133.30355945219793L98.75017968750001,128.47037871076782L99.1214296875,135.39477278030387L99.2142421875,137.7018330806681L99.3534609375,133.92893711214393L99.6318984375,142.4920354812451L99.6783046875,148.79386203263846L100.0031484375,143.3468911217132L100.37439843749999,144.88632083534074L100.5600234375,148.46019111036583L100.74564843750001,144.1568930424809L100.9312734375,152.86114969318467L101.0704921875,150.81636079827166L101.1633046875,150.993287472005L101.4417421875,148.86704003894843L101.53455468749999,146.75459511330436L101.8593984375,143.7012204125566L102.2306484375,142.2317881303058L102.3234609375,144.36319632433012L102.4626796875,140.39134680689668L102.55549218750001,144.03429720080675L102.6018984375,143.21920976605085L102.64830468749999,146.87250861465571L102.9731484375,137.42596609357778L103.1587734375,137.0930226582117L103.20517968749999,135.95377009339094L103.5300234375,135.77140556113102L103.9012734375,132.39410576623388L103.9476796875,137.51256660661127L104.1333046875,137.11714966321605L104.22611718750001,143.34239291682613L104.6437734375,150.44295841575527L105.15424218749999,152.19302076173346L105.6183046875,155.14771696372344L105.7111171875,149.46504504944988L106.03596093750001,144.53736405054397L106.0823671875,137.09194141514902L106.2679921875,137.46828270288984L106.4072109375,143.02414620915658L106.59283593750001,142.59323824047806L106.7784609375,147.685373969474L107.6601796875,148.64696834937646L107.84580468749999,150.90578606003078L108.03142968750001,149.02501447761188L108.1706484375,148.61173987248023L108.4490859375,153.46661449983802L108.5418984375,146.7702274571762L108.95955468749999,148.1077177515172L109.1451796875,143.4101618602202L109.56283593750001,140.01211795455168L109.79486718749999,140.92022694694572L109.8412734375,142.36399173864268L109.8876796875,143.67030375875157L110.63017968749999,137.3200065871703L110.8622109375,142.1678797750052L111.1870546875,139.83651554276804L111.37267968750001,133.25171874974325L111.51189843750001,142.91342168856156L111.7903359375,147.99069280907605L111.83674218750001,152.67374840270537L111.8831484375,154.23893703753387L112.0223671875,142.59241773526654L112.2543984375,141.83958798552027L112.5328359375,152.46118398053133L112.5792421875,141.10640017713717L113.0433046875,138.89807532941668L113.0897109375,144.35043338963612L113.2753359375,146.22103973247144L113.32174218749999,152.09770770878114L113.50736718750001,144.66651647097183L113.60017968749999,151.34506621841376L113.8786171875,147.41082867910734L114.0178359375,150.25840538897276L114.2034609375,147.24389875426783L114.2498671875,144.7567486395134L114.34267968750001,149.31644828496533L114.3890859375,144.14284615146013L114.4818984375,141.72971600945925L114.9923671875,148.05493011468332L115.0851796875,148.2702391369761L115.4564296875,142.86226653796163L115.5028359375,144.23203452274242L115.64205468749999,149.3527714402181L117.2662734375,144.31399084671548L117.68392968750001,141.66905097292394L117.7303359375,152.45123307780344L118.2408046875,141.11854754016352L118.5656484375,133.29705638562967L118.61205468749999,139.02832439864875L119.1689296875,142.95296764766297L119.3081484375,141.67065925833654L119.7258046875,144.6974816527192L120.1898671875,137.70167145368802L120.5611171875,143.46737302881883L120.60752343749999,142.302648942922L120.7003359375,142.29310135916143L120.8395546875,143.96521081651412L121.1179921875,145.70011349196338L121.3500234375,141.6516212682432L121.3964296875,148.0005428986056L121.58205468749999,148.481373274106L121.62846093750001,155.08061808970265L121.9533046875,148.4863214013578L122.3709609375,141.9760472328028L122.5101796875,151.01349856558807L122.9742421875,155.6503865844212L123.43830468750001,149.3916474576514L123.9023671875,149.8823424416217L124.7376796875,151.15337263568836L125.0625234375,156.7346594354983L125.38736718749999,152.4776157868788L125.4801796875,145.9976841648153L125.7586171875,146.25880975960087L125.8514296875,145.08384725712773L125.9906484375,148.53375918028576L126.0370546875,149.70424427007327L126.3154921875,150.59003068654553L126.5011171875,154.6585217097331L127.0115859375,152.74350281033492L127.1508046875,147.3332203118418L127.3828359375,145.1119784288653L127.9861171875,141.58782021441354L129.0998671875,145.45143671177803L129.9815859375,146.69225710636164L130.2136171875,142.8812685450263L130.2600234375,142.7373427017737L130.72408593749998,147.94221247022602L130.8633046875,139.3918865171189L131.0953359375,139.15833601437697L131.4665859375,140.0494727199238L131.6058046875,144.0314424617069L131.9306484375,150.58865202563862L131.9770546875,145.45305340944446L132.0234609375,146.31311686113708L132.11627343749998,144.5325698491448L132.3947109375,146.124450820874L132.7195546875,151.72043566993327L133.3692421875,153.09919878497593L133.8797109375,151.47641329360923L134.1117421875,152.02453345691916L134.29736718750002,146.8312989074136L134.3437734375,153.77868199337397L134.4829921875,144.93402997646058L134.5293984375,142.74588157331937L135.9215859375,149.99619228996434L136.0608046875,147.9374559682067L136.2464296875,148.41240558394526L136.2928359375,150.58162806055188L136.5248671875,150.42196003767597L136.5712734375,144.71906159821796L137.1281484375,139.08668496511567L137.4993984375,140.7099388100834L137.5922109375,136.01302446870795L137.63861718750002,143.86272063622152L138.1954921875,138.92767997643915L138.56674218749998,124.32907153007326L138.9379921875,138.320180484674L139.1700234375,145.1164846831689L139.2628359375,142.2941588648635L139.4020546875,149.2530100080457L139.49486718749998,150.66232058205722L139.54127343750002,145.11598143258797L139.8661171875,148.20445757674642L140.0517421875,145.38864738286017L140.09814843750002,147.24982044621592L140.1445546875,152.27663912886948L140.23736718749998,141.4749912491316L140.3301796875,143.36393994118023L140.5622109375,146.79739215786404L140.6550234375,144.80315094082638L141.0262734375,153.97629797988586L142.2792421875,153.64846688429586L142.3256484375,151.4908238922759L142.41846093750002,149.40522088260673L142.83611718749998,152.4381996173733L142.88252343750003,149.28189308915975L143.2073671875,148.44018551195327L143.34658593749998,148.51636871785723L143.3929921875,154.16408412311952L143.5322109375,151.54159209323615L143.8570546875,154.583300176418L143.9498671875,146.76265548655755L144.1818984375,144.4166967490675L144.7387734375,149.7377521288015L144.78517968749998,140.47293329784975L145.1564296875,148.4424338373524L145.2028359375,143.86241026121272L145.5276796875,147.15941812633213L145.66689843749998,144.28407813333715L145.7133046875,132.47003333502954L145.75971093750002,134.2240160667933L145.8989296875,137.7476803996585L146.7806484375,139.4777081492596L147.1518984375,145.35830686587414L147.1983046875,151.45824102221923L147.33752343749998,154.742545705988L147.66236718750002,151.69406099038562L147.8015859375,144.44252136697716L147.8943984375,142.47574317068066L148.0336171875,145.6484559592219L148.21924218750002,149.00988100071424L148.6368984375,147.29357552985155L148.9153359375,142.6915453779288L149.10096093750002,148.37917887216338L149.1473671875,144.0751726967823L149.33299218750003,148.49790866033624L149.37939843750002,151.7936480295046L149.4258046875,152.4906284323166L149.6578359375,148.50339001283032L149.88986718750002,143.3829987954993L149.9362734375,144.25560958257708L150.1218984375,151.33467846952715L150.3539296875,155.03696030284664L150.4003359375,160.60740813755413L150.4467421875,154.58214339302035L150.5859609375,152.5346428117318L151.0036171875,147.1788987851836L151.05002343750002,149.53083755195325L151.0964296875,148.88660330148647L151.3284609375,149.0375137005574L151.5604921875,147.20066936459102L151.69971093750002,148.8719525792954L151.83892968749998,141.9567199026798L151.9317421875,137.42000530612L152.0245546875,142.20691962908623L152.1637734375,148.69329949143085L152.4886171875,143.4468857999L153.0454921875,147.3157588336082L153.1383046875,143.5844177381125L153.7415859375,147.1670215115504L153.78799218749998,144.68183245572786L154.29846093749998,147.77774673092367L154.7625234375,148.66929775906405L154.8553359375,150.657158667442L154.9481484375,155.48197587406446L155.2265859375,157.21174051012088L155.55142968750002,158.78196747489068L155.5978359375,154.97544491720575L155.8298671875,150.5446253246012L156.0154921875,147.32942062373618L156.06189843750002,138.0884103800197L156.2475234375,145.99532626620967L156.8508046875,148.43580110004768L156.94361718750002,143.31374938764907L156.9900234375,143.77450381604075L157.40767968749998,149.43169751298768L157.50049218750002,145.14094154754687L157.5933046875,146.94438141615834L157.9645546875,139.89093409795552L158.3358046875,138.0275941857834L158.4750234375,139.80920520836946L158.5214296875,141.81763956992728L158.66064843750002,136.41917407144447L158.7534609375,143.18287552771574L158.79986718749998,150.18376483943624L158.9390859375,151.29016918198204L159.2175234375,142.3971077894525L159.4031484375,139.3020956533366L159.4495546875,142.27712979419312L160.0992421875,143.47268068693052L160.23846093749998,145.91600422006033L160.3776796875,148.25053242807294L160.7025234375,143.52436854818288L160.84174218750002,143.63797813879745L160.9345546875,150.85044538712876L161.2129921875,148.18637918474104L161.4450234375,151.35035073980782L161.72346093750002,153.7660833133763L161.8162734375,153.57101823092535L162.1411171875,148.29399618228894L162.2803359375,143.87192707491292L162.3731484375,145.9938788249038L162.41955468749998,141.0072200358277L162.5587734375,140.11281298361413L162.9300234375,142.05720573323285L163.34767968749998,137.10883286987135L163.57971093749998,145.8335990313354L163.8117421875,144.77073789856811L164.0437734375,139.55705931120306L164.6470546875,139.90678651928815L164.73986718749998,141.41537276784527L165.2039296875,146.04455103802647L165.52877343749998,139.87410127914728L165.6679921875,143.63873383877743L165.9000234375,144.15754745887557L166.3176796875,144.25095188510522L166.3640859375,147.32583882744373L166.6425234375,146.52171201508398L166.92096093749998,140.28757955432627L167.0601796875,137.91596779307145L167.2458046875,141.79115620303403L167.29221093750002,140.72358844507687L167.3386171875,141.39514231977236L167.43142968749999,133.3698260801874L167.6170546875,140.74622314877365L167.7562734375,138.2397778294904L167.8026796875,142.59639635060765L167.9883046875,146.09737581237877L168.0347109375,143.0113381677353L168.08111718749998,145.7245929320743L168.3131484375,154.9195937045469L168.4059609375,154.96659056314155L168.8700234375,156.1176814554234L169.1948671875,147.21491016058718L169.51971093749998,149.0897250956809L169.6589296875,154.49989706594837L170.4942421875,150.02567692390537L170.7262734375,146.60975166037554L171.1439296875,145.82514884397312L171.28314843750002,154.87221855913555L171.3759609375,147.28631413973343L171.70080468749998,144.92555626032933L171.8864296875,148.1104397602768L171.9328359375,152.082084581925L172.3040859375,150.54158858001637L172.4897109375,150.01072709286456L172.5361171875,148.70274003659236L172.67533593750002,142.43068905064194L172.7681484375,146.29820037318504L173.0929921875,145.96457480053047L173.2786171875,144.1271110454794L173.46424218750002,144.82185953932586L173.6498671875,146.21537810610286L173.7426796875,147.77668370036216L174.02111718749998,148.35717639860272L174.7636171875,153.34171440722596L174.90283593750002,152.07774926735195L175.04205468749998,152.39592257447978L175.1812734375,148.00605384096266L175.2276796875,149.39607046197708L175.4597109375,145.82007740825927L175.8309609375,145.37155344619657L176.1093984375,143.27387172302193L176.24861718749997,145.55720989497854L176.29502343750002,154.38537510589174L176.6662734375,151.09528769069163L177.0375234375,148.52312869834847L177.64080468749998,146.35913564567537L177.96564843750002,151.92833532773318L178.24408593750002,153.92359729140716L178.4761171875,157.23894102293085L178.9865859375,151.16974496196408L179.35783593750003,144.83242940515694L179.40424218750002,141.25220947033415L179.6362734375,141.3693313711857L179.7290859375,149.85739683194808L179.82189843749998,149.10057237396947L179.9611171875,155.2287162144004L180.0539296875,147.53244422270967L180.2859609375,142.13877144492136L180.3323671875,139.64606769305345L180.7036171875,143.78319134367632L180.75002343749998,146.09325166177626L180.8892421875,149.61542819916338L181.2140859375,156.3265462973463L181.3533046875,154.7124719932922L181.3997109375,151.37388288469606L181.4461171875,149.55595029686785L181.8637734375,151.63825290974913L182.0493984375,153.92027064309679L182.23502343750002,149.9612512199849L182.5598671875,148.51838649960973L182.6062734375,141.2205114224709L182.8383046875,144.85118499552152L183.5343984375,145.08133296462861L183.5808046875,145.16419589694124L183.7664296875,153.95743908192188L183.8592421875,150.70281059169056L184.18408593750002,148.02792433871795L184.3697109375,146.80933908605957L184.7873671875,146.68797921330363L184.83377343749999,138.74999519501506L184.8801796875,139.55779464432226L184.9265859375,138.9352752808052L184.9729921875,140.7027804638933L185.1586171875,145.02073653852887L185.2514296875,144.3677488027967L185.34424218750002,146.4701314365242L185.48346093749998,149.0434586124842L185.6226796875,147.7442005108133L185.6690859375,150.87447447162873L185.8083046875,143.12120011597082L186.3187734375,145.2021752227299L186.5972109375,148.14019862983338L186.8756484375,142.19052449965707L187.2933046875,145.87177367272514L187.3397109375,156.94343265252832L187.5717421875,148.20270462249235L187.7109609375,142.9258112475148L187.9893984375,143.17337167053648L188.17502343750002,143.35662453048965L188.3606484375,144.7069212476822L188.7318984375,143.88683483682547L188.87111718749998,139.9968131086179L189.1495546875,133.64903712079615L189.19596093750002,146.86679434660485L189.5672109375,151.24739437033782L189.7064296875,148.14388985274263L189.7528359375,151.1456849426311L189.8920546875,148.72994159759773L190.30971093750003,148.76787990988305L190.9129921875,150.3435780206979L190.9593984375,148.2126291910605L191.0058046875,152.62593749680894L191.0522109375,154.38444308153058L191.1914296875,146.3381783229784L191.70189843749998,144.3766963678206L192.8156484375,145.59748493418726L192.9548671875,139.38610231152555L193.0476796875,149.1445689078453L193.1404921875,150.73136780319314L193.2797109375,150.45913817281146L193.37252343749998,152.92032705423006L193.46533593750002,156.08125060405396L193.60455468749998,150.28392679853874L193.65096093749997,152.20240805564507L194.4862734375,151.96750523657508L194.9503359375,142.4558463375424L195.27517968749999,150.90505355282554L195.4608046875,146.14169937183817L195.5072109375,146.17298625594591L195.7392421875,147.5936640820079L195.7856484375,142.0375653378868L195.9248671875,150.48750244812396L196.43533593749999,152.3147067580793L196.4817421875,153.59978565101864L197.0386171875,148.27126032824347L197.0850234375,152.6483483078978L197.1778359375,151.4919539628169L197.22424218749998,144.2229028108363L197.3634609375,143.89601626968252L197.4098671875,144.83021840438764L197.4562734375,149.48330426803543L197.7811171875,150.16160655374117L197.87392968749998,142.42924116664005L197.96674218750002,140.79715966351552L198.5236171875,144.3565396577183L198.66283593749998,148.13612367968142L198.7092421875,145.14975676294395L198.7556484375,146.55836319142315L198.8020546875,144.34087907004596L198.9876796875,140.9271390282804L199.1268984375,142.9758859064397L199.82299218749998,146.8837987176309L199.9158046875,143.30316633334138L200.1942421875,144.2764868717415L200.2870546875,137.46355390435596L200.4726796875,141.02374429634892L200.6583046875,142.8674494294227L200.7047109375,136.02794913458234L201.4008046875,136.78105714325554L201.81846093750002,139.08260809424186L201.9112734375,139.00448467160862L202.0040859375,142.96076728001597L202.1433046875,146.45268914557712L202.23611718749999,152.27889275624682L202.3753359375,148.94382726395722L202.7929921875,147.2122120891686L202.93221093749997,150.97059593407369L203.0714296875,150.95897508745227L204.0923671875,155.89007875771225L204.32439843749998,156.30289402078134L204.60283593749998,152.99618225775484L204.7420546875,148.91011252492063L204.92767968750002,149.14847312662639L205.2061171875,149.76233931954883L205.3453359375,148.47636867707683L205.4381484375,155.42703675317196L205.5309609375,148.48202806564626L205.6701796875,154.90277185749486L205.7629921875,153.46195787615463L205.9022109375,153.51687812662254L206.6911171875,155.77225573771872L206.7375234375,155.67052640863463L206.8767421875,154.08642197260184L207.24799218750002,146.37645229066766L207.2943984375,149.29263909875564L207.71205468750003,140.09999014667204L207.75846093750002,143.17134042818267L207.99049218750002,145.3889061385726L208.0368984375,143.32156946108745L208.0833046875,136.700637415127L208.2225234375,139.2964938293354L208.5009609375,143.8095893428995L208.7329921875,147.2711214760705L208.8722109375,150.16027992604754L209.2434609375,151.92016411804306L209.42908593750002,149.4240569173285L209.5218984375,150.9389912704024L209.9395546875,146.7361988953388L210.1715859375,142.82786607334828L210.4500234375,149.41047796958577L210.49642968749998,147.05853564751482L210.7284609375,146.6148682388405L211.05330468749997,146.76428239858586L211.37814843750002,141.56257433086498L211.6565859375,149.4608928663921L211.7958046875,144.44821251452316L211.8886171875,139.20328690024428L211.9350234375,150.03908234484325L212.25986718750002,142.0152750828703L212.6311171875,148.32006228877148L212.67752343749999,148.14840651897413L212.77033593750002,151.1105555296808L212.95596093749998,150.443737721495L213.1415859375,147.16468197666737L213.3736171875,151.9193193826862L213.93049218750002,150.81724082115022L214.20892968750002,153.46665158281363L214.4873671875,144.2803882186193L214.62658593749998,147.30985309032076L214.9050234375,145.35519107985976L215.4618984375,142.96671247964193L215.6475234375,147.90415067961865L215.9723671875,150.97468333735694L216.1115859375,147.83695173240483L216.6220546875,143.5555003164815L217.0861171875,144.32963607779783L217.1325234375,146.5042151654063L217.27174218750002,145.01687347358254L217.55017968750002,147.35422878741693L217.7822109375,149.90498140620872L218.4783046875,151.64327310224982L218.5247109375,148.52161516368756L218.89596093749998,152.24277197691023L219.12799218749998,143.73997455063795L219.4064296875,139.6734923991958L219.49924218750002,144.62852155010305L219.5456484375,142.5290977806274L219.8240859375,144.4963811308398L220.28814843749998,152.2823919497085L220.4273671875,156.25501961959316L220.5201796875,150.92426999878631L220.56658593749998,155.31461994134435L220.6129921875,149.14116034676462L220.79861718749999,149.21508971315518L221.2626796875,144.60038876212775L221.30908593750002,144.22192187116826L221.4018984375,148.77598985238643L221.8659609375,147.30190706374512L221.9123671875,142.6565011031763L222.7012734375,149.59393032117706L223.0261171875,143.30778660609732L223.21174218750002,143.5324112469022L223.6293984375,145.7761026319304L223.8614296875,151.69096937754387L224.0934609375,150.30489385313967L224.3718984375,150.64111254326804L224.7895546875,150.77757428713022L224.9751796875,153.48552064077484L225.16080468750002,150.11416839744504L225.3000234375,146.341769515589L225.57846093749998,142.1475260927966L225.8104921875,147.18311725505336L226.0889296875,148.74615880518047L226.32096093750002,151.5904055555794L226.4601796875,148.14225030661422L226.50658593749998,150.4495719793685L226.83142968750002,150.6383051866242L227.10986718750002,157.44581548336836L227.2026796875,159.43358681975022L227.5739296875,154.50270262387326L227.7595546875,150.85240950004416L227.89877343749998,144.0322743603557L228.0379921875,144.31058448646286L228.0843984375,151.70285871482184L228.45564843749997,155.80405950659292L228.5484609375,147.28016258943344L229.0589296875,144.01373818120322L229.43017968750002,144.81775488814293L229.7086171875,142.25555981612553L229.94064843750002,142.33033304263958L230.12627343749998,151.17761028319484L230.4975234375,155.67093349601757L230.8223671875,155.27217924459336L231.56486718750003,154.70601667481793L231.8433046875,154.70901198497296L232.02892968749998,154.9822682736966L232.7250234375,143.3596904396208L233.00346093750002,144.98483377213427L233.1426796875,151.64586591828953L233.23549218749997,148.34199180668048L233.5139296875,151.68404312808585L233.5603359375,154.26104760892753L233.69955468749998,146.79276748137215L233.8851796875,145.11971827131435L234.0708046875,146.08395082820607L234.1172109375,148.75035380762313L234.1636171875,143.27514444654082L234.2564296875,141.43693795322318L234.5348671875,139.98270300936068L234.85971093749998,142.15481402821163L234.95252343750002,142.0709543526977L235.0453359375,146.63624978269L235.23096093750002,142.52716854535458L235.37017968749998,146.8648054479932L235.4165859375,156.8307262984539L235.5093984375,154.83383845851571L235.8806484375,161.86554356951962L236.2518984375,157.3253896665938L236.34471093750003,155.25654278789165L236.9943984375,143.9049937243911L237.1336171875,144.56469906463138L237.2728359375,144.13880214548453L237.73689843749997,153.08736587438787L237.9225234375,145.05345591430154L238.06174218750002,148.1943160565155L238.7578359375,144.81094820527977L238.9898671875,143.03458753761896L239.0362734375,143.0586118670538L239.22189843750002,145.7424633963248L239.40752343749998,145.9099439102416L239.45392968750002,138.3474494368636L239.5003359375,151.12767340446328L239.5931484375,152.42206115149352L239.8251796875,159.44848939551645L239.8715859375,152.71408919954538L239.9179921875,143.54838900048082L240.3356484375,147.6049444771521L240.7068984375,141.1009927966225L240.89252343750002,145.17618278531398L240.9853359375,145.22068378846745L241.2637734375,151.02848704767766L241.6350234375,149.45049940812117L241.6814296875,151.7001009500078L241.9598671875,146.93029575244898L242.0990859375,150.73130020715584L242.47033593749998,149.46008085340932L242.51674218750003,143.43278504489265L242.74877343749998,144.211706199716L242.8879921875,144.6516100794894L242.9343984375,151.95535710439023L243.07361718750002,147.9764126955565L243.2128359375,152.05003433341363L243.3520546875,147.94304213274273L243.90892968749998,147.53803295303635L244.0945546875,148.50436944808118L244.41939843749998,154.5235001745555L244.6978359375,153.7653751355052L244.8370546875,150.92210639208398L244.8834609375,140.65405665649877L244.9298671875,140.21350507823968L245.0690859375,146.42830376359825L245.1154921875,144.1476277939459L245.4403359375,142.287103535651L245.5331484375,139.0584869952513L245.62596093750003,144.67978430021878L245.90439843750002,142.98084351358258L246.1364296875,147.03522381546563L246.18283593750002,146.6902046602714L246.32205468749999,152.22962141842135L246.4612734375,158.58623872286373L246.5540859375,155.10998908332758L246.6468984375,146.75312797020936L247.0181484375,142.82689207270383L247.3893984375,148.51052059416753L247.48221093749999,148.53302464694647L247.57502343750002,149.66580471482396L247.6214296875,153.17426191023898L247.6678359375,150.2817157243803L247.9926796875,152.53555931260874L248.0390859375,151.50911212132786L248.8743984375,155.83237498700467L249.01361718750002,150.0996503772329L249.5240859375,153.64358165713097L249.80252343749999,149.9771014542497L250.40580468750002,144.78358594324888L250.68424218750002,154.05820097772303L250.7306484375,155.10942671049446L251.0090859375,152.44902413695343L251.10189843749998,154.95560648605795L251.2875234375,154.7926336441372" style="fill: none;" fill="none"></path></g></g></g></g><g opacity="0.2"><g><g><g><path stroke="rgb(0, 153, 136)" stroke-width="2px" d="M23.432835937500002,15.548350652058936L23.8968984375,90.5842342376709L23.9433046875,84.96665223439534L24.082523437499997,80.8446179231008L24.1289296875,104.7553287347158L24.4537734375,104.047656695048L24.500179687499998,124.69899678230286L25.1034609375,132.0541674296061L25.428304687500003,131.08748062451681L25.4747109375,126.51069347063701L25.5211171875,114.11732459068298L25.7531484375,141.10174918174744L26.124398437500002,136.99068689346313L26.1708046875,128.29301420847574L26.3100234375,121.83438444137575L26.3564296875,144.69018681844076L26.495648437499998,127.23144753774008L26.5420546875,124.24785439173381L26.820492187499998,131.25909431775412L27.0525234375,138.82812563578287L27.3773671875,135.92377487818402L27.841429687500003,131.59880503018698L28.0270546875,127.13518444697063L28.2126796875,131.15209364891052L28.862367187500002,131.0685843626658L29.0479921875,153.9613352616628L29.0943984375,156.09504206975302L29.1872109375,122.62500309944154L29.280023437500002,125.49006088574728L29.558460937499998,161.06745505332947L29.9297109375,150.36558294296265L30.022523437500002,132.80197644233704L30.0689296875,144.4635488986969L30.2081484375,140.83844407399496L30.5329921875,155.3118318716685L30.6722109375,160.4885050058365L30.765023437500002,144.58327992757162L30.857835937500003,143.69972729682922L31.182679687500002,139.94687342643738L31.2290859375,146.79606501261392L31.4611171875,147.4343179066976L31.7859609375,139.23303548494974L31.832367187499997,136.52191424369812L32.1108046875,138.27598436673483L32.157210937500004,130.43448114395142L32.6676796875,128.06928340593976L32.7604921875,133.32865699132284L33.1317421875,153.90666270256042L33.2245546875,135.3918662071228L33.6422109375,129.26514013608298L33.874242187499995,127.98162444432579L34.5703359375,142.0248526732127L34.6167421875,151.49422430992126L35.220023437500004,141.8956969579061L35.2664296875,137.50088596343994L35.3128359375,112.01006317138672L35.823304687500006,145.06761972109476L35.9625234375,137.925887743632L36.1481484375,133.2601990699768L36.3337734375,130.7243723074595L36.472992187500004,152.06594173113507L36.6122109375,134.60753067334494L36.705023437499996,142.30520192782083L36.937054687499995,117.82797837257385L37.0298671875,129.33233205477399L37.0762734375,153.11620815594992L37.540335937500004,130.97651783625284L37.725960937500005,137.0266273021698L37.9115859375,147.09521675109863L38.0043984375,119.37404894828796L38.0508046875,144.68116068840027L38.190023437499995,147.28539848327637L38.8861171875,122.61095984776816L39.257367187499995,144.92151363690695L39.3037734375,131.102742989858L39.8606484375,132.69844555854797L40.1390859375,138.90692257881165L40.1854921875,136.06162850062051L40.2318984375,149.41488528251648L40.7887734375,145.78272366523743L41.1600234375,153.82566197713217L41.345648437499996,121.4892814954122L41.438460937500004,144.3955364227295L41.6704921875,133.6407969792684L41.9025234375,159.86794098218283L41.995335937499995,135.47657116254172L42.5058046875,118.38394109408061L42.784242187500006,131.69033233324686L42.830648437499995,151.8179693222046L43.4803359375,153.6044866243998L43.5267421875,130.75787448883057L43.619554687500006,134.70346554120383L43.8051796875,124.77069004376729L43.8515859375,130.37551824251813L43.9443984375,134.00202973683676L44.2228359375,151.42224971453348L44.4084609375,157.19156448046368L44.6404921875,137.67088198661804L44.8261171875,142.72338136037192L44.9653359375,131.28811860084534L45.0581484375,131.1951142946879L45.2437734375,142.4823719660441L45.2901796875,152.61590266227722L45.5222109375,154.63541134198508L45.568617187499996,123.24325784047444L45.8470546875,148.89641030629477L45.9398671875,131.39455660184225L46.1718984375,157.51124187310538L46.914398437500004,152.0535630385081L47.0072109375,148.10769065221152L47.0536171875,115.79852922757466L47.1000234375,136.63409614562988L47.2392421875,148.78772163391113L47.332054687500005,139.80470601717633L47.981742187500004,136.21092303593954L48.02814843749999,149.11308431625366L48.1209609375,119.57058413823445L48.2137734375,134.96951365470886L48.306585937499996,127.59636108080545L48.4922109375,145.76281929016113L48.5850234375,168.2861553033193L48.7706484375,140.29610260327658L48.863460937499994,143.66582655906677L49.0490859375,133.6275508403778L49.3275234375,149.58185696601868L49.4203359375,136.39107052485147L49.6059609375,144.54860552152L50.3484609375,117.82694681485495L50.3948671875,156.02487270037332L50.5340859375,136.0750387509664L50.626898437499996,144.98511854807535L50.8125234375,124.29837727546692L50.9053359375,160.77909950415295L51.4622109375,132.92130891482034L51.6942421875,133.0451192855835L51.7406484375,149.1841445763906L52.1118984375,143.1297916571299L52.1583046875,140.6832180817922L52.390335937500005,164.20255823930106L52.436742187499995,152.4223449230194L52.622367187500004,141.20842162768045L52.807992187500005,135.32279872894287L53.0864296875,149.4911502202352L53.1328359375,152.97150874137878L53.3648671875,155.41128341356912L53.457679687500004,144.93192299207053L53.7825234375,144.7080046335856L53.875335937500004,150.44794344902039L54.2001796875,146.03064918518066L54.5714296875,141.80100464820862L54.6178359375,170.99391225973764L54.9890859375,135.62640492121378L55.360335937500004,130.34112517038983L55.4531484375,153.39313451449078L56.195648437500004,167.1189008553823L56.7061171875,146.7070697148641L56.7989296875,135.2291145324707L56.8917421875,152.43108971913657L56.9381484375,145.596808830897L57.030960937500005,145.47733569145203L57.077367187499995,151.38748153050742L57.1701796875,153.91585294405618L57.2165859375,144.18319964408875L57.2629921875,138.6481188138326L57.495023437499995,136.28763341903687L57.7734609375,140.87330603599548L58.701585937500006,145.95897936820984L59.0728359375,153.78191455205283L59.2120546875,140.53711199760437L59.2584609375,130.52621944745383L59.3512734375,127.07826121648154L59.4440859375,145.84377312660217L59.5368984375,146.8668204943339L59.815335937499995,140.5758423010508L60.5578359375,155.91850503285727L60.604242187500006,139.6725025177002L60.6970546875,146.63861179351807L60.8362734375,127.64810307820638L61.2075234375,124.13020992279053L61.2539296875,156.99050450325012L61.6715859375,136.11782495180765L61.85721093750001,148.34916893641156L62.2284609375,142.3740584055583L62.3676796875,145.88433210055032L62.4604921875,147.05625200271606L63.0173671875,147.197340965271L63.1565859375,142.26724529266357L63.2493984375,157.57783595720926L63.4350234375,145.0793654123942L63.6670546875,128.1826375325521L64.27033593750001,156.01987902323407L64.3631484375,152.549085855484L64.6415859375,158.6616045633952L64.7808046875,116.63877987861633L64.8736171875,125.25256816546121L65.0592421875,142.11248819033304L65.10564843750001,146.0345644156138L65.3840859375,127.08170755704246L66.3122109375,144.0678292910258L66.40502343749999,145.4561653137207L66.4978359375,134.66663424173993L66.9618984375,146.79367367426556L67.2867421875,133.52430129051208L67.5651796875,145.43032948176065L67.9364296875,153.74855303764343L68.6789296875,149.27864933013916L68.8181484375,147.11570723851523L69.0037734375,131.24866151809692L69.2822109375,147.85549823443094L69.3750234375,162.72016290823618L69.6070546875,126.74136384328209L69.7462734375,142.55324467023215L69.8390859375,164.82472821076712L70.34955468749999,161.32309381167093L70.6743984375,162.3731726805369L70.8600234375,153.45704420407614L70.95283593750001,164.43551445007324L71.3240859375,151.83904592196146L71.3704921875,142.13544034957886L72.2522109375,160.09092156092328L72.4378359375,151.82066543896994L72.9018984375,160.15423341592154L72.9483046875,150.16051395734152L73.04111718749999,154.292090177536L73.22674218750001,140.5546719233195L73.6443984375,155.10666910807294L74.2012734375,153.81820662816367L74.3868984375,129.51191687583923L74.4797109375,146.48643358548483L74.6189296875,152.94623557726544L74.7117421875,133.91962234179178L74.8045546875,153.2560076713562L75.2686171875,147.45853606859845L75.3150234375,149.4688779513041L75.4542421875,160.7818542321523L75.5006484375,160.34822487831116L75.6398671875,148.90435798962912L75.7790859375,150.37981375058493L75.87189843750001,125.74426952997844L76.1039296875,155.9296177228292L76.42877343750001,148.84047174453735L76.66080468749999,141.61192480723065L76.70721093750001,144.6055756409963L77.26408593750001,130.1349542935689L77.7281484375,159.02694010734558L77.8209609375,134.410057703654L77.86736718750001,144.29990633328757L78.1922109375,149.67096948623657L78.4242421875,148.07048424084982L78.6098671875,154.11831959088644L78.65627343749999,146.38874038060507L79.2131484375,166.77882675329843L79.5843984375,137.45198074976602L79.7700234375,139.21153688430786L80.00205468749999,155.5534977118174L80.0948671875,130.12130959828696L80.2804921875,155.17107113202414L80.9765859375,132.97839625676474L81.0693984375,160.22621973355612L81.2550234375,146.27529247601828L81.30142968749999,131.80141234397888L81.34783593750001,157.77721965312958L81.4406484375,155.79994622866312L81.5798671875,132.7024780114492L81.7654921875,157.94771973292032L82.04392968750001,153.70790028572083L82.2295546875,129.83465377489725L82.4615859375,164.24982233842215L82.74002343750001,131.8027017911275L82.87924218750001,146.36543655395508L83.1112734375,148.01881257692972L83.2504921875,149.5821148554484L83.4825234375,146.8796915213267L83.5289296875,146.4302371342977L83.6681484375,146.2307010491689L83.8537734375,152.56540322303772L84.27142968749999,169.92058817545575L84.5962734375,134.44344266255698L84.7354921875,146.93490330378214L84.7818984375,144.19754767417908L85.1995546875,135.96426351865134L85.6636171875,138.20987089474997L85.80283593749999,150.1313490072886L86.08127343749999,143.61703856786093L86.3597109375,158.08593674500784L86.5453359375,145.33819262186688L87.0558046875,154.14933665593466L87.1022109375,133.66077168782553L87.2878359375,156.36148873964947L87.5662734375,145.55854741732279L87.75189843749999,156.1613665421804L87.8911171875,143.704509973526L89.0048671875,159.5112212896347L89.88658593749999,159.3124471505483L89.9793984375,150.18707656860352L90.0258046875,145.4537505308787L90.0722109375,123.35597896575928L90.4898671875,139.19969741503397L90.8611171875,146.12759216626486L90.9075234375,147.89017264048258L91.0003359375,149.3034301598867L91.0467421875,164.73323607444763L91.6500234375,153.59742983182272L91.7428359375,103.98515367507935L92.25330468749999,138.7251339753469L92.39252343749999,163.5107932885488L92.5781484375,158.26364600658417L92.7637734375,161.52309878667197L92.9493984375,134.4603930314382L93.27424218750001,156.10137208302817L93.3206484375,151.85327672958374L93.3670546875,130.01925571759543L93.4598671875,149.36513606707257L93.5990859375,147.20064663887024L94.1559609375,138.05063589413962L94.43439843750001,118.12551244099936L94.5736171875,131.8472932179769L94.6200234375,150.18932723999023L95.0840859375,144.53946216901144L95.2233046875,148.3674087524414L95.73377343749999,153.1737643877665L95.8729921875,144.23789564768472L96.0122109375,146.9468599955241L96.2442421875,153.8297413190206L96.3834609375,147.29986373583478L96.8011171875,144.3066114584605L97.3115859375,148.42810654640198L97.5436171875,129.43710549672446L97.6364296875,122.83874654769899L98.75017968750001,121.22060759862264L99.1214296875,145.78136388460794L99.2142421875,141.1624235312144L99.3534609375,128.2695931593577L99.6318984375,155.33668303489685L99.6783046875,158.2466018597285L100.0031484375,135.17643475532532L100.37439843749999,147.19546540578207L100.5600234375,153.82099652290344L100.74564843750001,137.70194594065347L100.9312734375,165.91753466924033L101.0704921875,147.7491774559021L101.1633046875,151.25867748260498L101.4417421875,145.67766888936362L101.53455468749999,143.58592772483826L101.8593984375,139.12115836143494L102.2306484375,140.02763970692953L102.3234609375,147.5603086153666L102.4626796875,134.43357253074646L102.55549218750001,149.49872279167175L102.6018984375,141.99657861391705L102.64830468749999,152.35245688756308L102.9731484375,123.25615231196086L103.1587734375,136.59360750516257L103.20517968749999,134.24489124615988L103.5300234375,135.4978587627411L103.9012734375,127.32815607388817L103.9476796875,145.19025786717734L104.1333046875,136.52402424812317L104.22611718750001,152.6802577972412L104.6437734375,161.09380666414899L105.15424218749999,154.81811428070068L105.6183046875,159.57976126670837L105.7111171875,140.94103717803955L106.03596093750001,137.14584255218506L106.0823671875,125.92380746205647L106.2679921875,138.03279463450113L106.4072109375,151.35794146855673L106.59283593750001,141.94687628746033L106.7784609375,155.32357756296796L107.6601796875,150.08935991923013L107.84580468749999,154.29401262601218L108.03142968750001,146.20385710398355L108.1706484375,147.99182796478271L108.4490859375,160.74892644087475L108.5418984375,136.72564689318338L108.95955468749999,150.11395319302878L109.1451796875,136.36382802327475L109.56283593750001,134.91505209604898L109.79486718749999,142.2823904355367L109.8412734375,144.52963892618817L109.8876796875,145.629771788915L110.63017968749999,127.79456082979839L110.8622109375,149.4396895567576L111.1870546875,136.33946919441223L111.37267968750001,123.3745235602061L111.51189843750001,157.40597609678903L111.7903359375,155.6065994898478L111.83674218750001,159.69833179314932L111.8831484375,156.5867199897766L112.0223671875,125.12263878186543L112.2543984375,140.71034336090088L112.5328359375,168.3935779730479L112.5792421875,124.0742244720459L113.0433046875,135.5855880578359L113.0897109375,152.5289704799652L113.2753359375,149.02694924672446L113.32174218749999,160.91270967324576L113.50736718750001,133.5197296142578L113.60017968749999,161.36289083957672L113.8786171875,141.5094723701477L114.0178359375,154.52977045377096L114.2034609375,142.72213880221048L114.2498671875,141.0260234673818L114.34267968750001,156.1559977531433L114.3890859375,136.3824429512024L114.4818984375,138.11002079645792L114.9923671875,157.54275127251944L115.0851796875,148.59320267041525L115.4564296875,134.7503076394399L115.5028359375,146.28668649991354L115.64205468749999,157.03387681643167L117.2662734375,136.75581995646158L117.68392968750001,137.70164116223654L117.7303359375,168.62450623512268L118.2408046875,124.11951923370363L118.5656484375,121.56481965382895L118.61205468749999,147.6252264181773L119.1689296875,148.8399325211843L119.3081484375,139.74719667434692L119.7258046875,149.2377152442932L120.1898671875,127.20795615514119L120.5611171875,152.1159253915151L120.60752343749999,140.55556281407675L120.7003359375,142.2787799835205L120.8395546875,146.47337500254315L121.1179921875,148.30246750513712L121.3500234375,135.57888293266296L121.3964296875,157.52392534414926L121.58205468749999,149.20261883735657L121.62846093750001,164.97948531309765L121.9533046875,138.59487636884054L122.3709609375,132.2106359799703L122.5101796875,164.56967556476593L122.9742421875,162.6057186126709L123.43830468750001,140.00353876749674L123.9023671875,150.61838491757712L124.7376796875,153.05991792678833L125.0625234375,165.10658963521323L125.38736718749999,146.09205031394958L125.4801796875,136.27778673171997L125.7586171875,146.65049815177917L125.8514296875,143.32140350341797L125.9906484375,153.7086270650228L126.0370546875,151.45997190475464L126.3154921875,151.91871031125388L126.5011171875,160.76125824451447L127.0115859375,149.87097446123758L127.1508046875,139.21779656410217L127.3828359375,141.78011560440063L127.9861171875,136.3015828927358L129.0998671875,151.2468614578247L129.9815859375,148.5534876982371L130.2136171875,137.16478570302328L130.2600234375,142.52145393689474L130.72408593749998,155.74951712290445L130.8633046875,126.5663975874583L131.0953359375,138.80801026026407L131.4665859375,141.38617777824402L131.6058046875,150.0043970743815L131.9306484375,160.42446637153625L131.9770546875,137.7496554851532L132.0234609375,147.60321203867593L132.11627343749998,141.86174933115643L132.3947109375,148.51227227846783L132.7195546875,160.11441294352213L133.3692421875,155.16734345753989L133.8797109375,149.04223505655924L134.1117421875,152.84671370188394L134.29736718750002,139.0414470831553L134.3437734375,164.19975662231445L134.4829921875,131.6670519510905L134.5293984375,139.46365896860758L135.9215859375,160.87165836493173L136.0608046875,144.84935148557028L136.2464296875,149.1248300075531L136.2928359375,153.83546177546182L136.5248671875,150.18245800336203L136.5712734375,136.16471393903097L137.1281484375,130.63812001546225L137.4993984375,143.144819577535L137.5922109375,128.96765295664468L137.63861718750002,155.63726488749185L138.1954921875,131.52511898676553L138.56674218749998,102.43115886052452L138.9379921875,159.30684391657513L139.1700234375,155.31094098091125L139.2628359375,138.0606701374054L139.4020546875,159.69128672281903L139.49486718749998,152.77628644307455L139.54127343750002,136.79647270838421L139.8661171875,152.837171792984L140.0517421875,141.16493209203085L140.09814843750002,150.0415800412496L140.1445546875,159.81686715284982L140.23736718749998,125.27251942952475L140.3301796875,146.19736297925314L140.5622109375,151.94757048288983L140.6550234375,141.81178911527L141.0262734375,167.73601853847504L142.2792421875,153.15672024091086L142.3256484375,148.254359404246L142.41846093750002,146.27681636810303L142.83611718749998,156.9876677195231L142.88252343750003,144.5474332968394L143.2073671875,147.1776241461436L143.34658593749998,148.63064352671307L143.3929921875,162.63565723101297L143.5322109375,147.60785404841104L143.8570546875,159.1458623011907L143.9498671875,135.03168845176697L144.1818984375,140.89775864283243L144.7387734375,157.7193351984024L144.78517968749998,126.57570505142212L145.1564296875,160.39668464660645L145.2028359375,136.99237489700317L145.5276796875,152.10492992401123L145.66689843749998,139.9710681438446L145.7133046875,114.74896613756815L145.75971093750002,136.85499016443887L145.8989296875,143.0331768989563L146.7806484375,142.07274977366131L147.1518984375,154.1792049407959L147.1983046875,160.60814225673676L147.33752343749998,159.66900273164114L147.66236718750002,147.12133391698202L147.8015859375,133.56521193186444L147.8943984375,139.52557587623596L148.0336171875,150.4075251420339L148.21924218750002,154.05201856295267L148.6368984375,144.71911732355755L148.9153359375,135.78850015004477L149.10096093750002,156.91062911351523L149.1473671875,137.61916343371075L149.33299218750003,155.13201260566711L149.37939843750002,156.73725708325705L149.4258046875,153.53609903653464L149.6578359375,142.52253238360086L149.88986718750002,135.70241196950278L149.9362734375,145.56452576319376L150.1218984375,161.95328179995218L150.3539296875,160.59038305282593L150.4003359375,168.9630798896154L150.4467421875,145.5442462762197L150.5859609375,149.46339193979898L151.0036171875,139.14528274536133L151.05002343750002,153.05874570210776L151.0964296875,147.92025192578635L151.3284609375,149.26387929916382L151.5604921875,144.44540286064148L151.69971093750002,151.37887740135193L151.83892968749998,131.58387088775635L151.9317421875,130.6149334112803L152.0245546875,149.38729111353558L152.1637734375,158.42286928494772L152.4886171875,135.57726526260376L153.0454921875,153.11906838417053L153.1383046875,137.987406094869L153.7415859375,152.54092717170715L153.78799218749998,140.95404887199402L154.29846093749998,152.42161814371744L154.7625234375,150.00662430127463L154.8553359375,153.63895003000897L154.9481484375,162.7192016839981L155.2265859375,159.80638746420544L155.55142968750002,161.13730792204538L155.5978359375,149.2656610806783L155.8298671875,143.89839593569437L156.0154921875,142.50661357243857L156.06189843750002,124.22689501444498L156.2475234375,157.8557000954946L156.8508046875,152.09651335080466L156.94361718750002,135.63067181905112L156.9900234375,144.46563545862833L157.40767968749998,157.9174880584081L157.50049218750002,138.7048075993856L157.5933046875,149.64954121907553L157.9645546875,129.31076312065125L158.3358046875,135.23258431752524L158.4750234375,142.48162174224854L158.5214296875,144.830291112264L158.66064843750002,128.3214758237203L158.7534609375,153.3284277121226L158.79986718749998,160.68509880701703L158.9390859375,152.94977569580078L159.2175234375,129.05751570065817L159.4031484375,134.6595774491628L159.4495546875,146.7396810054779L160.0992421875,145.2660070260366L160.23846093749998,149.58098951975506L160.3776796875,151.75232474009195L160.7025234375,136.43512272834778L160.84174218750002,143.80839252471924L160.9345546875,161.66914625962576L161.2129921875,144.19027988115946L161.4450234375,156.09630807240805L161.72346093750002,157.38968217372894L161.8162734375,153.27842060724893L162.1411171875,140.37846310933432L162.2803359375,137.23882341384888L162.3731484375,149.17680644989014L162.41955468749998,133.52723185221356L162.5587734375,138.7712024052938L162.9300234375,144.97379485766095L163.34767968749998,129.6862735748291L163.57971093749998,158.9207482735316L163.8117421875,143.17644619941711L164.0437734375,131.73654143015543L164.6470546875,140.43137733141583L164.73986718749998,143.67825214068097L165.2039296875,152.98831844329834L165.52877343749998,130.61842664082846L165.6679921875,149.28568267822266L165.9000234375,144.93576788902283L166.3176796875,144.39105852444968L166.3640859375,151.93816924095154L166.6425234375,145.3155217965444L166.92096093749998,130.9363808631897L167.0601796875,134.35855015118918L167.2458046875,147.6039388179779L167.29221093750002,139.12223680814108L167.3386171875,142.40247313181558L167.43142968749999,121.33185172080994L167.6170546875,151.81081875165304L167.7562734375,134.4801098505656L167.8026796875,149.13132413228354L167.9883046875,151.3488450050354L168.0347109375,138.38228170077005L168.08111718749998,149.79447507858276L168.3131484375,168.71209486325583L168.4059609375,155.03708585103354L168.8700234375,157.84431779384613L169.1948671875,133.86075321833292L169.51971093749998,151.90194749832153L169.6589296875,162.61515502134958L170.4942421875,143.31434671084085L170.7262734375,141.48586376508078L171.1439296875,144.6482446193695L171.28314843750002,168.44282313187918L171.3759609375,135.90745751063028L171.70080468749998,141.38441944122314L171.8864296875,152.88776501019797L171.9328359375,158.03955181439719L172.3040859375,148.23084457715353L172.4897109375,149.21443486213684L172.5361171875,146.74075945218405L172.67533593750002,133.0226125717163L172.7681484375,152.09946735699972L173.0929921875,145.46413644154867L173.2786171875,141.37091541290283L173.46424218750002,145.86398228009543L173.6498671875,148.3056559562683L173.7426796875,150.1186420917511L174.02111718749998,149.22791544596353L174.7636171875,160.81852142016092L174.90283593750002,150.1818015575409L175.04205468749998,152.8731825351715L175.1812734375,141.42125074068704L175.2276796875,151.48109539349875L175.4597109375,140.4560878276825L175.8309609375,144.69876750310263L176.1093984375,140.1273491382599L176.24861718749997,148.98221715291342L176.29502343750002,167.62762292226157L176.6662734375,146.16015656789145L177.0375234375,144.6648902098338L177.64080468749998,143.11314606666565L177.96564843750002,160.28213485081992L178.24408593750002,156.91649023691812L178.4761171875,162.21195662021637L178.9865859375,142.06595087051392L179.35783593750003,135.3264560699463L179.40424218750002,135.88187956809998L179.6362734375,141.54501422246298L179.7290859375,162.58949502309164L179.82189843749998,147.96533568700156L179.9611171875,164.42093197504678L180.0539296875,135.98803623517355L180.2859609375,134.04826227823892L180.3323671875,135.90701206525168L180.7036171875,149.9888768196106L180.75002343749998,149.55834213892618L180.8892421875,154.89869300524393L181.2140859375,166.39322344462076L181.3533046875,152.2913605372111L181.3997109375,146.36599922180176L181.4461171875,146.82905141512552L181.8637734375,154.76170682907104L182.0493984375,157.3432972431183L182.23502343750002,144.02272208531699L182.5598671875,146.35408941904703L182.6062734375,130.2736988067627L182.8383046875,150.29719535509744L183.5343984375,145.42655491828918L183.5808046875,145.28849029541016L183.7664296875,167.14730385939282L183.8592421875,145.8208678563436L184.18408593750002,144.01559495925903L184.3697109375,144.98146120707193L184.7873671875,146.5059394041697L184.83377343749999,126.8430191675822L184.8801796875,140.76949381828308L184.9265859375,138.0014962355296L184.9729921875,143.3540382385254L185.1586171875,151.49767065048218L185.2514296875,143.3882671991984L185.34424218750002,149.62370538711548L185.48346093749998,152.90344937642416L185.6226796875,145.79531335830688L185.6690859375,155.56988541285196L185.8083046875,131.49128858248395L186.3187734375,148.32363788286847L186.5972109375,152.5472337404887L186.8756484375,133.26601330439252L187.2933046875,151.39364743232727L187.3397109375,173.55092112223306L187.5717421875,135.09161257743835L187.7109609375,135.01047118504843L187.9893984375,143.54471230506897L188.17502343750002,143.6315038204193L188.3606484375,146.73236632347107L188.7318984375,142.65670522054037L188.87111718749998,134.16178051630655L189.1495546875,124.12737313906352L189.19596093750002,166.693430185318L189.5672109375,157.8182944059372L189.7064296875,143.48863307634988L189.7528359375,155.64837757746378L189.8920546875,145.1063265800476L190.30971093750003,148.82478737831116L190.9129921875,152.70712518692017L190.9593984375,145.01620594660443L191.0058046875,159.2458999554316L191.0522109375,157.02220145861307L191.1914296875,134.26878118515015L191.70189843749998,141.43447343508404L192.8156484375,147.42866778373718L192.9548671875,130.06902837753296L193.0476796875,163.78226880232495L193.1404921875,153.1115661462148L193.2797109375,150.05079372723898L193.37252343749998,156.61211037635803L193.46533593750002,160.82263592878977L193.60455468749998,141.5879410902659L193.65096093749997,155.08012994130453L194.4862734375,151.61515100797018L194.9503359375,128.18835798899332L195.27517968749999,163.57886437575024L195.4608046875,138.99666810035706L195.5072109375,146.21991658210754L195.7392421875,149.7246808211009L195.7856484375,133.70341722170514L195.9248671875,163.16240811347961L196.43533593749999,155.0555132230123L196.4817421875,155.52740399042767L197.0386171875,140.2784723440806L197.0850234375,159.21398027737936L197.1778359375,149.75736244519553L197.22424218749998,133.3193260828654L197.3634609375,143.40568645795187L197.4098671875,146.2315216064453L197.4562734375,156.46293306350708L197.7811171875,151.1790599822998L197.87392968749998,130.83069308598837L197.96674218750002,138.34903740882874L198.5236171875,149.69560964902243L198.66283593749998,153.80549971262613L198.7092421875,140.67020638783774L198.7556484375,148.67127283414206L198.8020546875,141.01465288798013L198.9876796875,135.8065289656321L199.1268984375,146.0490062236786L199.82299218749998,152.74566793441772L199.9158046875,137.93221775690714L200.1942421875,145.73646767934164L200.2870546875,127.24415445327759L200.4726796875,146.36402988433838L200.6583046875,145.63300712903342L200.7047109375,125.76869869232179L201.4008046875,137.91071915626526L201.81846093750002,142.53493452072144L201.9112734375,138.8872995376587L202.0040859375,148.89519119262695L202.1433046875,151.69057194391888L202.23611718749999,161.01819817225137L202.3753359375,143.94122902552286L202.7929921875,144.6147893269857L202.93221093749997,156.60817170143127L203.0714296875,150.94154381752014L204.0923671875,163.28673426310223L204.32439843749998,156.92211691538495L204.60283593749998,148.03611461321512L204.7420546875,142.78100792566934L204.92767968750002,149.50601402918497L205.2061171875,150.6831386089325L205.3453359375,146.54741271336874L205.4381484375,165.85303886731467L205.5309609375,138.0645150343577L205.6701796875,164.53388754526773L205.7629921875,151.3007369041443L205.9022109375,153.59925850232443L206.6911171875,159.155322154363L206.7375234375,155.51793241500854L206.8767421875,151.71026531855264L207.24799218750002,134.81149776776633L207.2943984375,153.66691931088766L207.71205468750003,126.31101671854655L207.75846093750002,147.7783658504486L207.99049218750002,148.71525470415753L208.0368984375,140.22056444485983L208.0833046875,126.76923934618631L208.2225234375,143.19027845064798L208.5009609375,150.57923261324567L208.7329921875,152.46341967582703L208.8722109375,154.49401760101318L209.2434609375,154.55999040603638L209.42908593750002,145.6798961162567L209.5218984375,153.21139280001321L209.9395546875,140.43201033274335L210.1715859375,136.96536684036255L210.4500234375,159.28439581394196L210.49642968749998,143.53062216440836L210.7284609375,145.94936712582907L211.05330468749997,146.98840363820395L211.37814843750002,133.76001222928366L211.6565859375,161.30837066968283L211.7958046875,136.9291919867198L211.8886171875,131.3358984788259L211.9350234375,166.29277551174164L212.25986718750002,129.9795641899109L212.6311171875,157.7772430976232L212.67752343749999,147.89092286427817L212.77033593750002,155.55377904574078L212.95596093749998,149.4435110092163L213.1415859375,142.24609835942587L213.3736171875,159.05127549171448L213.93049218750002,149.16412297884622L214.20892968750002,157.44076772530875L214.4873671875,130.50099317232767L214.62658593749998,151.85405039787292L214.9050234375,142.4231980641683L215.4618984375,139.38399457931519L215.6475234375,155.31030797958374L215.9723671875,155.58048232396445L216.1115859375,143.1303543249766L216.6220546875,137.13332319259644L217.0861171875,145.49083971977234L217.1325234375,149.76608379681906L217.27174218750002,142.78586093584696L217.55017968750002,150.86026175816855L217.7822109375,153.73111033439636L218.4783046875,154.25071064631143L218.5247109375,143.83912825584412L218.89596093749998,157.8245071967443L219.12799218749998,130.98577841122946L219.4064296875,133.57376917203268L219.49924218750002,152.06106527646384L219.5456484375,139.379962126414L219.8240859375,147.44730615615845L220.28814843749998,163.9614081780116L220.4273671875,162.21396112442017L220.5201796875,142.9281455675761L220.56658593749998,161.9001448551814L220.6129921875,139.88097095489502L220.79861718749999,149.3259837627411L221.2626796875,137.67833733558655L221.30908593750002,143.654221534729L221.4018984375,155.60709182421365L221.8659609375,145.09078288078308L221.9123671875,135.688392162323L222.7012734375,160.0000741481781L223.0261171875,133.87857103347778L223.21174218750002,143.86934820810953L223.6293984375,149.14163970947266L223.8614296875,160.56326949596405L224.0934609375,148.22578056653342L224.3718984375,151.1454405784607L224.7895546875,150.98226690292358L224.9751796875,157.54744017124176L225.16080468750002,145.05714003245038L225.3000234375,140.68317119280496L225.57846093749998,135.856160958608L225.8104921875,154.7365039984385L226.0889296875,151.0907211303711L226.32096093750002,155.8567756811778L226.4601796875,142.9700174331665L226.50658593749998,153.91055448849997L226.83142968750002,150.92140499750772L227.10986718750002,167.65708092848462L227.2026796875,162.41524382432303L227.5739296875,147.1063763300578L227.7595546875,145.37696981430054L227.89877343749998,133.80207165082297L228.0379921875,144.72804967562357L228.0843984375,162.79127005736032L228.45564843749997,161.95586069424948L228.5484609375,134.49431721369425L229.0589296875,139.11410156885785L229.43017968750002,146.02377994855246L229.7086171875,138.41226720809937L229.94064843750002,142.44249288241068L230.12627343749998,164.4485261440277L230.4975234375,162.41091831525168L230.8223671875,154.67404786745706L231.56486718750003,153.85677282015482L231.8433046875,154.71350495020548L232.02892968749998,155.39215270678204L232.7250234375,125.92582368850708L233.00346093750002,147.42254877090454L233.1426796875,161.63741413752237L233.23549218749997,143.38618063926697L233.5139296875,156.69712011019388L233.5603359375,158.12655433019003L233.69955468749998,135.59034729003906L233.8851796875,142.61014445622763L234.0708046875,147.5302996635437L234.1172109375,152.74995827674866L234.1636171875,135.0623304049174L234.2564296875,138.67962821324667L234.5348671875,137.8013505935669L234.85971093749998,145.41298055648804L234.95252343750002,141.94516483942667L235.0453359375,153.48419292767844L235.23096093750002,136.3635466893514L235.37017968749998,153.37126080195108L235.4165859375,171.77960757414502L235.5093984375,151.8385066986084L235.8806484375,172.41310123602548L236.2518984375,150.515158812205L236.34471093750003,152.15327246983847L236.9943984375,126.87767012914024L237.1336171875,145.55425707499188L237.2728359375,143.49995676676434L237.73689843749997,166.51021146774292L237.9225234375,133.00259097417197L238.06174218750002,152.90560626983643L238.7578359375,139.73589642842612L238.9898671875,140.37004653612772L239.0362734375,143.09464836120605L239.22189843750002,149.76824069023132L239.40752343749998,146.16116468111673L239.45392968750002,127.00370772679646L239.5003359375,170.29800935586294L239.5931484375,154.3636427720388L239.8251796875,169.9881317615509L239.8715859375,142.6124889055888L239.9179921875,129.79983870188394L240.3356484375,153.68977769215903L240.7068984375,131.34506527582806L240.89252343750002,151.28896776835123L240.9853359375,145.28743529319763L241.2637734375,159.74019193649292L241.6350234375,147.0835179487864L241.6814296875,155.07450326283774L241.9598671875,139.77558795611066L242.0990859375,156.43280688921612L242.47033593749998,147.55325182278952L242.51674218750003,134.3918413321177L242.74877343749998,145.3800879319509L242.8879921875,145.31146589914957L242.9343984375,162.91097764174143L243.07361718750002,142.0079960823059L243.2128359375,158.16046679019928L243.3520546875,141.78255383173624L243.90892968749998,146.93051918347678L244.0945546875,149.9538741906484L244.41939843749998,163.55219626426697L244.6978359375,152.62818757692972L244.8370546875,146.65720327695212L244.8834609375,125.25198205312093L244.9298671875,139.55267771085104L245.0690859375,155.75050179163614L245.1154921875,140.72661383946738L245.4403359375,139.49631714820862L245.5331484375,134.2155621846517L245.62596093750003,153.11173025767008L245.90439843750002,140.43243233362836L246.1364296875,153.1167942682902L246.18283593750002,146.17267592748007L246.32205468749999,160.53874655564627L246.4612734375,168.12116467952728L246.5540859375,149.89561462402344L246.6468984375,134.21783630053204L247.0181484375,136.93753822644553L247.3893984375,157.03596337636313L247.48221093749999,148.5667807261149L247.57502343750002,151.36497481664023L247.6214296875,158.4369477033615L247.6678359375,145.94289644559225L247.9926796875,155.91632469495138L248.0390859375,149.96944133440655L248.8743984375,162.31726928551993L249.01361718750002,141.5005634625753L249.5240859375,158.95947857697806L249.80252343749999,144.47738114992777L250.40580468750002,136.99331267674765L250.68424218750002,167.9701235294342L250.7306484375,156.6862653096517L251.0090859375,148.45842027664185L251.10189843749998,158.71548000971475L251.2875234375,154.5481743812561" style="fill: none;" fill="none"></path></g></g></g></g></g></g><g transform="translate(51, 177)" clip-path="url(#clip_1)"><clipPath id="clip_1"><rect width="278" height="23"></rect></clipPath><g><g><line x1="0" y1="0" x2="0" y2="5" style="visibility: inherit;" fill="rgb(0, 0, 0)" stroke="rgb(204, 204, 204)" stroke-width="1px"></line><line x1="23.203125" y1="0" x2="23.203125" y2="5" style="visibility: inherit;" fill="rgb(0, 0, 0)" stroke="rgb(204, 204, 204)" stroke-width="1px"></line><line x1="46.40625" y1="0" x2="46.40625" y2="5" style="visibility: inherit;" fill="rgb(0, 0, 0)" stroke="rgb(204, 204, 204)" stroke-width="1px"></line><line x1="69.609375" y1="0" x2="69.609375" y2="5" style="visibility: inherit;" fill="rgb(0, 0, 0)" stroke="rgb(204, 204, 204)" stroke-width="1px"></line><line x1="92.8125" y1="0" x2="92.8125" y2="5" style="visibility: inherit;" fill="rgb(0, 0, 0)" stroke="rgb(204, 204, 204)" stroke-width="1px"></line><line x1="116.015625" y1="0" x2="116.015625" y2="5" style="visibility: inherit;" fill="rgb(0, 0, 0)" stroke="rgb(204, 204, 204)" stroke-width="1px"></line><line x1="139.21875" y1="0" x2="139.21875" y2="5" style="visibility: inherit;" fill="rgb(0, 0, 0)" stroke="rgb(204, 204, 204)" stroke-width="1px"></line><line x1="162.421875" y1="0" x2="162.421875" y2="5" style="visibility: inherit;" fill="rgb(0, 0, 0)" stroke="rgb(204, 204, 204)" stroke-width="1px"></line><line x1="185.625" y1="0" x2="185.625" y2="5" style="visibility: inherit;" fill="rgb(0, 0, 0)" stroke="rgb(204, 204, 204)" stroke-width="1px"></line><line x1="208.828125" y1="0" x2="208.828125" y2="5" style="visibility: inherit;" fill="rgb(0, 0, 0)" stroke="rgb(204, 204, 204)" stroke-width="1px"></line><line x1="232.03125" y1="0" x2="232.03125" y2="5" style="visibility: inherit;" fill="rgb(0, 0, 0)" stroke="rgb(204, 204, 204)" stroke-width="1px"></line><line x1="255.234375" y1="0" x2="255.234375" y2="5" style="visibility: inherit;" fill="rgb(0, 0, 0)" stroke="rgb(204, 204, 204)" stroke-width="1px"></line><line x1="278.4375" y1="0" x2="278.4375" y2="5" style="visibility: inherit;" fill="rgb(0, 0, 0)" stroke="rgb(204, 204, 204)" stroke-width="1px"></line></g><g transform="translate(0, 8)"><text x="0" y="0" dx="0em" dy="0.95em" style="text-anchor: middle; visibility: hidden; font-family: Roboto, sans-serif; font-size: 12px; font-weight: 200;" fill="rgb(33, 33, 33)" stroke="none" stroke-width="1px">-10k</text><text x="23.203125" y="0" dx="0em" dy="0.95em" style="text-anchor: middle; visibility: inherit; font-family: Roboto, sans-serif; font-size: 12px; font-weight: 200;" fill="rgb(33, 33, 33)" stroke="none" stroke-width="1px">0</text><text x="46.40625" y="0" dx="0em" dy="0.95em" style="text-anchor: middle; visibility: hidden; font-family: Roboto, sans-serif; font-size: 12px; font-weight: 200;" fill="rgb(33, 33, 33)" stroke="none" stroke-width="1px">10k</text><text x="69.609375" y="0" dx="0em" dy="0.95em" style="text-anchor: middle; visibility: inherit; font-family: Roboto, sans-serif; font-size: 12px; font-weight: 200;" fill="rgb(33, 33, 33)" stroke="none" stroke-width="1px">20k</text><text x="92.8125" y="0" dx="0em" dy="0.95em" style="text-anchor: middle; visibility: hidden; font-family: Roboto, sans-serif; font-size: 12px; font-weight: 200;" fill="rgb(33, 33, 33)" stroke="none" stroke-width="1px">30k</text><text x="116.015625" y="0" dx="0em" dy="0.95em" style="text-anchor: middle; visibility: inherit; font-family: Roboto, sans-serif; font-size: 12px; font-weight: 200;" fill="rgb(33, 33, 33)" stroke="none" stroke-width="1px">40k</text><text x="139.21875" y="0" dx="0em" dy="0.95em" style="text-anchor: middle; visibility: hidden; font-family: Roboto, sans-serif; font-size: 12px; font-weight: 200;" fill="rgb(33, 33, 33)" stroke="none" stroke-width="1px">50k</text><text x="162.421875" y="0" dx="0em" dy="0.95em" style="text-anchor: middle; visibility: inherit; font-family: Roboto, sans-serif; font-size: 12px; font-weight: 200;" fill="rgb(33, 33, 33)" stroke="none" stroke-width="1px">60k</text><text x="185.625" y="0" dx="0em" dy="0.95em" style="text-anchor: middle; visibility: hidden; font-family: Roboto, sans-serif; font-size: 12px; font-weight: 200;" fill="rgb(33, 33, 33)" stroke="none" stroke-width="1px">70k</text><text x="208.828125" y="0" dx="0em" dy="0.95em" style="text-anchor: middle; visibility: inherit; font-family: Roboto, sans-serif; font-size: 12px; font-weight: 200;" fill="rgb(33, 33, 33)" stroke="none" stroke-width="1px">80k</text><text x="232.03125" y="0" dx="0em" dy="0.95em" style="text-anchor: middle; visibility: hidden; font-family: Roboto, sans-serif; font-size: 12px; font-weight: 200;" fill="rgb(33, 33, 33)" stroke="none" stroke-width="1px">90k</text><text x="255.234375" y="0" dx="0em" dy="0.95em" style="text-anchor: middle; visibility: inherit; font-family: Roboto, sans-serif; font-size: 12px; font-weight: 200;" fill="rgb(33, 33, 33)" stroke="none" stroke-width="1px">100k</text><text x="278.4375" y="0" dx="0em" dy="0.95em" style="text-anchor: middle; visibility: hidden; font-family: Roboto, sans-serif; font-size: 12px; font-weight: 200;" fill="rgb(33, 33, 33)" stroke="none" stroke-width="1px">110k</text></g><line x1="0" y1="0" x2="278.4375" y2="0" fill="rgb(0, 0, 0)" stroke="rgb(204, 204, 204)" stroke-width="1px"></line></g></g></g></g></svg>