<svg viewBox="0 0 330 200" xmlns="http://www.w3.org/2000/svg"><g><g><g><g><g><line x1="51.5625" y1="177" x2="46.5625" y2="177" style="visibility: inherit;" fill="rgb(0, 0, 0)" stroke="rgb(204, 204, 204)" stroke-width="1px"></line><line x1="51.5625" y1="160.9090909090909" x2="46.5625" y2="160.9090909090909" style="visibility: inherit;" fill="rgb(0, 0, 0)" stroke="rgb(204, 204, 204)" stroke-width="1px"></line><line x1="51.5625" y1="144.8181818181818" x2="46.5625" y2="144.8181818181818" style="visibility: inherit;" fill="rgb(0, 0, 0)" stroke="rgb(204, 204, 204)" stroke-width="1px"></line><line x1="51.5625" y1="128.72727272727272" x2="46.5625" y2="128.72727272727272" style="visibility: inherit;" fill="rgb(0, 0, 0)" stroke="rgb(204, 204, 204)" stroke-width="1px"></line><line x1="51.5625" y1="112.63636363636364" x2="46.5625" y2="112.63636363636364" style="visibility: inherit;" fill="rgb(0, 0, 0)" stroke="rgb(204, 204, 204)" stroke-width="1px"></line><line x1="51.5625" y1="96.54545454545453" x2="46.5625" y2="96.54545454545453" style="visibility: inherit;" fill="rgb(0, 0, 0)" stroke="rgb(204, 204, 204)" stroke-width="1px"></line><line x1="51.5625" y1="80.45454545454547" x2="46.5625" y2="80.45454545454547" style="visibility: inherit;" fill="rgb(0, 0, 0)" stroke="rgb(204, 204, 204)" stroke-width="1px"></line><line x1="51.5625" y1="64.36363636363639" x2="46.5625" y2="64.36363636363639" style="visibility: inherit;" fill="rgb(0, 0, 0)" stroke="rgb(204, 204, 204)" stroke-width="1px"></line><line x1="51.5625" y1="48.27272727272729" x2="46.5625" y2="48.27272727272729" style="visibility: inherit;" fill="rgb(0, 0, 0)" stroke="rgb(204, 204, 204)" stroke-width="1px"></line><line x1="51.5625" y1="32.181818181818194" x2="46.5625" y2="32.181818181818194" style="visibility: inherit;" fill="rgb(0, 0, 0)" stroke="rgb(204, 204, 204)" stroke-width="1px"></line><line x1="51.5625" y1="16.090909090909097" x2="46.5625" y2="16.090909090909097" style="visibility: inherit;" fill="rgb(0, 0, 0)" stroke="rgb(204, 204, 204)" stroke-width="1px"></line><line x1="51.5625" y1="0" x2="46.5625" y2="0" style="visibility: inherit;" fill="rgb(0, 0, 0)" stroke="rgb(204, 204, 204)" stroke-width="1px"></line></g><g transform="translate(41.5625, 0)"><text x="0" y="177" dx="0em" dy="0.3em" style="text-anchor: end; visibility: hidden; font-family: Roboto, sans-serif; font-size: 12px; font-weight: 200;" fill="rgb(33, 33, 33)" stroke="none" stroke-width="1px">-0.2</text><text x="0" y="160.9090909090909" dx="0em" dy="0.3em" style="text-anchor: end; visibility: inherit; font-family: Roboto, sans-serif; font-size: 12px; font-weight: 200;" fill="rgb(33, 33, 33)" stroke="none" stroke-width="1px">0</text><text x="0" y="144.8181818181818" dx="0em" dy="0.3em" style="text-anchor: end; visibility: hidden; font-family: Roboto, sans-serif; font-size: 12px; font-weight: 200;" fill="rgb(33, 33, 33)" stroke="none" stroke-width="1px">0.2</text><text x="0" y="128.72727272727272" dx="0em" dy="0.3em" style="text-anchor: end; visibility: inherit; font-family: Roboto, sans-serif; font-size: 12px; font-weight: 200;" fill="rgb(33, 33, 33)" stroke="none" stroke-width="1px">0.4</text><text x="0" y="112.63636363636364" dx="0em" dy="0.3em" style="text-anchor: end; visibility: hidden; font-family: Roboto, sans-serif; font-size: 12px; font-weight: 200;" fill="rgb(33, 33, 33)" stroke="none" stroke-width="1px">0.6</text><text x="0" y="96.54545454545453" dx="0em" dy="0.3em" style="text-anchor: end; visibility: inherit; font-family: Roboto, sans-serif; font-size: 12px; font-weight: 200;" fill="rgb(33, 33, 33)" stroke="none" stroke-width="1px">0.8</text><text x="0" y="80.45454545454547" dx="0em" dy="0.3em" style="text-anchor: end; visibility: hidden; font-family: Roboto, sans-serif; font-size: 12px; font-weight: 200;" fill="rgb(33, 33, 33)" stroke="none" stroke-width="1px">1</text><text x="0" y="64.36363636363639" dx="0em" dy="0.3em" style="text-anchor: end; visibility: inherit; font-family: Roboto, sans-serif; font-size: 12px; font-weight: 200;" fill="rgb(33, 33, 33)" stroke="none" stroke-width="1px">1.2</text><text x="0" y="48.27272727272729" dx="0em" dy="0.3em" style="text-anchor: end; visibility: hidden; font-family: Roboto, sans-serif; font-size: 12px; font-weight: 200;" fill="rgb(33, 33, 33)" stroke="none" stroke-width="1px">1.4</text><text x="0" y="32.181818181818194" dx="0em" dy="0.3em" style="text-anchor: end; visibility: inherit; font-family: Roboto, sans-serif; font-size: 12px; font-weight: 200;" fill="rgb(33, 33, 33)" stroke="none" stroke-width="1px">1.6</text><text x="0" y="16.090909090909097" dx="0em" dy="0.3em" style="text-anchor: end; visibility: hidden; font-family: Roboto, sans-serif; font-size: 12px; font-weight: 200;" fill="rgb(33, 33, 33)" stroke="none" stroke-width="1px">1.8</text><text x="0" y="0" dx="0em" dy="0.3em" style="text-anchor: end; visibility: hidden; font-family: Roboto, sans-serif; font-size: 12px; font-weight: 200;" fill="rgb(33, 33, 33)" stroke="none" stroke-width="1px">2</text></g><line x1="51.5625" y1="0" x2="51.5625" y2="177" fill="rgb(0, 0, 0)" stroke="rgb(204, 204, 204)" stroke-width="1px"></line></g></g><g transform="translate(51, 0)" clip-path="url(#clip_0)"><clipPath id="clip_0"><rect width="278" height="177"></rect></clipPath><g><g><g><line x1="0" y1="0" x2="0" y2="177" fill="rgb(0, 0, 0)" stroke="rgb(66, 66, 66)" stroke-width="1px" opacity="0.25"></line><line x1="27.84375" y1="0" x2="27.84375" y2="177" fill="rgb(0, 0, 0)" stroke="rgb(66, 66, 66)" stroke-width="1px" opacity="0.25"></line><line x1="55.6875" y1="0" x2="55.6875" y2="177" fill="rgb(0, 0, 0)" stroke="rgb(66, 66, 66)" stroke-width="1px" opacity="0.25"></line><line x1="83.53125" y1="0" x2="83.53125" y2="177" fill="rgb(0, 0, 0)" stroke="rgb(66, 66, 66)" stroke-width="1px" opacity="0.25"></line><line x1="111.375" y1="0" x2="111.375" y2="177" fill="rgb(0, 0, 0)" stroke="rgb(66, 66, 66)" stroke-width="1px" opacity="0.25"></line><line x1="139.21875" y1="0" x2="139.21875" y2="177" fill="rgb(0, 0, 0)" stroke="rgb(66, 66, 66)" stroke-width="1px" opacity="0.25"></line><line x1="167.0625" y1="0" x2="167.0625" y2="177" fill="rgb(0, 0, 0)" stroke="rgb(66, 66, 66)" stroke-width="1px" opacity="0.25"></line><line x1="194.90625" y1="0" x2="194.90625" y2="177" fill="rgb(0, 0, 0)" stroke="rgb(66, 66, 66)" stroke-width="1px" opacity="0.25"></line><line x1="222.75" y1="0" x2="222.75" y2="177" fill="rgb(0, 0, 0)" stroke="rgb(66, 66, 66)" stroke-width="1px" opacity="0.25"></line><line x1="250.59375" y1="0" x2="250.59375" y2="177" fill="rgb(0, 0, 0)" stroke="rgb(66, 66, 66)" stroke-width="1px" opacity="0.25"></line><line x1="278.4375" y1="0" x2="278.4375" y2="177" fill="rgb(0, 0, 0)" stroke="rgb(66, 66, 66)" stroke-width="1px" opacity="0.25"></line></g><g><line x1="0" y1="177" x2="278.4375" y2="177" fill="rgb(0, 0, 0)" stroke="rgb(66, 66, 66)" stroke-width="1px" opacity="0.25"></line><line x1="0" y1="160.9090909090909" x2="278.4375" y2="160.9090909090909" fill="rgb(0, 0, 0)" stroke="rgb(66, 66, 66)" stroke-width="1px" opacity="0.25"></line><line x1="0" y1="144.8181818181818" x2="278.4375" y2="144.8181818181818" fill="rgb(0, 0, 0)" stroke="rgb(66, 66, 66)" stroke-width="1px" opacity="0.25"></line><line x1="0" y1="128.72727272727272" x2="278.4375" y2="128.72727272727272" fill="rgb(0, 0, 0)" stroke="rgb(66, 66, 66)" stroke-width="1px" opacity="0.25"></line><line x1="0" y1="112.63636363636364" x2="278.4375" y2="112.63636363636364" fill="rgb(0, 0, 0)" stroke="rgb(66, 66, 66)" stroke-width="1px" opacity="0.25"></line><line x1="0" y1="96.54545454545453" x2="278.4375" y2="96.54545454545453" fill="rgb(0, 0, 0)" stroke="rgb(66, 66, 66)" stroke-width="1px" opacity="0.25"></line><line x1="0" y1="80.45454545454547" x2="278.4375" y2="80.45454545454547" fill="rgb(0, 0, 0)" stroke="rgb(66, 66, 66)" stroke-width="1px" opacity="0.25"></line><line x1="0" y1="64.36363636363639" x2="278.4375" y2="64.36363636363639" fill="rgb(0, 0, 0)" stroke="rgb(66, 66, 66)" stroke-width="1px" opacity="0.25"></line><line x1="0" y1="48.27272727272729" x2="278.4375" y2="48.27272727272729" fill="rgb(0, 0, 0)" stroke="rgb(66, 66, 66)" stroke-width="1px" opacity="0.25"></line><line x1="0" y1="32.181818181818194" x2="278.4375" y2="32.181818181818194" fill="rgb(0, 0, 0)" stroke="rgb(66, 66, 66)" stroke-width="1px" opacity="0.25"></line><line x1="0" y1="16.090909090909097" x2="278.4375" y2="16.090909090909097" fill="rgb(0, 0, 0)" stroke="rgb(66, 66, 66)" stroke-width="1px" opacity="0.25"></line><line x1="0" y1="0" x2="278.4375" y2="0" fill="rgb(0, 0, 0)" stroke="rgb(66, 66, 66)" stroke-width="1px" opacity="0.25"></line></g></g></g><g><g><line x1="0" y1="160.9090909090909" x2="278.4375" y2="160.9090909090909" fill="rgb(0, 0, 0)" stroke="rgb(153, 153, 153)" stroke-width="1.5px"></line></g></g><g><g><line x1="27.84375" y1="0" x2="27.84375" y2="177" fill="rgb(0, 0, 0)" stroke="rgb(153, 153, 153)" stroke-width="1.5px"></line></g></g><g><g><g><g><g><path stroke="rgb(255, 112, 67)" stroke-width="2px" d="M36.4307625,-5.201899748673735L36.489234375,5.0026802984881655L36.49201875,11.814325566989584L36.603393749999995,4.781639256338243L36.87069375,4.96654278926397L36.93751875,1.330546721863012L37.190896875,-9.588111206762465L37.775615625,-2.2625606707066623L37.870284375,1.225600069628622L37.914834375000005,8.552086271458922L38.020640625,6.006746307974511L38.059621875000005,10.253899367108975L38.067975000000004,14.152716798489063L38.560809375,17.011394437454427L38.7473625,18.497891886635543L39.048075000000004,12.243734787780667L39.28753125,19.925500289950225L39.320943750000005,22.029382028358217L39.48800625,21.083123403242542L39.518634375,23.781578350716075L39.6160875,12.795181810593483L39.869465625000004,22.62375894119036L39.897309375,27.33818252098944L40.554421875,25.535960084382054L40.905253125,31.072651665211765L41.300634374999994,28.244663570621388L41.311771875,28.965855221167843L42.019003125,32.55586190561665L42.147084375,34.40490122217608L42.289087499999994,34.10460016476319L42.325284375,20.489986828684415L42.497915625,25.61958693422599L42.589800000000004,26.487339871869814L42.776353125,27.033365396760253L43.032515624999995,30.465767822976865L43.6255875,29.72753522967619L44.085009375,35.682516563983704L44.179678125,29.087006566718053L44.215875,28.517074817730254L44.499881249999994,30.803640353541276L44.54443125,27.83239260296756L44.70035625,28.99326508954878L44.937028125000005,33.20432704300928L45.17926875,32.32402830650793L45.329625,35.916399978851324L45.482765625,32.43569041684572L45.58021875,32.44491598787544L46.13709375,31.85832270687767L46.195565625,32.19736249650904L46.220625000000005,35.30170485402199L46.585378125,36.47670202649484L46.641065624999996,35.345317442398375L46.919503125,37.13425963092893L47.111625,38.40154202345262L47.312099999999994,29.93987624601655L47.326021875,31.37659087631781L47.487515625,38.81063892808312L48.04160625,48.807048005426104L48.551146875,53.64871077256884L48.629109375,53.210544530745175L48.849075000000006,45.55320333275762L49.130296875,52.38717338126858L49.361399999999996,46.01565332168968L49.369753124999995,43.08956222127837L49.442146875,31.1874410457506L49.547953125,28.889706516363603L49.62313125,30.99121118811489L50.082553125000004,37.28485050933194L50.461228125,36.617610310697L50.9317875,41.339731606950444L51.647371875,47.17479258906901L51.664078124999996,41.89335392358772L51.842278125,45.92326571229999L51.9564375,51.96494589422126L52.053890625,51.118259989084876L52.137421875,47.84643421343688L52.215384375,39.19742527197109L52.282209375,44.19628752821868L52.287778125,46.84780709802891L52.413075,49.38861981384194L52.44091875,51.51856745853998L52.543940625,43.14356120137992L52.56343125,45.95461898976829L53.067403125000006,46.874880873765164L53.329134375,46.788431737621366L53.607571875000005,46.83318894948729L53.7161625,43.73123280585239L53.8164,45.79828504875829L53.905499999999996,43.891759377019426L54.4289625,36.50293293184937L54.888384375,37.85683827424913L55.00254375,38.93529140140446L55.005328125,36.10686373442095L55.23643125,46.16899606803682L55.319962499999995,43.43323385141975L55.395140624999996,42.54065545561615L55.45918125,40.80334964328989L55.545496875,41.354717716452136L55.54828125,48.50426722405408L55.615106250000004,50.50764600646419L55.6318125,49.573642905371386L55.67079375,44.39240040854904L55.865700000000004,46.7695359789454L55.940878125000005,43.67034504865708L56.02719375,47.34938877853812L56.074528125,48.699976746799564L56.2221,48.398986360711525L56.642540625,49.38309922619892L56.7901125,56.520250820488585L56.929331250000004,61.30874334774665L56.965528125,54.26864292893888L57.08525625,52.72301845843949L57.132590625000006,47.76834738473944L57.25231875,45.13838976861639L57.4806375,53.24875755345694L57.48620625,48.22951158371545L57.6588375,46.70621150480441L57.706171874999995,50.596419969046146L58.538700000000006,47.229804146684536L58.574896875,44.673360273641386L58.625015624999996,48.75149190097629L58.736390625,50.93255635628127L58.803215625,49.65468638692077L59.064946875000004,52.26789225724153L59.081653124999995,54.24717456939815L59.3962875,47.84049659386169L59.571703125,45.33255228322407L59.61346875,50.72384794091002L60.7550625,54.79217299270791L60.888712500000004,52.93973869244066L61.3342125,50.620480888408906L61.470646875,44.46304002927364L61.746300000000005,52.84375871029381L61.7574375,57.59517319249874L62.138896875,58.364441134564146L62.244703125,58.501682710558306L62.367215625,58.116389293617104L62.372784374999995,56.808393585172944L62.47580625,63.53157119655416L62.584396874999996,54.76985465599292L62.801578125,52.957245827937754L62.93244375,52.757133046793435L63.230371874999996,47.90559145537737L63.76775625,50.112374815076556L63.77889375,57.14704520702522L63.887484375,57.67050970641147L64.889859375,48.553720300588324L65.01515625,50.46959438308406L65.123746875,51.12351332048266L65.207278125,52.266707839389596L65.3103,53.40870008902222L65.496853125,53.23429114515196L65.574815625,45.393970573945865L65.778075,55.73329263465212L65.830978125,50.186877374704686L65.8449,42.85227176132073L66.276478125,48.14367561037161L66.40734375,46.66327270239212L66.74703749999999,53.85765994465666L66.772096875,51.159413778586554L66.844490625,57.46275007517973L66.955865625,50.828860791006L67.351246875,49.74437018450073L67.401365625,53.2847277372402L67.56564374999999,53.84077163470085L67.813453125,56.24847861379671L67.83294375,60.65706054446543L67.95545625,61.857458982062276L67.9944375,60.10865526660526L68.317425,58.77399685702903L68.56245,59.750512247705466L68.62370625,66.27095470968507L68.90214375000001,64.80344164998958L69.1972875,62.03010639003619L69.233484375,60.687362998707066L69.66506249999999,54.639614297574894L69.79314375,55.05154298705879L69.80706562499999,59.06465528043468L69.957421875,60.64818229131047L70.12726875,54.80406123094861L70.6451625,56.15127397375983L70.97650312500001,44.42254996341711L71.31062812500001,46.68759615663221L71.388590625,47.784473086421514L72.608146875,55.14919460010926L73.06756874999999,57.01898487162394L73.26804374999999,57.031648890143L73.488009375,59.81675738072499L73.5854625,59.40846298702042L74.71870312499999,61.96969632682058L74.807803125,59.58565679904841L74.846784375,59.86928942251599L74.85513750000001,62.0019304031309L74.92196249999999,61.26990582734857L75.0333375,58.74282635780662L75.515034375,49.81638891743388L75.531740625,52.773038504185706L75.534525,46.765132445329264L75.9132,53.76230937137235L76.27795312500001,56.102710594282534L76.380975,60.1746913045648L76.7485125,54.23494340479395L76.940634375,62.62579277239076L77.09655937500001,61.10015285334813L77.12161875,63.01604573051503L77.2162875,64.65566643006372L77.97920624999999,64.22674485076259L78.30219375,60.9070197172147L78.32446875,57.01166524507241L78.33560625,60.83928318142566L78.34674375,63.439633198497745L79.09295625,69.68903647916417L79.268371875,72.12949742925487L79.30456875,68.52538607910306L79.329628125,68.4399500794548L80.078625,69.98588510199419L80.09533125,63.73177750884636L80.137096875,57.13707177409832L80.1788625,64.00521554419255L80.48235937499999,65.36958818899362L81.05315625,66.72586392160677L81.06429375,58.345522934068676L81.33159375000001,60.4648202220182L81.63787500000001,59.369430158113275L81.79936875,54.64634802933841L81.880115625,54.95953582468868L82.13627812499999,57.82530115418849L82.14463125,58.00774489213411L82.269928125,53.73355034159705L82.46761875,55.20046944772004L83.09131875,59.0905575692127L83.316853125,60.9656998251469L83.53125,69.82261442098023L84.541978125,70.80158453230588L84.631078125,72.0020648303302L84.75915937500001,71.46108827314264L84.90673124999999,64.80237263686894L85.143403125,60.49327817869284L85.15175624999999,56.015427589651175L85.254778125,60.56002081971812L85.332740625,62.33969935338928L85.382859375,65.41296209756547L85.388428125,69.74188346456623L85.650159375,72.75361813561616L85.87569375000001,67.0520125367541L86.18197500000001,65.24525243543108L86.229309375,58.27070469397183L86.2599375,61.13549699681272L86.318409375,61.10706236864761L86.418646875,57.42134457065952L86.463196875,61.56230088666202L86.67759375,62.53966782447769L86.96716875,57.9277122852628L87.06183750000001,59.635770110713736L87.18435000000001,55.286550135650444L87.93891562499999,55.51970818495861L88.200646875,46.44831347867427L88.206215625,54.97411260412517L89.2782,62.97155505064955L89.553853125,58.1617394046795L89.95758749999999,63.24597356820609L90.16084687499999,59.55152046634369L91.05741562499999,64.0527689302454L91.20777187499999,67.56751935205345L91.27738125,62.772972218413976L91.66719375000001,64.81262330328433L92.08485,64.93466555273808L92.18230312499999,74.40922470047208L92.806003125,88.67802213684833L93.01761562499999,97.26139426319018L93.0204,106.79673276758754L93.27934687499999,111.84999191033961L93.52715624999999,112.83989662254362L93.532725,114.59123634076637L93.68308125,110.86682393905345L94.86644062500001,115.21444176127967L95.72402812499999,112.39624507827925L95.97740625,113.61690874730297L95.98854374999999,115.81472036740034L96.041446875,110.79484279183329L96.63173437500001,118.29681893235208L96.670715625,117.73406113305057L96.78209062500001,115.6473950127591L96.976996875,121.08193894070995L97.01876250000001,117.36644686258312L97.10786250000001,119.14487292060052L97.127353125,116.04661869275395L97.283278125,113.82975377816832L97.43085,121.73693304710368L97.60348125,123.8569820685715L97.767759375,121.66801725950477L98.14921874999999,119.55565258936069L98.692171875,123.85111946725618L99.26296875,121.47889603674493L99.413325,121.0815343664456L99.44116875,123.08617770926548L99.4467375,121.30718698437666L99.56368125,118.92546312033707L100.00918125,116.41062627934073L100.04259375000001,119.73765770290613L100.66629375,118.32130789574576L100.972575,121.68162724537336L101.08394999999999,124.44884232108674L101.28999375,122.23003852674834L101.41250624999999,121.7449984612271L102.03899062500001,123.49397465469758L102.16985625,126.0647550841383L102.33691875,124.10388133104462L102.512334375,126.95811100056713L102.94112812499999,123.19855948998735L103.06364062499999,124.7714536720277L103.10540625,126.94146337114343L103.314234375,127.90710571247244L103.3671375,126.18521575018327L103.88224687499999,122.10986780184516L104.046525,124.06286734756453L104.288765625,125.1808571666928L104.47531875,122.68597401464511L104.767678125,118.9427564307396L104.8372875,118.60891189037557L105.229884375,119.91423526918172L105.34404375,123.60210646535485L105.513890625,127.31603882681283L105.82574062500001,128.37875411276408L105.93433125,126.68804615140412L106.093040625,126.6387863123444L106.8197625,125.09477281464392L107.067571875,123.02758027359884L107.089846875,121.28940920488155L107.2429875,119.29616440698088L107.52142500000001,120.38269179680694L108.019828125,121.82687556949868L108.186890625,122.4764169553647L108.264853125,123.01057734433644L108.51544687500001,124.38203129539825L108.54885937499999,123.19716636000399L108.944240625,123.71555036319471L109.31456250000001,127.56188646562802L109.45656562500001,125.62028787444234L109.793475,128.62171276645887L109.957753125,123.96874799869674L110.16658125000001,121.02278727832946L110.319721875,122.81477104749388L110.364271875,120.62836058702642L110.461725,116.48939227268497L110.47843125,118.84748357385905L110.776359375,124.51305064632439L110.907225,126.44553595446098L110.954559375,124.22518176939707L111.02695312499999,124.16080090358736L111.305390625,125.19109870764544L111.375,121.74629794657349L111.53092500000001,125.79400794511564L111.5643375,125.7101596024149L111.600534375,123.83827322662769L112.09058437499999,123.44433111675754L112.10172187500001,122.49633616751429L112.21309687499999,126.52726923986238L112.30498125,124.58254709634109L113.3352,122.35714760841141L113.861446875,126.94345310689825L113.936625,128.87786960546538L114.048,130.08254282874842L114.070275,128.72378615641205L114.178865625,120.98362902573007L114.84154687499999,124.63964956320622L115.03645312500001,129.78594549162293L115.209084375,131.8991148820217L115.303753125,130.58609938544387L115.46803125000001,127.54139578621273L115.852275,127.43096727625215L115.91353125,124.25514102169195L115.99984687499999,126.6956252196006L116.111221875,130.9780568302994L116.133496875,129.88755295295377L116.673665625,128.75597625743663L116.718215625,125.57128681241626L116.81566875,127.23502301004295L116.87970937499999,123.0393727861179L116.985515625,121.80161209900632L117.42823125,117.652305587852L117.65376562499999,121.40562342361775L118.35821250000001,128.26643061329983L118.53084375,130.3627190040408L118.661709375,127.73697710316529L119.023678125,118.56490125390219L119.2046625,114.70362474238634L119.240859375,123.24024972421114L119.24364374999999,121.6443485065612L119.45804062500001,127.58198861364583L119.636240625,125.79192496154776L119.76432187500001,128.24999965047556L120.50775,131.9060318063459L120.866934375,131.8985472337678L120.917053125,130.15801006760935L120.95881874999999,125.9773110131102L121.68275625000001,124.23967331960228L121.70503124999999,120.90114213849127L121.9667625,124.14390779954476L122.1226875,123.83932228611009L122.13660937499999,125.85938107045514L122.142178125,128.3901240293504L122.19786562499999,125.39818598198639L122.57375625,122.53394529334264L122.76309375000001,125.62541588123665L122.8132125,127.53122894532913L123.06380625,127.4899914992082L123.29769375,121.69514461243426L123.807234375,122.98725697275022L123.8378625,125.78448696116763L123.90468750000001,128.86806392397756L124.24995000000001,130.2292405534815L124.95718125,133.2700177954508L125.04628124999999,135.46890058948563L125.10753749999999,133.19137861358772L125.1520875,129.22761974026082L125.15765625,127.25587307333L125.163225,131.46959681841977L125.20777500000001,133.3435110205226L125.427740625,131.4195888990269L125.61707812499999,132.36200169159696L125.689471875,128.70582732274912L125.90386875,130.17423870881177L126.34936875000001,128.73598881738704L126.591609375,123.36989237500892L126.62780625,124.37114298883913L126.83385,121.16147281147252L126.9118125,120.6459592990384L127.06773749999999,125.82482449214763L127.259859375,131.0252775885908L127.426921875,132.98612023765787L127.733203125,132.47741324745763L127.84179375,128.12095849810655L127.93924687500001,124.43608001150044L128.106309375,128.42678968909158L128.601928125,128.00810388696763L129.47900625,132.06717683602372L129.743521875,128.03152859808043L129.78807187499999,131.47031728604242L129.84097500000001,133.2315884427411L129.994115625,132.28056875336176L130.01639062499999,131.00476276990938L130.550990625,131.74870537264175L130.556559375,133.35646724265993L130.5649125,129.04210333454824L130.59832500000002,132.67882190439397L130.63730625,127.92479375017028L130.857271875,133.31982116760759L131.04939375,128.31632179535598L131.08837499999998,127.4532698488717L131.19139687499998,124.89483901512261L131.375165625,130.59074457947125L132.255028125,124.36259642573962L132.466640625,129.4790501641471L132.6699,126.49775964411621L132.745078125,127.11879261315833L132.95390625,128.79673114570198L133.1042625,122.33187940048869L133.118184375,126.15085913354952L133.47736874999998,127.9063144812599L134.142834375,129.14665205037468L134.72755312500001,129.8195604195999L134.7303375,125.68332497000084L134.788809375,127.36452556247781L135.00877499999999,131.0248587470423L135.095090625,131.08781924764065L135.22038750000002,128.9770902558442L135.89420625,133.56996251240122L135.988875,132.2429941860341L136.103034375,128.5021619874918L136.153153125,130.92253909688387L136.50676875,128.18344010439412L137.09984062499998,132.2591237256721L137.6929125,129.542661273088L137.76530625,129.53409969262995L137.97135,133.75729268463087L138.074371875,132.5968439321019L138.11056875,133.56070602126164L138.41963437500002,131.94923382784003L138.6952875,130.8701232127904L139.305065625,136.03265185561045L139.52781562500002,130.7712436066264L139.70601562500002,128.8134575855089L139.878646875,131.87503514335847L139.91484375,128.94642063385209L140.01508124999998,134.37725774129171L140.129240625,136.9865461715131L140.14594687500002,133.98844197017908L140.379834375,132.4357479110916L140.674978125,131.54395493188312L140.72509687500002,128.39671764347065L140.87266874999997,127.81353673030257L140.93949375,130.69134127420864L141.42954375,131.07262283810132L141.45181875,131.85241847294554L141.58546875,130.96136093120023L141.6801375,127.84051987787957L141.78594375,129.9837018174852L141.844415625,130.3813998230597L142.1256375,128.61964427672356L142.200815625,131.06008345195804L142.20916875,136.98938582561271L142.22030625,137.48578625724556L142.7382,134.85002214576127L142.81616250000002,133.15351856487368L143.04726562500002,130.3978167718709L143.32291874999999,132.8079227816336L143.49833437499998,135.79594021669303L143.51225625,136.27735511386612L143.58186562499998,137.24475557975683L143.70437812499998,136.59846710026255L143.82689062499998,135.1463713350404L144.155446875,136.04571929372221L144.545259375,137.54620394314722L144.701184375,136.47351015874435L144.823696875,137.97702863647484L144.9322875,139.08196389847092L145.11884062500002,139.35447161409206L145.146684375,135.70339131633935L145.1550375,131.8104807631999L145.987565625,130.5035140843019L146.07388125,129.6648384172216L146.27992500000002,129.47256230995572L147.170925,131.21776114298032L147.20990625,129.80508427962627L147.296221875,131.87777799508498L147.438225,133.44895131130477L147.958903125,131.90038458549654L148.21785,134.12547290134455L148.22620312499998,130.57863742540547L148.398834375,129.8326763157048L149.117203125,134.97569592207117L149.2759125,134.14116406197107L149.73811875,129.4811121503344L150.024909375,129.09224790160297L150.860221875,133.33960431276063L151.06905,136.47567645096848L151.1470125,137.30959991391398L151.33078125,133.86079202323333L151.3697625,134.89817805860312L151.50898124999998,134.96438278150154L151.6482,128.74016233319995L151.67325937500001,131.20590684001257L151.70667187499998,132.2012830425559L151.81247812499998,130.62574801196752L152.09648437500002,132.16915803110115L152.338725,133.4393831689307L152.374921875,136.26400154065348L152.39162812499998,134.47723457138312L152.47794375,130.84057526595285L153.07658437499998,132.99152460145723L153.182390625,130.2868574104122L153.26870624999998,131.31442789953152L154.21539375,133.95722470605003L154.3323375,134.48757832221546L154.619128125,132.5546478708744L154.7332875,131.59144226682054L155.25118125,134.42810453809963L155.82476250000002,134.8698749034049L155.85817500000002,133.8308105239698L155.93056875,133.08190431954492L156.690703125,132.71060678329374L157.15569375,128.08228384507208L157.297696875,128.75983248601048L157.331109375,130.12426531582886L157.626253125,134.02160465661393L157.938103125,138.6252811981227L158.361328125,144.28711418814467L158.40587812500002,148.66540272510977L158.461565625,151.52773748974707L158.745571875,153.8896288899117L158.75949375000002,153.86712929039035L158.801259375,152.3968136607068L158.840240625,153.82617920790494L158.887575,153.89819353639982L158.8987125,154.07002272823664L158.9432625,153.44612661075124L159.02400937500002,153.15586182680283L159.154875,154.3244654144873L159.207778125,153.03746462825387L159.55860937499997,153.14296293697464L159.681121875,155.12831854230097L159.9901875,155.25734716597756L160.232428125,154.3429344612789L160.4134125,155.75223151677167L160.45239375,156.0552453701694L160.87561875,156.8992325345494L161.49374999999998,157.4419715775847L162.02278124999998,157.33550899549937L162.047840625,156.4662494708575L162.18427499999999,156.19480600787426L162.56851875,156.82450998258346L162.916565625,157.11476358717098L163.2646125,157.42831535022344L163.434459375,157.5473139113674L163.49293125,158.00705468690603L163.8437625,157.6323117770381L164.53985625,157.93966333586465L164.57326875,158.4436153194191L164.74033125,158.17960287714385L164.84056875,158.38648908865898L165.027121875,157.72452715790104L165.15520312499999,157.78972174298448L165.28606875,158.57993509080654L165.6257625,158.33818643284013L165.748275,158.31443851517756L166.2049125,158.68419666309157L166.235540625,158.66045411007457L166.374759375,158.37536577275958L166.65598125,158.11641154454904L166.68660937500002,157.86500611247493L166.95669375,157.8259711485075L166.99567499999998,157.93192569088197L167.03465624999998,158.38326807611847L167.09312812500002,157.2847295491426L167.5414125,158.15721164954692L167.79200625000001,158.64484072520943L167.961853125,158.41472217981965L168.290409375,158.86254725063088L168.47139375,158.2022055464694L168.730340625,157.38735526531826L168.74426250000002,157.877555904824L168.8445,158.67049685992558L169.00599375,158.84061122721184L169.159134375,158.29702244977693L169.18419375000002,158.43254204783165L169.1897625,157.97800253772007L169.3456875,158.3909666100014L169.5684375,158.9098174717145L170.11139062499998,158.94567131688532L171.152746875,158.9866979279809L171.520284375,158.72826159648258L172.06880625,159.15826146490124L172.439128125,159.04281721754737L172.455834375,159.15783407975735L172.494815625,159.22647392727274L172.5532875,159.11279777749056L172.67023125,159.44149599854944L173.27165624999998,159.71225407021032L173.366325,159.23576282805456L173.61413437500002,159.2362556864911L173.64754687500002,157.75689383453144L173.745,158.50493812691957L174.13481249999998,159.02440429367786L174.15708750000002,159.16021080898688L174.41881874999999,159.30555046544123L174.48842812499998,159.51912338342294L175.326525,159.56622246367894L175.59939375,159.84669751435234L175.630021875,159.51487888686054L175.646728125,159.31410414263016L176.125640625,159.1494427357904L177.153075,159.28194373755406L177.673753125,159.55455931661953L178.152665625,159.0809923872475L178.31694375,159.26494718033544L178.6120875,159.41292015521265L178.94064375,159.31629803113987L179.478028125,158.23636551318458L179.839996875,158.847746198582L179.85113437500002,159.13425837036053L179.88733125,159.5358498154848L180.335615625,159.62878271701774L181.16814375,159.3491065725095L181.20712500000002,159.1766785374743L181.32128437499998,158.48236149322491L181.39924687500002,158.67009008119678L181.42430625,158.9351237422184L181.71388125,159.0045269557184L182.009025,159.17771585088863L182.3765625,159.18311541917424L182.61045,159.46368236291408L182.618803125,159.7220404430834L182.677275,159.66198164099012L182.73853125,159.48075641575676L182.98634062500003,159.04659062256349L183.409565625,159.3468061802356L183.72141562500002,159.35438600666555L183.8021625,159.5371701723389L183.916321875,158.89450588601053L184.13907187499998,159.2438597396284L184.239309375,159.32361218911933L184.356253125,159.05749625917608L184.534453125,159.31238280725464L184.5817875,158.89553297753324L184.65975,158.8601786707055L185.09968125,158.911573137174L185.11081875,159.30942206856227L185.12752500000002,159.6545535467458L185.89044375,159.68381843447042L185.973975,159.63898375699353L185.97954375,159.81894274910132L186.366571875,159.75702001859966L186.44174999999998,159.61897283220154L186.73967812499998,159.35925727468322L187.39400625,159.10177050453558L187.703071875,158.55530681672067L187.8116625,158.97168992538946L188.18476875000002,159.26405930807056L188.2126125,159.58324303207127L188.73050625,159.83366282169146L188.761134375,159.8156924946608L189.056278125,159.63610946489203L189.18435937499999,159.74872263473875L189.245615625,159.78741596529628L189.279028125,159.9093244234471L189.813628125,159.31943171834257L190.36214999999999,159.37734402263348L190.44568125,158.90787989239044L190.46795625000001,159.26983725397648L190.5849,158.8552308191264L191.052675,159.3348809474758L191.16404999999997,159.46060811841795L191.372878125,159.2894307603253L191.473115625,159.208604611811L191.74876875,159.202005638124L192.28336875,158.88038550732387L192.882009375,159.53417785103488L193.071346875,159.88041520858098L193.47508125000002,159.60338804772616L193.66441875,159.78257441038426L193.6699875,159.95251820180764L194.05423125000002,159.85044438128224L194.625028125,159.85433409729737L194.831071875,159.75926823443203L194.91181874999998,159.56223861489045L194.948015625,159.23765671578147L195.25708125,158.90042209454452L195.4074375,158.77719491868336L195.68865937500001,159.26205462170748L196.10909999999998,159.44653840355394L197.57646562500003,159.36881600735703L198.18902812500002,159.38910112020605L198.3031875,159.56563757636852L198.768178125,159.71308712451471L198.7932375,159.73982007208303L198.80159062500002,159.65579749640074L199.116225,159.36661734883552L199.408584375,159.48489757620487L199.531096875,159.48546625419104L199.71208125,159.41329578021984L199.759415625,158.50096887163576L199.94318437500002,158.88861531300157L200.210484375,159.13681529238056L200.216053125,159.49083873969127L200.31350625,159.6500257285535L200.39146875,159.56669748345882L200.449940625,159.75546171368853L200.45272500000002,158.85818263610312L200.622571875,158.71393512347674L200.70331875,159.17891335948093L201.41890312499999,159.4673590552951L201.435609375,159.61857644784098L201.552553125,159.75413983179442L201.833775,159.8251864054983L202.03146562499998,159.37923662096824L202.037034375,159.21447539710795L202.40735625000002,159.67670726307236L202.760971875,159.7381530077257L202.8027375,159.85277684500127L203.17305937499998,159.98171723419884L203.45985000000002,160.10307336658119L203.679815625,160.07846695782578L203.71044375000002,159.9734085602829L203.77448437500001,159.6997250363825L203.952684375,159.7330266217702L204.84368437499998,159.87905087526386L204.99404062500003,159.79869375961107L205.175025,159.88289905201734L205.69291875,159.79810608515672L205.78201875000002,160.0275431340986L205.957434375,159.34444882884128L206.2999125,159.72460062093873L206.402934375,159.5260605503406L207.4359375,159.15669855506388L207.711590625,159.62401660988905L207.79790624999998,159.8801085089415L208.535765625,160.05738938890042L208.630434375,160.1111342116993L208.686121875,159.90601621752606L209.73583125000002,159.6969222789688L209.866696875,159.9154234617475L209.99199374999998,159.85772505160628L210.06995625000002,160.05087915493468L210.078309375,160.19926048499556L210.384590625,160.21387774409453L210.73542187500001,160.16920732213833L210.841228125,160.3048680666382L210.92754374999998,160.17992187562987L210.96095625,159.83674358604034L211.114096875,159.77952559698278L211.17256874999998,159.84779035194768L211.219903125,160.11206606395726L211.42873125,160.1572404977514L211.492771875,160.187128715428L211.57908749999999,160.06463665551544L211.90207500000002,160.15862167208175L211.92991875,160.22959308234348L212.200003125,160.2301473977457L212.255690625,160.20325739324878L212.29467187499998,160.20603616345264L212.428321875,160.26862568224584L213.03253125,160.2246281870543L213.37779375,160.02956942344514L213.43069687500002,160.0172492790617L213.46410937500002,159.9074713257219L213.508659375,160.00003780259965L213.51422812500002,160.1530027372198L213.55599375,159.9917422046817L213.6729375,160.03891348302295L213.68129062499997,159.97386452911076L213.787096875,159.6061203247772L214.650253125,159.96015336355978L214.9092,160.0988941850814L215.05955624999999,159.79095497707388L215.18206874999998,159.8528172514471L215.47442812499997,160.0403687302793L215.53289999999998,160.03152347127025L215.822475,160.12497534272407L215.85588750000002,160.17565735244787L216.721828125,160.26512397865582L216.794221875,160.3268702255583L216.81649687499998,159.84600250664548L216.90002812499998,160.06198775471282L217.167328125,159.88040727476442L217.37615624999998,160.06475911787723L217.707496875,160.14828086899345L218.04997500000002,159.3483966499962L218.208684375,159.78045831543815L218.40359062500002,160.05856608233262L218.453709375,160.02192574601037L218.8184625,160.0557067432687L218.9075625,160.12134885879695L218.9187,160.20666547770702L219.032859375,160.10119945929642L219.483928125,160.05208738904142L219.51455625,159.905280852654L220.152178125,160.0964081817173L220.1661,159.7887139038814L220.619953125,160.04913068881658L220.903959375,160.06034570930697L221.15733749999998,160.20604446844285L221.24922187500002,159.88348539836096L221.28263437500001,159.9900729695292L221.44134375000002,160.12896521165032L221.75040937499998,159.52761477591753L221.84786250000002,159.74717408942703L222.15414375,159.9986797028592L222.257165625,160.09036070154832L222.903140625,160.22859740627163L223.2957375,159.54640054308334L223.69111875,159.8990611150055L223.6966875,160.08579739501437L223.755159375,160.0204165636607L224.389996875,160.14524537467247L224.40391875,159.81776200008724L224.52643125,160.05558060007783L224.56262812499997,160.2118174939487L224.81600625000002,160.28382904236884L225.18911250000002,160.39781833271903L225.400725,160.1463738395818L225.420215625,159.81621290447782L225.57335625,159.83392283051646L225.76269374999998,160.04112776800247L225.979875,160.11452919046405L226.11074062499998,160.23751235282072L226.158075,160.23768935096922L226.249959375,160.06264528140116L226.528396875,160.19379202458754L227.46951562499999,160.13044290472482L227.653284375,160.05690845120282L227.675559375,160.1184380983841L227.798071875,160.01036012906025L227.85654375,159.93269237313493L228.08486249999999,160.03697813601497L228.1071375,160.14073854354672L228.605540625,160.0514133739372L228.655659375,160.04773917856895L229.12621875,160.132008397244L229.81952812499998,160.11510358596598L229.852940625,160.27548643139536L229.95039375000002,159.96737823855491L230.047846875,160.10636838605132L230.120240625,160.096690374176L231.066928125,159.95152161114802L231.25905,159.88218862866262L231.451171875,160.0668041669226L231.673921875,160.0874101385033L231.779728125,160.01098365626615L232.36723124999997,160.17657417265093L232.47582187499998,159.98537965930058L232.67908125,160.08689048018354L233.015990625,160.28576649053963L233.439215625,160.3847064268703L233.57008125000002,160.36579343551676L233.6313375,160.3830701885194L233.6536125,160.26615966445084L233.673103125,160.3557535428254L233.731575,159.93410845935577L233.984953125,160.0086332989647L233.99052187499998,159.80235154736886L234.08240625,159.97781747949927L234.24946875,160.07554648984612L234.307940625,160.25463200007545L234.42488437499998,160.1174969581874L234.742303125,160.12723901056015L235.037446875,160.06324920973202L235.232353125,160.12890941819344L235.544203125,160.28824234586412L235.88946562499999,160.19838894315524L235.99527187500001,160.16570534434513L236.2152375,160.13086314104095L236.27649375000001,160.05961353307993L236.68858125,160.04952714632117L236.94474375,160.10231083950092L236.94752812500002,160.21512709007484L236.98094062500002,160.10359525248626L236.983725,160.1881346353238L237.08117812499998,160.2984665494103L237.186984375,160.37675866072328L237.24545625000002,160.29511390223257L237.70209375000002,160.31325482982027L237.905353125,160.01344024571986L237.94155,160.13771207987062L238.05849375,159.83877193782638L238.24783125,160.07138963335916L238.37869687499997,159.9598574656916L238.58195625,160.18655298355165L239.14161562500001,160.2137616520144L239.347659375,160.17416948795423L239.47295625,160.13354608283592L240.066028125,160.19015769611173L240.06881249999998,160.229736136925L240.311053125,160.0812468670498L240.81224062500002,159.82757128155825L240.815025,159.91880634207894L240.9375375,160.09243238573958L241.0934625,160.10526476646692L241.527825,160.22988006459926L241.66704375,160.24633838702863L242.048503125,160.22202105849487L242.06799375,160.2129890544236L242.276821875,159.99230066671683L242.2963125,160.10447763866014L242.332509375,160.2586551017377L242.64714375,160.23276533497975L243.3321,160.2285438560354L243.652303125,160.15865597087947L243.7887375,160.1318987872367L243.79709062499998,160.1922262476063L243.93909374999998,160.0683772697188L244.214746875,159.8196060933878L244.22031562499998,159.8822594341449L244.48761562500002,160.0062855819406L244.604559375,159.82760665943655L244.888565625,159.94942509064472L245.136375,159.8931324463532L245.194846875,160.09061458858727L245.217121875,160.0294465730782L245.27559375,160.11830301572465L245.42873437499998,159.4275094643969L245.54567812500002,159.76192713370716L245.581875,159.90549186529014" style="fill: none;" fill="none"></path></g></g></g></g><g opacity="0.2"><g><g><g><path stroke="rgb(255, 112, 67)" stroke-width="2px" d="M33.303909374999996,-32.27817632935263L34.629271875,1.449486721645704L34.64319375,-20.569301410154857L35.2056375,-14.642951163378644L35.319796874999994,6.474721214988011L35.34485625,-8.286351832476544L35.553684374999996,-1.0221820527856893L36.124481249999995,0.4989776828072252L36.4307625,-7.400303428823287L36.489234375,20.30955027450217L36.49201875,22.031793431802235L36.603393749999995,-5.76739018613643L36.87069375,5.243898088281796L36.93751875,-4.123447374864066L37.591846874999995,-20.21549203179099L37.775615625,15.1021936264905L37.870284375,6.4578411795876205L37.914834375000005,19.54181557351894L38.020640625,2.1887363628907566L38.059621875000005,16.62462895566768L38.067975000000004,20.000942945480368L38.560809375,21.299410895867787L38.7473625,20.72763806039638L39.048075000000004,2.86249913952567L39.28753125,31.448148543184466L39.320943750000005,25.185204635966926L39.48800625,19.663735465569935L39.518634375,27.829260771924808L39.6160875,-3.6844129995866184L39.869465625000004,37.36662463708359L39.897309375,34.40981789068743L40.554421875,22.832626429471127L40.905253125,39.37768903645603L41.300634374999994,24.00268142873592L41.311771875,30.04764269698752L42.019003125,37.94087193228984L42.147084375,37.17846019701525L42.289087499999994,33.65414857864382L42.325284375,0.06806682456623603L42.497915625,33.31398709253832L42.589800000000004,27.788969278335593L42.776353125,27.852403684095915L43.032515624999995,35.61437146230179L43.6255875,28.620186339725166L44.085009375,44.61498856544497L44.179678125,19.193741570819526L44.215875,27.662177194248567L44.499881249999994,34.233488657257794L44.54443125,23.375520977106977L44.70035625,30.73457381942058L44.937028125000005,39.52091997320003L45.17926875,31.00358020175589L45.329625,41.30495748736644L45.482765625,27.2146260738373L45.58021875,32.458754344420015L46.13709375,30.97843278538099L46.195565625,32.70592218095607L46.220625000000005,39.9582183902914L46.585378125,38.23919778520412L46.641065624999996,33.64824056625368L46.919503125,39.817672913724735L47.111625,40.302465612238116L47.312099999999994,17.24737757986243L47.326021875,33.531662821769736L47.487515625,49.96171100573107L48.04160625,63.80166162144056L48.551146875,60.911204923282995L48.629109375,52.55329516800968L48.849075000000006,34.067191535776324L49.130296875,62.63812845403499L49.361399999999996,36.45837323232132L49.369753124999995,38.70042557066138L49.442146875,13.33425928245891L49.547953125,25.443104722283127L49.62313125,34.14346819574184L50.082553125000004,46.72530949115755L50.461228125,35.616750012744575L50.9317875,48.42291355133059L51.647371875,55.92738406224686L51.664078124999996,33.97119592536582L51.842278125,51.96813339536841L51.9564375,61.027466167103185L52.053890625,49.84823113138027L52.137421875,42.938695549964926L52.215384375,26.223911859772446L52.282209375,51.69458091259005L52.287778125,50.825086452744245L52.413075,53.19983888756147L52.44091875,54.71348892558707L52.543940625,30.581051815639864L52.56343125,50.17120567235081L53.067403125000006,48.25527369976046L53.329134375,46.658758033405675L53.607571875000005,46.900324767286136L53.7161625,39.07829859040002L53.8164,48.89886341311717L53.905499999999996,41.03197086941114L54.4289625,25.41969326409428L54.888384375,39.88769628784875L55.00254375,40.552971092137426L55.005328125,31.864222233945682L55.23643125,61.26219456846065L55.319962499999995,39.329590526494115L55.395140624999996,41.201787861910745L55.45918125,38.197390924800544L55.545496875,42.18176982619548L55.54828125,59.228591485457L55.615106250000004,53.512714180079385L55.6318125,48.17263825373217L55.67079375,36.620536663315534L55.865700000000004,50.33523933453995L55.940878125000005,39.021558653224616L56.02719375,52.8679543733597L56.074528125,50.72585869919172L56.2221,47.94750078157946L56.642540625,50.859268524430036L56.7901125,67.22597821192309L56.929331250000004,68.49148213863374L56.965528125,43.708492300727166L57.08525625,50.404581752690405L57.132590625000006,40.33634077418937L57.25231875,41.1934533444318L57.4806375,65.41430923071775L57.48620625,40.70064262910324L57.6588375,44.421261386437855L57.706171874999995,56.43173266540876L58.538700000000006,42.17988041314213L58.574896875,40.83869446407667L58.625015624999996,54.86868934197861L58.736390625,54.20415303923869L58.803215625,47.73788143288007L59.064946875000004,56.187701062722645L59.081653124999995,57.21609803763303L59.3962875,38.230479630556985L59.571703125,41.57063581726769L59.61346875,58.81079142743892L60.7550625,60.89466057040475L60.888712500000004,50.16108724203977L61.3342125,47.141594182361274L61.470646875,35.22687874057078L61.746300000000005,65.41483673182401L61.7574375,64.72229491580619L62.138896875,59.51834304766222L62.244703125,58.7075450745496L62.367215625,57.53844916820528L62.372784374999995,54.846400022506735L62.47580625,73.61633761362597L62.584396874999996,41.62727984515104L62.801578125,50.23833258585497L62.93244375,52.45696387507701L63.230371874999996,40.62827906825328L63.76775625,53.42254985462537L63.77889375,67.69905079494825L63.887484375,58.45570645549081L64.889859375,34.87853619185361L65.01515625,53.34340550682763L65.123746875,52.104391726580545L65.207278125,53.98149961775L65.3103,55.12168846347117L65.496853125,52.97267772934655L65.574815625,33.633489717136754L65.778075,71.2422757257115L65.830978125,41.867254484783544L65.8449,31.850363341244808L66.276478125,56.08078138394791L66.40734375,44.442668340422905L66.74703749999999,64.64924080805346L66.772096875,47.11204452948137L66.844490625,66.9177545200695L66.955865625,40.878026864745415L67.351246875,48.11763427474284L67.401365625,58.5952640663494L67.56564374999999,54.67483748089185L67.813453125,59.860039082440466L67.83294375,67.26993344046853L67.95545625,63.65805663845757L67.9944375,57.48544969341973L68.317425,56.77200924266471L68.56245,61.21528533372013L68.62370625,76.05161840265448L68.90214375000001,62.60217206044632L69.1972875,57.87010350010613L69.233484375,58.67324791171335L69.66506249999999,45.567991245876684L69.79314375,55.66943602128464L69.80706562499999,65.08432372049853L69.957421875,63.02347280762414L70.12726875,46.03787964040584L70.6451625,58.17209308797664L70.97650312500001,26.829463947903047L71.31062812500001,50.08516544645484L71.388590625,49.429788481105476L72.608146875,66.19627687064084L73.06756874999999,59.823670278896L73.26804374999999,57.0506449179216L73.488009375,63.994420116597965L73.5854625,58.79602139646358L74.71870312499999,65.81154633652082L74.807803125,56.00959750739011L74.846784375,60.29473835771735L74.85513750000001,65.20089187405328L74.92196249999999,60.17186896367508L75.0333375,54.95220715349372L75.515034375,36.4267327568748L75.531740625,57.20801288431342L75.534525,37.75327335704459L75.9132,64.25807476043703L76.27795312500001,59.61331242864783L76.380975,66.28266236998819L76.7485125,45.325321555137656L76.940634375,75.21206682378596L77.09655937500001,58.81169297478417L77.12161875,65.88988504626535L77.2162875,67.11509747938678L77.97920624999999,63.583362481810845L78.30219375,55.92743201689287L78.32446875,51.168633536859L78.33560625,66.58071008595554L78.34674375,67.34015822410585L79.09295625,79.06314140016383L79.268371875,75.79018885439093L79.30456875,63.11921905387534L79.329628125,68.31179607998243L80.078625,72.30478763580324L80.09533125,54.35061611912469L80.137096875,47.245013171976275L80.1788625,74.30743119933389L80.48235937499999,67.41614715619522L81.05315625,68.76027752052656L81.06429375,45.775011452761575L81.33159375000001,63.64376615394248L81.63787500000001,57.72634506225588L81.79936875,47.561724836176104L81.880115625,55.42931751771408L82.13627812499999,62.1239491484382L82.14463125,58.28141049905258L82.269928125,47.322258515791475L82.46761875,57.40084810690447L83.09131875,64.92568975145167L83.316853125,63.778413209048196L83.53125,83.10798631473023L84.541978125,72.27003969929437L84.631078125,73.80278527736665L84.75915937500001,70.6496234373613L84.90673124999999,54.81429918245836L85.143403125,54.02963649142875L85.15175624999999,49.29865170608869L85.254778125,67.37691066481851L85.332740625,65.009217153896L85.382859375,70.02285621382974L85.388428125,76.23526551506738L85.650159375,77.27122014219111L85.87569375000001,58.49960413846104L86.18197500000001,62.53511228344659L86.229309375,47.808883081782966L86.2599375,65.4326854510741L86.318409375,61.06441042639993L86.418646875,51.89276787367734L86.463196875,67.77373536066577L86.67759375,64.00571823120119L86.96716875,51.00977897644045L87.06183750000001,62.19785684889014L87.18435000000001,48.762720173055484L87.93891562499999,55.869445258920855L88.200646875,32.84122141924774L88.206215625,67.76281129230155L89.2782,74.96771872043611L89.553853125,50.947015935724444L89.95758749999999,70.87232481349601L90.16084687499999,54.009840813550085L91.05741562499999,70.80464162609796L91.20777187499999,72.8396449847655L91.27738125,55.58115151795475L91.66719375000001,67.87209993058985L92.08485,65.11772892691873L92.18230312499999,88.62106342207304L92.806003125,110.08121829141272L93.01761562499999,110.13645245270297L93.0204,121.09974052418364L93.27934687499999,119.42988062446769L93.52715624999999,114.32475369084968L93.532725,117.21824591810054L93.68308125,105.28020533648404L94.86644062500001,121.73586849461904L95.72402812499999,108.16895005377857L95.97740625,115.44790425083853L95.98854374999999,119.11143779754639L96.041446875,103.26502642848276L96.63173437500001,129.54978314313024L96.670715625,116.88992443409833L96.78209062500001,112.51739583232187L96.976996875,129.23375483263624L97.01876250000001,111.79320874539289L97.10786250000001,121.81251200762662L97.127353125,111.39923735098407L97.283278125,110.50445640628989L97.43085,133.59770195050675L97.60348125,127.03705560077323L97.767759375,118.3845700459047L98.14921874999999,116.38710558414459L98.692171875,130.2943197840994L99.26296875,117.92056089097804L99.413325,120.48549186099662L99.44116875,126.09314272349532L99.4467375,118.6387008970434L99.56368125,115.35287732427771L100.00918125,112.6383710178462L100.04259375000001,124.72820483825423L100.66629375,116.19678318500519L100.972575,126.72210626981474L101.08394999999999,128.59966493465683L101.28999375,118.90183283524081L101.41250624999999,121.01743836294523L102.03899062500001,126.1174389449033L102.16985625,129.9209257282994L102.33691875,121.16257070140406L102.512334375,131.2394555048509L102.94112812499999,117.55923222411765L103.06364062499999,127.13079494508831L103.10540625,130.19647791981697L103.314234375,129.355569224466L103.3671375,123.60238080674952L103.88224687499999,115.99684587933801L104.046525,126.9923666661436L104.288765625,126.85784189538523L104.47531875,118.94364928657359L104.767678125,113.32793005488135L104.8372875,118.10814507982947L105.229884375,121.8722203373909L105.34404375,129.13391325961462L105.513890625,132.88693736899984L105.82574062500001,129.972827041691L105.93433125,124.15198420936412L106.093040625,126.5648965537548L106.8197625,122.77875256809322L107.067571875,119.92679146203129L107.089846875,118.68215260180561L107.2429875,116.30629721012983L107.52142500000001,122.01248288154602L108.019828125,123.99315122853628L108.186890625,123.45072903416373L108.264853125,123.81181792779404L108.51544687500001,126.43921222199096L108.54885937499999,121.41986895691267L108.944240625,124.49312636798079L109.31456250000001,133.33139061927795L109.45656562500001,122.7078899876638L109.793475,133.1238501044837L109.957753125,116.98930084705353L110.16658125000001,116.60384619777854L110.319721875,125.50274670124054L110.364271875,117.3487448963252L110.461725,110.28093980117279L110.47843125,122.3846205256202L110.776359375,133.0114012550224L110.907225,129.34426391666585L110.954559375,120.89465049180119L111.02695312499999,124.06422960487279L111.305390625,126.73654541373253L111.375,116.57909680496564L111.53092500000001,131.86557294292882L111.5643375,125.58438708836383L111.600534375,121.03044366294688L112.09058437499999,122.85341795195235L112.10172187500001,121.07434374364941L112.21309687499999,132.57366884838453L112.30498125,121.66546388105914L113.3352,119.01904837651688L113.861446875,133.8229113546285L113.936625,131.77949435331604L114.048,131.88955266367307L114.070275,126.68565114790744L114.178865625,109.37339332970707L114.84154687499999,130.1236803694205L115.03645312500001,137.50538938424805L115.209084375,135.06886896761984L115.303753125,128.61657614057714L115.46803125000001,122.97434038736604L115.852275,127.26532451131128L115.91353125,119.49140163985166L115.99984687499999,130.35635151646355L116.111221875,137.4017042463476L116.133496875,128.25179713693532L116.673665625,127.05861121416092L116.718215625,120.79425264488569L116.81566875,129.730627306483L116.87970937499999,116.74589745023034L116.985515625,119.94497106833893L117.42823125,111.42834582112052L117.65376562499999,127.03560017726637L118.35821250000001,138.55764139782298L118.53084375,133.50715159015223L118.661709375,123.79836425185204L119.023678125,104.80678748000754L119.2046625,108.91170997511259L119.240859375,136.04518719694832L119.24364374999999,119.25049668008631L119.45804062500001,136.48844877427274L119.636240625,123.10682948340072L119.76432187500001,131.9371116838672L120.50775,137.39008004015142L120.866934375,131.88732037490064L120.917053125,127.5472043183717L120.95881874999999,119.70626243136145L121.68275625000001,121.63321677934042L121.70503124999999,115.89334536682478L121.9667625,129.00805629112503L122.1226875,123.38244401595809L122.13660937499999,128.8894692469727L122.142178125,132.18623846769333L122.19786562499999,120.91027891094035L122.57375625,118.23758426037702L122.76309375000001,130.26262176307768L122.8132125,130.38994854146785L123.06380625,127.4281353300268L123.29769375,113.00287428227338L123.807234375,124.92542551322418L123.8378625,129.98033194379374L123.90468750000001,133.4934293681925L124.24995000000001,132.27100549773738L124.95718125,137.8311836584048L125.04628124999999,138.76722478053787L125.10753749999999,129.7750956497409L125.1520875,123.28198143027045L125.15765625,124.29825307293373L125.163225,137.7901824360544L125.20777500000001,136.15438232367688L125.427740625,128.53370571678334L125.61707812499999,133.7756208804521L125.689471875,123.22156576947734L125.90386875,132.37685578790578L126.34936875000001,126.57861398024994L126.591609375,115.32074771144174L126.62780625,125.87301890958442L126.83385,116.34696754542264L126.9118125,119.87268903038718L127.06773749999999,133.59312228181145L127.259859375,138.82595723325556L127.426921875,135.92738421125847L127.733203125,131.71435276215726L127.84179375,121.58627637407996L127.93924687500001,118.90876228159125L128.106309375,134.41285420547834L128.601928125,127.38007518378171L129.47900625,138.15578625960782L129.743521875,121.97805624116553L129.78807187499999,136.62850031798536L129.84097500000001,135.87349517778918L129.994115625,130.85403921929273L130.01639062499999,129.0910537947308L130.550990625,132.86461927674034L130.556559375,135.7681100476872L130.5649125,122.57055747238073L130.59832500000002,138.13389975916255L130.63730625,120.79375151883474L130.857271875,141.4123622937636L131.04939375,120.81107273697853L131.08837499999998,126.1586919291453L131.19139687499998,121.05719276449896L131.375165625,139.1346029259942L132.255028125,115.02037419514224L132.466640625,137.15373077175835L132.6699,122.02582386406986L132.745078125,128.05034206672147L132.95390625,131.3136389445175L133.1042625,112.63460178266874L133.118184375,131.87932873314077L133.47736874999998,130.53949750282547L134.142834375,131.00715840404683L134.72755312500001,130.82892297343776L134.7303375,119.47897179560229L134.788809375,129.8863264511932L135.00877499999999,136.51535852388903L135.095090625,131.18225999853829L135.22038750000002,125.81099676814947L135.89420625,140.45927089723676L135.988875,130.25254169648343L136.103034375,122.89091368967837L136.153153125,134.55310476097196L136.50676875,124.07479161565955L137.09984062499998,138.37264915758914L137.6929125,125.46796759421176L137.76530625,129.52125732194295L137.97135,140.09208217263222L138.074371875,130.8561708033085L138.11056875,135.00649915500122L138.41963437500002,129.5320255377076L138.6952875,129.25145729021594L139.305065625,143.77644481984052L139.52781562500002,122.87913123315032L139.70601562500002,125.87677855383268L139.878646875,136.46740148013288L139.91484375,124.5534988695925L140.01508124999998,142.52351340245116L140.129240625,140.9004788168452L140.14594687500002,129.49128566817805L140.379834375,130.10670682246035L140.674978125,130.20626546307042L140.72509687500002,123.67586171085185L140.87266874999997,126.93876536055046L140.93949375,135.0080480900678L141.42954375,131.64454518394038L141.45181875,133.02211192521185L141.58546875,129.62477461858228L141.6801375,123.15925829789855L141.78594375,133.1984747268937L141.844415625,130.9779468314214L142.1256375,125.97701095721938L142.200815625,134.72074221480977L142.20916875,145.8833393860947L142.22030625,138.23038690469483L142.7382,130.89637597853488L142.81616250000002,130.6087631935423L143.04726562500002,126.26426408236678L143.32291874999999,136.42308179627767L143.49833437499998,140.27796636928213L143.51225625,136.99947745962575L143.58186562499998,138.69585627859288L143.70437812499998,135.62903438102117L143.82689062499998,132.96822768720716L144.155446875,137.39474123174494L144.545259375,139.7969309172847L144.701184375,134.86446948214012L144.823696875,140.23230635307053L144.9322875,140.73936679146507L145.11884062500002,139.76323318752378L145.146684375,130.22677086971024L145.1550375,125.97111493349075L145.987565625,128.5430640659549L146.07388125,128.40682491660118L146.27992500000002,129.18414814905688L147.170925,133.83555939251727L147.20990625,127.68606898459522L147.296221875,134.98681856827304L147.438225,135.8057112856345L147.958903125,129.5775344967842L148.21785,137.46310537511653L148.22620312499998,125.25838421149689L148.398834375,128.71373465115374L149.117203125,142.69022533162072L149.2759125,132.88936627182096L149.73811875,122.49103428287941L150.024909375,128.50895152850583L150.860221875,139.71063892949712L151.06905,141.17978465828028L151.1470125,138.5604851083322L151.33078125,128.68758018721235L151.3697625,136.45425711165777L151.50898124999998,135.06368986584923L151.6482,119.40383166074753L151.67325937500001,134.90452360023153L151.70667187499998,133.69434734637088L151.81247812499998,128.26244546608493L152.09648437500002,134.48427305980164L152.338725,135.34472087567502L152.374921875,140.50092909823763L152.39162812499998,131.7970841174776L152.47794375,125.38558630780742L153.07658437499998,136.2179486047138L153.182390625,126.22985662384468L153.26870624999998,132.85578363321045L154.21539375,137.92141991582784L154.3323375,135.2831087464636L154.619128125,129.65525219386274L154.7332875,130.1466338607398L155.25118125,138.68309794501826L155.82476250000002,135.5325304513628L155.85817500000002,132.27221395481718L155.93056875,131.95854501290754L156.690703125,132.15366047891706L157.15569375,121.13979943773963L157.297696875,129.77615544741803L157.331109375,132.1709145605564L157.626253125,139.86761366779155L157.938103125,145.53079601038587L158.361328125,152.77986367317763L158.40587812500002,155.23283553055742L158.461565625,155.82123963670298L158.745571875,157.43246599015865L158.75949375000002,153.8333798911084L158.801259375,150.1913402161815L158.840240625,155.97022752870214L158.887575,154.0062150291421L158.8987125,154.3277665159919L158.9432625,152.5102824345231L159.02400937500002,152.72046465088022L159.154875,156.07737079601395L159.207778125,151.10696344890377L159.55860937499997,153.30121040005577L159.681121875,158.10635195029053L159.9901875,155.4508901014924L160.232428125,152.9713154042309L160.4134125,157.8661771000109L160.45239375,156.50976615026593L160.87561875,158.1652132811194L161.49374999999998,158.25608014213768L162.02278124999998,157.17581512237138L162.047840625,155.16236018389463L162.18427499999999,155.78764081339943L162.56851875,157.76906594464725L162.916565625,157.5501439940523L163.2646125,157.89864299480212L163.434459375,157.72581175308335L163.49293125,158.69666585021398L163.8437625,157.07019741223618L164.53985625,158.40069067410448L164.57326875,159.19954329475084L164.74033125,157.78358421373096L164.84056875,158.69681840593165L165.027121875,156.73158426176417L165.15520312499999,157.88751362060958L165.28606875,159.76525511253965L165.6257625,157.9755634458905L165.748275,158.27881663868374L166.2049125,159.2388338849626L166.235540625,158.62484028054908L166.374759375,157.94773326678708L166.65598125,157.72798020223325L166.68660937500002,157.48789796436375L166.95669375,157.76741870255634L166.99567499999998,158.09085750444368L167.03465624999998,159.0602816539732L167.09312812500002,155.63692175867882L167.5414125,159.46593480015343L167.79200625000001,159.37628433870321L167.961853125,158.06954436173493L168.290409375,159.53428485684773L168.47139375,157.2116929902272L168.730340625,156.16507984359157L168.74426250000002,158.61285686408254L168.8445,159.859908292578L169.00599375,159.09578277814117L169.159134375,157.48163928362456L169.18419375000002,158.63582144491374L169.1897625,157.2961932725527L169.3456875,159.0104127184234L169.5684375,159.6880937642841L170.11139062499998,158.99945208464158L171.152746875,159.0482378446243L171.520284375,158.34060709923506L172.06880625,159.80326126752928L172.439128125,158.86965084651655L172.455834375,159.33035937307233L172.494815625,159.3294336985458L172.5532875,158.94228355281732L172.67023125,159.9345433301377L173.27165624999998,160.11839117770168L173.366325,158.52102596482092L173.61413437500002,159.23699497414583L173.64754687500002,155.53785105659202L173.745,159.62700456550175L174.13481249999998,159.80360354381529L174.15708750000002,159.3639205819504L174.41881874999999,159.52355995012277L174.48842812499998,159.83948276039553L175.326525,159.6368710840629L175.59939375,160.2674100903625L175.630021875,159.0171509456228L175.646728125,159.0129420262846L176.125640625,158.9024506255307L177.153075,159.48069524019957L177.673753125,159.9634826852178L178.152665625,158.3706419931894L178.31694375,159.54087936996737L178.6120875,159.63487961752847L178.94064375,159.1713648450307L179.478028125,156.61646673625165L179.839996875,159.76481722667813L179.85113437500002,159.56402662802827L179.88733125,160.13823698317125L180.335615625,159.7681820693172L181.16814375,158.9295923557471L181.20712500000002,158.91803648492152L181.32128437499998,157.44088592685083L181.39924687500002,158.95168296315452L181.42430625,159.33267423375085L181.71388125,159.10863177596846L182.009025,159.437499193644L182.3765625,159.19121477160263L182.61045,159.88453277852386L182.618803125,160.1095775633373L182.677275,159.5718934378502L182.73853125,159.20891857790676L182.98634062500003,158.3953419327736L183.409565625,159.7971295167438L183.72141562500002,159.3657557463104L183.8021625,159.8113464208489L183.916321875,157.93050945651802L184.13907187499998,159.76789052005518L184.239309375,159.44324086335573L184.356253125,158.6583223642612L184.534453125,159.69471262937242L184.5817875,158.27025823295116L184.65975,158.80714721046388L185.09968125,158.98866483687678L185.11081875,159.90619546564466L185.12752500000002,160.17225076402113L185.89044375,159.72771576605737L185.973975,159.57173174077815L185.97954375,160.08888123726302L186.366571875,159.66413592284715L186.44174999999998,159.41190205260435L186.73967812499998,158.96968393840572L187.39400625,158.71554034931415L187.703071875,157.73561128499833L187.8116625,159.5962645883926L188.18476875000002,159.70261338209227L188.2126125,160.0620186180723L188.73050625,160.20929250612178L188.761134375,159.78873700411484L189.056278125,159.3667349202389L189.18435937499999,159.9176423895088L189.245615625,159.8454559611326L189.279028125,160.0921871106733L189.813628125,158.43459266068584L190.36214999999999,159.46421247906983L190.44568125,158.2036836970259L190.46795625000001,159.81277329635552L190.5849,158.2333211668513L191.052675,160.0543561399999L191.16404999999997,159.6491988748312L191.372878125,159.03266472318634L191.473115625,159.08736538903958L191.74876875,159.1921071775935L192.28336875,158.3979553111236L192.882009375,160.51486636660147L193.071346875,160.39977124490014L193.47508125000002,159.1878473064439L193.66441875,160.0513539543714L193.6699875,160.2074338889427L194.05423125000002,159.69733365049416L194.625028125,159.8601686713201L194.831071875,159.61666944013402L194.91181874999998,159.26669418557802L194.948015625,158.75078386711803L195.25708125,158.39457016268915L195.4074375,158.59235415489158L195.68865937500001,159.98934417624366L196.10909999999998,159.72326407632366L197.57646562500003,159.25223241306165L198.18902812500002,159.4195287894796L198.3031875,159.83044226061213L198.768178125,159.93426144673404L198.7932375,159.77991949343547L198.80159062500002,159.52976363287732L199.116225,158.93284712748772L199.408584375,159.6623179172589L199.531096875,159.4863192711703L199.71208125,159.3050400692631L199.759415625,157.13247850875962L199.94318437500002,159.47008497505024L200.210484375,159.50911526144907L200.216053125,160.02187391065738L200.31350625,159.8888062118468L200.39146875,159.4417051158168L200.449940625,160.03860805903307L200.45272500000002,157.512264019725L200.622571875,158.49756385453722L200.70331875,159.8763807134872L201.41890312499999,159.90002759901637L201.435609375,159.84540253665975L201.552553125,159.95748490772465L201.833775,159.9317562660541L202.03146562499998,158.71031194417313L202.037034375,158.96733356131747L202.40735625000002,160.37005506201902L202.760971875,159.83032162470573L202.8027375,160.0247126009146L203.17305937499998,160.17512781799516L203.45985000000002,160.28510756515473L203.679815625,160.04155734469268L203.71044375000002,159.8158209639686L203.77448437500001,159.2891997505318L203.952684375,159.7829789998518L204.84368437499998,160.0980872555043L204.99404062500003,159.67815808613193L205.175025,160.00920699062672L205.69291875,159.6709166348658L205.78201875000002,160.37169870751148L205.957434375,158.3198073709553L206.2999125,160.2948283090849L206.402934375,159.22825044444338L207.4359375,158.60265556214884L207.711590625,160.3249936921268L207.79790624999998,160.2642463575202L208.535765625,160.32331070883876L208.630434375,160.1917514458976L208.686121875,159.5983392262662L209.73583125000002,159.38328137113288L209.866696875,160.2431752359156L209.99199374999998,159.77117743639445L210.06995625000002,160.3406103099273L210.078309375,160.42183248008686L210.384590625,160.23580363274297L210.73542187500001,160.10220168920404L210.841228125,160.508359183388L210.92754374999998,159.9925025891174L210.96095625,159.32197615165603L211.114096875,159.69369861339644L211.17256874999998,159.9501874843951L211.219903125,160.50847963197157L211.42873125,160.22500214844266L211.492771875,160.23196104194292L211.57908749999999,159.8808985656466L211.90207500000002,160.29959919693118L211.92991875,160.3360501977361L212.200003125,160.23097887084904L212.255690625,160.16292238650337L212.29467187499998,160.21020431875843L212.428321875,160.36250996043566L213.03253125,160.15863194426692L213.37779375,159.73698127803138L213.43069687500002,159.99876906248656L213.46410937500002,159.74280439571223L213.508659375,160.1388875179162L213.51422812500002,160.38245013915002L213.55599375,159.74985140587458L213.6729375,160.10967040053484L213.68129062499997,159.87629109824246L213.787096875,159.05450401827693L214.650253125,160.4912029217336L214.9092,160.30700541736388L215.05955624999999,159.32904616506264L215.18206874999998,159.94561066300693L215.47442812499997,160.3216959485276L215.53289999999998,160.0182555827566L215.822475,160.26515314990485L215.85588750000002,160.2516803670336L216.721828125,160.39932391796768L216.794221875,160.41948959591207L216.81649687499998,159.12470092827624L216.90002812499998,160.3859656268138L217.167328125,159.60803655484185L217.37615624999998,160.34128688254648L217.707496875,160.27356349566782L218.04997500000002,158.1485703215003L218.208684375,160.4285508136011L218.40359062500002,160.4757277326743L218.453709375,159.96696524152702L218.8184625,160.10637823915616L218.9075625,160.21981203208932L218.9187,160.33464040607214L219.032859375,159.94300043168053L219.483928125,159.97841928365895L219.51455625,159.68507104807279L220.152178125,160.3830991753123L220.1661,159.3271724871275L220.619953125,160.43975586621937L220.903959375,160.07716824004257L221.15733749999998,160.42459260714665L221.24922187500002,159.39964679323813L221.28263437500001,160.1499543262815L221.44134375000002,160.337303574832L221.75040937499998,158.62558912231842L221.84786250000002,160.07651305969128L222.15414375,160.3759381230074L222.257165625,160.22788219958204L222.903140625,160.4359524633566L223.2957375,158.52310524830088L223.69111875,160.42805197288874L223.6966875,160.36590181502768L223.755159375,159.92234531663019L224.389996875,160.3324885911901L224.40391875,159.32653693820941L224.52643125,160.4123085000637L224.56262812499997,160.446172834755L224.81600625000002,160.39184636499903L225.18911250000002,160.56880226824433L225.400725,159.76920709987596L225.420215625,159.32097150182182L225.57335625,159.86048771957442L225.76269374999998,160.3519351742315L225.979875,160.22463132415643L226.11074062499998,160.4219870963557L226.158075,160.23795484819195L226.249959375,159.80007917704907L226.528396875,160.3905121393671L227.46951562499999,160.03541922493076L227.653284375,159.9466067709198L227.675559375,160.21073256915605L227.798071875,159.84824317507446L227.85654375,159.81619073924693L228.08486249999999,160.19340678033504L228.1071375,160.29637915484437L228.605540625,159.91742561952296L228.655659375,160.04222788551652L229.12621875,160.2584122252566L229.81952812499998,160.08974636904895L229.852940625,160.51606069953942L229.95039375000002,159.50521594929424L230.047846875,160.31485360729593L230.120240625,160.08217335636303L231.066928125,159.73376846660605L231.25905,159.77818915493447L231.451171875,160.34372747431254L231.673921875,160.11831909587437L231.779728125,159.8963439329104L232.36723124999997,160.4249599472281L232.47582187499998,159.6985878892751L232.67908125,160.23915671150792L233.015990625,160.58408050607383L233.439215625,160.5331163313663L233.57008125000002,160.33742394848642L233.6313375,160.40898531802338L233.6536125,160.09079387834802L233.673103125,160.49014436038718L233.731575,159.30164083415136L233.984953125,160.1204205583781L233.99052187499998,159.49292891997504L234.08240625,160.2410163776949L234.24946875,160.22214000536636L234.307940625,160.52326026541942L234.42488437499998,159.91179439535534L234.742303125,160.14185208911923L235.037446875,159.96726450848985L235.232353125,160.22739973088557L235.544203125,160.52724173737013L235.88946562499999,160.06360883909193L235.99527187500001,160.11667994612998L236.2152375,160.07859983608466L236.27649375000001,159.95273912113836L236.68858125,160.03439756618306L236.94474375,160.18148637927052L236.94752812500002,160.38435146593574L236.98094062500002,159.93629749610344L236.983725,160.31494370958006L237.08117812499998,160.4639644205401L237.186984375,160.49419682769275L237.24545625000002,160.1726467644965L237.70209375000002,160.34046622120184L237.905353125,159.5637183695693L237.94155,160.3241198310967L238.05849375,159.39036172476006L238.24783125,160.42031617665833L238.37869687499997,159.79255921419033L238.58195625,160.52659626034173L239.14161562500001,160.25457465470853L239.347659375,160.11478124186397L239.47295625,160.07261097515848L240.066028125,160.27507511602545L240.06881249999998,160.2891037981449L240.311053125,159.858512962237L240.81224062500002,159.44705790332094L240.815025,160.05565893285993L240.9375375,160.35287145123056L241.0934625,160.12451333755797L241.527825,160.4168030117977L241.66704375,160.27102587067267L242.048503125,160.18554506569424L242.06799375,160.19944104831666L242.276821875,159.66126808515665L242.2963125,160.27274309657514L242.332509375,160.48992129635405L242.64714375,160.19393068484285L243.3321,160.22221163761887L243.652303125,160.05382414314556L243.7887375,160.0917630117725L243.79709062499998,160.2827174381607L243.93909374999998,159.88260380288756L244.214746875,159.44644932889125L244.22031562499998,159.9762394452806L244.48761562500002,160.19232480363414L244.604559375,159.55958827568048L244.888565625,160.13215273745698L245.136375,159.80869347991592L245.194846875,160.38683780193836L245.217121875,159.93769454981455L245.27559375,160.25158767969432L245.42873437499998,158.39131913740528L245.54567812500002,160.26355363767254L245.581875,160.12083896266466" style="fill: none;" fill="none"></path></g></g></g></g></g></g><g transform="translate(51, 177)" clip-path="url(#clip_1)"><clipPath id="clip_1"><rect width="278" height="23"></rect></clipPath><g><g><line x1="0" y1="0" x2="0" y2="5" style="visibility: inherit;" fill="rgb(0, 0, 0)" stroke="rgb(204, 204, 204)" stroke-width="1px"></line><line x1="27.84375" y1="0" x2="27.84375" y2="5" style="visibility: inherit;" fill="rgb(0, 0, 0)" stroke="rgb(204, 204, 204)" stroke-width="1px"></line><line x1="55.6875" y1="0" x2="55.6875" y2="5" style="visibility: inherit;" fill="rgb(0, 0, 0)" stroke="rgb(204, 204, 204)" stroke-width="1px"></line><line x1="83.53125" y1="0" x2="83.53125" y2="5" style="visibility: inherit;" fill="rgb(0, 0, 0)" stroke="rgb(204, 204, 204)" stroke-width="1px"></line><line x1="111.375" y1="0" x2="111.375" y2="5" style="visibility: inherit;" fill="rgb(0, 0, 0)" stroke="rgb(204, 204, 204)" stroke-width="1px"></line><line x1="139.21875" y1="0" x2="139.21875" y2="5" style="visibility: inherit;" fill="rgb(0, 0, 0)" stroke="rgb(204, 204, 204)" stroke-width="1px"></line><line x1="167.0625" y1="0" x2="167.0625" y2="5" style="visibility: inherit;" fill="rgb(0, 0, 0)" stroke="rgb(204, 204, 204)" stroke-width="1px"></line><line x1="194.90625" y1="0" x2="194.90625" y2="5" style="visibility: inherit;" fill="rgb(0, 0, 0)" stroke="rgb(204, 204, 204)" stroke-width="1px"></line><line x1="222.75" y1="0" x2="222.75" y2="5" style="visibility: inherit;" fill="rgb(0, 0, 0)" stroke="rgb(204, 204, 204)" stroke-width="1px"></line><line x1="250.59375" y1="0" x2="250.59375" y2="5" style="visibility: inherit;" fill="rgb(0, 0, 0)" stroke="rgb(204, 204, 204)" stroke-width="1px"></line><line x1="278.4375" y1="0" x2="278.4375" y2="5" style="visibility: inherit;" fill="rgb(0, 0, 0)" stroke="rgb(204, 204, 204)" stroke-width="1px"></line></g><g transform="translate(0, 8)"><text x="0" y="0" dx="0em" dy="0.95em" style="text-anchor: middle; visibility: hidden; font-family: Roboto, sans-serif; font-size: 12px; font-weight: 200;" fill="rgb(33, 33, 33)" stroke="none" stroke-width="1px">-10k</text><text x="27.84375" y="0" dx="0em" dy="0.95em" style="text-anchor: middle; visibility: inherit; font-family: Roboto, sans-serif; font-size: 12px; font-weight: 200;" fill="rgb(33, 33, 33)" stroke="none" stroke-width="1px">0</text><text x="55.6875" y="0" dx="0em" dy="0.95em" style="text-anchor: middle; visibility: inherit; font-family: Roboto, sans-serif; font-size: 12px; font-weight: 200;" fill="rgb(33, 33, 33)" stroke="none" stroke-width="1px">10k</text><text x="83.53125" y="0" dx="0em" dy="0.95em" style="text-anchor: middle; visibility: inherit; font-family: Roboto, sans-serif; font-size: 12px; font-weight: 200;" fill="rgb(33, 33, 33)" stroke="none" stroke-width="1px">20k</text><text x="111.375" y="0" dx="0em" dy="0.95em" style="text-anchor: middle; visibility: inherit; font-family: Roboto, sans-serif; font-size: 12px; font-weight: 200;" fill="rgb(33, 33, 33)" stroke="none" stroke-width="1px">30k</text><text x="139.21875" y="0" dx="0em" dy="0.95em" style="text-anchor: middle; visibility: inherit; font-family: Roboto, sans-serif; font-size: 12px; font-weight: 200;" fill="rgb(33, 33, 33)" stroke="none" stroke-width="1px">40k</text><text x="167.0625" y="0" dx="0em" dy="0.95em" style="text-anchor: middle; visibility: inherit; font-family: Roboto, sans-serif; font-size: 12px; font-weight: 200;" fill="rgb(33, 33, 33)" stroke="none" stroke-width="1px">50k</text><text x="194.90625" y="0" dx="0em" dy="0.95em" style="text-anchor: middle; visibility: inherit; font-family: Roboto, sans-serif; font-size: 12px; font-weight: 200;" fill="rgb(33, 33, 33)" stroke="none" stroke-width="1px">60k</text><text x="222.75" y="0" dx="0em" dy="0.95em" style="text-anchor: middle; visibility: inherit; font-family: Roboto, sans-serif; font-size: 12px; font-weight: 200;" fill="rgb(33, 33, 33)" stroke="none" stroke-width="1px">70k</text><text x="250.59375" y="0" dx="0em" dy="0.95em" style="text-anchor: middle; visibility: inherit; font-family: Roboto, sans-serif; font-size: 12px; font-weight: 200;" fill="rgb(33, 33, 33)" stroke="none" stroke-width="1px">80k</text><text x="278.4375" y="0" dx="0em" dy="0.95em" style="text-anchor: middle; visibility: hidden; font-family: Roboto, sans-serif; font-size: 12px; font-weight: 200;" fill="rgb(33, 33, 33)" stroke="none" stroke-width="1px">90k</text></g><line x1="0" y1="0" x2="278.4375" y2="0" fill="rgb(0, 0, 0)" stroke="rgb(204, 204, 204)" stroke-width="1px"></line></g></g></g></g></svg>